%TF.GenerationSoftware,KiCad,Pcbnew,10.0.4*%
%TF.CreationDate,2026-07-22T15:14:50+08:00*%
%TF.ProjectId,RP2040_Zero_Carrier,52503230-3430-45f5-9a65-726f5f436172,rev?*%
%TF.SameCoordinates,Original*%
%TF.FileFunction,Legend,Top*%
%TF.FilePolarity,Positive*%
%FSLAX46Y46*%
G04 Gerber Fmt 4.6, Leading zero omitted, Abs format (unit mm)*
G04 Created by KiCad (PCBNEW 10.0.4) date 2026-07-22 15:14:50*
%MOMM*%
%LPD*%
G01*
G04 APERTURE LIST*
G04 Aperture macros list*
%AMRoundRect*
0 Rectangle with rounded corners*
0 $1 Rounding radius*
0 $2 $3 $4 $5 $6 $7 $8 $9 X,Y pos of 4 corners*
0 Add a 4 corners polygon primitive as box body*
4,1,4,$2,$3,$4,$5,$6,$7,$8,$9,$2,$3,0*
0 Add four circle primitives for the rounded corners*
1,1,$1+$1,$2,$3*
1,1,$1+$1,$4,$5*
1,1,$1+$1,$6,$7*
1,1,$1+$1,$8,$9*
0 Add four rect primitives between the rounded corners*
20,1,$1+$1,$2,$3,$4,$5,0*
20,1,$1+$1,$4,$5,$6,$7,0*
20,1,$1+$1,$6,$7,$8,$9,0*
20,1,$1+$1,$8,$9,$2,$3,0*%
G04 Aperture macros list end*
%ADD10C,0.180000*%
%ADD11C,2.200000*%
%ADD12RoundRect,0.425000X-0.775000X-0.425000X0.775000X-0.425000X0.775000X0.425000X-0.775000X0.425000X0*%
%ADD13RoundRect,0.425000X-0.425000X-0.775000X0.425000X-0.775000X0.425000X0.775000X-0.425000X0.775000X0*%
G04 APERTURE END LIST*
D10*
X12936904Y-27583867D02*
X12653570Y-27179105D01*
X12451189Y-27583867D02*
X12451189Y-26733867D01*
X12451189Y-26733867D02*
X12774999Y-26733867D01*
X12774999Y-26733867D02*
X12855951Y-26774343D01*
X12855951Y-26774343D02*
X12896428Y-26814819D01*
X12896428Y-26814819D02*
X12936904Y-26895771D01*
X12936904Y-26895771D02*
X12936904Y-27017200D01*
X12936904Y-27017200D02*
X12896428Y-27098152D01*
X12896428Y-27098152D02*
X12855951Y-27138629D01*
X12855951Y-27138629D02*
X12774999Y-27179105D01*
X12774999Y-27179105D02*
X12451189Y-27179105D01*
X13301189Y-27583867D02*
X13301189Y-26733867D01*
X13301189Y-26733867D02*
X13624999Y-26733867D01*
X13624999Y-26733867D02*
X13705951Y-26774343D01*
X13705951Y-26774343D02*
X13746428Y-26814819D01*
X13746428Y-26814819D02*
X13786904Y-26895771D01*
X13786904Y-26895771D02*
X13786904Y-27017200D01*
X13786904Y-27017200D02*
X13746428Y-27098152D01*
X13746428Y-27098152D02*
X13705951Y-27138629D01*
X13705951Y-27138629D02*
X13624999Y-27179105D01*
X13624999Y-27179105D02*
X13301189Y-27179105D01*
X14110713Y-26814819D02*
X14151189Y-26774343D01*
X14151189Y-26774343D02*
X14232142Y-26733867D01*
X14232142Y-26733867D02*
X14434523Y-26733867D01*
X14434523Y-26733867D02*
X14515475Y-26774343D01*
X14515475Y-26774343D02*
X14555951Y-26814819D01*
X14555951Y-26814819D02*
X14596428Y-26895771D01*
X14596428Y-26895771D02*
X14596428Y-26976724D01*
X14596428Y-26976724D02*
X14555951Y-27098152D01*
X14555951Y-27098152D02*
X14070237Y-27583867D01*
X14070237Y-27583867D02*
X14596428Y-27583867D01*
X15122618Y-26733867D02*
X15203571Y-26733867D01*
X15203571Y-26733867D02*
X15284523Y-26774343D01*
X15284523Y-26774343D02*
X15324999Y-26814819D01*
X15324999Y-26814819D02*
X15365475Y-26895771D01*
X15365475Y-26895771D02*
X15405952Y-27057676D01*
X15405952Y-27057676D02*
X15405952Y-27260057D01*
X15405952Y-27260057D02*
X15365475Y-27421962D01*
X15365475Y-27421962D02*
X15324999Y-27502914D01*
X15324999Y-27502914D02*
X15284523Y-27543391D01*
X15284523Y-27543391D02*
X15203571Y-27583867D01*
X15203571Y-27583867D02*
X15122618Y-27583867D01*
X15122618Y-27583867D02*
X15041666Y-27543391D01*
X15041666Y-27543391D02*
X15001190Y-27502914D01*
X15001190Y-27502914D02*
X14960713Y-27421962D01*
X14960713Y-27421962D02*
X14920237Y-27260057D01*
X14920237Y-27260057D02*
X14920237Y-27057676D01*
X14920237Y-27057676D02*
X14960713Y-26895771D01*
X14960713Y-26895771D02*
X15001190Y-26814819D01*
X15001190Y-26814819D02*
X15041666Y-26774343D01*
X15041666Y-26774343D02*
X15122618Y-26733867D01*
X16134523Y-27017200D02*
X16134523Y-27583867D01*
X15932142Y-26693391D02*
X15729761Y-27300533D01*
X15729761Y-27300533D02*
X16255952Y-27300533D01*
X16741666Y-26733867D02*
X16822619Y-26733867D01*
X16822619Y-26733867D02*
X16903571Y-26774343D01*
X16903571Y-26774343D02*
X16944047Y-26814819D01*
X16944047Y-26814819D02*
X16984523Y-26895771D01*
X16984523Y-26895771D02*
X17025000Y-27057676D01*
X17025000Y-27057676D02*
X17025000Y-27260057D01*
X17025000Y-27260057D02*
X16984523Y-27421962D01*
X16984523Y-27421962D02*
X16944047Y-27502914D01*
X16944047Y-27502914D02*
X16903571Y-27543391D01*
X16903571Y-27543391D02*
X16822619Y-27583867D01*
X16822619Y-27583867D02*
X16741666Y-27583867D01*
X16741666Y-27583867D02*
X16660714Y-27543391D01*
X16660714Y-27543391D02*
X16620238Y-27502914D01*
X16620238Y-27502914D02*
X16579761Y-27421962D01*
X16579761Y-27421962D02*
X16539285Y-27260057D01*
X16539285Y-27260057D02*
X16539285Y-27057676D01*
X16539285Y-27057676D02*
X16579761Y-26895771D01*
X16579761Y-26895771D02*
X16620238Y-26814819D01*
X16620238Y-26814819D02*
X16660714Y-26774343D01*
X16660714Y-26774343D02*
X16741666Y-26733867D01*
X17389285Y-27260057D02*
X18036905Y-27260057D01*
X18360714Y-26733867D02*
X18927381Y-26733867D01*
X18927381Y-26733867D02*
X18360714Y-27583867D01*
X18360714Y-27583867D02*
X18927381Y-27583867D01*
X19251190Y-27138629D02*
X19534524Y-27138629D01*
X19655952Y-27583867D02*
X19251190Y-27583867D01*
X19251190Y-27583867D02*
X19251190Y-26733867D01*
X19251190Y-26733867D02*
X19655952Y-26733867D01*
X20505953Y-27583867D02*
X20222619Y-27179105D01*
X20020238Y-27583867D02*
X20020238Y-26733867D01*
X20020238Y-26733867D02*
X20344048Y-26733867D01*
X20344048Y-26733867D02*
X20425000Y-26774343D01*
X20425000Y-26774343D02*
X20465477Y-26814819D01*
X20465477Y-26814819D02*
X20505953Y-26895771D01*
X20505953Y-26895771D02*
X20505953Y-27017200D01*
X20505953Y-27017200D02*
X20465477Y-27098152D01*
X20465477Y-27098152D02*
X20425000Y-27138629D01*
X20425000Y-27138629D02*
X20344048Y-27179105D01*
X20344048Y-27179105D02*
X20020238Y-27179105D01*
X21032143Y-26733867D02*
X21194048Y-26733867D01*
X21194048Y-26733867D02*
X21275000Y-26774343D01*
X21275000Y-26774343D02*
X21355953Y-26855295D01*
X21355953Y-26855295D02*
X21396429Y-27017200D01*
X21396429Y-27017200D02*
X21396429Y-27300533D01*
X21396429Y-27300533D02*
X21355953Y-27462438D01*
X21355953Y-27462438D02*
X21275000Y-27543391D01*
X21275000Y-27543391D02*
X21194048Y-27583867D01*
X21194048Y-27583867D02*
X21032143Y-27583867D01*
X21032143Y-27583867D02*
X20951191Y-27543391D01*
X20951191Y-27543391D02*
X20870238Y-27462438D01*
X20870238Y-27462438D02*
X20829762Y-27300533D01*
X20829762Y-27300533D02*
X20829762Y-27017200D01*
X20829762Y-27017200D02*
X20870238Y-26855295D01*
X20870238Y-26855295D02*
X20951191Y-26774343D01*
X20951191Y-26774343D02*
X21032143Y-26733867D01*
X22651191Y-27179105D02*
X22651191Y-27341010D01*
X22691667Y-27341010D02*
X22691667Y-27179105D01*
X22732143Y-27138629D02*
X22732143Y-27381486D01*
X22772619Y-27341010D02*
X22772619Y-27179105D01*
X22813095Y-27179105D02*
X22813095Y-27341010D01*
X22651191Y-27300533D02*
X22732143Y-27381486D01*
X22732143Y-27381486D02*
X22813095Y-27300533D01*
X22651191Y-27219581D02*
X22732143Y-27138629D01*
X22732143Y-27138629D02*
X22813095Y-27219581D01*
X22651191Y-27179105D02*
X22732143Y-27138629D01*
X22732143Y-27138629D02*
X22813095Y-27179105D01*
X22813095Y-27179105D02*
X22853572Y-27260057D01*
X22853572Y-27260057D02*
X22813095Y-27341010D01*
X22813095Y-27341010D02*
X22732143Y-27381486D01*
X22732143Y-27381486D02*
X22651191Y-27341010D01*
X22651191Y-27341010D02*
X22610714Y-27260057D01*
X22610714Y-27260057D02*
X22651191Y-27179105D01*
X24594048Y-27583867D02*
X24310714Y-27179105D01*
X24108333Y-27583867D02*
X24108333Y-26733867D01*
X24108333Y-26733867D02*
X24432143Y-26733867D01*
X24432143Y-26733867D02*
X24513095Y-26774343D01*
X24513095Y-26774343D02*
X24553572Y-26814819D01*
X24553572Y-26814819D02*
X24594048Y-26895771D01*
X24594048Y-26895771D02*
X24594048Y-27017200D01*
X24594048Y-27017200D02*
X24553572Y-27098152D01*
X24553572Y-27098152D02*
X24513095Y-27138629D01*
X24513095Y-27138629D02*
X24432143Y-27179105D01*
X24432143Y-27179105D02*
X24108333Y-27179105D01*
X24958333Y-27138629D02*
X25241667Y-27138629D01*
X25363095Y-27583867D02*
X24958333Y-27583867D01*
X24958333Y-27583867D02*
X24958333Y-26733867D01*
X24958333Y-26733867D02*
X25363095Y-26733867D01*
X25605953Y-26733867D02*
X25889286Y-27583867D01*
X25889286Y-27583867D02*
X26172620Y-26733867D01*
X27386905Y-27138629D02*
X27508333Y-27179105D01*
X27508333Y-27179105D02*
X27548810Y-27219581D01*
X27548810Y-27219581D02*
X27589286Y-27300533D01*
X27589286Y-27300533D02*
X27589286Y-27421962D01*
X27589286Y-27421962D02*
X27548810Y-27502914D01*
X27548810Y-27502914D02*
X27508333Y-27543391D01*
X27508333Y-27543391D02*
X27427381Y-27583867D01*
X27427381Y-27583867D02*
X27103571Y-27583867D01*
X27103571Y-27583867D02*
X27103571Y-26733867D01*
X27103571Y-26733867D02*
X27386905Y-26733867D01*
X27386905Y-26733867D02*
X27467857Y-26774343D01*
X27467857Y-26774343D02*
X27508333Y-26814819D01*
X27508333Y-26814819D02*
X27548810Y-26895771D01*
X27548810Y-26895771D02*
X27548810Y-26976724D01*
X27548810Y-26976724D02*
X27508333Y-27057676D01*
X27508333Y-27057676D02*
X27467857Y-27098152D01*
X27467857Y-27098152D02*
X27386905Y-27138629D01*
X27386905Y-27138629D02*
X27103571Y-27138629D01*
%LPC*%
D11*
%TO.C,H3*%
X3000000Y-33000000D03*
%TD*%
%TO.C,H2*%
X37000000Y-3000000D03*
%TD*%
%TO.C,H1*%
X3000000Y-3000000D03*
%TD*%
D12*
%TO.C,U1*%
X11000000Y-8170000D03*
X11000000Y-3090000D03*
X11000000Y-5630000D03*
X29000000Y-3090000D03*
X29000000Y-5630000D03*
X29000000Y-8170000D03*
X29000000Y-10710000D03*
X29000000Y-13250000D03*
X29000000Y-15790000D03*
X29000000Y-18330000D03*
X29000000Y-20870000D03*
X29000000Y-23410000D03*
D13*
X25080000Y-25000000D03*
X22540000Y-25000000D03*
X20000000Y-25000000D03*
X17460000Y-25000000D03*
X14920000Y-25000000D03*
D12*
X11000000Y-23410000D03*
X11000000Y-20870000D03*
X11000000Y-18330000D03*
X11000000Y-15790000D03*
X11000000Y-13250000D03*
X11000000Y-10710000D03*
%TD*%
D11*
%TO.C,H4*%
X37000000Y-33000000D03*
%TD*%
%LPD*%
M02*
