%TF.GenerationSoftware,KiCad,Pcbnew,10.0.4*%
%TF.CreationDate,2026-07-22T23:15:20+08:00*%
%TF.ProjectId,RP2040_Zero_Carrier,52503230-3430-45f5-9a65-726f5f436172,rev?*%
%TF.SameCoordinates,Original*%
%TF.FileFunction,Copper,L2,Bot*%
%TF.FilePolarity,Positive*%
%FSLAX46Y46*%
G04 Gerber Fmt 4.6, Leading zero omitted, Abs format (unit mm)*
G04 Created by KiCad (PCBNEW 10.0.4) date 2026-07-22 23:15:20*
%MOMM*%
%LPD*%
G01*
G04 APERTURE LIST*
G04 Aperture macros list*
%AMRoundRect*
0 Rectangle with rounded corners*
0 $1 Rounding radius*
0 $2 $3 $4 $5 $6 $7 $8 $9 X,Y pos of 4 corners*
0 Add a 4 corners polygon primitive as box body*
4,1,4,$2,$3,$4,$5,$6,$7,$8,$9,$2,$3,0*
0 Add four circle primitives for the rounded corners*
1,1,$1+$1,$2,$3*
1,1,$1+$1,$4,$5*
1,1,$1+$1,$6,$7*
1,1,$1+$1,$8,$9*
0 Add four rect primitives between the rounded corners*
20,1,$1+$1,$2,$3,$4,$5,0*
20,1,$1+$1,$4,$5,$6,$7,0*
20,1,$1+$1,$6,$7,$8,$9,0*
20,1,$1+$1,$8,$9,$2,$3,0*%
G04 Aperture macros list end*
%TA.AperFunction,SMDPad,CuDef*%
%ADD10R,2.400000X3.200000*%
%TD*%
%TA.AperFunction,SMDPad,CuDef*%
%ADD11RoundRect,0.090000X-0.210000X-1.210000X0.210000X-1.210000X0.210000X1.210000X-0.210000X1.210000X0*%
%TD*%
%TA.AperFunction,ViaPad*%
%ADD12C,0.600000*%
%TD*%
%TA.AperFunction,Conductor*%
%ADD13C,0.200000*%
%TD*%
G04 APERTURE END LIST*
D10*
%TO.P,J1,*%
%TO.N,*%
X8700000Y-30700000D03*
X31300000Y-30700000D03*
D11*
%TO.P,J1,1*%
%TO.N,COL0*%
X10500000Y-30000000D03*
%TO.P,J1,2*%
%TO.N,COL1*%
X11500000Y-30000000D03*
%TO.P,J1,3*%
%TO.N,COL2*%
X12500000Y-30000000D03*
%TO.P,J1,4*%
%TO.N,COL3*%
X13500000Y-30000000D03*
%TO.P,J1,5*%
%TO.N,COL4*%
X14500000Y-30000000D03*
%TO.P,J1,6*%
%TO.N,COL5*%
X15500000Y-30000000D03*
%TO.P,J1,7*%
%TO.N,COL6*%
X16500000Y-30000000D03*
%TO.P,J1,8*%
%TO.N,COL7*%
X17500000Y-30000000D03*
%TO.P,J1,9*%
%TO.N,COL8*%
X18500000Y-30000000D03*
%TO.P,J1,10*%
%TO.N,COL9*%
X19500000Y-30000000D03*
%TO.P,J1,11*%
%TO.N,COL10*%
X20500000Y-30000000D03*
%TO.P,J1,12*%
%TO.N,COL11*%
X21500000Y-30000000D03*
%TO.P,J1,13*%
%TO.N,COL12*%
X22500000Y-30000000D03*
%TO.P,J1,14*%
%TO.N,COL13*%
X23500000Y-30000000D03*
%TO.P,J1,15*%
%TO.N,ROW0*%
X24500000Y-30000000D03*
%TO.P,J1,16*%
%TO.N,ROW1*%
X25500000Y-30000000D03*
%TO.P,J1,17*%
%TO.N,ROW2*%
X26500000Y-30000000D03*
%TO.P,J1,18*%
%TO.N,ROW3*%
X27500000Y-30000000D03*
%TO.P,J1,19*%
%TO.N,ROW4*%
X28500000Y-30000000D03*
%TO.P,J1,20*%
%TO.N,GND*%
X29500000Y-30000000D03*
%TD*%
D12*
%TO.N,COL0*%
X10500000Y-25523500D03*
%TO.N,COL1*%
X11500000Y-26316400D03*
%TO.N,COL2*%
X12500000Y-26926500D03*
%TO.N,COL3*%
X13500000Y-28292000D03*
%TO.N,COL4*%
X14500000Y-28909600D03*
%TO.N,COL5*%
X15500000Y-29511300D03*
%TO.N,COL6*%
X16500000Y-30113000D03*
%TO.N,COL7*%
X17758800Y-18330000D03*
%TO.N,COL8*%
X18500000Y-15173100D03*
%TO.N,COL9*%
X19500000Y-14447700D03*
%TO.N,COL10*%
X20500000Y-10710000D03*
%TO.N,COL11*%
X21500000Y-8170000D03*
%TO.N,COL12*%
X22500000Y-6860600D03*
%TO.N,COL13*%
X23500000Y-4075900D03*
%TO.N,ROW0*%
X24500000Y-12117400D03*
%TO.N,ROW1*%
X25500000Y-13250000D03*
%TO.N,ROW2*%
X26500000Y-15874800D03*
%TO.N,ROW3*%
X27500000Y-22140000D03*
%TO.N,ROW4*%
X27112900Y-20870000D03*
%TO.N,GND*%
X24187400Y-5630000D03*
%TD*%
%TO.N,COL0*%
D13*
X10500000Y-30000000D02*
X10500000Y-25523500D01*
%TO.N,COL1*%
X11500000Y-30000000D02*
X11500000Y-26316400D01*
%TO.N,COL2*%
X12500000Y-30000000D02*
X12500000Y-26926500D01*
%TO.N,COL3*%
X13500000Y-30000000D02*
X13500000Y-28292000D01*
%TO.N,COL4*%
X14500000Y-30000000D02*
X14500000Y-28909600D01*
%TO.N,COL5*%
X15500000Y-30000000D02*
X15500000Y-29511300D01*
%TO.N,COL6*%
X16500000Y-30000000D02*
X16500000Y-30113000D01*
%TO.N,COL7*%
X17758800Y-32541200D02*
X17758800Y-18330000D01*
X17500000Y-30000000D02*
X17758800Y-32541200D01*
%TO.N,COL8*%
X18500000Y-30000000D02*
X18500000Y-15173100D01*
%TO.N,COL9*%
X19500000Y-30000000D02*
X19500000Y-14447700D01*
%TO.N,COL10*%
X20500000Y-30000000D02*
X20500000Y-10710000D01*
%TO.N,COL11*%
X21500000Y-30000000D02*
X21500000Y-8170000D01*
%TO.N,COL12*%
X22500000Y-30000000D02*
X22500000Y-6860600D01*
%TO.N,COL13*%
X23500000Y-30000000D02*
X23500000Y-4075900D01*
%TO.N,ROW0*%
X24500000Y-30000000D02*
X24500000Y-12117400D01*
%TO.N,ROW1*%
X25500000Y-30000000D02*
X25500000Y-13250000D01*
%TO.N,ROW2*%
X26500000Y-30000000D02*
X26500000Y-15874800D01*
%TO.N,ROW3*%
X27500000Y-30000000D02*
X27500000Y-22140000D01*
%TO.N,ROW4*%
X28500000Y-30000000D02*
X28500000Y-22257100D01*
X28500000Y-22257100D02*
X27112900Y-20870000D01*
%TO.N,GND*%
X29500000Y-30000000D02*
X29500000Y-10942600D01*
X29500000Y-10942600D02*
X24187400Y-5630000D01*
%TD*%
M02*
