%TF.GenerationSoftware,KiCad,Pcbnew,10.0.4*%
%TF.CreationDate,2026-07-22T21:05:52+08:00*%
%TF.ProjectId,Minilite64,4d696e69-6c69-4746-9536-342e6b696361,rev?*%
%TF.SameCoordinates,Original*%
%TF.FileFunction,Legend,Bot*%
%TF.FilePolarity,Positive*%
%FSLAX46Y46*%
G04 Gerber Fmt 4.6, Leading zero omitted, Abs format (unit mm)*
G04 Created by KiCad (PCBNEW 10.0.4) date 2026-07-22 21:05:52*
%MOMM*%
%LPD*%
G01*
G04 APERTURE LIST*
%ADD10C,0.180000*%
G04 APERTURE END LIST*
D10*
X154732142Y-94553259D02*
X154732142Y-93553259D01*
X154732142Y-93553259D02*
X154398809Y-94267544D01*
X154398809Y-94267544D02*
X154065476Y-93553259D01*
X154065476Y-93553259D02*
X154065476Y-94553259D01*
X153589285Y-94553259D02*
X153589285Y-93553259D01*
X153113095Y-94553259D02*
X153113095Y-93553259D01*
X153113095Y-93553259D02*
X152541667Y-94553259D01*
X152541667Y-94553259D02*
X152541667Y-93553259D01*
X152065476Y-94553259D02*
X152065476Y-93553259D01*
X151113096Y-94553259D02*
X151589286Y-94553259D01*
X151589286Y-94553259D02*
X151589286Y-93553259D01*
X150779762Y-94553259D02*
X150779762Y-93553259D01*
X150446429Y-93553259D02*
X149875001Y-93553259D01*
X150160715Y-94553259D02*
X150160715Y-93553259D01*
X149541667Y-94029449D02*
X149208334Y-94029449D01*
X149065477Y-94553259D02*
X149541667Y-94553259D01*
X149541667Y-94553259D02*
X149541667Y-93553259D01*
X149541667Y-93553259D02*
X149065477Y-93553259D01*
X148208334Y-93553259D02*
X148398810Y-93553259D01*
X148398810Y-93553259D02*
X148494048Y-93600878D01*
X148494048Y-93600878D02*
X148541667Y-93648497D01*
X148541667Y-93648497D02*
X148636905Y-93791354D01*
X148636905Y-93791354D02*
X148684524Y-93981830D01*
X148684524Y-93981830D02*
X148684524Y-94362782D01*
X148684524Y-94362782D02*
X148636905Y-94458020D01*
X148636905Y-94458020D02*
X148589286Y-94505640D01*
X148589286Y-94505640D02*
X148494048Y-94553259D01*
X148494048Y-94553259D02*
X148303572Y-94553259D01*
X148303572Y-94553259D02*
X148208334Y-94505640D01*
X148208334Y-94505640D02*
X148160715Y-94458020D01*
X148160715Y-94458020D02*
X148113096Y-94362782D01*
X148113096Y-94362782D02*
X148113096Y-94124687D01*
X148113096Y-94124687D02*
X148160715Y-94029449D01*
X148160715Y-94029449D02*
X148208334Y-93981830D01*
X148208334Y-93981830D02*
X148303572Y-93934211D01*
X148303572Y-93934211D02*
X148494048Y-93934211D01*
X148494048Y-93934211D02*
X148589286Y-93981830D01*
X148589286Y-93981830D02*
X148636905Y-94029449D01*
X148636905Y-94029449D02*
X148684524Y-94124687D01*
X147255953Y-93886592D02*
X147255953Y-94553259D01*
X147494048Y-93505640D02*
X147732143Y-94219925D01*
X147732143Y-94219925D02*
X147113096Y-94219925D01*
X145684524Y-94077068D02*
X145684524Y-94267544D01*
X145636905Y-94267544D02*
X145636905Y-94077068D01*
X145589286Y-94029449D02*
X145589286Y-94315163D01*
X145541667Y-94267544D02*
X145541667Y-94077068D01*
X145494048Y-94077068D02*
X145494048Y-94267544D01*
X145684524Y-94219925D02*
X145589286Y-94315163D01*
X145589286Y-94315163D02*
X145494048Y-94219925D01*
X145684524Y-94124687D02*
X145589286Y-94029449D01*
X145589286Y-94029449D02*
X145494048Y-94124687D01*
X145684524Y-94077068D02*
X145589286Y-94029449D01*
X145589286Y-94029449D02*
X145494048Y-94077068D01*
X145494048Y-94077068D02*
X145446429Y-94172306D01*
X145446429Y-94172306D02*
X145494048Y-94267544D01*
X145494048Y-94267544D02*
X145589286Y-94315163D01*
X145589286Y-94315163D02*
X145684524Y-94267544D01*
X145684524Y-94267544D02*
X145732143Y-94172306D01*
X145732143Y-94172306D02*
X145684524Y-94077068D01*
X143398810Y-94553259D02*
X143732143Y-94077068D01*
X143970238Y-94553259D02*
X143970238Y-93553259D01*
X143970238Y-93553259D02*
X143589286Y-93553259D01*
X143589286Y-93553259D02*
X143494048Y-93600878D01*
X143494048Y-93600878D02*
X143446429Y-93648497D01*
X143446429Y-93648497D02*
X143398810Y-93743735D01*
X143398810Y-93743735D02*
X143398810Y-93886592D01*
X143398810Y-93886592D02*
X143446429Y-93981830D01*
X143446429Y-93981830D02*
X143494048Y-94029449D01*
X143494048Y-94029449D02*
X143589286Y-94077068D01*
X143589286Y-94077068D02*
X143970238Y-94077068D01*
X142970238Y-94029449D02*
X142636905Y-94029449D01*
X142494048Y-94553259D02*
X142970238Y-94553259D01*
X142970238Y-94553259D02*
X142970238Y-93553259D01*
X142970238Y-93553259D02*
X142494048Y-93553259D01*
X142208333Y-93553259D02*
X141875000Y-94553259D01*
X141875000Y-94553259D02*
X141541667Y-93553259D01*
X140113095Y-94029449D02*
X139970238Y-94077068D01*
X139970238Y-94077068D02*
X139922619Y-94124687D01*
X139922619Y-94124687D02*
X139875000Y-94219925D01*
X139875000Y-94219925D02*
X139875000Y-94362782D01*
X139875000Y-94362782D02*
X139922619Y-94458020D01*
X139922619Y-94458020D02*
X139970238Y-94505640D01*
X139970238Y-94505640D02*
X140065476Y-94553259D01*
X140065476Y-94553259D02*
X140446428Y-94553259D01*
X140446428Y-94553259D02*
X140446428Y-93553259D01*
X140446428Y-93553259D02*
X140113095Y-93553259D01*
X140113095Y-93553259D02*
X140017857Y-93600878D01*
X140017857Y-93600878D02*
X139970238Y-93648497D01*
X139970238Y-93648497D02*
X139922619Y-93743735D01*
X139922619Y-93743735D02*
X139922619Y-93838973D01*
X139922619Y-93838973D02*
X139970238Y-93934211D01*
X139970238Y-93934211D02*
X140017857Y-93981830D01*
X140017857Y-93981830D02*
X140113095Y-94029449D01*
X140113095Y-94029449D02*
X140446428Y-94029449D01*
X138398809Y-94077068D02*
X138398809Y-94267544D01*
X138351190Y-94267544D02*
X138351190Y-94077068D01*
X138303571Y-94029449D02*
X138303571Y-94315163D01*
X138255952Y-94267544D02*
X138255952Y-94077068D01*
X138208333Y-94077068D02*
X138208333Y-94267544D01*
X138398809Y-94219925D02*
X138303571Y-94315163D01*
X138303571Y-94315163D02*
X138208333Y-94219925D01*
X138398809Y-94124687D02*
X138303571Y-94029449D01*
X138303571Y-94029449D02*
X138208333Y-94124687D01*
X138398809Y-94077068D02*
X138303571Y-94029449D01*
X138303571Y-94029449D02*
X138208333Y-94077068D01*
X138208333Y-94077068D02*
X138160714Y-94172306D01*
X138160714Y-94172306D02*
X138208333Y-94267544D01*
X138208333Y-94267544D02*
X138303571Y-94315163D01*
X138303571Y-94315163D02*
X138398809Y-94267544D01*
X138398809Y-94267544D02*
X138446428Y-94172306D01*
X138446428Y-94172306D02*
X138398809Y-94077068D01*
X136732142Y-93648497D02*
X136684523Y-93600878D01*
X136684523Y-93600878D02*
X136589285Y-93553259D01*
X136589285Y-93553259D02*
X136351190Y-93553259D01*
X136351190Y-93553259D02*
X136255952Y-93600878D01*
X136255952Y-93600878D02*
X136208333Y-93648497D01*
X136208333Y-93648497D02*
X136160714Y-93743735D01*
X136160714Y-93743735D02*
X136160714Y-93838973D01*
X136160714Y-93838973D02*
X136208333Y-93981830D01*
X136208333Y-93981830D02*
X136779761Y-94553259D01*
X136779761Y-94553259D02*
X136160714Y-94553259D01*
X134494047Y-94553259D02*
X134970237Y-94553259D01*
X134970237Y-94553259D02*
X134970237Y-93553259D01*
X134208332Y-94267544D02*
X133732142Y-94267544D01*
X134303570Y-94553259D02*
X133970237Y-93553259D01*
X133970237Y-93553259D02*
X133636904Y-94553259D01*
X133113094Y-94077068D02*
X133113094Y-94553259D01*
X133446427Y-93553259D02*
X133113094Y-94077068D01*
X133113094Y-94077068D02*
X132779761Y-93553259D01*
X132446427Y-94029449D02*
X132113094Y-94029449D01*
X131970237Y-94553259D02*
X132446427Y-94553259D01*
X132446427Y-94553259D02*
X132446427Y-93553259D01*
X132446427Y-93553259D02*
X131970237Y-93553259D01*
X130970237Y-94553259D02*
X131303570Y-94077068D01*
X131541665Y-94553259D02*
X131541665Y-93553259D01*
X131541665Y-93553259D02*
X131160713Y-93553259D01*
X131160713Y-93553259D02*
X131065475Y-93600878D01*
X131065475Y-93600878D02*
X131017856Y-93648497D01*
X131017856Y-93648497D02*
X130970237Y-93743735D01*
X130970237Y-93743735D02*
X130970237Y-93886592D01*
X130970237Y-93886592D02*
X131017856Y-93981830D01*
X131017856Y-93981830D02*
X131065475Y-94029449D01*
X131065475Y-94029449D02*
X131160713Y-94077068D01*
X131160713Y-94077068D02*
X131541665Y-94077068D01*
X142234500Y-84959100D02*
X142234500Y-84441300D01*
X142234500Y-84441300D02*
X142237700Y-84410600D01*
X142237700Y-84410600D02*
X142247400Y-84384000D01*
X142247400Y-84384000D02*
X142264400Y-84361600D01*
X142264400Y-84361600D02*
X142289000Y-84343200D01*
X142289000Y-84343200D02*
X143330200Y-83743600D01*
X143330200Y-83743600D02*
X143441200Y-83690300D01*
X143441200Y-83690300D02*
X143560500Y-83653000D01*
X143560500Y-83653000D02*
X143685800Y-83630900D01*
X143685800Y-83630900D02*
X143815300Y-83623700D01*
X143815300Y-83623700D02*
X144258200Y-83711300D01*
X144258200Y-83711300D02*
X144594800Y-83944600D01*
X144594800Y-83944600D02*
X144808700Y-84279100D01*
X144808700Y-84279100D02*
X144883700Y-84670200D01*
X144883700Y-84670200D02*
X144883600Y-84699800D01*
X144883600Y-84699800D02*
X144883000Y-84730900D01*
X144883000Y-84730900D02*
X144881400Y-84763000D01*
X144881400Y-84763000D02*
X144878200Y-84795600D01*
X144878200Y-84795600D02*
X143798900Y-84163300D01*
X143798900Y-84163300D02*
X143749900Y-84141800D01*
X143749900Y-84141800D02*
X143700800Y-84134700D01*
X143700800Y-84134700D02*
X143651700Y-84141800D01*
X143651700Y-84141800D02*
X143602700Y-84163300D01*
X143602700Y-84163300D02*
X142234500Y-84959100D01*
X142234500Y-84959100D02*
X142234500Y-84959100D01*
X144665600Y-86976000D02*
X144665600Y-85738600D01*
X144665600Y-85738600D02*
X144659500Y-85685400D01*
X144659500Y-85685400D02*
X144641100Y-85639800D01*
X144641100Y-85639800D02*
X144610400Y-85601400D01*
X144610400Y-85601400D02*
X144567500Y-85569600D01*
X144567500Y-85569600D02*
X143199300Y-84773800D01*
X143199300Y-84773800D02*
X143646300Y-84517600D01*
X143646300Y-84517600D02*
X143674000Y-84505300D01*
X143674000Y-84505300D02*
X143700800Y-84501200D01*
X143700800Y-84501200D02*
X143727500Y-84505300D01*
X143727500Y-84505300D02*
X143755300Y-84517600D01*
X143755300Y-84517600D02*
X144796400Y-85117200D01*
X144796400Y-85117200D02*
X145001300Y-85281600D01*
X145001300Y-85281600D02*
X145159600Y-85500100D01*
X145159600Y-85500100D02*
X145261700Y-85753400D01*
X145261700Y-85753400D02*
X145297900Y-86022000D01*
X145297900Y-86022000D02*
X145253600Y-86323600D01*
X145253600Y-86323600D02*
X145126900Y-86595000D01*
X145126900Y-86595000D02*
X144927700Y-86818400D01*
X144927700Y-86818400D02*
X144665600Y-86975900D01*
X144665600Y-86975900D02*
X144665600Y-86976000D01*
X144665600Y-86976000D02*
X144665600Y-86976000D01*
X141912900Y-85885800D02*
X141465900Y-85624200D01*
X141465900Y-85624200D02*
X141441300Y-85605800D01*
X141441300Y-85605800D02*
X141424400Y-85583300D01*
X141424400Y-85583300D02*
X141414600Y-85556700D01*
X141414600Y-85556700D02*
X141411400Y-85526100D01*
X141411400Y-85526100D02*
X141411400Y-84326900D01*
X141411400Y-84326900D02*
X141490700Y-83920700D01*
X141490700Y-83920700D02*
X141710500Y-83595800D01*
X141710500Y-83595800D02*
X142043800Y-83380200D01*
X142043800Y-83380200D02*
X142463500Y-83302100D01*
X142463500Y-83302100D02*
X142631800Y-83316100D01*
X142631800Y-83316100D02*
X142792600Y-83357300D01*
X142792600Y-83357300D02*
X142944100Y-83424000D01*
X142944100Y-83424000D02*
X143084900Y-83514700D01*
X143084900Y-83514700D02*
X142011100Y-84136100D01*
X142011100Y-84136100D02*
X141968100Y-84167900D01*
X141968100Y-84167900D02*
X141937500Y-84206300D01*
X141937500Y-84206300D02*
X141919100Y-84251800D01*
X141919100Y-84251800D02*
X141913000Y-84305100D01*
X141913000Y-84305100D02*
X141913000Y-85885800D01*
X141913000Y-85885800D02*
X141912900Y-85885800D01*
X141912900Y-85885800D02*
X141912900Y-85885800D01*
X142875000Y-86441800D02*
X142234500Y-86082000D01*
X142234500Y-86082000D02*
X142234500Y-85318900D01*
X142234500Y-85318900D02*
X142875000Y-84959200D01*
X142875000Y-84959200D02*
X143515400Y-85318900D01*
X143515400Y-85318900D02*
X143515400Y-86082000D01*
X143515400Y-86082000D02*
X142875000Y-86441800D01*
X142875000Y-86441800D02*
X142875000Y-86441800D01*
X143286500Y-88098900D02*
X143118100Y-88084800D01*
X143118100Y-88084800D02*
X142957400Y-88043700D01*
X142957400Y-88043700D02*
X142805900Y-87977000D01*
X142805900Y-87977000D02*
X142665100Y-87886300D01*
X142665100Y-87886300D02*
X143738900Y-87264900D01*
X143738900Y-87264900D02*
X143781900Y-87233100D01*
X143781900Y-87233100D02*
X143812500Y-87194700D01*
X143812500Y-87194700D02*
X143830900Y-87149100D01*
X143830900Y-87149100D02*
X143837000Y-87095900D01*
X143837000Y-87095900D02*
X143837000Y-85515100D01*
X143837000Y-85515100D02*
X144289500Y-85776700D01*
X144289500Y-85776700D02*
X144314100Y-85795100D01*
X144314100Y-85795100D02*
X144331100Y-85817600D01*
X144331100Y-85817600D02*
X144340900Y-85844200D01*
X144340900Y-85844200D02*
X144344000Y-85874900D01*
X144344000Y-85874900D02*
X144344000Y-87074100D01*
X144344000Y-87074100D02*
X144263900Y-87480200D01*
X144263900Y-87480200D02*
X144042200Y-87805200D01*
X144042200Y-87805200D02*
X143707000Y-88020700D01*
X143707000Y-88020700D02*
X143286500Y-88098800D01*
X143286500Y-88098800D02*
X143286500Y-88098900D01*
X143286500Y-88098900D02*
X143286500Y-88098900D01*
X141994700Y-86883300D02*
X140953500Y-86283700D01*
X140953500Y-86283700D02*
X140748700Y-86119400D01*
X140748700Y-86119400D02*
X140590300Y-85900800D01*
X140590300Y-85900800D02*
X140488200Y-85647500D01*
X140488200Y-85647500D02*
X140452000Y-85378900D01*
X140452000Y-85378900D02*
X140497200Y-85075000D01*
X140497200Y-85075000D02*
X140625800Y-84803800D01*
X140625800Y-84803800D02*
X140826800Y-84581700D01*
X140826800Y-84581700D02*
X141089800Y-84425000D01*
X141089800Y-84425000D02*
X141089800Y-85667800D01*
X141089800Y-85667800D02*
X141095900Y-85721000D01*
X141095900Y-85721000D02*
X141114300Y-85766600D01*
X141114300Y-85766600D02*
X141145000Y-85805000D01*
X141145000Y-85805000D02*
X141187900Y-85836800D01*
X141187900Y-85836800D02*
X142550600Y-86627100D01*
X142550600Y-86627100D02*
X142103700Y-86883300D01*
X142103700Y-86883300D02*
X142075900Y-86895600D01*
X142075900Y-86895600D02*
X142049200Y-86899700D01*
X142049200Y-86899700D02*
X142022400Y-86895600D01*
X142022400Y-86895600D02*
X141994700Y-86883300D01*
X141994700Y-86883300D02*
X141994700Y-86883300D01*
X141934700Y-87777300D02*
X141507900Y-87695900D01*
X141507900Y-87695900D02*
X141169500Y-87474100D01*
X141169500Y-87474100D02*
X140946700Y-87144900D01*
X140946700Y-87144900D02*
X140866300Y-86741600D01*
X140866300Y-86741600D02*
X140867300Y-86708900D01*
X140867300Y-86708900D02*
X140869700Y-86676200D01*
X140869700Y-86676200D02*
X140873200Y-86643500D01*
X140873200Y-86643500D02*
X140877200Y-86610800D01*
X140877200Y-86610800D02*
X141951000Y-87232200D01*
X141951000Y-87232200D02*
X142000100Y-87253600D01*
X142000100Y-87253600D02*
X142049200Y-87260800D01*
X142049200Y-87260800D02*
X142098200Y-87253600D01*
X142098200Y-87253600D02*
X142147300Y-87232200D01*
X142147300Y-87232200D02*
X143515400Y-86441800D01*
X143515400Y-86441800D02*
X143515400Y-86959700D01*
X143515400Y-86959700D02*
X143512300Y-86990300D01*
X143512300Y-86990300D02*
X143502500Y-87016900D01*
X143502500Y-87016900D02*
X143485600Y-87039400D01*
X143485600Y-87039400D02*
X143460900Y-87057800D01*
X143460900Y-87057800D02*
X142419800Y-87657400D01*
X142419800Y-87657400D02*
X142308700Y-87710600D01*
X142308700Y-87710600D02*
X142189500Y-87748000D01*
X142189500Y-87748000D02*
X142064100Y-87770000D01*
X142064100Y-87770000D02*
X141934700Y-87777300D01*
X141934700Y-87777300D02*
X141934700Y-87777300D01*
X141934700Y-87777300D02*
X141934700Y-87777300D01*
X143286500Y-88425900D02*
X143755800Y-88343000D01*
X143755800Y-88343000D02*
X144154600Y-88113900D01*
X144154600Y-88113900D02*
X144453200Y-87768200D01*
X144453200Y-87768200D02*
X144622000Y-87335700D01*
X144622000Y-87335700D02*
X145036300Y-87145800D01*
X145036300Y-87145800D02*
X145352500Y-86838300D01*
X145352500Y-86838300D02*
X145554100Y-86451100D01*
X145554100Y-86451100D02*
X145625000Y-86022100D01*
X145625000Y-86022100D02*
X145594900Y-85739400D01*
X145594900Y-85739400D02*
X145506500Y-85469500D01*
X145506500Y-85469500D02*
X145362900Y-85221000D01*
X145362900Y-85221000D02*
X145167100Y-85002700D01*
X145167100Y-85002700D02*
X145185400Y-84916900D01*
X145185400Y-84916900D02*
X145199200Y-84831000D01*
X145199200Y-84831000D02*
X145207800Y-84745200D01*
X145207800Y-84745200D02*
X145210700Y-84659400D01*
X145210700Y-84659400D02*
X145100500Y-84117600D01*
X145100500Y-84117600D02*
X144803300Y-83685700D01*
X144803300Y-83685700D02*
X144369100Y-83399900D01*
X144369100Y-83399900D02*
X143848000Y-83296600D01*
X143848000Y-83296600D02*
X143738600Y-83300800D01*
X143738600Y-83300800D02*
X143630700Y-83313600D01*
X143630700Y-83313600D02*
X143523800Y-83335700D01*
X143523800Y-83335700D02*
X143417400Y-83367500D01*
X143417400Y-83367500D02*
X143217000Y-83205000D01*
X143217000Y-83205000D02*
X142987400Y-83081300D01*
X142987400Y-83081300D02*
X142734400Y-83002600D01*
X142734400Y-83002600D02*
X142463500Y-82975000D01*
X142463500Y-82975000D02*
X141994200Y-83058000D01*
X141994200Y-83058000D02*
X141595400Y-83287100D01*
X141595400Y-83287100D02*
X141296800Y-83632700D01*
X141296800Y-83632700D02*
X141128000Y-84065200D01*
X141128000Y-84065200D02*
X140713700Y-84255100D01*
X140713700Y-84255100D02*
X140397500Y-84562600D01*
X140397500Y-84562600D02*
X140195900Y-84949800D01*
X140195900Y-84949800D02*
X140125000Y-85378800D01*
X140125000Y-85378800D02*
X140155100Y-85661500D01*
X140155100Y-85661500D02*
X140243500Y-85931400D01*
X140243500Y-85931400D02*
X140387100Y-86179900D01*
X140387100Y-86179900D02*
X140582900Y-86398200D01*
X140582900Y-86398200D02*
X140564600Y-86484000D01*
X140564600Y-86484000D02*
X140550800Y-86569900D01*
X140550800Y-86569900D02*
X140542200Y-86655700D01*
X140542200Y-86655700D02*
X140539300Y-86741600D01*
X140539300Y-86741600D02*
X140649500Y-87283300D01*
X140649500Y-87283300D02*
X140946700Y-87715200D01*
X140946700Y-87715200D02*
X141380900Y-88001000D01*
X141380900Y-88001000D02*
X141902000Y-88104300D01*
X141902000Y-88104300D02*
X142011400Y-88100100D01*
X142011400Y-88100100D02*
X142119300Y-88087300D01*
X142119300Y-88087300D02*
X142226200Y-88065200D01*
X142226200Y-88065200D02*
X142332600Y-88033400D01*
X142332600Y-88033400D02*
X142533000Y-88195900D01*
X142533000Y-88195900D02*
X142762500Y-88319600D01*
X142762500Y-88319600D02*
X143015600Y-88398300D01*
X143015600Y-88398300D02*
X143286500Y-88425900D01*
X143286500Y-88425900D02*
X143286500Y-88425900D01*
X150485712Y-78906997D02*
X150485712Y-78006997D01*
X150485712Y-78006997D02*
X150185712Y-78649854D01*
X150185712Y-78649854D02*
X149885712Y-78006997D01*
X149885712Y-78006997D02*
X149885712Y-78906997D01*
X149457141Y-78906997D02*
X149457141Y-78006997D01*
X149028570Y-78906997D02*
X149028570Y-78006997D01*
X149028570Y-78006997D02*
X148514284Y-78906997D01*
X148514284Y-78906997D02*
X148514284Y-78006997D01*
X148085713Y-78906997D02*
X148085713Y-78006997D01*
X147228570Y-78906997D02*
X147657142Y-78906997D01*
X147657142Y-78906997D02*
X147657142Y-78006997D01*
X146928571Y-78906997D02*
X146928571Y-78006997D01*
X146628571Y-78006997D02*
X146114286Y-78006997D01*
X146371428Y-78906997D02*
X146371428Y-78006997D01*
X145814286Y-78435568D02*
X145514286Y-78435568D01*
X145385714Y-78906997D02*
X145814286Y-78906997D01*
X145814286Y-78906997D02*
X145814286Y-78006997D01*
X145814286Y-78006997D02*
X145385714Y-78006997D01*
X144057143Y-78478425D02*
X144057143Y-78649854D01*
X144014286Y-78649854D02*
X144014286Y-78478425D01*
X143971429Y-78435568D02*
X143971429Y-78692711D01*
X143928572Y-78649854D02*
X143928572Y-78478425D01*
X143885714Y-78478425D02*
X143885714Y-78649854D01*
X144057143Y-78606997D02*
X143971429Y-78692711D01*
X143971429Y-78692711D02*
X143885714Y-78606997D01*
X144057143Y-78521282D02*
X143971429Y-78435568D01*
X143971429Y-78435568D02*
X143885714Y-78521282D01*
X144057143Y-78478425D02*
X143971429Y-78435568D01*
X143971429Y-78435568D02*
X143885714Y-78478425D01*
X143885714Y-78478425D02*
X143842857Y-78564140D01*
X143842857Y-78564140D02*
X143885714Y-78649854D01*
X143885714Y-78649854D02*
X143971429Y-78692711D01*
X143971429Y-78692711D02*
X144057143Y-78649854D01*
X144057143Y-78649854D02*
X144100000Y-78564140D01*
X144100000Y-78564140D02*
X144057143Y-78478425D01*
X142514286Y-78906997D02*
X142514286Y-78006997D01*
X142514286Y-78006997D02*
X142300000Y-78006997D01*
X142300000Y-78006997D02*
X142171429Y-78049854D01*
X142171429Y-78049854D02*
X142085714Y-78135568D01*
X142085714Y-78135568D02*
X142042857Y-78221282D01*
X142042857Y-78221282D02*
X142000000Y-78392711D01*
X142000000Y-78392711D02*
X142000000Y-78521282D01*
X142000000Y-78521282D02*
X142042857Y-78692711D01*
X142042857Y-78692711D02*
X142085714Y-78778425D01*
X142085714Y-78778425D02*
X142171429Y-78864140D01*
X142171429Y-78864140D02*
X142300000Y-78906997D01*
X142300000Y-78906997D02*
X142514286Y-78906997D01*
X141614286Y-78435568D02*
X141314286Y-78435568D01*
X141185714Y-78906997D02*
X141614286Y-78906997D01*
X141614286Y-78906997D02*
X141614286Y-78006997D01*
X141614286Y-78006997D02*
X141185714Y-78006997D01*
X140842857Y-78864140D02*
X140714286Y-78906997D01*
X140714286Y-78906997D02*
X140500000Y-78906997D01*
X140500000Y-78906997D02*
X140414286Y-78864140D01*
X140414286Y-78864140D02*
X140371428Y-78821282D01*
X140371428Y-78821282D02*
X140328571Y-78735568D01*
X140328571Y-78735568D02*
X140328571Y-78649854D01*
X140328571Y-78649854D02*
X140371428Y-78564140D01*
X140371428Y-78564140D02*
X140414286Y-78521282D01*
X140414286Y-78521282D02*
X140500000Y-78478425D01*
X140500000Y-78478425D02*
X140671428Y-78435568D01*
X140671428Y-78435568D02*
X140757143Y-78392711D01*
X140757143Y-78392711D02*
X140800000Y-78349854D01*
X140800000Y-78349854D02*
X140842857Y-78264140D01*
X140842857Y-78264140D02*
X140842857Y-78178425D01*
X140842857Y-78178425D02*
X140800000Y-78092711D01*
X140800000Y-78092711D02*
X140757143Y-78049854D01*
X140757143Y-78049854D02*
X140671428Y-78006997D01*
X140671428Y-78006997D02*
X140457143Y-78006997D01*
X140457143Y-78006997D02*
X140328571Y-78049854D01*
X139942857Y-78906997D02*
X139942857Y-78006997D01*
X139042857Y-78049854D02*
X139128572Y-78006997D01*
X139128572Y-78006997D02*
X139257143Y-78006997D01*
X139257143Y-78006997D02*
X139385714Y-78049854D01*
X139385714Y-78049854D02*
X139471429Y-78135568D01*
X139471429Y-78135568D02*
X139514286Y-78221282D01*
X139514286Y-78221282D02*
X139557143Y-78392711D01*
X139557143Y-78392711D02*
X139557143Y-78521282D01*
X139557143Y-78521282D02*
X139514286Y-78692711D01*
X139514286Y-78692711D02*
X139471429Y-78778425D01*
X139471429Y-78778425D02*
X139385714Y-78864140D01*
X139385714Y-78864140D02*
X139257143Y-78906997D01*
X139257143Y-78906997D02*
X139171429Y-78906997D01*
X139171429Y-78906997D02*
X139042857Y-78864140D01*
X139042857Y-78864140D02*
X139000000Y-78821282D01*
X139000000Y-78821282D02*
X139000000Y-78521282D01*
X139000000Y-78521282D02*
X139171429Y-78521282D01*
X138614286Y-78906997D02*
X138614286Y-78006997D01*
X138614286Y-78006997D02*
X138100000Y-78906997D01*
X138100000Y-78906997D02*
X138100000Y-78006997D01*
X137671429Y-78435568D02*
X137371429Y-78435568D01*
X137242857Y-78906997D02*
X137671429Y-78906997D01*
X137671429Y-78906997D02*
X137671429Y-78006997D01*
X137671429Y-78006997D02*
X137242857Y-78006997D01*
X136857143Y-78906997D02*
X136857143Y-78006997D01*
X136857143Y-78006997D02*
X136642857Y-78006997D01*
X136642857Y-78006997D02*
X136514286Y-78049854D01*
X136514286Y-78049854D02*
X136428571Y-78135568D01*
X136428571Y-78135568D02*
X136385714Y-78221282D01*
X136385714Y-78221282D02*
X136342857Y-78392711D01*
X136342857Y-78392711D02*
X136342857Y-78521282D01*
X136342857Y-78521282D02*
X136385714Y-78692711D01*
X136385714Y-78692711D02*
X136428571Y-78778425D01*
X136428571Y-78778425D02*
X136514286Y-78864140D01*
X136514286Y-78864140D02*
X136642857Y-78906997D01*
X136642857Y-78906997D02*
X136857143Y-78906997D01*
X135357143Y-78006997D02*
X135142857Y-78906997D01*
X135142857Y-78906997D02*
X134971429Y-78264140D01*
X134971429Y-78264140D02*
X134800000Y-78906997D01*
X134800000Y-78906997D02*
X134585715Y-78006997D01*
X134242858Y-78906997D02*
X134242858Y-78006997D01*
X133942858Y-78006997D02*
X133428573Y-78006997D01*
X133685715Y-78906997D02*
X133685715Y-78006997D01*
X133128573Y-78906997D02*
X133128573Y-78006997D01*
X133128573Y-78435568D02*
X132614287Y-78435568D01*
X132614287Y-78906997D02*
X132614287Y-78006997D01*
X130985716Y-78821282D02*
X131028573Y-78864140D01*
X131028573Y-78864140D02*
X131157145Y-78906997D01*
X131157145Y-78906997D02*
X131242859Y-78906997D01*
X131242859Y-78906997D02*
X131371430Y-78864140D01*
X131371430Y-78864140D02*
X131457145Y-78778425D01*
X131457145Y-78778425D02*
X131500002Y-78692711D01*
X131500002Y-78692711D02*
X131542859Y-78521282D01*
X131542859Y-78521282D02*
X131542859Y-78392711D01*
X131542859Y-78392711D02*
X131500002Y-78221282D01*
X131500002Y-78221282D02*
X131457145Y-78135568D01*
X131457145Y-78135568D02*
X131371430Y-78049854D01*
X131371430Y-78049854D02*
X131242859Y-78006997D01*
X131242859Y-78006997D02*
X131157145Y-78006997D01*
X131157145Y-78006997D02*
X131028573Y-78049854D01*
X131028573Y-78049854D02*
X130985716Y-78092711D01*
X130428573Y-78006997D02*
X130257145Y-78006997D01*
X130257145Y-78006997D02*
X130171430Y-78049854D01*
X130171430Y-78049854D02*
X130085716Y-78135568D01*
X130085716Y-78135568D02*
X130042859Y-78306997D01*
X130042859Y-78306997D02*
X130042859Y-78606997D01*
X130042859Y-78606997D02*
X130085716Y-78778425D01*
X130085716Y-78778425D02*
X130171430Y-78864140D01*
X130171430Y-78864140D02*
X130257145Y-78906997D01*
X130257145Y-78906997D02*
X130428573Y-78906997D01*
X130428573Y-78906997D02*
X130514288Y-78864140D01*
X130514288Y-78864140D02*
X130600002Y-78778425D01*
X130600002Y-78778425D02*
X130642859Y-78606997D01*
X130642859Y-78606997D02*
X130642859Y-78306997D01*
X130642859Y-78306997D02*
X130600002Y-78135568D01*
X130600002Y-78135568D02*
X130514288Y-78049854D01*
X130514288Y-78049854D02*
X130428573Y-78006997D01*
X129657145Y-78906997D02*
X129657145Y-78006997D01*
X129657145Y-78006997D02*
X129442859Y-78006997D01*
X129442859Y-78006997D02*
X129314288Y-78049854D01*
X129314288Y-78049854D02*
X129228573Y-78135568D01*
X129228573Y-78135568D02*
X129185716Y-78221282D01*
X129185716Y-78221282D02*
X129142859Y-78392711D01*
X129142859Y-78392711D02*
X129142859Y-78521282D01*
X129142859Y-78521282D02*
X129185716Y-78692711D01*
X129185716Y-78692711D02*
X129228573Y-78778425D01*
X129228573Y-78778425D02*
X129314288Y-78864140D01*
X129314288Y-78864140D02*
X129442859Y-78906997D01*
X129442859Y-78906997D02*
X129657145Y-78906997D01*
X128757145Y-78435568D02*
X128457145Y-78435568D01*
X128328573Y-78906997D02*
X128757145Y-78906997D01*
X128757145Y-78906997D02*
X128757145Y-78006997D01*
X128757145Y-78006997D02*
X128328573Y-78006997D01*
X128028573Y-78006997D02*
X127428573Y-78906997D01*
X127428573Y-78006997D02*
X128028573Y-78906997D01*
M02*
