%TF.GenerationSoftware,KiCad,Pcbnew,10.0.4*%
%TF.CreationDate,2026-07-22T15:14:50+08:00*%
%TF.ProjectId,Minilite64,4d696e69-6c69-4746-9536-342e6b696361,rev?*%
%TF.SameCoordinates,Original*%
%TF.FileFunction,Soldermask,Top*%
%TF.FilePolarity,Negative*%
%FSLAX46Y46*%
G04 Gerber Fmt 4.6, Leading zero omitted, Abs format (unit mm)*
G04 Created by KiCad (PCBNEW 10.0.4) date 2026-07-22 15:14:50*
%MOMM*%
%LPD*%
G01*
G04 APERTURE LIST*
%ADD10C,4.100000*%
%ADD11C,1.900000*%
%ADD12C,3.000000*%
%ADD13C,2.700000*%
G04 APERTURE END LIST*
D10*
%TO.C,SW1*%
X9525000Y-9525000D03*
D11*
X14605000Y-9525000D03*
X4445000Y-9525000D03*
D12*
X12065000Y-14605000D03*
X5715000Y-12065000D03*
%TD*%
D10*
%TO.C,SW2*%
X28575000Y-9525000D03*
D11*
X33655000Y-9525000D03*
X23495000Y-9525000D03*
D12*
X31115000Y-14605000D03*
X24765000Y-12065000D03*
%TD*%
D10*
%TO.C,SW3*%
X47625000Y-9525000D03*
D11*
X52705000Y-9525000D03*
X42545000Y-9525000D03*
D12*
X50165000Y-14605000D03*
X43815000Y-12065000D03*
%TD*%
D10*
%TO.C,SW4*%
X66675000Y-9525000D03*
D11*
X71755000Y-9525000D03*
X61595000Y-9525000D03*
D12*
X69215000Y-14605000D03*
X62865000Y-12065000D03*
%TD*%
D10*
%TO.C,SW5*%
X85725000Y-9525000D03*
D11*
X90805000Y-9525000D03*
X80645000Y-9525000D03*
D12*
X88265000Y-14605000D03*
X81915000Y-12065000D03*
%TD*%
D10*
%TO.C,SW6*%
X104775000Y-9525000D03*
D11*
X109855000Y-9525000D03*
X99695000Y-9525000D03*
D12*
X107315000Y-14605000D03*
X100965000Y-12065000D03*
%TD*%
D10*
%TO.C,SW7*%
X123825000Y-9525000D03*
D11*
X128905000Y-9525000D03*
X118745000Y-9525000D03*
D12*
X126365000Y-14605000D03*
X120015000Y-12065000D03*
%TD*%
D10*
%TO.C,SW8*%
X142875000Y-9525000D03*
D11*
X147955000Y-9525000D03*
X137795000Y-9525000D03*
D12*
X145415000Y-14605000D03*
X139065000Y-12065000D03*
%TD*%
D10*
%TO.C,SW9*%
X161925000Y-9525000D03*
D11*
X167005000Y-9525000D03*
X156845000Y-9525000D03*
D12*
X164465000Y-14605000D03*
X158115000Y-12065000D03*
%TD*%
D10*
%TO.C,SW10*%
X180975000Y-9525000D03*
D11*
X186055000Y-9525000D03*
X175895000Y-9525000D03*
D12*
X183515000Y-14605000D03*
X177165000Y-12065000D03*
%TD*%
D10*
%TO.C,SW11*%
X200025000Y-9525000D03*
D11*
X205105000Y-9525000D03*
X194945000Y-9525000D03*
D12*
X202565000Y-14605000D03*
X196215000Y-12065000D03*
%TD*%
D10*
%TO.C,SW12*%
X219075000Y-9525000D03*
D11*
X224155000Y-9525000D03*
X213995000Y-9525000D03*
D12*
X221615000Y-14605000D03*
X215265000Y-12065000D03*
%TD*%
D10*
%TO.C,SW13*%
X238125000Y-9525000D03*
D11*
X243205000Y-9525000D03*
X233045000Y-9525000D03*
D12*
X240665000Y-14605000D03*
X234315000Y-12065000D03*
%TD*%
D10*
%TO.C,SW14*%
X266700000Y-9525000D03*
D11*
X271780000Y-9525000D03*
X261620000Y-9525000D03*
D12*
X269240000Y-14605000D03*
X262890000Y-12065000D03*
%TD*%
D10*
%TO.C,SW15*%
X14287500Y-28575000D03*
D11*
X9207500Y-28575000D03*
X19367500Y-28575000D03*
D12*
X11747500Y-23495000D03*
X18097500Y-26035000D03*
%TD*%
D10*
%TO.C,SW16*%
X38100000Y-28575000D03*
D11*
X33020000Y-28575000D03*
X43180000Y-28575000D03*
D12*
X35560000Y-23495000D03*
X41910000Y-26035000D03*
%TD*%
D10*
%TO.C,SW17*%
X57150000Y-28575000D03*
D11*
X52070000Y-28575000D03*
X62230000Y-28575000D03*
D12*
X54610000Y-23495000D03*
X60960000Y-26035000D03*
%TD*%
D10*
%TO.C,SW18*%
X76200000Y-28575000D03*
D11*
X71120000Y-28575000D03*
X81280000Y-28575000D03*
D12*
X73660000Y-23495000D03*
X80010000Y-26035000D03*
%TD*%
D10*
%TO.C,SW19*%
X95250000Y-28575000D03*
D11*
X90170000Y-28575000D03*
X100330000Y-28575000D03*
D12*
X92710000Y-23495000D03*
X99060000Y-26035000D03*
%TD*%
D10*
%TO.C,SW20*%
X114300000Y-28575000D03*
D11*
X109220000Y-28575000D03*
X119380000Y-28575000D03*
D12*
X111760000Y-23495000D03*
X118110000Y-26035000D03*
%TD*%
D10*
%TO.C,SW21*%
X133350000Y-28575000D03*
D11*
X128270000Y-28575000D03*
X138430000Y-28575000D03*
D12*
X130810000Y-23495000D03*
X137160000Y-26035000D03*
%TD*%
D10*
%TO.C,SW22*%
X152400000Y-28575000D03*
D11*
X147320000Y-28575000D03*
X157480000Y-28575000D03*
D12*
X149860000Y-23495000D03*
X156210000Y-26035000D03*
%TD*%
D10*
%TO.C,SW23*%
X171450000Y-28575000D03*
D11*
X166370000Y-28575000D03*
X176530000Y-28575000D03*
D12*
X168910000Y-23495000D03*
X175260000Y-26035000D03*
%TD*%
D10*
%TO.C,SW24*%
X190500000Y-28575000D03*
D11*
X185420000Y-28575000D03*
X195580000Y-28575000D03*
D12*
X187960000Y-23495000D03*
X194310000Y-26035000D03*
%TD*%
D10*
%TO.C,SW25*%
X209550000Y-28575000D03*
D11*
X204470000Y-28575000D03*
X214630000Y-28575000D03*
D12*
X207010000Y-23495000D03*
X213360000Y-26035000D03*
%TD*%
D10*
%TO.C,SW26*%
X228600000Y-28575000D03*
D11*
X223520000Y-28575000D03*
X233680000Y-28575000D03*
D12*
X226060000Y-23495000D03*
X232410000Y-26035000D03*
%TD*%
D10*
%TO.C,SW27*%
X247650000Y-28575000D03*
D11*
X242570000Y-28575000D03*
X252730000Y-28575000D03*
D12*
X245110000Y-23495000D03*
X251460000Y-26035000D03*
%TD*%
D10*
%TO.C,SW28*%
X271462500Y-28575000D03*
D11*
X266382500Y-28575000D03*
X276542500Y-28575000D03*
D12*
X268922500Y-23495000D03*
X275272500Y-26035000D03*
%TD*%
D10*
%TO.C,SW29*%
X16668700Y-47625000D03*
D11*
X11588700Y-47625000D03*
X21748700Y-47625000D03*
D12*
X14128700Y-42545000D03*
X20478700Y-45085000D03*
%TD*%
D10*
%TO.C,SW30*%
X42862500Y-47625000D03*
D11*
X37782500Y-47625000D03*
X47942500Y-47625000D03*
D12*
X40322500Y-42545000D03*
X46672500Y-45085000D03*
%TD*%
D10*
%TO.C,SW31*%
X61912500Y-47625000D03*
D11*
X56832500Y-47625000D03*
X66992500Y-47625000D03*
D12*
X59372500Y-42545000D03*
X65722500Y-45085000D03*
%TD*%
D10*
%TO.C,SW32*%
X80962500Y-47625000D03*
D11*
X75882500Y-47625000D03*
X86042500Y-47625000D03*
D12*
X78422500Y-42545000D03*
X84772500Y-45085000D03*
%TD*%
D10*
%TO.C,SW33*%
X100012500Y-47625000D03*
D11*
X94932500Y-47625000D03*
X105092500Y-47625000D03*
D12*
X97472500Y-42545000D03*
X103822500Y-45085000D03*
%TD*%
D10*
%TO.C,SW34*%
X119062500Y-47625000D03*
D11*
X113982500Y-47625000D03*
X124142500Y-47625000D03*
D12*
X116522500Y-42545000D03*
X122872500Y-45085000D03*
%TD*%
D10*
%TO.C,SW35*%
X138112500Y-47625000D03*
D11*
X133032500Y-47625000D03*
X143192500Y-47625000D03*
D12*
X135572500Y-42545000D03*
X141922500Y-45085000D03*
%TD*%
D10*
%TO.C,SW36*%
X157162500Y-47625000D03*
D11*
X152082500Y-47625000D03*
X162242500Y-47625000D03*
D12*
X154622500Y-42545000D03*
X160972500Y-45085000D03*
%TD*%
D10*
%TO.C,SW37*%
X176212500Y-47625000D03*
D11*
X171132500Y-47625000D03*
X181292500Y-47625000D03*
D12*
X173672500Y-42545000D03*
X180022500Y-45085000D03*
%TD*%
D10*
%TO.C,SW38*%
X195262500Y-47625000D03*
D11*
X190182500Y-47625000D03*
X200342500Y-47625000D03*
D12*
X192722500Y-42545000D03*
X199072500Y-45085000D03*
%TD*%
D10*
%TO.C,SW39*%
X214312500Y-47625000D03*
D11*
X209232500Y-47625000D03*
X219392500Y-47625000D03*
D12*
X211772500Y-42545000D03*
X218122500Y-45085000D03*
%TD*%
D10*
%TO.C,SW40*%
X233362500Y-47625000D03*
D11*
X228282500Y-47625000D03*
X238442500Y-47625000D03*
D12*
X230822500Y-42545000D03*
X237172500Y-45085000D03*
%TD*%
D10*
%TO.C,SW41*%
X264318800Y-47625000D03*
D11*
X259238800Y-47625000D03*
X269398800Y-47625000D03*
D12*
X261778800Y-42545000D03*
X268128800Y-45085000D03*
%TD*%
D10*
%TO.C,SW42*%
X21431300Y-66675000D03*
D11*
X16351300Y-66675000D03*
X26511300Y-66675000D03*
D12*
X18891300Y-61595000D03*
X25241300Y-64135000D03*
%TD*%
D10*
%TO.C,SW43*%
X52387500Y-66675000D03*
D11*
X47307500Y-66675000D03*
X57467500Y-66675000D03*
D12*
X49847500Y-61595000D03*
X56197500Y-64135000D03*
%TD*%
D10*
%TO.C,SW44*%
X71437500Y-66675000D03*
D11*
X66357500Y-66675000D03*
X76517500Y-66675000D03*
D12*
X68897500Y-61595000D03*
X75247500Y-64135000D03*
%TD*%
D10*
%TO.C,SW45*%
X90487500Y-66675000D03*
D11*
X85407500Y-66675000D03*
X95567500Y-66675000D03*
D12*
X87947500Y-61595000D03*
X94297500Y-64135000D03*
%TD*%
D10*
%TO.C,SW46*%
X109537500Y-66675000D03*
D11*
X104457500Y-66675000D03*
X114617500Y-66675000D03*
D12*
X106997500Y-61595000D03*
X113347500Y-64135000D03*
%TD*%
D10*
%TO.C,SW47*%
X128587500Y-66675000D03*
D11*
X123507500Y-66675000D03*
X133667500Y-66675000D03*
D12*
X126047500Y-61595000D03*
X132397500Y-64135000D03*
%TD*%
D10*
%TO.C,SW48*%
X147637500Y-66675000D03*
D11*
X142557500Y-66675000D03*
X152717500Y-66675000D03*
D12*
X145097500Y-61595000D03*
X151447500Y-64135000D03*
%TD*%
D10*
%TO.C,SW49*%
X166687500Y-66675000D03*
D11*
X161607500Y-66675000D03*
X171767500Y-66675000D03*
D12*
X164147500Y-61595000D03*
X170497500Y-64135000D03*
%TD*%
D10*
%TO.C,SW50*%
X185737500Y-66675000D03*
D11*
X180657500Y-66675000D03*
X190817500Y-66675000D03*
D12*
X183197500Y-61595000D03*
X189547500Y-64135000D03*
%TD*%
D10*
%TO.C,SW51*%
X204787500Y-66675000D03*
D11*
X199707500Y-66675000D03*
X209867500Y-66675000D03*
D12*
X202247500Y-61595000D03*
X208597500Y-64135000D03*
%TD*%
D10*
%TO.C,SW52*%
X223837500Y-66675000D03*
D11*
X218757500Y-66675000D03*
X228917500Y-66675000D03*
D12*
X221297500Y-61595000D03*
X227647500Y-64135000D03*
%TD*%
D10*
%TO.C,SW53*%
X259556300Y-66675000D03*
D11*
X254476300Y-66675000D03*
X264636300Y-66675000D03*
D12*
X257016300Y-61595000D03*
X263366300Y-64135000D03*
%TD*%
D10*
%TO.C,SW54*%
X11906200Y-85725000D03*
D11*
X6826200Y-85725000D03*
X16986200Y-85725000D03*
D12*
X9366200Y-80645000D03*
X15716200Y-83185000D03*
%TD*%
D10*
%TO.C,SW55*%
X35718800Y-85725000D03*
D11*
X30638800Y-85725000D03*
X40798800Y-85725000D03*
D12*
X33178800Y-80645000D03*
X39528800Y-83185000D03*
%TD*%
D10*
%TO.C,SW56*%
X59531200Y-85725000D03*
D11*
X54451200Y-85725000D03*
X64611200Y-85725000D03*
D12*
X56991200Y-80645000D03*
X63341200Y-83185000D03*
%TD*%
D10*
%TO.C,SW57*%
X83343800Y-85725000D03*
D11*
X78263800Y-85725000D03*
X88423800Y-85725000D03*
D12*
X80803800Y-80645000D03*
X87153800Y-83185000D03*
%TD*%
D10*
%TO.C,SW58*%
X121443800Y-85725000D03*
D11*
X116363800Y-85725000D03*
X126523800Y-85725000D03*
D12*
X118903800Y-80645000D03*
X125253800Y-83185000D03*
%TD*%
D10*
%TO.C,SW59*%
X159543800Y-85725000D03*
D11*
X154463800Y-85725000D03*
X164623800Y-85725000D03*
D12*
X157003800Y-80645000D03*
X163353800Y-83185000D03*
%TD*%
D10*
%TO.C,SW60*%
X183356300Y-85725000D03*
D11*
X178276300Y-85725000D03*
X188436300Y-85725000D03*
D12*
X180816300Y-80645000D03*
X187166300Y-83185000D03*
%TD*%
D10*
%TO.C,SW61*%
X204787500Y-85725000D03*
D11*
X199707500Y-85725000D03*
X209867500Y-85725000D03*
D12*
X202247500Y-80645000D03*
X208597500Y-83185000D03*
%TD*%
D10*
%TO.C,SW62*%
X226218800Y-85725000D03*
D11*
X221138800Y-85725000D03*
X231298800Y-85725000D03*
D12*
X223678800Y-80645000D03*
X230028800Y-83185000D03*
%TD*%
D10*
%TO.C,SW63*%
X250031200Y-85725000D03*
D11*
X244951200Y-85725000D03*
X255111200Y-85725000D03*
D12*
X247491200Y-80645000D03*
X253841200Y-83185000D03*
%TD*%
D10*
%TO.C,SW64*%
X273843800Y-85725000D03*
D11*
X268763800Y-85725000D03*
X278923800Y-85725000D03*
D12*
X271303800Y-80645000D03*
X277653800Y-83185000D03*
%TD*%
D13*
%TO.C,H1*%
X25575000Y-28224800D03*
%TD*%
%TO.C,H2*%
X128576000Y-47625600D03*
%TD*%
%TO.C,H3*%
X260424500Y-28224800D03*
%TD*%
M02*
