M48
; DRILL file KiCad 10.0.4 date 2026-07-22T15:14:50
; FORMAT={-:-/ absolute / metric / decimal}
; #@! TF.CreationDate,2026-07-22T15:14:50+08:00
; #@! TF.GenerationSoftware,Kicad,Pcbnew,10.0.4
; #@! TF.FileFunction,Plated,1,2,PTH
FMAT,2
METRIC
; #@! TA.AperFunction,Plated,PTH,ViaDrill
T1C0.300
%
G90
G05
T1
X1.05Y-5.75
X1.05Y-12.065
X19.775Y-4.95
X19.775Y-12.065
X20.706Y-83.185
X23.087Y-26.035
X25.469Y-45.085
X30.231Y-64.135
X38.825Y-4.15
X38.825Y-12.065
X44.519Y-83.185
X46.9Y-26.035
X51.662Y-45.085
X57.875Y-3.35
X57.875Y-12.065
X61.188Y-64.135
X65.95Y-26.035
X68.331Y-83.185
X70.712Y-45.085
X76.925Y-2.55
X76.925Y-12.065
X80.237Y-64.135
X85.0Y-26.035
X89.763Y-45.085
X92.144Y-83.185
X95.975Y-1.75
X95.975Y-12.065
X99.287Y-64.135
X104.05Y-26.035
X108.812Y-45.085
X115.025Y-0.95
X115.025Y-12.065
X118.337Y-64.135
X123.1Y-26.035
X127.862Y-45.085
X130.244Y-83.185
X133.375Y-6.6
X134.075Y-12.065
X134.375Y-6.6
X135.375Y-6.6
X136.375Y-6.6
X137.375Y-6.6
X137.387Y-64.135
X138.375Y-6.6
X139.375Y-6.6
X140.375Y-6.6
X141.375Y-6.6
X142.15Y-26.035
X142.375Y-6.6
X142.875Y-35.6
X142.875Y-37.4
X143.375Y-6.6
X144.375Y-6.6
X145.375Y-6.6
X146.375Y-6.6
X146.912Y-45.085
X147.375Y-7.4
X147.637Y-54.8
X147.637Y-56.45
X148.375Y-6.8
X149.375Y-6.2
X150.375Y-5.575
X151.375Y-15.8
X152.5Y-19.69
X153.125Y-12.065
X154.5Y-18.0
X156.0Y-0.95
X156.438Y-64.135
X161.2Y-26.035
X165.0Y-73.8
X165.0Y-75.5
X165.963Y-45.085
X168.344Y-83.185
X172.175Y-1.75
X172.175Y-12.065
X175.487Y-64.135
X176.0Y-35.6
X176.0Y-37.4
X180.25Y-26.035
X185.012Y-45.085
X191.0Y-19.7
X191.225Y-2.55
X191.225Y-12.065
X192.156Y-83.185
X194.537Y-64.135
X199.3Y-26.035
X204.062Y-45.085
X210.0Y-19.7
X210.275Y-3.35
X210.275Y-12.065
X211.0Y-35.6
X211.0Y-37.4
X213.587Y-64.135
X213.587Y-83.185
X218.35Y-26.035
X223.112Y-45.085
X223.837Y-54.8
X223.837Y-56.45
X229.0Y-19.7
X229.325Y-4.15
X229.325Y-12.065
X232.637Y-64.135
X235.019Y-83.185
X237.4Y-26.035
X242.162Y-45.085
X256.45Y-26.035
X257.9Y-4.95
X257.9Y-12.065
X258.831Y-83.185
X268.356Y-64.135
X273.119Y-45.085
X280.262Y-26.035
X280.944Y-81.275
M30
