%TF.GenerationSoftware,KiCad,Pcbnew,10.0.4*%
%TF.CreationDate,2026-07-22T17:55:39+08:00*%
%TF.ProjectId,Minilite64,4d696e69-6c69-4746-9536-342e6b696361,rev?*%
%TF.SameCoordinates,Original*%
%TF.FileFunction,Copper,L1,Top*%
%TF.FilePolarity,Positive*%
%FSLAX46Y46*%
G04 Gerber Fmt 4.6, Leading zero omitted, Abs format (unit mm)*
G04 Created by KiCad (PCBNEW 10.0.4) date 2026-07-22 17:55:39*
%MOMM*%
%LPD*%
G01*
G04 APERTURE LIST*
%TA.AperFunction,ViaPad*%
%ADD10C,0.700000*%
%TD*%
%TA.AperFunction,ViaPad*%
%ADD11C,0.600000*%
%TD*%
%TA.AperFunction,Conductor*%
%ADD12C,0.200000*%
%TD*%
G04 APERTURE END LIST*
D10*
%TO.N,COL0*%
X1050000Y-12065000D03*
%TO.N,COL1*%
X19775000Y-12065000D03*
%TO.N,COL2*%
X38825000Y-12065000D03*
%TO.N,COL3*%
X57875000Y-12065000D03*
%TO.N,COL4*%
X76925000Y-12065000D03*
%TO.N,COL5*%
X95975000Y-12065000D03*
%TO.N,COL6*%
X115025000Y-12065000D03*
%TO.N,COL7*%
X134075000Y-12065000D03*
%TO.N,COL8*%
X153125000Y-12065000D03*
%TO.N,COL9*%
X172175000Y-12065000D03*
%TO.N,COL10*%
X191225000Y-12065000D03*
%TO.N,COL11*%
X210275000Y-12065000D03*
%TO.N,COL12*%
X229325000Y-12065000D03*
%TO.N,COL13*%
X257900000Y-12065000D03*
%TO.N,COL0*%
X23087500Y-26035000D03*
%TO.N,COL1*%
X46900000Y-26035000D03*
%TO.N,COL2*%
X65950000Y-26035000D03*
%TO.N,COL3*%
X85000000Y-26035000D03*
%TO.N,COL4*%
X104050000Y-26035000D03*
%TO.N,COL5*%
X123100000Y-26035000D03*
%TO.N,COL6*%
X142150000Y-26035000D03*
%TO.N,COL7*%
X161200000Y-26035000D03*
%TO.N,COL8*%
X180250000Y-26035000D03*
%TO.N,COL9*%
X199300000Y-26035000D03*
%TO.N,COL10*%
X218350000Y-26035000D03*
%TO.N,COL11*%
X237400000Y-26035000D03*
%TO.N,COL12*%
X256450000Y-26035000D03*
%TO.N,COL13*%
X280262500Y-26035000D03*
%TO.N,COL0*%
X25468800Y-45085000D03*
%TO.N,COL1*%
X51662500Y-45085000D03*
%TO.N,COL2*%
X70712500Y-45085000D03*
%TO.N,COL3*%
X89762500Y-45085000D03*
%TO.N,COL4*%
X108812500Y-45085000D03*
%TO.N,COL5*%
X127862500Y-45085000D03*
%TO.N,COL6*%
X146912500Y-45085000D03*
%TO.N,COL7*%
X165962500Y-45085000D03*
%TO.N,COL8*%
X185012500Y-45085000D03*
%TO.N,COL9*%
X204062500Y-45085000D03*
%TO.N,COL10*%
X223112500Y-45085000D03*
%TO.N,COL11*%
X242162500Y-45085000D03*
%TO.N,COL12*%
X273118800Y-45085000D03*
%TO.N,COL0*%
X30231300Y-64135000D03*
%TO.N,COL1*%
X61187500Y-64135000D03*
%TO.N,COL2*%
X80237500Y-64135000D03*
%TO.N,COL3*%
X99287500Y-64135000D03*
%TO.N,COL4*%
X118337500Y-64135000D03*
%TO.N,COL5*%
X137387500Y-64135000D03*
%TO.N,COL6*%
X156437500Y-64135000D03*
%TO.N,COL7*%
X175487500Y-64135000D03*
%TO.N,COL8*%
X194537500Y-64135000D03*
%TO.N,COL9*%
X213587500Y-64135000D03*
%TO.N,COL10*%
X232637500Y-64135000D03*
%TO.N,COL11*%
X268356300Y-64135000D03*
%TO.N,COL0*%
X20706300Y-83185000D03*
%TO.N,COL1*%
X44518700Y-83185000D03*
%TO.N,COL2*%
X68331200Y-83185000D03*
%TO.N,COL3*%
X92143700Y-83185000D03*
%TO.N,COL4*%
X130243800Y-83185000D03*
%TO.N,COL5*%
X168343800Y-83185000D03*
%TO.N,COL6*%
X192156300Y-83185000D03*
%TO.N,COL7*%
X213587500Y-83185000D03*
%TO.N,COL8*%
X235018800Y-83185000D03*
%TO.N,COL9*%
X258831300Y-83185000D03*
%TO.N,COL10*%
X280943800Y-81275000D03*
D11*
%TO.N,COL0*%
X133375000Y-6600000D03*
X1050000Y-5750000D03*
%TO.N,COL1*%
X134375000Y-6600000D03*
X19775000Y-4950000D03*
%TO.N,COL2*%
X135375000Y-6600000D03*
X38825000Y-4150000D03*
%TO.N,COL3*%
X136375000Y-6600000D03*
X57875000Y-3350000D03*
%TO.N,COL4*%
X137375000Y-6600000D03*
X76925000Y-2550000D03*
%TO.N,COL5*%
X138375000Y-6600000D03*
X95975000Y-1750000D03*
%TO.N,COL6*%
X139375000Y-6600000D03*
X115025000Y-950000D03*
%TO.N,COL7*%
X140375000Y-6600000D03*
%TO.N,COL8*%
X141375000Y-6600000D03*
X156000000Y-950000D03*
%TO.N,COL9*%
X142375000Y-6600000D03*
X172175000Y-1750000D03*
%TO.N,COL10*%
X143375000Y-6600000D03*
X191225000Y-2550000D03*
%TO.N,COL11*%
X144375000Y-6600000D03*
X210275000Y-3350000D03*
%TO.N,COL12*%
X145375000Y-6600000D03*
X229325000Y-4150000D03*
%TO.N,COL13*%
X146375000Y-6600000D03*
X257900000Y-4950000D03*
%TO.N,ROW0*%
X147375000Y-7400000D03*
X154500000Y-18000000D03*
%TO.N,ROW1*%
X148375000Y-6800000D03*
X191000000Y-19700000D03*
%TO.N,ROW2*%
X149375000Y-6200000D03*
X210000000Y-19700000D03*
X176000000Y-35600000D03*
X176000000Y-37400000D03*
%TO.N,ROW3*%
X150375000Y-5575000D03*
X229000000Y-19700000D03*
X211000000Y-35600000D03*
X211000000Y-37400000D03*
X223837500Y-54800000D03*
X223837500Y-56450000D03*
%TO.N,ROW4*%
X151375000Y-15800000D03*
X152500000Y-19690000D03*
X142875000Y-35600000D03*
X142875000Y-37400000D03*
X147637500Y-54800000D03*
X147637500Y-56450000D03*
X165000000Y-73800000D03*
X165000000Y-75500000D03*
%TD*%
%TO.N,COL0*%
D12*
X1050000Y-12065000D02*
X1050000Y-18800000D01*
X1050000Y-18800000D02*
X23087500Y-21000000D01*
X23087500Y-21000000D02*
X23087500Y-26035000D01*
X23087500Y-26035000D02*
X23087500Y-31575000D01*
X23087500Y-31575000D02*
X25468800Y-40625000D01*
X25468800Y-40625000D02*
X25468800Y-45085000D01*
X25468800Y-45085000D02*
X25468800Y-50625000D01*
X25468800Y-50625000D02*
X30231300Y-59675000D01*
X30231300Y-59675000D02*
X30231300Y-64135000D01*
X30231300Y-64135000D02*
X30231300Y-69675000D01*
X30231300Y-69675000D02*
X20706300Y-78725000D01*
X20706300Y-78725000D02*
X20706300Y-83185000D01*
%TO.N,COL1*%
X19775000Y-12065000D02*
X19775000Y-18800000D01*
X19775000Y-18800000D02*
X46900000Y-21000000D01*
X46900000Y-21000000D02*
X46900000Y-26035000D01*
X46900000Y-26035000D02*
X46900000Y-31575000D01*
X46900000Y-31575000D02*
X51662500Y-40625000D01*
X51662500Y-40625000D02*
X51662500Y-45085000D01*
X51662500Y-45085000D02*
X51662500Y-50625000D01*
X51662500Y-50625000D02*
X61187500Y-59675000D01*
X61187500Y-59675000D02*
X61187500Y-64135000D01*
X61187500Y-64135000D02*
X61187500Y-69675000D01*
X61187500Y-69675000D02*
X44518700Y-78725000D01*
X44518700Y-78725000D02*
X44518700Y-83185000D01*
%TO.N,COL2*%
X38825000Y-12065000D02*
X38825000Y-18800000D01*
X38825000Y-18800000D02*
X65950000Y-21000000D01*
X65950000Y-21000000D02*
X65950000Y-26035000D01*
X65950000Y-26035000D02*
X65950000Y-31575000D01*
X65950000Y-31575000D02*
X70712500Y-40625000D01*
X70712500Y-40625000D02*
X70712500Y-45085000D01*
X70712500Y-45085000D02*
X70712500Y-50625000D01*
X70712500Y-50625000D02*
X80237500Y-59675000D01*
X80237500Y-59675000D02*
X80237500Y-64135000D01*
X80237500Y-64135000D02*
X80237500Y-69675000D01*
X80237500Y-69675000D02*
X68331200Y-78725000D01*
X68331200Y-78725000D02*
X68331200Y-83185000D01*
%TO.N,COL3*%
X57875000Y-12065000D02*
X57875000Y-18800000D01*
X57875000Y-18800000D02*
X85000000Y-21000000D01*
X85000000Y-21000000D02*
X85000000Y-26035000D01*
X85000000Y-26035000D02*
X85000000Y-31575000D01*
X85000000Y-31575000D02*
X89762500Y-40625000D01*
X89762500Y-40625000D02*
X89762500Y-45085000D01*
X89762500Y-45085000D02*
X89762500Y-50625000D01*
X89762500Y-50625000D02*
X99287500Y-59675000D01*
X99287500Y-59675000D02*
X99287500Y-64135000D01*
X99287500Y-64135000D02*
X99287500Y-69675000D01*
X99287500Y-69675000D02*
X92143700Y-78725000D01*
X92143700Y-78725000D02*
X92143700Y-83185000D01*
%TO.N,COL4*%
X76925000Y-12065000D02*
X76925000Y-18800000D01*
X76925000Y-18800000D02*
X104050000Y-21000000D01*
X104050000Y-21000000D02*
X104050000Y-26035000D01*
X104050000Y-26035000D02*
X104050000Y-31575000D01*
X104050000Y-31575000D02*
X108812500Y-40625000D01*
X108812500Y-40625000D02*
X108812500Y-45085000D01*
X108812500Y-45085000D02*
X108812500Y-50625000D01*
X108812500Y-50625000D02*
X118337500Y-59675000D01*
X118337500Y-59675000D02*
X118337500Y-64135000D01*
X118337500Y-64135000D02*
X118337500Y-69675000D01*
X118337500Y-69675000D02*
X130243800Y-78725000D01*
X130243800Y-78725000D02*
X130243800Y-83185000D01*
%TO.N,COL5*%
X95975000Y-12065000D02*
X95975000Y-18800000D01*
X95975000Y-18800000D02*
X123100000Y-21000000D01*
X123100000Y-21000000D02*
X123100000Y-26035000D01*
X123100000Y-26035000D02*
X123100000Y-31575000D01*
X123100000Y-31575000D02*
X127862500Y-40625000D01*
X127862500Y-40625000D02*
X127862500Y-45085000D01*
X127862500Y-45085000D02*
X126200000Y-45085000D01*
X126200000Y-45085000D02*
X126200000Y-50625000D01*
X126200000Y-50625000D02*
X137387500Y-59675000D01*
X137387500Y-59675000D02*
X137387500Y-64135000D01*
X137387500Y-64135000D02*
X137387500Y-69675000D01*
X137387500Y-69675000D02*
X168343800Y-78725000D01*
X168343800Y-78725000D02*
X168343800Y-83185000D01*
%TO.N,COL6*%
X115025000Y-12065000D02*
X115025000Y-18800000D01*
X115025000Y-18800000D02*
X142150000Y-21000000D01*
X142150000Y-21000000D02*
X142150000Y-26035000D01*
X142150000Y-26035000D02*
X142150000Y-31575000D01*
X142150000Y-31575000D02*
X146912500Y-40625000D01*
X146912500Y-40625000D02*
X146912500Y-45085000D01*
X146912500Y-45085000D02*
X146912500Y-50625000D01*
X146912500Y-50625000D02*
X156437500Y-59675000D01*
X156437500Y-59675000D02*
X156437500Y-64135000D01*
X156437500Y-64135000D02*
X156437500Y-69675000D01*
X156437500Y-69675000D02*
X192156300Y-78725000D01*
X192156300Y-78725000D02*
X192156300Y-83185000D01*
%TO.N,COL7*%
X134075000Y-12065000D02*
X134075000Y-18800000D01*
X134075000Y-18800000D02*
X161200000Y-21000000D01*
X161200000Y-21000000D02*
X161200000Y-26035000D01*
X161200000Y-26035000D02*
X161200000Y-31575000D01*
X161200000Y-31575000D02*
X165962500Y-40625000D01*
X165962500Y-40625000D02*
X165962500Y-45085000D01*
X165962500Y-45085000D02*
X165962500Y-50625000D01*
X165962500Y-50625000D02*
X175487500Y-59675000D01*
X175487500Y-59675000D02*
X175487500Y-64135000D01*
X175487500Y-64135000D02*
X175487500Y-69675000D01*
X175487500Y-69675000D02*
X213587500Y-78725000D01*
X213587500Y-78725000D02*
X213587500Y-83185000D01*
%TO.N,COL8*%
X153125000Y-12065000D02*
X153125000Y-18800000D01*
X153125000Y-18800000D02*
X180250000Y-21000000D01*
X180250000Y-21000000D02*
X180250000Y-26035000D01*
X180250000Y-26035000D02*
X180250000Y-31575000D01*
X180250000Y-31575000D02*
X185012500Y-40625000D01*
X185012500Y-40625000D02*
X185012500Y-45085000D01*
X185012500Y-45085000D02*
X185012500Y-50625000D01*
X185012500Y-50625000D02*
X194537500Y-59675000D01*
X194537500Y-59675000D02*
X194537500Y-64135000D01*
X194537500Y-64135000D02*
X194537500Y-69675000D01*
X194537500Y-69675000D02*
X235018800Y-78725000D01*
X235018800Y-78725000D02*
X235018800Y-83185000D01*
%TO.N,COL9*%
X172175000Y-12065000D02*
X172175000Y-18800000D01*
X172175000Y-18800000D02*
X199300000Y-21000000D01*
X199300000Y-21000000D02*
X199300000Y-26035000D01*
X199300000Y-26035000D02*
X199300000Y-31575000D01*
X199300000Y-31575000D02*
X204062500Y-40625000D01*
X204062500Y-40625000D02*
X204062500Y-45085000D01*
X204062500Y-45085000D02*
X204062500Y-50625000D01*
X204062500Y-50625000D02*
X213587500Y-59675000D01*
X213587500Y-59675000D02*
X213587500Y-64135000D01*
X213587500Y-64135000D02*
X213587500Y-69675000D01*
X213587500Y-69675000D02*
X258831300Y-78725000D01*
X258831300Y-78725000D02*
X258831300Y-83185000D01*
%TO.N,COL10*%
X191225000Y-12065000D02*
X191225000Y-18800000D01*
X191225000Y-18800000D02*
X218350000Y-21000000D01*
X218350000Y-21000000D02*
X218350000Y-26035000D01*
X218350000Y-26035000D02*
X218350000Y-31575000D01*
X218350000Y-31575000D02*
X223112500Y-40625000D01*
X223112500Y-40625000D02*
X223112500Y-45085000D01*
X223112500Y-45085000D02*
X223112500Y-50625000D01*
X223112500Y-50625000D02*
X232637500Y-59675000D01*
X232637500Y-59675000D02*
X232637500Y-64135000D01*
X232637500Y-64135000D02*
X232637500Y-69675000D01*
X232637500Y-69675000D02*
X280943800Y-78725000D01*
X280943800Y-78725000D02*
X280943800Y-81275000D01*
%TO.N,COL11*%
X210275000Y-12065000D02*
X210275000Y-18800000D01*
X210275000Y-18800000D02*
X237400000Y-21000000D01*
X237400000Y-21000000D02*
X237400000Y-26035000D01*
X237400000Y-26035000D02*
X237400000Y-31575000D01*
X237400000Y-31575000D02*
X242162500Y-40625000D01*
X242162500Y-40625000D02*
X242162500Y-45085000D01*
X242162500Y-45085000D02*
X242162500Y-50625000D01*
X242162500Y-50625000D02*
X268356300Y-59675000D01*
X268356300Y-59675000D02*
X268356300Y-64135000D01*
%TO.N,COL12*%
X229325000Y-12065000D02*
X229325000Y-18800000D01*
X229325000Y-18800000D02*
X256450000Y-21000000D01*
X256450000Y-21000000D02*
X256450000Y-26035000D01*
X256450000Y-26035000D02*
X256450000Y-31575000D01*
X256450000Y-31575000D02*
X273118800Y-40625000D01*
X273118800Y-40625000D02*
X273118800Y-45085000D01*
%TO.N,COL13*%
X257900000Y-12065000D02*
X257900000Y-18800000D01*
X257900000Y-18800000D02*
X280262500Y-21000000D01*
X280262500Y-21000000D02*
X280262500Y-26035000D01*
%TO.N,COL0*%
X133375000Y-6600000D02*
X133375000Y-5750000D01*
X133375000Y-5750000D02*
X1050000Y-5750000D01*
%TO.N,COL1*%
X134375000Y-6600000D02*
X134375000Y-4950000D01*
X134375000Y-4950000D02*
X19775000Y-4950000D01*
%TO.N,COL2*%
X135375000Y-6600000D02*
X135375000Y-4150000D01*
X135375000Y-4150000D02*
X38825000Y-4150000D01*
%TO.N,COL3*%
X136375000Y-6600000D02*
X136375000Y-3350000D01*
X136375000Y-3350000D02*
X57875000Y-3350000D01*
%TO.N,COL4*%
X137375000Y-6600000D02*
X137375000Y-2550000D01*
X137375000Y-2550000D02*
X76925000Y-2550000D01*
%TO.N,COL5*%
X138375000Y-6600000D02*
X138375000Y-1750000D01*
X138375000Y-1750000D02*
X95975000Y-1750000D01*
%TO.N,COL6*%
X139375000Y-6600000D02*
X139375000Y-950000D01*
X139375000Y-950000D02*
X115025000Y-950000D01*
%TO.N,COL7*%
X140375000Y-6600000D02*
X140375000Y-7400000D01*
X140375000Y-7400000D02*
X134800000Y-7400000D01*
X134800000Y-7400000D02*
X134800000Y-12065000D01*
X134800000Y-12065000D02*
X134075000Y-12065000D01*
%TO.N,COL8*%
X141375000Y-6600000D02*
X141375000Y-950000D01*
X141375000Y-950000D02*
X156000000Y-950000D01*
%TO.N,COL9*%
X142375000Y-6600000D02*
X142375000Y-1750000D01*
X142375000Y-1750000D02*
X172175000Y-1750000D01*
%TO.N,COL10*%
X143375000Y-6600000D02*
X143375000Y-2550000D01*
X143375000Y-2550000D02*
X191225000Y-2550000D01*
%TO.N,COL11*%
X144375000Y-6600000D02*
X144375000Y-3350000D01*
X144375000Y-3350000D02*
X210275000Y-3350000D01*
%TO.N,COL12*%
X145375000Y-6600000D02*
X145375000Y-4150000D01*
X145375000Y-4150000D02*
X229325000Y-4150000D01*
%TO.N,COL13*%
X146375000Y-6600000D02*
X146375000Y-4950000D01*
X146375000Y-4950000D02*
X257900000Y-4950000D01*
%TO.N,ROW0*%
X147375000Y-7400000D02*
X154500000Y-7400000D01*
X154500000Y-7400000D02*
X154500000Y-18000000D01*
%TO.N,ROW1*%
X148375000Y-6800000D02*
X190500000Y-6800000D01*
X190500000Y-6800000D02*
X190500000Y-19000000D01*
X190500000Y-19000000D02*
X191000000Y-19700000D01*
%TO.N,ROW2*%
X149375000Y-6200000D02*
X209550000Y-6200000D01*
X209550000Y-6200000D02*
X209550000Y-19000000D01*
X209550000Y-19000000D02*
X210000000Y-19700000D01*
X176000000Y-35600000D02*
X176000000Y-37400000D01*
%TO.N,ROW3*%
X150375000Y-5575000D02*
X228600000Y-5575000D01*
X228600000Y-5575000D02*
X228600000Y-19000000D01*
X228600000Y-19000000D02*
X229000000Y-19700000D01*
X211000000Y-35600000D02*
X211000000Y-37400000D01*
X223837500Y-54800000D02*
X223837500Y-56450000D01*
%TO.N,ROW4*%
X151375000Y-15800000D02*
X152500000Y-15800000D01*
X152500000Y-15800000D02*
X152500000Y-19690000D01*
X142875000Y-35600000D02*
X142875000Y-37400000D01*
X147637500Y-54800000D02*
X147637500Y-56450000D01*
X165000000Y-73800000D02*
X165000000Y-75500000D01*
%TD*%
M02*
