%TF.GenerationSoftware,KiCad,Pcbnew,10.0.4*%
%TF.CreationDate,2026-07-22T21:05:52+08:00*%
%TF.ProjectId,Minilite64,4d696e69-6c69-4746-9536-342e6b696361,rev?*%
%TF.SameCoordinates,Original*%
%TF.FileFunction,Legend,Top*%
%TF.FilePolarity,Positive*%
%FSLAX46Y46*%
G04 Gerber Fmt 4.6, Leading zero omitted, Abs format (unit mm)*
G04 Created by KiCad (PCBNEW 10.0.4) date 2026-07-22 21:05:52*
%MOMM*%
%LPD*%
G01*
G04 APERTURE LIST*
%ADD10C,0.120000*%
%ADD11C,0.180000*%
G04 APERTURE END LIST*
D10*
X188000Y-95088000D02*
X285562000Y-95088000D01*
X285562000Y-95088000D02*
X285562000Y-59323900D01*
X285562000Y-59323900D02*
X282062000Y-59323900D01*
X282062000Y-59323900D02*
X281289000Y-59202600D01*
X281289000Y-59202600D02*
X280593000Y-58847000D01*
X280593000Y-58847000D02*
X280040000Y-58293100D01*
X280040000Y-58293100D02*
X279685000Y-57597100D01*
X279685000Y-57597100D02*
X279562000Y-56822700D01*
X279562000Y-56822700D02*
X279685000Y-56050900D01*
X279685000Y-56050900D02*
X280040000Y-55353800D01*
X280040000Y-55353800D02*
X280593000Y-54801000D01*
X280593000Y-54801000D02*
X281289000Y-54446800D01*
X281289000Y-54446800D02*
X282062000Y-54324400D01*
X282062000Y-54324400D02*
X285562000Y-54324400D01*
X285562000Y-54324400D02*
X285562000Y-162000D01*
X285562000Y-162000D02*
X188000Y-162000D01*
X188000Y-162000D02*
X188000Y-54324400D01*
X188000Y-54324400D02*
X3688300Y-54324400D01*
X3688300Y-54324400D02*
X4460000Y-54446800D01*
X4460000Y-54446800D02*
X5155900Y-54801000D01*
X5155900Y-54801000D02*
X5709900Y-55353800D01*
X5709900Y-55353800D02*
X6064000Y-56050900D01*
X6064000Y-56050900D02*
X6188000Y-56824200D01*
X6188000Y-56824200D02*
X6064000Y-57597100D01*
X6064000Y-57597100D02*
X5709900Y-58293100D01*
X5709900Y-58293100D02*
X5155900Y-58847000D01*
X5155900Y-58847000D02*
X4460000Y-59202600D01*
X4460000Y-59202600D02*
X3686900Y-59323900D01*
X3686900Y-59323900D02*
X188000Y-59323900D01*
X188000Y-59323900D02*
X188000Y-95088000D01*
X105344000Y-86223100D02*
X105344000Y-83423000D01*
X105344000Y-83423000D02*
X106168000Y-83423000D01*
X106168000Y-83423000D02*
X106168000Y-80192800D01*
X106168000Y-80192800D02*
X112917000Y-80192800D01*
X112917000Y-80192800D02*
X112917000Y-83423000D01*
X112917000Y-83423000D02*
X114444000Y-83423000D01*
X114444000Y-83423000D02*
X114444000Y-82824900D01*
X114444000Y-82824900D02*
X113643000Y-82824900D01*
X113643000Y-82824900D02*
X113643000Y-79722900D01*
X113643000Y-79722900D02*
X114444000Y-79722900D01*
X114444000Y-79722900D02*
X114444000Y-78723800D01*
X114444000Y-78723800D02*
X128443000Y-78723800D01*
X128443000Y-78723800D02*
X128443000Y-79722900D01*
X128443000Y-79722900D02*
X129244000Y-79722900D01*
X129244000Y-79722900D02*
X129244000Y-82824900D01*
X129244000Y-82824900D02*
X128443000Y-82824900D01*
X128443000Y-82824900D02*
X128443000Y-83423000D01*
X128443000Y-83423000D02*
X129969000Y-83423000D01*
X129969000Y-83423000D02*
X129969000Y-80192800D01*
X129969000Y-80192800D02*
X136719000Y-80192800D01*
X136719000Y-80192800D02*
X136719000Y-83423000D01*
X136719000Y-83423000D02*
X137543000Y-83423000D01*
X137543000Y-83423000D02*
X137543000Y-86223100D01*
X137543000Y-86223100D02*
X136719000Y-86223100D01*
X136719000Y-86223100D02*
X136719000Y-92493200D01*
X136719000Y-92493200D02*
X134993000Y-92493200D01*
X134993000Y-92493200D02*
X134993000Y-93693400D01*
X134993000Y-93693400D02*
X131693000Y-93693400D01*
X131693000Y-93693400D02*
X131693000Y-92493200D01*
X131693000Y-92493200D02*
X129969000Y-92493200D01*
X129969000Y-92493200D02*
X129969000Y-88022800D01*
X129969000Y-88022800D02*
X128443000Y-88022800D01*
X128443000Y-88022800D02*
X128443000Y-88623600D01*
X128443000Y-88623600D02*
X129244000Y-88623600D01*
X129244000Y-88623600D02*
X129244000Y-91722900D01*
X129244000Y-91722900D02*
X128443000Y-91722900D01*
X128443000Y-91722900D02*
X128443000Y-92723300D01*
X128443000Y-92723300D02*
X114444000Y-92723300D01*
X114444000Y-92723300D02*
X114444000Y-91722900D01*
X114444000Y-91722900D02*
X113643000Y-91722900D01*
X113643000Y-91722900D02*
X113643000Y-88623600D01*
X113643000Y-88623600D02*
X114444000Y-88623600D01*
X114444000Y-88623600D02*
X114444000Y-88022800D01*
X114444000Y-88022800D02*
X112917000Y-88022800D01*
X112917000Y-88022800D02*
X112917000Y-92493200D01*
X112917000Y-92493200D02*
X111193000Y-92493200D01*
X111193000Y-92493200D02*
X111193000Y-93693400D01*
X111193000Y-93693400D02*
X107894000Y-93693400D01*
X107894000Y-93693400D02*
X107894000Y-92493200D01*
X107894000Y-92493200D02*
X106168000Y-92493200D01*
X106168000Y-92493200D02*
X106168000Y-86223100D01*
X106168000Y-86223100D02*
X105344000Y-86223100D01*
X4105800Y-91722900D02*
X4105800Y-88623600D01*
X4105800Y-88623600D02*
X4905100Y-88623600D01*
X4905100Y-88623600D02*
X4905100Y-82824900D01*
X4905100Y-82824900D02*
X4105800Y-82824900D01*
X4105800Y-82824900D02*
X4105800Y-79722900D01*
X4105800Y-79722900D02*
X4905100Y-79722900D01*
X4905100Y-79722900D02*
X4905100Y-78723800D01*
X4905100Y-78723800D02*
X18906000Y-78723800D01*
X18906000Y-78723800D02*
X18906000Y-79722900D01*
X18906000Y-79722900D02*
X19705300Y-79722900D01*
X19705300Y-79722900D02*
X19705300Y-82824900D01*
X19705300Y-82824900D02*
X18906000Y-82824900D01*
X18906000Y-82824900D02*
X18906000Y-88623600D01*
X18906000Y-88623600D02*
X19705300Y-88623600D01*
X19705300Y-88623600D02*
X19705300Y-91722900D01*
X19705300Y-91722900D02*
X18906000Y-91722900D01*
X18906000Y-91722900D02*
X18906000Y-92723300D01*
X18906000Y-92723300D02*
X4905100Y-92723300D01*
X4905100Y-92723300D02*
X4905100Y-91722900D01*
X4905100Y-91722900D02*
X4105800Y-91722900D01*
X27917000Y-91722900D02*
X27917000Y-88623600D01*
X27917000Y-88623600D02*
X28717600Y-88623600D01*
X28717600Y-88623600D02*
X28717600Y-82824900D01*
X28717600Y-82824900D02*
X27917000Y-82824900D01*
X27917000Y-82824900D02*
X27917000Y-79722900D01*
X27917000Y-79722900D02*
X28717600Y-79722900D01*
X28717600Y-79722900D02*
X28717600Y-78723800D01*
X28717600Y-78723800D02*
X42717000Y-78723800D01*
X42717000Y-78723800D02*
X42717000Y-79722900D01*
X42717000Y-79722900D02*
X43519200Y-79722900D01*
X43519200Y-79722900D02*
X43519200Y-82824900D01*
X43519200Y-82824900D02*
X42717000Y-82824900D01*
X42717000Y-82824900D02*
X42717000Y-88623600D01*
X42717000Y-88623600D02*
X43519200Y-88623600D01*
X43519200Y-88623600D02*
X43519200Y-91722900D01*
X43519200Y-91722900D02*
X42717000Y-91722900D01*
X42717000Y-91722900D02*
X42717000Y-92723300D01*
X42717000Y-92723300D02*
X28717600Y-92723300D01*
X28717600Y-92723300D02*
X28717600Y-91722900D01*
X28717600Y-91722900D02*
X27917000Y-91722900D01*
X51729400Y-91722900D02*
X51729400Y-88623600D01*
X51729400Y-88623600D02*
X52530200Y-88623600D01*
X52530200Y-88623600D02*
X52530200Y-82824900D01*
X52530200Y-82824900D02*
X51729400Y-82824900D01*
X51729400Y-82824900D02*
X51729400Y-79722900D01*
X51729400Y-79722900D02*
X52530200Y-79722900D01*
X52530200Y-79722900D02*
X52530200Y-78723800D01*
X52530200Y-78723800D02*
X66530900Y-78723800D01*
X66530900Y-78723800D02*
X66530900Y-79722900D01*
X66530900Y-79722900D02*
X67330300Y-79722900D01*
X67330300Y-79722900D02*
X67330300Y-82824900D01*
X67330300Y-82824900D02*
X66530900Y-82824900D01*
X66530900Y-82824900D02*
X66530900Y-88623600D01*
X66530900Y-88623600D02*
X67330300Y-88623600D01*
X67330300Y-88623600D02*
X67330300Y-91722900D01*
X67330300Y-91722900D02*
X66530900Y-91722900D01*
X66530900Y-91722900D02*
X66530900Y-92723300D01*
X66530900Y-92723300D02*
X52530200Y-92723300D01*
X52530200Y-92723300D02*
X52530200Y-91722900D01*
X52530200Y-91722900D02*
X51729400Y-91722900D01*
X75541900Y-91722900D02*
X75541900Y-88623600D01*
X75541900Y-88623600D02*
X76344200Y-88623600D01*
X76344200Y-88623600D02*
X76344200Y-82824900D01*
X76344200Y-82824900D02*
X75541900Y-82824900D01*
X75541900Y-82824900D02*
X75541900Y-79722900D01*
X75541900Y-79722900D02*
X76344200Y-79722900D01*
X76344200Y-79722900D02*
X76344200Y-78723800D01*
X76344200Y-78723800D02*
X90343400Y-78723800D01*
X90343400Y-78723800D02*
X90343400Y-79722900D01*
X90343400Y-79722900D02*
X91144200Y-79722900D01*
X91144200Y-79722900D02*
X91144200Y-82824900D01*
X91144200Y-82824900D02*
X90343400Y-82824900D01*
X90343400Y-82824900D02*
X90343400Y-88623600D01*
X90343400Y-88623600D02*
X91144200Y-88623600D01*
X91144200Y-88623600D02*
X91144200Y-91722900D01*
X91144200Y-91722900D02*
X90343400Y-91722900D01*
X90343400Y-91722900D02*
X90343400Y-92723300D01*
X90343400Y-92723300D02*
X76344200Y-92723300D01*
X76344200Y-92723300D02*
X76344200Y-91722900D01*
X76344200Y-91722900D02*
X75541900Y-91722900D01*
X151743000Y-91722900D02*
X151743000Y-88623600D01*
X151743000Y-88623600D02*
X152543000Y-88623600D01*
X152543000Y-88623600D02*
X152543000Y-82824900D01*
X152543000Y-82824900D02*
X151743000Y-82824900D01*
X151743000Y-82824900D02*
X151743000Y-79722900D01*
X151743000Y-79722900D02*
X152543000Y-79722900D01*
X152543000Y-79722900D02*
X152543000Y-78723800D01*
X152543000Y-78723800D02*
X166542000Y-78723800D01*
X166542000Y-78723800D02*
X166542000Y-79722900D01*
X166542000Y-79722900D02*
X167344000Y-79722900D01*
X167344000Y-79722900D02*
X167344000Y-82824900D01*
X167344000Y-82824900D02*
X166542000Y-82824900D01*
X166542000Y-82824900D02*
X166542000Y-88623600D01*
X166542000Y-88623600D02*
X167344000Y-88623600D01*
X167344000Y-88623600D02*
X167344000Y-91722900D01*
X167344000Y-91722900D02*
X166542000Y-91722900D01*
X166542000Y-91722900D02*
X166542000Y-92723300D01*
X166542000Y-92723300D02*
X152543000Y-92723300D01*
X152543000Y-92723300D02*
X152543000Y-91722900D01*
X152543000Y-91722900D02*
X151743000Y-91722900D01*
X175648700Y-91722900D02*
X175648700Y-88623600D01*
X175648700Y-88623600D02*
X176447700Y-88623600D01*
X176447700Y-88623600D02*
X176447700Y-82824900D01*
X176447700Y-82824900D02*
X175648700Y-82824900D01*
X175648700Y-82824900D02*
X175648700Y-79722900D01*
X175648700Y-79722900D02*
X176447700Y-79722900D01*
X176447700Y-79722900D02*
X176447700Y-78723800D01*
X176447700Y-78723800D02*
X190447700Y-78723800D01*
X190447700Y-78723800D02*
X190447700Y-79722900D01*
X190447700Y-79722900D02*
X191249700Y-79722900D01*
X191249700Y-79722900D02*
X191249700Y-82824900D01*
X191249700Y-82824900D02*
X190447700Y-82824900D01*
X190447700Y-82824900D02*
X190447700Y-88623600D01*
X190447700Y-88623600D02*
X191249700Y-88623600D01*
X191249700Y-88623600D02*
X191249700Y-91722900D01*
X191249700Y-91722900D02*
X190447700Y-91722900D01*
X190447700Y-91722900D02*
X190447700Y-92723300D01*
X190447700Y-92723300D02*
X176447700Y-92723300D01*
X176447700Y-92723300D02*
X176447700Y-91722900D01*
X176447700Y-91722900D02*
X175648700Y-91722900D01*
X196987000Y-91722900D02*
X196987000Y-88623600D01*
X196987000Y-88623600D02*
X197786000Y-88623600D01*
X197786000Y-88623600D02*
X197786000Y-82824900D01*
X197786000Y-82824900D02*
X196987000Y-82824900D01*
X196987000Y-82824900D02*
X196987000Y-79722900D01*
X196987000Y-79722900D02*
X197786000Y-79722900D01*
X197786000Y-79722900D02*
X197786000Y-78723800D01*
X197786000Y-78723800D02*
X211786000Y-78723800D01*
X211786000Y-78723800D02*
X211786000Y-79722900D01*
X211786000Y-79722900D02*
X212588000Y-79722900D01*
X212588000Y-79722900D02*
X212588000Y-82824900D01*
X212588000Y-82824900D02*
X211786000Y-82824900D01*
X211786000Y-82824900D02*
X211786000Y-88623600D01*
X211786000Y-88623600D02*
X212588000Y-88623600D01*
X212588000Y-88623600D02*
X212588000Y-91722900D01*
X212588000Y-91722900D02*
X211786000Y-91722900D01*
X211786000Y-91722900D02*
X211786000Y-92723300D01*
X211786000Y-92723300D02*
X197786000Y-92723300D01*
X197786000Y-92723300D02*
X197786000Y-91722900D01*
X197786000Y-91722900D02*
X196987000Y-91722900D01*
X218417000Y-91722900D02*
X218417000Y-88623600D01*
X218417000Y-88623600D02*
X219219000Y-88623600D01*
X219219000Y-88623600D02*
X219219000Y-82824900D01*
X219219000Y-82824900D02*
X218417000Y-82824900D01*
X218417000Y-82824900D02*
X218417000Y-79722900D01*
X218417000Y-79722900D02*
X219219000Y-79722900D01*
X219219000Y-79722900D02*
X219219000Y-78723800D01*
X219219000Y-78723800D02*
X233218000Y-78723800D01*
X233218000Y-78723800D02*
X233218000Y-79722900D01*
X233218000Y-79722900D02*
X234018000Y-79722900D01*
X234018000Y-79722900D02*
X234018000Y-82824900D01*
X234018000Y-82824900D02*
X233218000Y-82824900D01*
X233218000Y-82824900D02*
X233218000Y-88623600D01*
X233218000Y-88623600D02*
X234018000Y-88623600D01*
X234018000Y-88623600D02*
X234018000Y-91722900D01*
X234018000Y-91722900D02*
X233218000Y-91722900D01*
X233218000Y-91722900D02*
X233218000Y-92723300D01*
X233218000Y-92723300D02*
X219219000Y-92723300D01*
X219219000Y-92723300D02*
X219219000Y-91722900D01*
X219219000Y-91722900D02*
X218417000Y-91722900D01*
X242231000Y-91722900D02*
X242231000Y-88623600D01*
X242231000Y-88623600D02*
X243030000Y-88623600D01*
X243030000Y-88623600D02*
X243030000Y-82824900D01*
X243030000Y-82824900D02*
X242231000Y-82824900D01*
X242231000Y-82824900D02*
X242231000Y-79722900D01*
X242231000Y-79722900D02*
X243030000Y-79722900D01*
X243030000Y-79722900D02*
X243030000Y-78723800D01*
X243030000Y-78723800D02*
X257030000Y-78723800D01*
X257030000Y-78723800D02*
X257030000Y-79722900D01*
X257030000Y-79722900D02*
X257829000Y-79722900D01*
X257829000Y-79722900D02*
X257829000Y-82824900D01*
X257829000Y-82824900D02*
X257030000Y-82824900D01*
X257030000Y-82824900D02*
X257030000Y-88623600D01*
X257030000Y-88623600D02*
X257829000Y-88623600D01*
X257829000Y-88623600D02*
X257829000Y-91722900D01*
X257829000Y-91722900D02*
X257030000Y-91722900D01*
X257030000Y-91722900D02*
X257030000Y-92723300D01*
X257030000Y-92723300D02*
X243030000Y-92723300D01*
X243030000Y-92723300D02*
X243030000Y-91722900D01*
X243030000Y-91722900D02*
X242231000Y-91722900D01*
X266042000Y-91722900D02*
X266042000Y-88623600D01*
X266042000Y-88623600D02*
X266843000Y-88623600D01*
X266843000Y-88623600D02*
X266843000Y-82824900D01*
X266843000Y-82824900D02*
X266042000Y-82824900D01*
X266042000Y-82824900D02*
X266042000Y-79722900D01*
X266042000Y-79722900D02*
X266843000Y-79722900D01*
X266843000Y-79722900D02*
X266843000Y-78723800D01*
X266843000Y-78723800D02*
X280842000Y-78723800D01*
X280842000Y-78723800D02*
X280842000Y-79722900D01*
X280842000Y-79722900D02*
X281643000Y-79722900D01*
X281643000Y-79722900D02*
X281643000Y-82824900D01*
X281643000Y-82824900D02*
X280842000Y-82824900D01*
X280842000Y-82824900D02*
X280842000Y-88623600D01*
X280842000Y-88623600D02*
X281643000Y-88623600D01*
X281643000Y-88623600D02*
X281643000Y-91722900D01*
X281643000Y-91722900D02*
X280842000Y-91722900D01*
X280842000Y-91722900D02*
X280842000Y-92723300D01*
X280842000Y-92723300D02*
X266843000Y-92723300D01*
X266843000Y-92723300D02*
X266843000Y-91722900D01*
X266843000Y-91722900D02*
X266042000Y-91722900D01*
X5330900Y-67173100D02*
X5330900Y-64374300D01*
X5330900Y-64374300D02*
X6155000Y-64374300D01*
X6155000Y-64374300D02*
X6155000Y-61142800D01*
X6155000Y-61142800D02*
X12906000Y-61142800D01*
X12906000Y-61142800D02*
X12906000Y-64374300D01*
X12906000Y-64374300D02*
X14430100Y-64374300D01*
X14430100Y-64374300D02*
X14430100Y-63773500D01*
X14430100Y-63773500D02*
X13630800Y-63773500D01*
X13630800Y-63773500D02*
X13630800Y-60672900D01*
X13630800Y-60672900D02*
X14430100Y-60672900D01*
X14430100Y-60672900D02*
X14430100Y-59673900D01*
X14430100Y-59673900D02*
X28429600Y-59673900D01*
X28429600Y-59673900D02*
X28429600Y-60672900D01*
X28429600Y-60672900D02*
X29228800Y-60672900D01*
X29228800Y-60672900D02*
X29228800Y-63773500D01*
X29228800Y-63773500D02*
X28429600Y-63773500D01*
X28429600Y-63773500D02*
X28429600Y-64374300D01*
X28429600Y-64374300D02*
X29955100Y-64374300D01*
X29955100Y-64374300D02*
X29955100Y-61142800D01*
X29955100Y-61142800D02*
X36706000Y-61142800D01*
X36706000Y-61142800D02*
X36706000Y-64374300D01*
X36706000Y-64374300D02*
X37530100Y-64374300D01*
X37530100Y-64374300D02*
X37530100Y-67173100D01*
X37530100Y-67173100D02*
X36706000Y-67173100D01*
X36706000Y-67173100D02*
X36706000Y-73443200D01*
X36706000Y-73443200D02*
X34979400Y-73443200D01*
X34979400Y-73443200D02*
X34979400Y-74643500D01*
X34979400Y-74643500D02*
X31679000Y-74643500D01*
X31679000Y-74643500D02*
X31679000Y-73443200D01*
X31679000Y-73443200D02*
X29955100Y-73443200D01*
X29955100Y-73443200D02*
X29955100Y-68972800D01*
X29955100Y-68972800D02*
X28429600Y-68972800D01*
X28429600Y-68972800D02*
X28429600Y-69573700D01*
X28429600Y-69573700D02*
X29228800Y-69573700D01*
X29228800Y-69573700D02*
X29228800Y-72672900D01*
X29228800Y-72672900D02*
X28429600Y-72672900D01*
X28429600Y-72672900D02*
X28429600Y-73673300D01*
X28429600Y-73673300D02*
X14430100Y-73673300D01*
X14430100Y-73673300D02*
X14430100Y-72672900D01*
X14430100Y-72672900D02*
X13630800Y-72672900D01*
X13630800Y-72672900D02*
X13630800Y-69573700D01*
X13630800Y-69573700D02*
X14430100Y-69573700D01*
X14430100Y-69573700D02*
X14430100Y-68972800D01*
X14430100Y-68972800D02*
X12906000Y-68972800D01*
X12906000Y-68972800D02*
X12906000Y-73443200D01*
X12906000Y-73443200D02*
X11179300Y-73443200D01*
X11179300Y-73443200D02*
X11179300Y-74643500D01*
X11179300Y-74643500D02*
X7880300Y-74643500D01*
X7880300Y-74643500D02*
X7880300Y-73443200D01*
X7880300Y-73443200D02*
X6155000Y-73443200D01*
X6155000Y-73443200D02*
X6155000Y-67173100D01*
X6155000Y-67173100D02*
X5330900Y-67173100D01*
X243456000Y-67173100D02*
X243456000Y-64374300D01*
X243456000Y-64374300D02*
X244280000Y-64374300D01*
X244280000Y-64374300D02*
X244280000Y-61142800D01*
X244280000Y-61142800D02*
X251029000Y-61142800D01*
X251029000Y-61142800D02*
X251029000Y-64374300D01*
X251029000Y-64374300D02*
X252555000Y-64374300D01*
X252555000Y-64374300D02*
X252555000Y-63773500D01*
X252555000Y-63773500D02*
X251753000Y-63773500D01*
X251753000Y-63773500D02*
X251753000Y-60672900D01*
X251753000Y-60672900D02*
X252555000Y-60672900D01*
X252555000Y-60672900D02*
X252555000Y-59673900D01*
X252555000Y-59673900D02*
X266555000Y-59673900D01*
X266555000Y-59673900D02*
X266555000Y-60672900D01*
X266555000Y-60672900D02*
X267354000Y-60672900D01*
X267354000Y-60672900D02*
X267354000Y-63773500D01*
X267354000Y-63773500D02*
X266555000Y-63773500D01*
X266555000Y-63773500D02*
X266555000Y-64374300D01*
X266555000Y-64374300D02*
X268080000Y-64374300D01*
X268080000Y-64374300D02*
X268080000Y-61142800D01*
X268080000Y-61142800D02*
X274830000Y-61142800D01*
X274830000Y-61142800D02*
X274830000Y-64374300D01*
X274830000Y-64374300D02*
X275655000Y-64374300D01*
X275655000Y-64374300D02*
X275655000Y-67173100D01*
X275655000Y-67173100D02*
X274830000Y-67173100D01*
X274830000Y-67173100D02*
X274830000Y-73443200D01*
X274830000Y-73443200D02*
X273105000Y-73443200D01*
X273105000Y-73443200D02*
X273105000Y-74643500D01*
X273105000Y-74643500D02*
X269804000Y-74643500D01*
X269804000Y-74643500D02*
X269804000Y-73443200D01*
X269804000Y-73443200D02*
X268080000Y-73443200D01*
X268080000Y-73443200D02*
X268080000Y-68972800D01*
X268080000Y-68972800D02*
X266555000Y-68972800D01*
X266555000Y-68972800D02*
X266555000Y-69573700D01*
X266555000Y-69573700D02*
X267354000Y-69573700D01*
X267354000Y-69573700D02*
X267354000Y-72672900D01*
X267354000Y-72672900D02*
X266555000Y-72672900D01*
X266555000Y-72672900D02*
X266555000Y-73673300D01*
X266555000Y-73673300D02*
X252555000Y-73673300D01*
X252555000Y-73673300D02*
X252555000Y-72672900D01*
X252555000Y-72672900D02*
X251753000Y-72672900D01*
X251753000Y-72672900D02*
X251753000Y-69573700D01*
X251753000Y-69573700D02*
X252555000Y-69573700D01*
X252555000Y-69573700D02*
X252555000Y-68972800D01*
X252555000Y-68972800D02*
X251029000Y-68972800D01*
X251029000Y-68972800D02*
X251029000Y-73443200D01*
X251029000Y-73443200D02*
X249304000Y-73443200D01*
X249304000Y-73443200D02*
X249304000Y-74643500D01*
X249304000Y-74643500D02*
X246005000Y-74643500D01*
X246005000Y-74643500D02*
X246005000Y-73443200D01*
X246005000Y-73443200D02*
X244280000Y-73443200D01*
X244280000Y-73443200D02*
X244280000Y-67173100D01*
X244280000Y-67173100D02*
X243456000Y-67173100D01*
X44587100Y-72672900D02*
X44587100Y-69573700D01*
X44587100Y-69573700D02*
X45387900Y-69573700D01*
X45387900Y-69573700D02*
X45387900Y-63773500D01*
X45387900Y-63773500D02*
X44587100Y-63773500D01*
X44587100Y-63773500D02*
X44587100Y-60672900D01*
X44587100Y-60672900D02*
X45387900Y-60672900D01*
X45387900Y-60672900D02*
X45387900Y-59673900D01*
X45387900Y-59673900D02*
X59387200Y-59673900D01*
X59387200Y-59673900D02*
X59387200Y-60672900D01*
X59387200Y-60672900D02*
X60188000Y-60672900D01*
X60188000Y-60672900D02*
X60188000Y-63773500D01*
X60188000Y-63773500D02*
X59387200Y-63773500D01*
X59387200Y-63773500D02*
X59387200Y-69573700D01*
X59387200Y-69573700D02*
X60188000Y-69573700D01*
X60188000Y-69573700D02*
X60188000Y-72672900D01*
X60188000Y-72672900D02*
X59387200Y-72672900D01*
X59387200Y-72672900D02*
X59387200Y-73673300D01*
X59387200Y-73673300D02*
X45387900Y-73673300D01*
X45387900Y-73673300D02*
X45387900Y-72672900D01*
X45387900Y-72672900D02*
X44587100Y-72672900D01*
X63637100Y-72672900D02*
X63637100Y-69573700D01*
X63637100Y-69573700D02*
X64437900Y-69573700D01*
X64437900Y-69573700D02*
X64437900Y-63773500D01*
X64437900Y-63773500D02*
X63637100Y-63773500D01*
X63637100Y-63773500D02*
X63637100Y-60672900D01*
X63637100Y-60672900D02*
X64437900Y-60672900D01*
X64437900Y-60672900D02*
X64437900Y-59673900D01*
X64437900Y-59673900D02*
X78437200Y-59673900D01*
X78437200Y-59673900D02*
X78437200Y-60672900D01*
X78437200Y-60672900D02*
X79238000Y-60672900D01*
X79238000Y-60672900D02*
X79238000Y-63773500D01*
X79238000Y-63773500D02*
X78437200Y-63773500D01*
X78437200Y-63773500D02*
X78437200Y-69573700D01*
X78437200Y-69573700D02*
X79238000Y-69573700D01*
X79238000Y-69573700D02*
X79238000Y-72672900D01*
X79238000Y-72672900D02*
X78437200Y-72672900D01*
X78437200Y-72672900D02*
X78437200Y-73673300D01*
X78437200Y-73673300D02*
X64437900Y-73673300D01*
X64437900Y-73673300D02*
X64437900Y-72672900D01*
X64437900Y-72672900D02*
X63637100Y-72672900D01*
X82687100Y-72672900D02*
X82687100Y-69573700D01*
X82687100Y-69573700D02*
X83487900Y-69573700D01*
X83487900Y-69573700D02*
X83487900Y-63773500D01*
X83487900Y-63773500D02*
X82687100Y-63773500D01*
X82687100Y-63773500D02*
X82687100Y-60672900D01*
X82687100Y-60672900D02*
X83487900Y-60672900D01*
X83487900Y-60672900D02*
X83487900Y-59673900D01*
X83487900Y-59673900D02*
X97487200Y-59673900D01*
X97487200Y-59673900D02*
X97487200Y-60672900D01*
X97487200Y-60672900D02*
X98286600Y-60672900D01*
X98286600Y-60672900D02*
X98286600Y-63773500D01*
X98286600Y-63773500D02*
X97487200Y-63773500D01*
X97487200Y-63773500D02*
X97487200Y-69573700D01*
X97487200Y-69573700D02*
X98286600Y-69573700D01*
X98286600Y-69573700D02*
X98286600Y-72672900D01*
X98286600Y-72672900D02*
X97487200Y-72672900D01*
X97487200Y-72672900D02*
X97487200Y-73673300D01*
X97487200Y-73673300D02*
X83487900Y-73673300D01*
X83487900Y-73673300D02*
X83487900Y-72672900D01*
X83487900Y-72672900D02*
X82687100Y-72672900D01*
X101737000Y-72672900D02*
X101737000Y-69573700D01*
X101737000Y-69573700D02*
X102536000Y-69573700D01*
X102536000Y-69573700D02*
X102536000Y-63773500D01*
X102536000Y-63773500D02*
X101737000Y-63773500D01*
X101737000Y-63773500D02*
X101737000Y-60672900D01*
X101737000Y-60672900D02*
X102536000Y-60672900D01*
X102536000Y-60672900D02*
X102536000Y-59673900D01*
X102536000Y-59673900D02*
X116536000Y-59673900D01*
X116536000Y-59673900D02*
X116536000Y-60672900D01*
X116536000Y-60672900D02*
X117337000Y-60672900D01*
X117337000Y-60672900D02*
X117337000Y-63773500D01*
X117337000Y-63773500D02*
X116536000Y-63773500D01*
X116536000Y-63773500D02*
X116536000Y-69573700D01*
X116536000Y-69573700D02*
X117337000Y-69573700D01*
X117337000Y-69573700D02*
X117337000Y-72672900D01*
X117337000Y-72672900D02*
X116536000Y-72672900D01*
X116536000Y-72672900D02*
X116536000Y-73673300D01*
X116536000Y-73673300D02*
X102536000Y-73673300D01*
X102536000Y-73673300D02*
X102536000Y-72672900D01*
X102536000Y-72672900D02*
X101737000Y-72672900D01*
X120787000Y-72672900D02*
X120787000Y-69573700D01*
X120787000Y-69573700D02*
X121588000Y-69573700D01*
X121588000Y-69573700D02*
X121588000Y-63773500D01*
X121588000Y-63773500D02*
X120787000Y-63773500D01*
X120787000Y-63773500D02*
X120787000Y-60672900D01*
X120787000Y-60672900D02*
X121588000Y-60672900D01*
X121588000Y-60672900D02*
X121588000Y-59673900D01*
X121588000Y-59673900D02*
X135587000Y-59673900D01*
X135587000Y-59673900D02*
X135587000Y-60672900D01*
X135587000Y-60672900D02*
X136387000Y-60672900D01*
X136387000Y-60672900D02*
X136387000Y-63773500D01*
X136387000Y-63773500D02*
X135587000Y-63773500D01*
X135587000Y-63773500D02*
X135587000Y-69573700D01*
X135587000Y-69573700D02*
X136387000Y-69573700D01*
X136387000Y-69573700D02*
X136387000Y-72672900D01*
X136387000Y-72672900D02*
X135587000Y-72672900D01*
X135587000Y-72672900D02*
X135587000Y-73673300D01*
X135587000Y-73673300D02*
X121588000Y-73673300D01*
X121588000Y-73673300D02*
X121588000Y-72672900D01*
X121588000Y-72672900D02*
X120787000Y-72672900D01*
X139837000Y-72672900D02*
X139837000Y-69573700D01*
X139837000Y-69573700D02*
X140636000Y-69573700D01*
X140636000Y-69573700D02*
X140636000Y-63773500D01*
X140636000Y-63773500D02*
X139837000Y-63773500D01*
X139837000Y-63773500D02*
X139837000Y-60672900D01*
X139837000Y-60672900D02*
X140636000Y-60672900D01*
X140636000Y-60672900D02*
X140636000Y-59673900D01*
X140636000Y-59673900D02*
X154636000Y-59673900D01*
X154636000Y-59673900D02*
X154636000Y-60672900D01*
X154636000Y-60672900D02*
X155438000Y-60672900D01*
X155438000Y-60672900D02*
X155438000Y-63773500D01*
X155438000Y-63773500D02*
X154636000Y-63773500D01*
X154636000Y-63773500D02*
X154636000Y-69573700D01*
X154636000Y-69573700D02*
X155438000Y-69573700D01*
X155438000Y-69573700D02*
X155438000Y-72672900D01*
X155438000Y-72672900D02*
X154636000Y-72672900D01*
X154636000Y-72672900D02*
X154636000Y-73673300D01*
X154636000Y-73673300D02*
X140636000Y-73673300D01*
X140636000Y-73673300D02*
X140636000Y-72672900D01*
X140636000Y-72672900D02*
X139837000Y-72672900D01*
X158887000Y-72672900D02*
X158887000Y-69573700D01*
X158887000Y-69573700D02*
X159688000Y-69573700D01*
X159688000Y-69573700D02*
X159688000Y-63773500D01*
X159688000Y-63773500D02*
X158887000Y-63773500D01*
X158887000Y-63773500D02*
X158887000Y-60672900D01*
X158887000Y-60672900D02*
X159688000Y-60672900D01*
X159688000Y-60672900D02*
X159688000Y-59673900D01*
X159688000Y-59673900D02*
X173687000Y-59673900D01*
X173687000Y-59673900D02*
X173687000Y-60672900D01*
X173687000Y-60672900D02*
X174488000Y-60672900D01*
X174488000Y-60672900D02*
X174488000Y-63773500D01*
X174488000Y-63773500D02*
X173687000Y-63773500D01*
X173687000Y-63773500D02*
X173687000Y-69573700D01*
X173687000Y-69573700D02*
X174488000Y-69573700D01*
X174488000Y-69573700D02*
X174488000Y-72672900D01*
X174488000Y-72672900D02*
X173687000Y-72672900D01*
X173687000Y-72672900D02*
X173687000Y-73673300D01*
X173687000Y-73673300D02*
X159688000Y-73673300D01*
X159688000Y-73673300D02*
X159688000Y-72672900D01*
X159688000Y-72672900D02*
X158887000Y-72672900D01*
X177937000Y-72672900D02*
X177937000Y-69573700D01*
X177937000Y-69573700D02*
X178738000Y-69573700D01*
X178738000Y-69573700D02*
X178738000Y-63773500D01*
X178738000Y-63773500D02*
X177937000Y-63773500D01*
X177937000Y-63773500D02*
X177937000Y-60672900D01*
X177937000Y-60672900D02*
X178738000Y-60672900D01*
X178738000Y-60672900D02*
X178738000Y-59673900D01*
X178738000Y-59673900D02*
X192737000Y-59673900D01*
X192737000Y-59673900D02*
X192737000Y-60672900D01*
X192737000Y-60672900D02*
X193537000Y-60672900D01*
X193537000Y-60672900D02*
X193537000Y-63773500D01*
X193537000Y-63773500D02*
X192737000Y-63773500D01*
X192737000Y-63773500D02*
X192737000Y-69573700D01*
X192737000Y-69573700D02*
X193537000Y-69573700D01*
X193537000Y-69573700D02*
X193537000Y-72672900D01*
X193537000Y-72672900D02*
X192737000Y-72672900D01*
X192737000Y-72672900D02*
X192737000Y-73673300D01*
X192737000Y-73673300D02*
X178738000Y-73673300D01*
X178738000Y-73673300D02*
X178738000Y-72672900D01*
X178738000Y-72672900D02*
X177937000Y-72672900D01*
X196987000Y-72672900D02*
X196987000Y-69573700D01*
X196987000Y-69573700D02*
X197786000Y-69573700D01*
X197786000Y-69573700D02*
X197786000Y-63773500D01*
X197786000Y-63773500D02*
X196987000Y-63773500D01*
X196987000Y-63773500D02*
X196987000Y-60672900D01*
X196987000Y-60672900D02*
X197786000Y-60672900D01*
X197786000Y-60672900D02*
X197786000Y-59673900D01*
X197786000Y-59673900D02*
X211786000Y-59673900D01*
X211786000Y-59673900D02*
X211786000Y-60672900D01*
X211786000Y-60672900D02*
X212588000Y-60672900D01*
X212588000Y-60672900D02*
X212588000Y-63773500D01*
X212588000Y-63773500D02*
X211786000Y-63773500D01*
X211786000Y-63773500D02*
X211786000Y-69573700D01*
X211786000Y-69573700D02*
X212588000Y-69573700D01*
X212588000Y-69573700D02*
X212588000Y-72672900D01*
X212588000Y-72672900D02*
X211786000Y-72672900D01*
X211786000Y-72672900D02*
X211786000Y-73673300D01*
X211786000Y-73673300D02*
X197786000Y-73673300D01*
X197786000Y-73673300D02*
X197786000Y-72672900D01*
X197786000Y-72672900D02*
X196987000Y-72672900D01*
X216037000Y-72672900D02*
X216037000Y-69573700D01*
X216037000Y-69573700D02*
X216838000Y-69573700D01*
X216838000Y-69573700D02*
X216838000Y-63773500D01*
X216838000Y-63773500D02*
X216037000Y-63773500D01*
X216037000Y-63773500D02*
X216037000Y-60672900D01*
X216037000Y-60672900D02*
X216838000Y-60672900D01*
X216838000Y-60672900D02*
X216838000Y-59673900D01*
X216838000Y-59673900D02*
X230837000Y-59673900D01*
X230837000Y-59673900D02*
X230837000Y-60672900D01*
X230837000Y-60672900D02*
X231637000Y-60672900D01*
X231637000Y-60672900D02*
X231637000Y-63773500D01*
X231637000Y-63773500D02*
X230837000Y-63773500D01*
X230837000Y-63773500D02*
X230837000Y-69573700D01*
X230837000Y-69573700D02*
X231637000Y-69573700D01*
X231637000Y-69573700D02*
X231637000Y-72672900D01*
X231637000Y-72672900D02*
X230837000Y-72672900D01*
X230837000Y-72672900D02*
X230837000Y-73673300D01*
X230837000Y-73673300D02*
X216838000Y-73673300D01*
X216838000Y-73673300D02*
X216838000Y-72672900D01*
X216838000Y-72672900D02*
X216037000Y-72672900D01*
X248219000Y-48124700D02*
X248219000Y-45322900D01*
X248219000Y-45322900D02*
X249043000Y-45322900D01*
X249043000Y-45322900D02*
X249043000Y-42094300D01*
X249043000Y-42094300D02*
X255792000Y-42094300D01*
X255792000Y-42094300D02*
X255792000Y-45322900D01*
X255792000Y-45322900D02*
X257316000Y-45322900D01*
X257316000Y-45322900D02*
X257316000Y-44723500D01*
X257316000Y-44723500D02*
X256517000Y-44723500D01*
X256517000Y-44723500D02*
X256517000Y-41624400D01*
X256517000Y-41624400D02*
X257316000Y-41624400D01*
X257316000Y-41624400D02*
X257316000Y-40623900D01*
X257316000Y-40623900D02*
X271317000Y-40623900D01*
X271317000Y-40623900D02*
X271317000Y-41624400D01*
X271317000Y-41624400D02*
X272118000Y-41624400D01*
X272118000Y-41624400D02*
X272118000Y-44723500D01*
X272118000Y-44723500D02*
X271317000Y-44723500D01*
X271317000Y-44723500D02*
X271317000Y-45322900D01*
X271317000Y-45322900D02*
X272842000Y-45322900D01*
X272842000Y-45322900D02*
X272842000Y-42094300D01*
X272842000Y-42094300D02*
X279592000Y-42094300D01*
X279592000Y-42094300D02*
X279592000Y-45322900D01*
X279592000Y-45322900D02*
X280418000Y-45322900D01*
X280418000Y-45322900D02*
X280418000Y-48124700D01*
X280418000Y-48124700D02*
X279592000Y-48124700D01*
X279592000Y-48124700D02*
X279592000Y-54393200D01*
X279592000Y-54393200D02*
X277867000Y-54393200D01*
X277867000Y-54393200D02*
X277867000Y-55594700D01*
X277867000Y-55594700D02*
X274568000Y-55594700D01*
X274568000Y-55594700D02*
X274568000Y-54393200D01*
X274568000Y-54393200D02*
X272842000Y-54393200D01*
X272842000Y-54393200D02*
X272842000Y-49922800D01*
X272842000Y-49922800D02*
X271317000Y-49922800D01*
X271317000Y-49922800D02*
X271317000Y-50523500D01*
X271317000Y-50523500D02*
X272118000Y-50523500D01*
X272118000Y-50523500D02*
X272118000Y-53624100D01*
X272118000Y-53624100D02*
X271317000Y-53624100D01*
X271317000Y-53624100D02*
X271317000Y-54624600D01*
X271317000Y-54624600D02*
X257316000Y-54624600D01*
X257316000Y-54624600D02*
X257316000Y-53624100D01*
X257316000Y-53624100D02*
X256517000Y-53624100D01*
X256517000Y-53624100D02*
X256517000Y-50523500D01*
X256517000Y-50523500D02*
X257316000Y-50523500D01*
X257316000Y-50523500D02*
X257316000Y-49922800D01*
X257316000Y-49922800D02*
X255792000Y-49922800D01*
X255792000Y-49922800D02*
X255792000Y-54393200D01*
X255792000Y-54393200D02*
X254067000Y-54393200D01*
X254067000Y-54393200D02*
X254067000Y-55594700D01*
X254067000Y-55594700D02*
X250768000Y-55594700D01*
X250768000Y-55594700D02*
X250768000Y-54393200D01*
X250768000Y-54393200D02*
X249043000Y-54393200D01*
X249043000Y-54393200D02*
X249043000Y-48124700D01*
X249043000Y-48124700D02*
X248219000Y-48124700D01*
X8868300Y-53624100D02*
X8868300Y-50523500D01*
X8868300Y-50523500D02*
X9668900Y-50523500D01*
X9668900Y-50523500D02*
X9668900Y-44723500D01*
X9668900Y-44723500D02*
X8868300Y-44723500D01*
X8868300Y-44723500D02*
X8868300Y-41624400D01*
X8868300Y-41624400D02*
X9668900Y-41624400D01*
X9668900Y-41624400D02*
X9668900Y-40623900D01*
X9668900Y-40623900D02*
X23668500Y-40623900D01*
X23668500Y-40623900D02*
X23668500Y-41624400D01*
X23668500Y-41624400D02*
X24469100Y-41624400D01*
X24469100Y-41624400D02*
X24469100Y-44723500D01*
X24469100Y-44723500D02*
X23668500Y-44723500D01*
X23668500Y-44723500D02*
X23668500Y-50523500D01*
X23668500Y-50523500D02*
X24469100Y-50523500D01*
X24469100Y-50523500D02*
X24469100Y-53624100D01*
X24469100Y-53624100D02*
X23668500Y-53624100D01*
X23668500Y-53624100D02*
X23668500Y-54624600D01*
X23668500Y-54624600D02*
X9668900Y-54624600D01*
X9668900Y-54624600D02*
X9668900Y-53624100D01*
X9668900Y-53624100D02*
X8868300Y-53624100D01*
X35062100Y-53624100D02*
X35062100Y-50523500D01*
X35062100Y-50523500D02*
X35862900Y-50523500D01*
X35862900Y-50523500D02*
X35862900Y-44723500D01*
X35862900Y-44723500D02*
X35062100Y-44723500D01*
X35062100Y-44723500D02*
X35062100Y-41624400D01*
X35062100Y-41624400D02*
X35862900Y-41624400D01*
X35862900Y-41624400D02*
X35862900Y-40623900D01*
X35862900Y-40623900D02*
X49862200Y-40623900D01*
X49862200Y-40623900D02*
X49862200Y-41624400D01*
X49862200Y-41624400D02*
X50660200Y-41624400D01*
X50660200Y-41624400D02*
X50660200Y-44723500D01*
X50660200Y-44723500D02*
X49862200Y-44723500D01*
X49862200Y-44723500D02*
X49862200Y-50523500D01*
X49862200Y-50523500D02*
X50660200Y-50523500D01*
X50660200Y-50523500D02*
X50660200Y-53624100D01*
X50660200Y-53624100D02*
X49862200Y-53624100D01*
X49862200Y-53624100D02*
X49862200Y-54624600D01*
X49862200Y-54624600D02*
X35862900Y-54624600D01*
X35862900Y-54624600D02*
X35862900Y-53624100D01*
X35862900Y-53624100D02*
X35062100Y-53624100D01*
X54112100Y-53624100D02*
X54112100Y-50523500D01*
X54112100Y-50523500D02*
X54910100Y-50523500D01*
X54910100Y-50523500D02*
X54910100Y-44723500D01*
X54910100Y-44723500D02*
X54112100Y-44723500D01*
X54112100Y-44723500D02*
X54112100Y-41624400D01*
X54112100Y-41624400D02*
X54910100Y-41624400D01*
X54910100Y-41624400D02*
X54910100Y-40623900D01*
X54910100Y-40623900D02*
X68910800Y-40623900D01*
X68910800Y-40623900D02*
X68910800Y-41624400D01*
X68910800Y-41624400D02*
X69711600Y-41624400D01*
X69711600Y-41624400D02*
X69711600Y-44723500D01*
X69711600Y-44723500D02*
X68910800Y-44723500D01*
X68910800Y-44723500D02*
X68910800Y-50523500D01*
X68910800Y-50523500D02*
X69711600Y-50523500D01*
X69711600Y-50523500D02*
X69711600Y-53624100D01*
X69711600Y-53624100D02*
X68910800Y-53624100D01*
X68910800Y-53624100D02*
X68910800Y-54624600D01*
X68910800Y-54624600D02*
X54910100Y-54624600D01*
X54910100Y-54624600D02*
X54910100Y-53624100D01*
X54910100Y-53624100D02*
X54112100Y-53624100D01*
X73162100Y-53624100D02*
X73162100Y-50523500D01*
X73162100Y-50523500D02*
X73961500Y-50523500D01*
X73961500Y-50523500D02*
X73961500Y-44723500D01*
X73961500Y-44723500D02*
X73162100Y-44723500D01*
X73162100Y-44723500D02*
X73162100Y-41624400D01*
X73162100Y-41624400D02*
X73961500Y-41624400D01*
X73961500Y-41624400D02*
X73961500Y-40623900D01*
X73961500Y-40623900D02*
X87960800Y-40623900D01*
X87960800Y-40623900D02*
X87960800Y-41624400D01*
X87960800Y-41624400D02*
X88761600Y-41624400D01*
X88761600Y-41624400D02*
X88761600Y-44723500D01*
X88761600Y-44723500D02*
X87960800Y-44723500D01*
X87960800Y-44723500D02*
X87960800Y-50523500D01*
X87960800Y-50523500D02*
X88761600Y-50523500D01*
X88761600Y-50523500D02*
X88761600Y-53624100D01*
X88761600Y-53624100D02*
X87960800Y-53624100D01*
X87960800Y-53624100D02*
X87960800Y-54624600D01*
X87960800Y-54624600D02*
X73961500Y-54624600D01*
X73961500Y-54624600D02*
X73961500Y-53624100D01*
X73961500Y-53624100D02*
X73162100Y-53624100D01*
X92212100Y-53624100D02*
X92212100Y-50523500D01*
X92212100Y-50523500D02*
X93011500Y-50523500D01*
X93011500Y-50523500D02*
X93011500Y-44723500D01*
X93011500Y-44723500D02*
X92212100Y-44723500D01*
X92212100Y-44723500D02*
X92212100Y-41624400D01*
X92212100Y-41624400D02*
X93011500Y-41624400D01*
X93011500Y-41624400D02*
X93011500Y-40623900D01*
X93011500Y-40623900D02*
X107011000Y-40623900D01*
X107011000Y-40623900D02*
X107011000Y-41624400D01*
X107011000Y-41624400D02*
X107810000Y-41624400D01*
X107810000Y-41624400D02*
X107810000Y-44723500D01*
X107810000Y-44723500D02*
X107011000Y-44723500D01*
X107011000Y-44723500D02*
X107011000Y-50523500D01*
X107011000Y-50523500D02*
X107810000Y-50523500D01*
X107810000Y-50523500D02*
X107810000Y-53624100D01*
X107810000Y-53624100D02*
X107011000Y-53624100D01*
X107011000Y-53624100D02*
X107011000Y-54624600D01*
X107011000Y-54624600D02*
X93011500Y-54624600D01*
X93011500Y-54624600D02*
X93011500Y-53624100D01*
X93011500Y-53624100D02*
X92212100Y-53624100D01*
X111262000Y-53624100D02*
X111262000Y-50523500D01*
X111262000Y-50523500D02*
X112060000Y-50523500D01*
X112060000Y-50523500D02*
X112060000Y-44723500D01*
X112060000Y-44723500D02*
X111262000Y-44723500D01*
X111262000Y-44723500D02*
X111262000Y-41624400D01*
X111262000Y-41624400D02*
X112060000Y-41624400D01*
X112060000Y-41624400D02*
X112060000Y-40623900D01*
X112060000Y-40623900D02*
X126062000Y-40623900D01*
X126062000Y-40623900D02*
X126062000Y-41624400D01*
X126062000Y-41624400D02*
X126862000Y-41624400D01*
X126862000Y-41624400D02*
X126862000Y-44723500D01*
X126862000Y-44723500D02*
X126062000Y-44723500D01*
X126062000Y-44723500D02*
X126062000Y-50523500D01*
X126062000Y-50523500D02*
X126862000Y-50523500D01*
X126862000Y-50523500D02*
X126862000Y-53624100D01*
X126862000Y-53624100D02*
X126062000Y-53624100D01*
X126062000Y-53624100D02*
X126062000Y-54624600D01*
X126062000Y-54624600D02*
X112060000Y-54624600D01*
X112060000Y-54624600D02*
X112060000Y-53624100D01*
X112060000Y-53624100D02*
X111262000Y-53624100D01*
X130311000Y-53624100D02*
X130311000Y-50523500D01*
X130311000Y-50523500D02*
X131111000Y-50523500D01*
X131111000Y-50523500D02*
X131111000Y-44723500D01*
X131111000Y-44723500D02*
X130311000Y-44723500D01*
X130311000Y-44723500D02*
X130311000Y-41624400D01*
X130311000Y-41624400D02*
X131111000Y-41624400D01*
X131111000Y-41624400D02*
X131111000Y-40623900D01*
X131111000Y-40623900D02*
X145111000Y-40623900D01*
X145111000Y-40623900D02*
X145111000Y-41624400D01*
X145111000Y-41624400D02*
X145912000Y-41624400D01*
X145912000Y-41624400D02*
X145912000Y-44723500D01*
X145912000Y-44723500D02*
X145111000Y-44723500D01*
X145111000Y-44723500D02*
X145111000Y-50523500D01*
X145111000Y-50523500D02*
X145912000Y-50523500D01*
X145912000Y-50523500D02*
X145912000Y-53624100D01*
X145912000Y-53624100D02*
X145111000Y-53624100D01*
X145111000Y-53624100D02*
X145111000Y-54624600D01*
X145111000Y-54624600D02*
X131111000Y-54624600D01*
X131111000Y-54624600D02*
X131111000Y-53624100D01*
X131111000Y-53624100D02*
X130311000Y-53624100D01*
X149362000Y-53624100D02*
X149362000Y-50523500D01*
X149362000Y-50523500D02*
X150161000Y-50523500D01*
X150161000Y-50523500D02*
X150161000Y-44723500D01*
X150161000Y-44723500D02*
X149362000Y-44723500D01*
X149362000Y-44723500D02*
X149362000Y-41624400D01*
X149362000Y-41624400D02*
X150161000Y-41624400D01*
X150161000Y-41624400D02*
X150161000Y-40623900D01*
X150161000Y-40623900D02*
X164161000Y-40623900D01*
X164161000Y-40623900D02*
X164161000Y-41624400D01*
X164161000Y-41624400D02*
X164963000Y-41624400D01*
X164963000Y-41624400D02*
X164963000Y-44723500D01*
X164963000Y-44723500D02*
X164161000Y-44723500D01*
X164161000Y-44723500D02*
X164161000Y-50523500D01*
X164161000Y-50523500D02*
X164963000Y-50523500D01*
X164963000Y-50523500D02*
X164963000Y-53624100D01*
X164963000Y-53624100D02*
X164161000Y-53624100D01*
X164161000Y-53624100D02*
X164161000Y-54624600D01*
X164161000Y-54624600D02*
X150161000Y-54624600D01*
X150161000Y-54624600D02*
X150161000Y-53624100D01*
X150161000Y-53624100D02*
X149362000Y-53624100D01*
X168412000Y-53624100D02*
X168412000Y-50523500D01*
X168412000Y-50523500D02*
X169213000Y-50523500D01*
X169213000Y-50523500D02*
X169213000Y-44723500D01*
X169213000Y-44723500D02*
X168412000Y-44723500D01*
X168412000Y-44723500D02*
X168412000Y-41624400D01*
X168412000Y-41624400D02*
X169213000Y-41624400D01*
X169213000Y-41624400D02*
X169213000Y-40623900D01*
X169213000Y-40623900D02*
X183212000Y-40623900D01*
X183212000Y-40623900D02*
X183212000Y-41624400D01*
X183212000Y-41624400D02*
X184012000Y-41624400D01*
X184012000Y-41624400D02*
X184012000Y-44723500D01*
X184012000Y-44723500D02*
X183212000Y-44723500D01*
X183212000Y-44723500D02*
X183212000Y-50523500D01*
X183212000Y-50523500D02*
X184012000Y-50523500D01*
X184012000Y-50523500D02*
X184012000Y-53624100D01*
X184012000Y-53624100D02*
X183212000Y-53624100D01*
X183212000Y-53624100D02*
X183212000Y-54624600D01*
X183212000Y-54624600D02*
X169213000Y-54624600D01*
X169213000Y-54624600D02*
X169213000Y-53624100D01*
X169213000Y-53624100D02*
X168412000Y-53624100D01*
X187462000Y-53624100D02*
X187462000Y-50523500D01*
X187462000Y-50523500D02*
X188261000Y-50523500D01*
X188261000Y-50523500D02*
X188261000Y-44723500D01*
X188261000Y-44723500D02*
X187462000Y-44723500D01*
X187462000Y-44723500D02*
X187462000Y-41624400D01*
X187462000Y-41624400D02*
X188261000Y-41624400D01*
X188261000Y-41624400D02*
X188261000Y-40623900D01*
X188261000Y-40623900D02*
X202261000Y-40623900D01*
X202261000Y-40623900D02*
X202261000Y-41624400D01*
X202261000Y-41624400D02*
X203063000Y-41624400D01*
X203063000Y-41624400D02*
X203063000Y-44723500D01*
X203063000Y-44723500D02*
X202261000Y-44723500D01*
X202261000Y-44723500D02*
X202261000Y-50523500D01*
X202261000Y-50523500D02*
X203063000Y-50523500D01*
X203063000Y-50523500D02*
X203063000Y-53624100D01*
X203063000Y-53624100D02*
X202261000Y-53624100D01*
X202261000Y-53624100D02*
X202261000Y-54624600D01*
X202261000Y-54624600D02*
X188261000Y-54624600D01*
X188261000Y-54624600D02*
X188261000Y-53624100D01*
X188261000Y-53624100D02*
X187462000Y-53624100D01*
X206512000Y-53624100D02*
X206512000Y-50523500D01*
X206512000Y-50523500D02*
X207313000Y-50523500D01*
X207313000Y-50523500D02*
X207313000Y-44723500D01*
X207313000Y-44723500D02*
X206512000Y-44723500D01*
X206512000Y-44723500D02*
X206512000Y-41624400D01*
X206512000Y-41624400D02*
X207313000Y-41624400D01*
X207313000Y-41624400D02*
X207313000Y-40623900D01*
X207313000Y-40623900D02*
X221312000Y-40623900D01*
X221312000Y-40623900D02*
X221312000Y-41624400D01*
X221312000Y-41624400D02*
X222113000Y-41624400D01*
X222113000Y-41624400D02*
X222113000Y-44723500D01*
X222113000Y-44723500D02*
X221312000Y-44723500D01*
X221312000Y-44723500D02*
X221312000Y-50523500D01*
X221312000Y-50523500D02*
X222113000Y-50523500D01*
X222113000Y-50523500D02*
X222113000Y-53624100D01*
X222113000Y-53624100D02*
X221312000Y-53624100D01*
X221312000Y-53624100D02*
X221312000Y-54624600D01*
X221312000Y-54624600D02*
X207313000Y-54624600D01*
X207313000Y-54624600D02*
X207313000Y-53624100D01*
X207313000Y-53624100D02*
X206512000Y-53624100D01*
X225562000Y-53624100D02*
X225562000Y-50523500D01*
X225562000Y-50523500D02*
X226363000Y-50523500D01*
X226363000Y-50523500D02*
X226363000Y-44723500D01*
X226363000Y-44723500D02*
X225562000Y-44723500D01*
X225562000Y-44723500D02*
X225562000Y-41624400D01*
X225562000Y-41624400D02*
X226363000Y-41624400D01*
X226363000Y-41624400D02*
X226363000Y-40623900D01*
X226363000Y-40623900D02*
X240362000Y-40623900D01*
X240362000Y-40623900D02*
X240362000Y-41624400D01*
X240362000Y-41624400D02*
X241162000Y-41624400D01*
X241162000Y-41624400D02*
X241162000Y-44723500D01*
X241162000Y-44723500D02*
X240362000Y-44723500D01*
X240362000Y-44723500D02*
X240362000Y-50523500D01*
X240362000Y-50523500D02*
X241162000Y-50523500D01*
X241162000Y-50523500D02*
X241162000Y-53624100D01*
X241162000Y-53624100D02*
X240362000Y-53624100D01*
X240362000Y-53624100D02*
X240362000Y-54624600D01*
X240362000Y-54624600D02*
X226363000Y-54624600D01*
X226363000Y-54624600D02*
X226363000Y-53624100D01*
X226363000Y-53624100D02*
X225562000Y-53624100D01*
X126076000Y-47625500D02*
X126196000Y-46851100D01*
X126196000Y-46851100D02*
X126553000Y-46155500D01*
X126553000Y-46155500D02*
X127105000Y-45601200D01*
X127105000Y-45601200D02*
X127803000Y-45245600D01*
X127803000Y-45245600D02*
X128576000Y-45126000D01*
X128576000Y-45126000D02*
X129348000Y-45245600D01*
X129348000Y-45245600D02*
X130045000Y-45601200D01*
X130045000Y-45601200D02*
X130597000Y-46155500D01*
X130597000Y-46155500D02*
X130952000Y-46851100D01*
X130952000Y-46851100D02*
X131076000Y-47625500D01*
X131076000Y-47625500D02*
X130952000Y-48395900D01*
X130952000Y-48395900D02*
X130597000Y-49094800D01*
X130597000Y-49094800D02*
X130045000Y-49645800D01*
X130045000Y-49645800D02*
X129348000Y-50002800D01*
X129348000Y-50002800D02*
X128576000Y-50125300D01*
X128576000Y-50125300D02*
X127803000Y-50002800D01*
X127803000Y-50002800D02*
X127105000Y-49645800D01*
X127105000Y-49645800D02*
X126553000Y-49094800D01*
X126553000Y-49094800D02*
X126196000Y-48395900D01*
X126196000Y-48395900D02*
X126076000Y-47625500D01*
X6487100Y-34572700D02*
X6487100Y-31473500D01*
X6487100Y-31473500D02*
X7287700Y-31473500D01*
X7287700Y-31473500D02*
X7287700Y-25673500D01*
X7287700Y-25673500D02*
X6487100Y-25673500D01*
X6487100Y-25673500D02*
X6487100Y-22573000D01*
X6487100Y-22573000D02*
X7287700Y-22573000D01*
X7287700Y-22573000D02*
X7287700Y-21573900D01*
X7287700Y-21573900D02*
X21287200Y-21573900D01*
X21287200Y-21573900D02*
X21287200Y-22573000D01*
X21287200Y-22573000D02*
X22086500Y-22573000D01*
X22086500Y-22573000D02*
X22086500Y-25673500D01*
X22086500Y-25673500D02*
X21287200Y-25673500D01*
X21287200Y-25673500D02*
X21287200Y-31473500D01*
X21287200Y-31473500D02*
X22086500Y-31473500D01*
X22086500Y-31473500D02*
X22086500Y-34572700D01*
X22086500Y-34572700D02*
X21287200Y-34572700D01*
X21287200Y-34572700D02*
X21287200Y-35573200D01*
X21287200Y-35573200D02*
X7287700Y-35573200D01*
X7287700Y-35573200D02*
X7287700Y-34572700D01*
X7287700Y-34572700D02*
X6487100Y-34572700D01*
X30298200Y-34572700D02*
X30298200Y-31473500D01*
X30298200Y-31473500D02*
X31098900Y-31473500D01*
X31098900Y-31473500D02*
X31098900Y-25673500D01*
X31098900Y-25673500D02*
X30298200Y-25673500D01*
X30298200Y-25673500D02*
X30298200Y-22573000D01*
X30298200Y-22573000D02*
X31098900Y-22573000D01*
X31098900Y-22573000D02*
X31098900Y-21573900D01*
X31098900Y-21573900D02*
X45098300Y-21573900D01*
X45098300Y-21573900D02*
X45098300Y-22573000D01*
X45098300Y-22573000D02*
X45899100Y-22573000D01*
X45899100Y-22573000D02*
X45899100Y-25673500D01*
X45899100Y-25673500D02*
X45098300Y-25673500D01*
X45098300Y-25673500D02*
X45098300Y-31473500D01*
X45098300Y-31473500D02*
X45899100Y-31473500D01*
X45899100Y-31473500D02*
X45899100Y-34572700D01*
X45899100Y-34572700D02*
X45098300Y-34572700D01*
X45098300Y-34572700D02*
X45098300Y-35573200D01*
X45098300Y-35573200D02*
X31098900Y-35573200D01*
X31098900Y-35573200D02*
X31098900Y-34572700D01*
X31098900Y-34572700D02*
X30298200Y-34572700D01*
X49348200Y-34572700D02*
X49348200Y-31473500D01*
X49348200Y-31473500D02*
X50149000Y-31473500D01*
X50149000Y-31473500D02*
X50149000Y-25673500D01*
X50149000Y-25673500D02*
X49348200Y-25673500D01*
X49348200Y-25673500D02*
X49348200Y-22573000D01*
X49348200Y-22573000D02*
X50149000Y-22573000D01*
X50149000Y-22573000D02*
X50149000Y-21573900D01*
X50149000Y-21573900D02*
X64149700Y-21573900D01*
X64149700Y-21573900D02*
X64149700Y-22573000D01*
X64149700Y-22573000D02*
X64949100Y-22573000D01*
X64949100Y-22573000D02*
X64949100Y-25673500D01*
X64949100Y-25673500D02*
X64149700Y-25673500D01*
X64149700Y-25673500D02*
X64149700Y-31473500D01*
X64149700Y-31473500D02*
X64949100Y-31473500D01*
X64949100Y-31473500D02*
X64949100Y-34572700D01*
X64949100Y-34572700D02*
X64149700Y-34572700D01*
X64149700Y-34572700D02*
X64149700Y-35573200D01*
X64149700Y-35573200D02*
X50149000Y-35573200D01*
X50149000Y-35573200D02*
X50149000Y-34572700D01*
X50149000Y-34572700D02*
X49348200Y-34572700D01*
X68399600Y-34572700D02*
X68399600Y-31473500D01*
X68399600Y-31473500D02*
X69199000Y-31473500D01*
X69199000Y-31473500D02*
X69199000Y-25673500D01*
X69199000Y-25673500D02*
X68399600Y-25673500D01*
X68399600Y-25673500D02*
X68399600Y-22573000D01*
X68399600Y-22573000D02*
X69199000Y-22573000D01*
X69199000Y-22573000D02*
X69199000Y-21573900D01*
X69199000Y-21573900D02*
X83199700Y-21573900D01*
X83199700Y-21573900D02*
X83199700Y-22573000D01*
X83199700Y-22573000D02*
X83999100Y-22573000D01*
X83999100Y-22573000D02*
X83999100Y-25673500D01*
X83999100Y-25673500D02*
X83199700Y-25673500D01*
X83199700Y-25673500D02*
X83199700Y-31473500D01*
X83199700Y-31473500D02*
X83999100Y-31473500D01*
X83999100Y-31473500D02*
X83999100Y-34572700D01*
X83999100Y-34572700D02*
X83199700Y-34572700D01*
X83199700Y-34572700D02*
X83199700Y-35573200D01*
X83199700Y-35573200D02*
X69199000Y-35573200D01*
X69199000Y-35573200D02*
X69199000Y-34572700D01*
X69199000Y-34572700D02*
X68399600Y-34572700D01*
X87449600Y-34572700D02*
X87449600Y-31473500D01*
X87449600Y-31473500D02*
X88249000Y-31473500D01*
X88249000Y-31473500D02*
X88249000Y-25673500D01*
X88249000Y-25673500D02*
X87449600Y-25673500D01*
X87449600Y-25673500D02*
X87449600Y-22573000D01*
X87449600Y-22573000D02*
X88249000Y-22573000D01*
X88249000Y-22573000D02*
X88249000Y-21573900D01*
X88249000Y-21573900D02*
X102250000Y-21573900D01*
X102250000Y-21573900D02*
X102250000Y-22573000D01*
X102250000Y-22573000D02*
X103049000Y-22573000D01*
X103049000Y-22573000D02*
X103049000Y-25673500D01*
X103049000Y-25673500D02*
X102250000Y-25673500D01*
X102250000Y-25673500D02*
X102250000Y-31473500D01*
X102250000Y-31473500D02*
X103049000Y-31473500D01*
X103049000Y-31473500D02*
X103049000Y-34572700D01*
X103049000Y-34572700D02*
X102250000Y-34572700D01*
X102250000Y-34572700D02*
X102250000Y-35573200D01*
X102250000Y-35573200D02*
X88249000Y-35573200D01*
X88249000Y-35573200D02*
X88249000Y-34572700D01*
X88249000Y-34572700D02*
X87449600Y-34572700D01*
X106500000Y-34572700D02*
X106500000Y-31473500D01*
X106500000Y-31473500D02*
X107299000Y-31473500D01*
X107299000Y-31473500D02*
X107299000Y-25673500D01*
X107299000Y-25673500D02*
X106500000Y-25673500D01*
X106500000Y-25673500D02*
X106500000Y-22573000D01*
X106500000Y-22573000D02*
X107299000Y-22573000D01*
X107299000Y-22573000D02*
X107299000Y-21573900D01*
X107299000Y-21573900D02*
X121298000Y-21573900D01*
X121298000Y-21573900D02*
X121298000Y-22573000D01*
X121298000Y-22573000D02*
X122099000Y-22573000D01*
X122099000Y-22573000D02*
X122099000Y-25673500D01*
X122099000Y-25673500D02*
X121298000Y-25673500D01*
X121298000Y-25673500D02*
X121298000Y-31473500D01*
X121298000Y-31473500D02*
X122099000Y-31473500D01*
X122099000Y-31473500D02*
X122099000Y-34572700D01*
X122099000Y-34572700D02*
X121298000Y-34572700D01*
X121298000Y-34572700D02*
X121298000Y-35573200D01*
X121298000Y-35573200D02*
X107299000Y-35573200D01*
X107299000Y-35573200D02*
X107299000Y-34572700D01*
X107299000Y-34572700D02*
X106500000Y-34572700D01*
X125548000Y-34572700D02*
X125548000Y-31473500D01*
X125548000Y-31473500D02*
X126349000Y-31473500D01*
X126349000Y-31473500D02*
X126349000Y-25673500D01*
X126349000Y-25673500D02*
X125548000Y-25673500D01*
X125548000Y-25673500D02*
X125548000Y-22573000D01*
X125548000Y-22573000D02*
X126349000Y-22573000D01*
X126349000Y-22573000D02*
X126349000Y-21573900D01*
X126349000Y-21573900D02*
X140350000Y-21573900D01*
X140350000Y-21573900D02*
X140350000Y-22573000D01*
X140350000Y-22573000D02*
X141149000Y-22573000D01*
X141149000Y-22573000D02*
X141149000Y-25673500D01*
X141149000Y-25673500D02*
X140350000Y-25673500D01*
X140350000Y-25673500D02*
X140350000Y-31473500D01*
X140350000Y-31473500D02*
X141149000Y-31473500D01*
X141149000Y-31473500D02*
X141149000Y-34572700D01*
X141149000Y-34572700D02*
X140350000Y-34572700D01*
X140350000Y-34572700D02*
X140350000Y-35573200D01*
X140350000Y-35573200D02*
X126349000Y-35573200D01*
X126349000Y-35573200D02*
X126349000Y-34572700D01*
X126349000Y-34572700D02*
X125548000Y-34572700D01*
X144600000Y-34572700D02*
X144600000Y-31473500D01*
X144600000Y-31473500D02*
X145399000Y-31473500D01*
X145399000Y-31473500D02*
X145399000Y-25673500D01*
X145399000Y-25673500D02*
X144600000Y-25673500D01*
X144600000Y-25673500D02*
X144600000Y-22573000D01*
X144600000Y-22573000D02*
X145399000Y-22573000D01*
X145399000Y-22573000D02*
X145399000Y-21573900D01*
X145399000Y-21573900D02*
X159398000Y-21573900D01*
X159398000Y-21573900D02*
X159398000Y-22573000D01*
X159398000Y-22573000D02*
X160199000Y-22573000D01*
X160199000Y-22573000D02*
X160199000Y-25673500D01*
X160199000Y-25673500D02*
X159398000Y-25673500D01*
X159398000Y-25673500D02*
X159398000Y-31473500D01*
X159398000Y-31473500D02*
X160199000Y-31473500D01*
X160199000Y-31473500D02*
X160199000Y-34572700D01*
X160199000Y-34572700D02*
X159398000Y-34572700D01*
X159398000Y-34572700D02*
X159398000Y-35573200D01*
X159398000Y-35573200D02*
X145399000Y-35573200D01*
X145399000Y-35573200D02*
X145399000Y-34572700D01*
X145399000Y-34572700D02*
X144600000Y-34572700D01*
X163648000Y-34572700D02*
X163648000Y-31473500D01*
X163648000Y-31473500D02*
X164449000Y-31473500D01*
X164449000Y-31473500D02*
X164449000Y-25673500D01*
X164449000Y-25673500D02*
X163648000Y-25673500D01*
X163648000Y-25673500D02*
X163648000Y-22573000D01*
X163648000Y-22573000D02*
X164449000Y-22573000D01*
X164449000Y-22573000D02*
X164449000Y-21573900D01*
X164449000Y-21573900D02*
X178450000Y-21573900D01*
X178450000Y-21573900D02*
X178450000Y-22573000D01*
X178450000Y-22573000D02*
X179249000Y-22573000D01*
X179249000Y-22573000D02*
X179249000Y-25673500D01*
X179249000Y-25673500D02*
X178450000Y-25673500D01*
X178450000Y-25673500D02*
X178450000Y-31473500D01*
X178450000Y-31473500D02*
X179249000Y-31473500D01*
X179249000Y-31473500D02*
X179249000Y-34572700D01*
X179249000Y-34572700D02*
X178450000Y-34572700D01*
X178450000Y-34572700D02*
X178450000Y-35573200D01*
X178450000Y-35573200D02*
X164449000Y-35573200D01*
X164449000Y-35573200D02*
X164449000Y-34572700D01*
X164449000Y-34572700D02*
X163648000Y-34572700D01*
X182700000Y-34572700D02*
X182700000Y-31473500D01*
X182700000Y-31473500D02*
X183499000Y-31473500D01*
X183499000Y-31473500D02*
X183499000Y-25673500D01*
X183499000Y-25673500D02*
X182700000Y-25673500D01*
X182700000Y-25673500D02*
X182700000Y-22573000D01*
X182700000Y-22573000D02*
X183499000Y-22573000D01*
X183499000Y-22573000D02*
X183499000Y-21573900D01*
X183499000Y-21573900D02*
X197500000Y-21573900D01*
X197500000Y-21573900D02*
X197500000Y-22573000D01*
X197500000Y-22573000D02*
X198299000Y-22573000D01*
X198299000Y-22573000D02*
X198299000Y-25673500D01*
X198299000Y-25673500D02*
X197500000Y-25673500D01*
X197500000Y-25673500D02*
X197500000Y-31473500D01*
X197500000Y-31473500D02*
X198299000Y-31473500D01*
X198299000Y-31473500D02*
X198299000Y-34572700D01*
X198299000Y-34572700D02*
X197500000Y-34572700D01*
X197500000Y-34572700D02*
X197500000Y-35573200D01*
X197500000Y-35573200D02*
X183499000Y-35573200D01*
X183499000Y-35573200D02*
X183499000Y-34572700D01*
X183499000Y-34572700D02*
X182700000Y-34572700D01*
X201750000Y-34572700D02*
X201750000Y-31473500D01*
X201750000Y-31473500D02*
X202549000Y-31473500D01*
X202549000Y-31473500D02*
X202549000Y-25673500D01*
X202549000Y-25673500D02*
X201750000Y-25673500D01*
X201750000Y-25673500D02*
X201750000Y-22573000D01*
X201750000Y-22573000D02*
X202549000Y-22573000D01*
X202549000Y-22573000D02*
X202549000Y-21573900D01*
X202549000Y-21573900D02*
X216548000Y-21573900D01*
X216548000Y-21573900D02*
X216548000Y-22573000D01*
X216548000Y-22573000D02*
X217349000Y-22573000D01*
X217349000Y-22573000D02*
X217349000Y-25673500D01*
X217349000Y-25673500D02*
X216548000Y-25673500D01*
X216548000Y-25673500D02*
X216548000Y-31473500D01*
X216548000Y-31473500D02*
X217349000Y-31473500D01*
X217349000Y-31473500D02*
X217349000Y-34572700D01*
X217349000Y-34572700D02*
X216548000Y-34572700D01*
X216548000Y-34572700D02*
X216548000Y-35573200D01*
X216548000Y-35573200D02*
X202549000Y-35573200D01*
X202549000Y-35573200D02*
X202549000Y-34572700D01*
X202549000Y-34572700D02*
X201750000Y-34572700D01*
X220798000Y-34572700D02*
X220798000Y-31473500D01*
X220798000Y-31473500D02*
X221599000Y-31473500D01*
X221599000Y-31473500D02*
X221599000Y-25673500D01*
X221599000Y-25673500D02*
X220798000Y-25673500D01*
X220798000Y-25673500D02*
X220798000Y-22573000D01*
X220798000Y-22573000D02*
X221599000Y-22573000D01*
X221599000Y-22573000D02*
X221599000Y-21573900D01*
X221599000Y-21573900D02*
X235600000Y-21573900D01*
X235600000Y-21573900D02*
X235600000Y-22573000D01*
X235600000Y-22573000D02*
X236399000Y-22573000D01*
X236399000Y-22573000D02*
X236399000Y-25673500D01*
X236399000Y-25673500D02*
X235600000Y-25673500D01*
X235600000Y-25673500D02*
X235600000Y-31473500D01*
X235600000Y-31473500D02*
X236399000Y-31473500D01*
X236399000Y-31473500D02*
X236399000Y-34572700D01*
X236399000Y-34572700D02*
X235600000Y-34572700D01*
X235600000Y-34572700D02*
X235600000Y-35573200D01*
X235600000Y-35573200D02*
X221599000Y-35573200D01*
X221599000Y-35573200D02*
X221599000Y-34572700D01*
X221599000Y-34572700D02*
X220798000Y-34572700D01*
X239850000Y-34572700D02*
X239850000Y-31473500D01*
X239850000Y-31473500D02*
X240649000Y-31473500D01*
X240649000Y-31473500D02*
X240649000Y-25673500D01*
X240649000Y-25673500D02*
X239850000Y-25673500D01*
X239850000Y-25673500D02*
X239850000Y-22573000D01*
X239850000Y-22573000D02*
X240649000Y-22573000D01*
X240649000Y-22573000D02*
X240649000Y-21573900D01*
X240649000Y-21573900D02*
X254648000Y-21573900D01*
X254648000Y-21573900D02*
X254648000Y-22573000D01*
X254648000Y-22573000D02*
X255449000Y-22573000D01*
X255449000Y-22573000D02*
X255449000Y-25673500D01*
X255449000Y-25673500D02*
X254648000Y-25673500D01*
X254648000Y-25673500D02*
X254648000Y-31473500D01*
X254648000Y-31473500D02*
X255449000Y-31473500D01*
X255449000Y-31473500D02*
X255449000Y-34572700D01*
X255449000Y-34572700D02*
X254648000Y-34572700D01*
X254648000Y-34572700D02*
X254648000Y-35573200D01*
X254648000Y-35573200D02*
X240649000Y-35573200D01*
X240649000Y-35573200D02*
X240649000Y-34572700D01*
X240649000Y-34572700D02*
X239850000Y-34572700D01*
X263662000Y-34572700D02*
X263662000Y-31473500D01*
X263662000Y-31473500D02*
X264461000Y-31473500D01*
X264461000Y-31473500D02*
X264461000Y-25673500D01*
X264461000Y-25673500D02*
X263662000Y-25673500D01*
X263662000Y-25673500D02*
X263662000Y-22573000D01*
X263662000Y-22573000D02*
X264461000Y-22573000D01*
X264461000Y-22573000D02*
X264461000Y-21573900D01*
X264461000Y-21573900D02*
X278461000Y-21573900D01*
X278461000Y-21573900D02*
X278461000Y-22573000D01*
X278461000Y-22573000D02*
X279262000Y-22573000D01*
X279262000Y-22573000D02*
X279262000Y-25673500D01*
X279262000Y-25673500D02*
X278461000Y-25673500D01*
X278461000Y-25673500D02*
X278461000Y-31473500D01*
X278461000Y-31473500D02*
X279262000Y-31473500D01*
X279262000Y-31473500D02*
X279262000Y-34572700D01*
X279262000Y-34572700D02*
X278461000Y-34572700D01*
X278461000Y-34572700D02*
X278461000Y-35573200D01*
X278461000Y-35573200D02*
X264461000Y-35573200D01*
X264461000Y-35573200D02*
X264461000Y-34572700D01*
X264461000Y-34572700D02*
X263662000Y-34572700D01*
X23075900Y-28225500D02*
X23197200Y-27451200D01*
X23197200Y-27451200D02*
X23551300Y-26753700D01*
X23551300Y-26753700D02*
X24105300Y-26201300D01*
X24105300Y-26201300D02*
X24801200Y-25845700D01*
X24801200Y-25845700D02*
X25575700Y-25724300D01*
X25575700Y-25724300D02*
X26347400Y-25845700D01*
X26347400Y-25845700D02*
X27044700Y-26201300D01*
X27044700Y-26201300D02*
X27595900Y-26753700D01*
X27595900Y-26753700D02*
X27952800Y-27451200D01*
X27952800Y-27451200D02*
X28074100Y-28225500D01*
X28074100Y-28225500D02*
X27952800Y-28996000D01*
X27952800Y-28996000D02*
X27595900Y-29693100D01*
X27595900Y-29693100D02*
X27044700Y-30245900D01*
X27044700Y-30245900D02*
X26347400Y-30601500D01*
X26347400Y-30601500D02*
X25575700Y-30725300D01*
X25575700Y-30725300D02*
X24801200Y-30601500D01*
X24801200Y-30601500D02*
X24105300Y-30245900D01*
X24105300Y-30245900D02*
X23551300Y-29693100D01*
X23551300Y-29693100D02*
X23197200Y-28996000D01*
X23197200Y-28996000D02*
X23075900Y-28225500D01*
X257924000Y-28225500D02*
X258047000Y-27451200D01*
X258047000Y-27451200D02*
X258402000Y-26753700D01*
X258402000Y-26753700D02*
X258955000Y-26201300D01*
X258955000Y-26201300D02*
X259652000Y-25845700D01*
X259652000Y-25845700D02*
X260425000Y-25724300D01*
X260425000Y-25724300D02*
X261197000Y-25845700D01*
X261197000Y-25845700D02*
X261894000Y-26201300D01*
X261894000Y-26201300D02*
X262447000Y-26753700D01*
X262447000Y-26753700D02*
X262801000Y-27451200D01*
X262801000Y-27451200D02*
X262925000Y-28225500D01*
X262925000Y-28225500D02*
X262801000Y-28996000D01*
X262801000Y-28996000D02*
X262447000Y-29693100D01*
X262447000Y-29693100D02*
X261894000Y-30245900D01*
X261894000Y-30245900D02*
X261197000Y-30601500D01*
X261197000Y-30601500D02*
X260425000Y-30725300D01*
X260425000Y-30725300D02*
X259652000Y-30601500D01*
X259652000Y-30601500D02*
X258955000Y-30245900D01*
X258955000Y-30245900D02*
X258402000Y-29693100D01*
X258402000Y-29693100D02*
X258047000Y-28996000D01*
X258047000Y-28996000D02*
X257924000Y-28225500D01*
X250600000Y-10023200D02*
X250600000Y-7222900D01*
X250600000Y-7222900D02*
X251424000Y-7222900D01*
X251424000Y-7222900D02*
X251424000Y-3992900D01*
X251424000Y-3992900D02*
X258173000Y-3992900D01*
X258173000Y-3992900D02*
X258173000Y-7222900D01*
X258173000Y-7222900D02*
X259699000Y-7222900D01*
X259699000Y-7222900D02*
X259699000Y-6623500D01*
X259699000Y-6623500D02*
X258898000Y-6623500D01*
X258898000Y-6623500D02*
X258898000Y-3523000D01*
X258898000Y-3523000D02*
X259699000Y-3523000D01*
X259699000Y-3523000D02*
X259699000Y-2523900D01*
X259699000Y-2523900D02*
X273698000Y-2523900D01*
X273698000Y-2523900D02*
X273698000Y-3523000D01*
X273698000Y-3523000D02*
X274499000Y-3523000D01*
X274499000Y-3523000D02*
X274499000Y-6623500D01*
X274499000Y-6623500D02*
X273698000Y-6623500D01*
X273698000Y-6623500D02*
X273698000Y-7222900D01*
X273698000Y-7222900D02*
X275224000Y-7222900D01*
X275224000Y-7222900D02*
X275224000Y-3992900D01*
X275224000Y-3992900D02*
X281973000Y-3992900D01*
X281973000Y-3992900D02*
X281973000Y-7222900D01*
X281973000Y-7222900D02*
X282799000Y-7222900D01*
X282799000Y-7222900D02*
X282799000Y-10023200D01*
X282799000Y-10023200D02*
X281973000Y-10023200D01*
X281973000Y-10023200D02*
X281973000Y-16294600D01*
X281973000Y-16294600D02*
X280248000Y-16294600D01*
X280248000Y-16294600D02*
X280248000Y-17493300D01*
X280248000Y-17493300D02*
X276949000Y-17493300D01*
X276949000Y-17493300D02*
X276949000Y-16294600D01*
X276949000Y-16294600D02*
X275224000Y-16294600D01*
X275224000Y-16294600D02*
X275224000Y-11822800D01*
X275224000Y-11822800D02*
X273698000Y-11822800D01*
X273698000Y-11822800D02*
X273698000Y-12423500D01*
X273698000Y-12423500D02*
X274499000Y-12423500D01*
X274499000Y-12423500D02*
X274499000Y-15522700D01*
X274499000Y-15522700D02*
X273698000Y-15522700D01*
X273698000Y-15522700D02*
X273698000Y-16523200D01*
X273698000Y-16523200D02*
X259699000Y-16523200D01*
X259699000Y-16523200D02*
X259699000Y-15522700D01*
X259699000Y-15522700D02*
X258898000Y-15522700D01*
X258898000Y-15522700D02*
X258898000Y-12423500D01*
X258898000Y-12423500D02*
X259699000Y-12423500D01*
X259699000Y-12423500D02*
X259699000Y-11822800D01*
X259699000Y-11822800D02*
X258173000Y-11822800D01*
X258173000Y-11822800D02*
X258173000Y-16294600D01*
X258173000Y-16294600D02*
X256448000Y-16294600D01*
X256448000Y-16294600D02*
X256448000Y-17493300D01*
X256448000Y-17493300D02*
X253149000Y-17493300D01*
X253149000Y-17493300D02*
X253149000Y-16294600D01*
X253149000Y-16294600D02*
X251424000Y-16294600D01*
X251424000Y-16294600D02*
X251424000Y-10023200D01*
X251424000Y-10023200D02*
X250600000Y-10023200D01*
X1724600Y-15522700D02*
X1724600Y-12423500D01*
X1724600Y-12423500D02*
X2523800Y-12423500D01*
X2523800Y-12423500D02*
X2523800Y-6623500D01*
X2523800Y-6623500D02*
X1724600Y-6623500D01*
X1724600Y-6623500D02*
X1724600Y-3523000D01*
X1724600Y-3523000D02*
X2523800Y-3523000D01*
X2523800Y-3523000D02*
X2523800Y-2523900D01*
X2523800Y-2523900D02*
X16524700Y-2523900D01*
X16524700Y-2523900D02*
X16524700Y-3523000D01*
X16524700Y-3523000D02*
X17324000Y-3523000D01*
X17324000Y-3523000D02*
X17324000Y-6623500D01*
X17324000Y-6623500D02*
X16524700Y-6623500D01*
X16524700Y-6623500D02*
X16524700Y-12423500D01*
X16524700Y-12423500D02*
X17324000Y-12423500D01*
X17324000Y-12423500D02*
X17324000Y-15522700D01*
X17324000Y-15522700D02*
X16524700Y-15522700D01*
X16524700Y-15522700D02*
X16524700Y-16523200D01*
X16524700Y-16523200D02*
X2523800Y-16523200D01*
X2523800Y-16523200D02*
X2523800Y-15522700D01*
X2523800Y-15522700D02*
X1724600Y-15522700D01*
X20774600Y-15522700D02*
X20774600Y-12423500D01*
X20774600Y-12423500D02*
X21573900Y-12423500D01*
X21573900Y-12423500D02*
X21573900Y-6623500D01*
X21573900Y-6623500D02*
X20774600Y-6623500D01*
X20774600Y-6623500D02*
X20774600Y-3523000D01*
X20774600Y-3523000D02*
X21573900Y-3523000D01*
X21573900Y-3523000D02*
X21573900Y-2523900D01*
X21573900Y-2523900D02*
X35574700Y-2523900D01*
X35574700Y-2523900D02*
X35574700Y-3523000D01*
X35574700Y-3523000D02*
X36374100Y-3523000D01*
X36374100Y-3523000D02*
X36374100Y-6623500D01*
X36374100Y-6623500D02*
X35574700Y-6623500D01*
X35574700Y-6623500D02*
X35574700Y-12423500D01*
X35574700Y-12423500D02*
X36374100Y-12423500D01*
X36374100Y-12423500D02*
X36374100Y-15522700D01*
X36374100Y-15522700D02*
X35574700Y-15522700D01*
X35574700Y-15522700D02*
X35574700Y-16523200D01*
X35574700Y-16523200D02*
X21573900Y-16523200D01*
X21573900Y-16523200D02*
X21573900Y-15522700D01*
X21573900Y-15522700D02*
X20774600Y-15522700D01*
X39824600Y-15522700D02*
X39824600Y-12423500D01*
X39824600Y-12423500D02*
X40624000Y-12423500D01*
X40624000Y-12423500D02*
X40624000Y-6623500D01*
X40624000Y-6623500D02*
X39824600Y-6623500D01*
X39824600Y-6623500D02*
X39824600Y-3523000D01*
X39824600Y-3523000D02*
X40624000Y-3523000D01*
X40624000Y-3523000D02*
X40624000Y-2523900D01*
X40624000Y-2523900D02*
X54624700Y-2523900D01*
X54624700Y-2523900D02*
X54624700Y-3523000D01*
X54624700Y-3523000D02*
X55424100Y-3523000D01*
X55424100Y-3523000D02*
X55424100Y-6623500D01*
X55424100Y-6623500D02*
X54624700Y-6623500D01*
X54624700Y-6623500D02*
X54624700Y-12423500D01*
X54624700Y-12423500D02*
X55424100Y-12423500D01*
X55424100Y-12423500D02*
X55424100Y-15522700D01*
X55424100Y-15522700D02*
X54624700Y-15522700D01*
X54624700Y-15522700D02*
X54624700Y-16523200D01*
X54624700Y-16523200D02*
X40624000Y-16523200D01*
X40624000Y-16523200D02*
X40624000Y-15522700D01*
X40624000Y-15522700D02*
X39824600Y-15522700D01*
X58874600Y-15522700D02*
X58874600Y-12423500D01*
X58874600Y-12423500D02*
X59674000Y-12423500D01*
X59674000Y-12423500D02*
X59674000Y-6623500D01*
X59674000Y-6623500D02*
X58874600Y-6623500D01*
X58874600Y-6623500D02*
X58874600Y-3523000D01*
X58874600Y-3523000D02*
X59674000Y-3523000D01*
X59674000Y-3523000D02*
X59674000Y-2523900D01*
X59674000Y-2523900D02*
X73673300Y-2523900D01*
X73673300Y-2523900D02*
X73673300Y-3523000D01*
X73673300Y-3523000D02*
X74474100Y-3523000D01*
X74474100Y-3523000D02*
X74474100Y-6623500D01*
X74474100Y-6623500D02*
X73673300Y-6623500D01*
X73673300Y-6623500D02*
X73673300Y-12423500D01*
X73673300Y-12423500D02*
X74474100Y-12423500D01*
X74474100Y-12423500D02*
X74474100Y-15522700D01*
X74474100Y-15522700D02*
X73673300Y-15522700D01*
X73673300Y-15522700D02*
X73673300Y-16523200D01*
X73673300Y-16523200D02*
X59674000Y-16523200D01*
X59674000Y-16523200D02*
X59674000Y-15522700D01*
X59674000Y-15522700D02*
X58874600Y-15522700D01*
X77923200Y-15522700D02*
X77923200Y-12423500D01*
X77923200Y-12423500D02*
X78724000Y-12423500D01*
X78724000Y-12423500D02*
X78724000Y-6623500D01*
X78724000Y-6623500D02*
X77923200Y-6623500D01*
X77923200Y-6623500D02*
X77923200Y-3523000D01*
X77923200Y-3523000D02*
X78724000Y-3523000D01*
X78724000Y-3523000D02*
X78724000Y-2523900D01*
X78724000Y-2523900D02*
X92724700Y-2523900D01*
X92724700Y-2523900D02*
X92724700Y-3523000D01*
X92724700Y-3523000D02*
X93524100Y-3523000D01*
X93524100Y-3523000D02*
X93524100Y-6623500D01*
X93524100Y-6623500D02*
X92724700Y-6623500D01*
X92724700Y-6623500D02*
X92724700Y-12423500D01*
X92724700Y-12423500D02*
X93524100Y-12423500D01*
X93524100Y-12423500D02*
X93524100Y-15522700D01*
X93524100Y-15522700D02*
X92724700Y-15522700D01*
X92724700Y-15522700D02*
X92724700Y-16523200D01*
X92724700Y-16523200D02*
X78724000Y-16523200D01*
X78724000Y-16523200D02*
X78724000Y-15522700D01*
X78724000Y-15522700D02*
X77923200Y-15522700D01*
X96974600Y-15522700D02*
X96974600Y-12423500D01*
X96974600Y-12423500D02*
X97774000Y-12423500D01*
X97774000Y-12423500D02*
X97774000Y-6623500D01*
X97774000Y-6623500D02*
X96974600Y-6623500D01*
X96974600Y-6623500D02*
X96974600Y-3523000D01*
X96974600Y-3523000D02*
X97774000Y-3523000D01*
X97774000Y-3523000D02*
X97774000Y-2523900D01*
X97774000Y-2523900D02*
X111775000Y-2523900D01*
X111775000Y-2523900D02*
X111775000Y-3523000D01*
X111775000Y-3523000D02*
X112574000Y-3523000D01*
X112574000Y-3523000D02*
X112574000Y-6623500D01*
X112574000Y-6623500D02*
X111775000Y-6623500D01*
X111775000Y-6623500D02*
X111775000Y-12423500D01*
X111775000Y-12423500D02*
X112574000Y-12423500D01*
X112574000Y-12423500D02*
X112574000Y-15522700D01*
X112574000Y-15522700D02*
X111775000Y-15522700D01*
X111775000Y-15522700D02*
X111775000Y-16523200D01*
X111775000Y-16523200D02*
X97774000Y-16523200D01*
X97774000Y-16523200D02*
X97774000Y-15522700D01*
X97774000Y-15522700D02*
X96974600Y-15522700D01*
X116025000Y-15522700D02*
X116025000Y-12423500D01*
X116025000Y-12423500D02*
X116824000Y-12423500D01*
X116824000Y-12423500D02*
X116824000Y-6623500D01*
X116824000Y-6623500D02*
X116025000Y-6623500D01*
X116025000Y-6623500D02*
X116025000Y-3523000D01*
X116025000Y-3523000D02*
X116824000Y-3523000D01*
X116824000Y-3523000D02*
X116824000Y-2523900D01*
X116824000Y-2523900D02*
X130825000Y-2523900D01*
X130825000Y-2523900D02*
X130825000Y-3523000D01*
X130825000Y-3523000D02*
X131624000Y-3523000D01*
X131624000Y-3523000D02*
X131624000Y-6623500D01*
X131624000Y-6623500D02*
X130825000Y-6623500D01*
X130825000Y-6623500D02*
X130825000Y-12423500D01*
X130825000Y-12423500D02*
X131624000Y-12423500D01*
X131624000Y-12423500D02*
X131624000Y-15522700D01*
X131624000Y-15522700D02*
X130825000Y-15522700D01*
X130825000Y-15522700D02*
X130825000Y-16523200D01*
X130825000Y-16523200D02*
X116824000Y-16523200D01*
X116824000Y-16523200D02*
X116824000Y-15522700D01*
X116824000Y-15522700D02*
X116025000Y-15522700D01*
X135075000Y-15522700D02*
X135075000Y-12423500D01*
X135075000Y-12423500D02*
X135874000Y-12423500D01*
X135874000Y-12423500D02*
X135874000Y-6623500D01*
X135874000Y-6623500D02*
X135075000Y-6623500D01*
X135075000Y-6623500D02*
X135075000Y-3523000D01*
X135075000Y-3523000D02*
X135874000Y-3523000D01*
X135874000Y-3523000D02*
X135874000Y-2523900D01*
X135874000Y-2523900D02*
X149875000Y-2523900D01*
X149875000Y-2523900D02*
X149875000Y-3523000D01*
X149875000Y-3523000D02*
X150674000Y-3523000D01*
X150674000Y-3523000D02*
X150674000Y-6623500D01*
X150674000Y-6623500D02*
X149875000Y-6623500D01*
X149875000Y-6623500D02*
X149875000Y-12423500D01*
X149875000Y-12423500D02*
X150674000Y-12423500D01*
X150674000Y-12423500D02*
X150674000Y-15522700D01*
X150674000Y-15522700D02*
X149875000Y-15522700D01*
X149875000Y-15522700D02*
X149875000Y-16523200D01*
X149875000Y-16523200D02*
X135874000Y-16523200D01*
X135874000Y-16523200D02*
X135874000Y-15522700D01*
X135874000Y-15522700D02*
X135075000Y-15522700D01*
X154125000Y-15522700D02*
X154125000Y-12423500D01*
X154125000Y-12423500D02*
X154924000Y-12423500D01*
X154924000Y-12423500D02*
X154924000Y-6623500D01*
X154924000Y-6623500D02*
X154125000Y-6623500D01*
X154125000Y-6623500D02*
X154125000Y-3523000D01*
X154125000Y-3523000D02*
X154924000Y-3523000D01*
X154924000Y-3523000D02*
X154924000Y-2523900D01*
X154924000Y-2523900D02*
X168923000Y-2523900D01*
X168923000Y-2523900D02*
X168923000Y-3523000D01*
X168923000Y-3523000D02*
X169724000Y-3523000D01*
X169724000Y-3523000D02*
X169724000Y-6623500D01*
X169724000Y-6623500D02*
X168923000Y-6623500D01*
X168923000Y-6623500D02*
X168923000Y-12423500D01*
X168923000Y-12423500D02*
X169724000Y-12423500D01*
X169724000Y-12423500D02*
X169724000Y-15522700D01*
X169724000Y-15522700D02*
X168923000Y-15522700D01*
X168923000Y-15522700D02*
X168923000Y-16523200D01*
X168923000Y-16523200D02*
X154924000Y-16523200D01*
X154924000Y-16523200D02*
X154924000Y-15522700D01*
X154924000Y-15522700D02*
X154125000Y-15522700D01*
X173173000Y-15522700D02*
X173173000Y-12423500D01*
X173173000Y-12423500D02*
X173974000Y-12423500D01*
X173974000Y-12423500D02*
X173974000Y-6623500D01*
X173974000Y-6623500D02*
X173173000Y-6623500D01*
X173173000Y-6623500D02*
X173173000Y-3523000D01*
X173173000Y-3523000D02*
X173974000Y-3523000D01*
X173974000Y-3523000D02*
X173974000Y-2523900D01*
X173974000Y-2523900D02*
X187975000Y-2523900D01*
X187975000Y-2523900D02*
X187975000Y-3523000D01*
X187975000Y-3523000D02*
X188774000Y-3523000D01*
X188774000Y-3523000D02*
X188774000Y-6623500D01*
X188774000Y-6623500D02*
X187975000Y-6623500D01*
X187975000Y-6623500D02*
X187975000Y-12423500D01*
X187975000Y-12423500D02*
X188774000Y-12423500D01*
X188774000Y-12423500D02*
X188774000Y-15522700D01*
X188774000Y-15522700D02*
X187975000Y-15522700D01*
X187975000Y-15522700D02*
X187975000Y-16523200D01*
X187975000Y-16523200D02*
X173974000Y-16523200D01*
X173974000Y-16523200D02*
X173974000Y-15522700D01*
X173974000Y-15522700D02*
X173173000Y-15522700D01*
X192225000Y-15522700D02*
X192225000Y-12423500D01*
X192225000Y-12423500D02*
X193024000Y-12423500D01*
X193024000Y-12423500D02*
X193024000Y-6623500D01*
X193024000Y-6623500D02*
X192225000Y-6623500D01*
X192225000Y-6623500D02*
X192225000Y-3523000D01*
X192225000Y-3523000D02*
X193024000Y-3523000D01*
X193024000Y-3523000D02*
X193024000Y-2523900D01*
X193024000Y-2523900D02*
X207023000Y-2523900D01*
X207023000Y-2523900D02*
X207023000Y-3523000D01*
X207023000Y-3523000D02*
X207824000Y-3523000D01*
X207824000Y-3523000D02*
X207824000Y-6623500D01*
X207824000Y-6623500D02*
X207023000Y-6623500D01*
X207023000Y-6623500D02*
X207023000Y-12423500D01*
X207023000Y-12423500D02*
X207824000Y-12423500D01*
X207824000Y-12423500D02*
X207824000Y-15522700D01*
X207824000Y-15522700D02*
X207023000Y-15522700D01*
X207023000Y-15522700D02*
X207023000Y-16523200D01*
X207023000Y-16523200D02*
X193024000Y-16523200D01*
X193024000Y-16523200D02*
X193024000Y-15522700D01*
X193024000Y-15522700D02*
X192225000Y-15522700D01*
X211273000Y-15522700D02*
X211273000Y-12423500D01*
X211273000Y-12423500D02*
X212074000Y-12423500D01*
X212074000Y-12423500D02*
X212074000Y-6623500D01*
X212074000Y-6623500D02*
X211273000Y-6623500D01*
X211273000Y-6623500D02*
X211273000Y-3523000D01*
X211273000Y-3523000D02*
X212074000Y-3523000D01*
X212074000Y-3523000D02*
X212074000Y-2523900D01*
X212074000Y-2523900D02*
X226075000Y-2523900D01*
X226075000Y-2523900D02*
X226075000Y-3523000D01*
X226075000Y-3523000D02*
X226874000Y-3523000D01*
X226874000Y-3523000D02*
X226874000Y-6623500D01*
X226874000Y-6623500D02*
X226075000Y-6623500D01*
X226075000Y-6623500D02*
X226075000Y-12423500D01*
X226075000Y-12423500D02*
X226874000Y-12423500D01*
X226874000Y-12423500D02*
X226874000Y-15522700D01*
X226874000Y-15522700D02*
X226075000Y-15522700D01*
X226075000Y-15522700D02*
X226075000Y-16523200D01*
X226075000Y-16523200D02*
X212074000Y-16523200D01*
X212074000Y-16523200D02*
X212074000Y-15522700D01*
X212074000Y-15522700D02*
X211273000Y-15522700D01*
X230325000Y-15522700D02*
X230325000Y-12423500D01*
X230325000Y-12423500D02*
X231124000Y-12423500D01*
X231124000Y-12423500D02*
X231124000Y-6623500D01*
X231124000Y-6623500D02*
X230325000Y-6623500D01*
X230325000Y-6623500D02*
X230325000Y-3523000D01*
X230325000Y-3523000D02*
X231124000Y-3523000D01*
X231124000Y-3523000D02*
X231124000Y-2523900D01*
X231124000Y-2523900D02*
X245125000Y-2523900D01*
X245125000Y-2523900D02*
X245125000Y-3523000D01*
X245125000Y-3523000D02*
X245924000Y-3523000D01*
X245924000Y-3523000D02*
X245924000Y-6623500D01*
X245924000Y-6623500D02*
X245125000Y-6623500D01*
X245125000Y-6623500D02*
X245125000Y-12423500D01*
X245125000Y-12423500D02*
X245924000Y-12423500D01*
X245924000Y-12423500D02*
X245924000Y-15522700D01*
X245924000Y-15522700D02*
X245125000Y-15522700D01*
X245125000Y-15522700D02*
X245125000Y-16523200D01*
X245125000Y-16523200D02*
X231124000Y-16523200D01*
X231124000Y-16523200D02*
X231124000Y-15522700D01*
X231124000Y-15522700D02*
X230325000Y-15522700D01*
X49225000Y-85200000D02*
X49211300Y-84991200D01*
X49211300Y-84991200D02*
X49170500Y-84785900D01*
X49170500Y-84785900D02*
X49103200Y-84587700D01*
X49103200Y-84587700D02*
X49010600Y-84400000D01*
X49010600Y-84400000D02*
X48894400Y-84226000D01*
X48894400Y-84226000D02*
X48756400Y-84068600D01*
X48756400Y-84068600D02*
X48599000Y-83930600D01*
X48599000Y-83930600D02*
X48425000Y-83814400D01*
X48425000Y-83814400D02*
X48237300Y-83721800D01*
X48237300Y-83721800D02*
X48039100Y-83654500D01*
X48039100Y-83654500D02*
X47833800Y-83613700D01*
X47833800Y-83613700D02*
X47625000Y-83600000D01*
X47625000Y-83600000D02*
X47416200Y-83613700D01*
X47416200Y-83613700D02*
X47210900Y-83654500D01*
X47210900Y-83654500D02*
X47012700Y-83721800D01*
X47012700Y-83721800D02*
X46825000Y-83814400D01*
X46825000Y-83814400D02*
X46651000Y-83930600D01*
X46651000Y-83930600D02*
X46493600Y-84068600D01*
X46493600Y-84068600D02*
X46355600Y-84226000D01*
X46355600Y-84226000D02*
X46239400Y-84400000D01*
X46239400Y-84400000D02*
X46146800Y-84587700D01*
X46146800Y-84587700D02*
X46079500Y-84785900D01*
X46079500Y-84785900D02*
X46038700Y-84991200D01*
X46038700Y-84991200D02*
X46025000Y-85200000D01*
X46025000Y-85200000D02*
X46038700Y-85408800D01*
X46038700Y-85408800D02*
X46079500Y-85614100D01*
X46079500Y-85614100D02*
X46146800Y-85812300D01*
X46146800Y-85812300D02*
X46239400Y-86000000D01*
X46239400Y-86000000D02*
X46355600Y-86174000D01*
X46355600Y-86174000D02*
X46493600Y-86331400D01*
X46493600Y-86331400D02*
X46651000Y-86469400D01*
X46651000Y-86469400D02*
X46825000Y-86585600D01*
X46825000Y-86585600D02*
X47012700Y-86678200D01*
X47012700Y-86678200D02*
X47210900Y-86745500D01*
X47210900Y-86745500D02*
X47416200Y-86786300D01*
X47416200Y-86786300D02*
X47625000Y-86800000D01*
X47625000Y-86800000D02*
X47833800Y-86786300D01*
X47833800Y-86786300D02*
X48039100Y-86745500D01*
X48039100Y-86745500D02*
X48237300Y-86678200D01*
X48237300Y-86678200D02*
X48425000Y-86585600D01*
X48425000Y-86585600D02*
X48599000Y-86469400D01*
X48599000Y-86469400D02*
X48756400Y-86331400D01*
X48756400Y-86331400D02*
X48894400Y-86174000D01*
X48894400Y-86174000D02*
X49010600Y-86000000D01*
X49010600Y-86000000D02*
X49103200Y-85812300D01*
X49103200Y-85812300D02*
X49170500Y-85614100D01*
X49170500Y-85614100D02*
X49211300Y-85408800D01*
X49211300Y-85408800D02*
X49225000Y-85200000D01*
X239725000Y-85200000D02*
X239711300Y-84991200D01*
X239711300Y-84991200D02*
X239670500Y-84785900D01*
X239670500Y-84785900D02*
X239603200Y-84587700D01*
X239603200Y-84587700D02*
X239510600Y-84400000D01*
X239510600Y-84400000D02*
X239394400Y-84226000D01*
X239394400Y-84226000D02*
X239256400Y-84068600D01*
X239256400Y-84068600D02*
X239099000Y-83930600D01*
X239099000Y-83930600D02*
X238925000Y-83814400D01*
X238925000Y-83814400D02*
X238737300Y-83721800D01*
X238737300Y-83721800D02*
X238539100Y-83654500D01*
X238539100Y-83654500D02*
X238333800Y-83613700D01*
X238333800Y-83613700D02*
X238125000Y-83600000D01*
X238125000Y-83600000D02*
X237916200Y-83613700D01*
X237916200Y-83613700D02*
X237710900Y-83654500D01*
X237710900Y-83654500D02*
X237512700Y-83721800D01*
X237512700Y-83721800D02*
X237325000Y-83814400D01*
X237325000Y-83814400D02*
X237151000Y-83930600D01*
X237151000Y-83930600D02*
X236993600Y-84068600D01*
X236993600Y-84068600D02*
X236855600Y-84226000D01*
X236855600Y-84226000D02*
X236739400Y-84400000D01*
X236739400Y-84400000D02*
X236646800Y-84587700D01*
X236646800Y-84587700D02*
X236579500Y-84785900D01*
X236579500Y-84785900D02*
X236538700Y-84991200D01*
X236538700Y-84991200D02*
X236525000Y-85200000D01*
X236525000Y-85200000D02*
X236538700Y-85408800D01*
X236538700Y-85408800D02*
X236579500Y-85614100D01*
X236579500Y-85614100D02*
X236646800Y-85812300D01*
X236646800Y-85812300D02*
X236739400Y-86000000D01*
X236739400Y-86000000D02*
X236855600Y-86174000D01*
X236855600Y-86174000D02*
X236993600Y-86331400D01*
X236993600Y-86331400D02*
X237151000Y-86469400D01*
X237151000Y-86469400D02*
X237325000Y-86585600D01*
X237325000Y-86585600D02*
X237512700Y-86678200D01*
X237512700Y-86678200D02*
X237710900Y-86745500D01*
X237710900Y-86745500D02*
X237916200Y-86786300D01*
X237916200Y-86786300D02*
X238125000Y-86800000D01*
X238125000Y-86800000D02*
X238333800Y-86786300D01*
X238333800Y-86786300D02*
X238539100Y-86745500D01*
X238539100Y-86745500D02*
X238737300Y-86678200D01*
X238737300Y-86678200D02*
X238925000Y-86585600D01*
X238925000Y-86585600D02*
X239099000Y-86469400D01*
X239099000Y-86469400D02*
X239256400Y-86331400D01*
X239256400Y-86331400D02*
X239394400Y-86174000D01*
X239394400Y-86174000D02*
X239510600Y-86000000D01*
X239510600Y-86000000D02*
X239603200Y-85812300D01*
X239603200Y-85812300D02*
X239670500Y-85614100D01*
X239670500Y-85614100D02*
X239711300Y-85408800D01*
X239711300Y-85408800D02*
X239725000Y-85200000D01*
D11*
X135560714Y-1360735D02*
X135560714Y-560735D01*
X135560714Y-560735D02*
X135865476Y-560735D01*
X135865476Y-560735D02*
X135941666Y-598830D01*
X135941666Y-598830D02*
X135979761Y-636925D01*
X135979761Y-636925D02*
X136017857Y-713116D01*
X136017857Y-713116D02*
X136017857Y-827401D01*
X136017857Y-827401D02*
X135979761Y-903592D01*
X135979761Y-903592D02*
X135941666Y-941687D01*
X135941666Y-941687D02*
X135865476Y-979782D01*
X135865476Y-979782D02*
X135560714Y-979782D01*
X136741666Y-1360735D02*
X136360714Y-1360735D01*
X136360714Y-1360735D02*
X136360714Y-560735D01*
X136970237Y-1132163D02*
X137351190Y-1132163D01*
X136894047Y-1360735D02*
X137160714Y-560735D01*
X137160714Y-560735D02*
X137427380Y-1360735D01*
X137579761Y-560735D02*
X138036904Y-560735D01*
X137808332Y-1360735D02*
X137808332Y-560735D01*
X138303571Y-941687D02*
X138570237Y-941687D01*
X138684523Y-1360735D02*
X138303571Y-1360735D01*
X138303571Y-1360735D02*
X138303571Y-560735D01*
X138303571Y-560735D02*
X138684523Y-560735D01*
X139636905Y-1360735D02*
X139636905Y-560735D01*
X139636905Y-560735D02*
X139827381Y-560735D01*
X139827381Y-560735D02*
X139941667Y-598830D01*
X139941667Y-598830D02*
X140017857Y-675020D01*
X140017857Y-675020D02*
X140055952Y-751211D01*
X140055952Y-751211D02*
X140094048Y-903592D01*
X140094048Y-903592D02*
X140094048Y-1017878D01*
X140094048Y-1017878D02*
X140055952Y-1170259D01*
X140055952Y-1170259D02*
X140017857Y-1246449D01*
X140017857Y-1246449D02*
X139941667Y-1322640D01*
X139941667Y-1322640D02*
X139827381Y-1360735D01*
X139827381Y-1360735D02*
X139636905Y-1360735D01*
X140360714Y-560735D02*
X140894048Y-1360735D01*
X140894048Y-560735D02*
X140360714Y-1360735D01*
X141465476Y-941687D02*
X141198810Y-941687D01*
X141198810Y-1360735D02*
X141198810Y-560735D01*
X141198810Y-560735D02*
X141579762Y-560735D01*
X142722619Y-979782D02*
X142722619Y-1132163D01*
X142760714Y-1132163D02*
X142760714Y-979782D01*
X142798810Y-941687D02*
X142798810Y-1170259D01*
X142836905Y-1132163D02*
X142836905Y-979782D01*
X142875000Y-979782D02*
X142875000Y-1132163D01*
X142722619Y-1094068D02*
X142798810Y-1170259D01*
X142798810Y-1170259D02*
X142875000Y-1094068D01*
X142722619Y-1017878D02*
X142798810Y-941687D01*
X142798810Y-941687D02*
X142875000Y-1017878D01*
X142722619Y-979782D02*
X142798810Y-941687D01*
X142798810Y-941687D02*
X142875000Y-979782D01*
X142875000Y-979782D02*
X142913095Y-1055973D01*
X142913095Y-1055973D02*
X142875000Y-1132163D01*
X142875000Y-1132163D02*
X142798810Y-1170259D01*
X142798810Y-1170259D02*
X142722619Y-1132163D01*
X142722619Y-1132163D02*
X142684524Y-1055973D01*
X142684524Y-1055973D02*
X142722619Y-979782D01*
X144513095Y-1360735D02*
X144055952Y-1360735D01*
X144284524Y-1360735D02*
X144284524Y-560735D01*
X144284524Y-560735D02*
X144208333Y-675020D01*
X144208333Y-675020D02*
X144132143Y-751211D01*
X144132143Y-751211D02*
X144055952Y-789306D01*
X144855953Y-1284544D02*
X144894048Y-1322640D01*
X144894048Y-1322640D02*
X144855953Y-1360735D01*
X144855953Y-1360735D02*
X144817857Y-1322640D01*
X144817857Y-1322640D02*
X144855953Y-1284544D01*
X144855953Y-1284544D02*
X144855953Y-1360735D01*
X144855953Y-865497D02*
X144894048Y-903592D01*
X144894048Y-903592D02*
X144855953Y-941687D01*
X144855953Y-941687D02*
X144817857Y-903592D01*
X144817857Y-903592D02*
X144855953Y-865497D01*
X144855953Y-865497D02*
X144855953Y-941687D01*
X145655952Y-1360735D02*
X145198809Y-1360735D01*
X145427381Y-1360735D02*
X145427381Y-560735D01*
X145427381Y-560735D02*
X145351190Y-675020D01*
X145351190Y-675020D02*
X145275000Y-751211D01*
X145275000Y-751211D02*
X145198809Y-789306D01*
X147065477Y-1284544D02*
X147027381Y-1322640D01*
X147027381Y-1322640D02*
X146913096Y-1360735D01*
X146913096Y-1360735D02*
X146836905Y-1360735D01*
X146836905Y-1360735D02*
X146722619Y-1322640D01*
X146722619Y-1322640D02*
X146646429Y-1246449D01*
X146646429Y-1246449D02*
X146608334Y-1170259D01*
X146608334Y-1170259D02*
X146570238Y-1017878D01*
X146570238Y-1017878D02*
X146570238Y-903592D01*
X146570238Y-903592D02*
X146608334Y-751211D01*
X146608334Y-751211D02*
X146646429Y-675020D01*
X146646429Y-675020D02*
X146722619Y-598830D01*
X146722619Y-598830D02*
X146836905Y-560735D01*
X146836905Y-560735D02*
X146913096Y-560735D01*
X146913096Y-560735D02*
X147027381Y-598830D01*
X147027381Y-598830D02*
X147065477Y-636925D01*
X147408334Y-1360735D02*
X147408334Y-560735D01*
X147408334Y-941687D02*
X147865477Y-941687D01*
X147865477Y-1360735D02*
X147865477Y-560735D01*
X148246429Y-941687D02*
X148513095Y-941687D01*
X148627381Y-1360735D02*
X148246429Y-1360735D01*
X148246429Y-1360735D02*
X148246429Y-560735D01*
X148246429Y-560735D02*
X148627381Y-560735D01*
X149427382Y-1284544D02*
X149389286Y-1322640D01*
X149389286Y-1322640D02*
X149275001Y-1360735D01*
X149275001Y-1360735D02*
X149198810Y-1360735D01*
X149198810Y-1360735D02*
X149084524Y-1322640D01*
X149084524Y-1322640D02*
X149008334Y-1246449D01*
X149008334Y-1246449D02*
X148970239Y-1170259D01*
X148970239Y-1170259D02*
X148932143Y-1017878D01*
X148932143Y-1017878D02*
X148932143Y-903592D01*
X148932143Y-903592D02*
X148970239Y-751211D01*
X148970239Y-751211D02*
X149008334Y-675020D01*
X149008334Y-675020D02*
X149084524Y-598830D01*
X149084524Y-598830D02*
X149198810Y-560735D01*
X149198810Y-560735D02*
X149275001Y-560735D01*
X149275001Y-560735D02*
X149389286Y-598830D01*
X149389286Y-598830D02*
X149427382Y-636925D01*
X149770239Y-1360735D02*
X149770239Y-560735D01*
X150227382Y-1360735D02*
X149884524Y-903592D01*
X150227382Y-560735D02*
X149770239Y-1017878D01*
M02*
