M48
; DRILL file KiCad 10.0.4 date 2026-07-22T15:14:50
; FORMAT={-:-/ absolute / metric / decimal}
; #@! TF.CreationDate,2026-07-22T15:14:50+08:00
; #@! TF.GenerationSoftware,Kicad,Pcbnew,10.0.4
; #@! TF.FileFunction,NonPlated,1,2,NPTH
FMAT,2
METRIC
; #@! TA.AperFunction,NonPlated,NPTH,ComponentDrill
T1C1.900
; #@! TA.AperFunction,NonPlated,NPTH,ComponentDrill
T2C2.700
; #@! TA.AperFunction,NonPlated,NPTH,ComponentDrill
T3C3.000
; #@! TA.AperFunction,NonPlated,NPTH,ComponentDrill
T4C4.100
%
G90
G05
T1
X4.445Y-9.525
X6.826Y-85.725
X9.207Y-28.575
X11.589Y-47.625
X14.605Y-9.525
X16.351Y-66.675
X16.986Y-85.725
X19.367Y-28.575
X21.749Y-47.625
X23.495Y-9.525
X26.511Y-66.675
X30.639Y-85.725
X33.02Y-28.575
X33.655Y-9.525
X37.782Y-47.625
X40.799Y-85.725
X42.545Y-9.525
X43.18Y-28.575
X47.307Y-66.675
X47.942Y-47.625
X52.07Y-28.575
X52.705Y-9.525
X54.451Y-85.725
X56.832Y-47.625
X57.467Y-66.675
X61.595Y-9.525
X62.23Y-28.575
X64.611Y-85.725
X66.358Y-66.675
X66.992Y-47.625
X71.12Y-28.575
X71.755Y-9.525
X75.882Y-47.625
X76.517Y-66.675
X78.264Y-85.725
X80.645Y-9.525
X81.28Y-28.575
X85.407Y-66.675
X86.042Y-47.625
X88.424Y-85.725
X90.17Y-28.575
X90.805Y-9.525
X94.932Y-47.625
X95.567Y-66.675
X99.695Y-9.525
X100.33Y-28.575
X104.457Y-66.675
X105.093Y-47.625
X109.22Y-28.575
X109.855Y-9.525
X113.983Y-47.625
X114.617Y-66.675
X116.364Y-85.725
X118.745Y-9.525
X119.38Y-28.575
X123.507Y-66.675
X124.142Y-47.625
X126.524Y-85.725
X128.27Y-28.575
X128.905Y-9.525
X133.032Y-47.625
X133.667Y-66.675
X137.795Y-9.525
X138.43Y-28.575
X142.558Y-66.675
X143.192Y-47.625
X147.32Y-28.575
X147.955Y-9.525
X152.082Y-47.625
X152.718Y-66.675
X154.464Y-85.725
X156.845Y-9.525
X157.48Y-28.575
X161.607Y-66.675
X162.243Y-47.625
X164.624Y-85.725
X166.37Y-28.575
X167.005Y-9.525
X171.132Y-47.625
X171.767Y-66.675
X175.895Y-9.525
X176.53Y-28.575
X178.276Y-85.725
X180.657Y-66.675
X181.292Y-47.625
X185.42Y-28.575
X186.055Y-9.525
X188.436Y-85.725
X190.183Y-47.625
X190.817Y-66.675
X194.945Y-9.525
X195.58Y-28.575
X199.707Y-66.675
X199.707Y-85.725
X200.343Y-47.625
X204.47Y-28.575
X205.105Y-9.525
X209.232Y-47.625
X209.867Y-66.675
X209.867Y-85.725
X213.995Y-9.525
X214.63Y-28.575
X218.757Y-66.675
X219.392Y-47.625
X221.139Y-85.725
X223.52Y-28.575
X224.155Y-9.525
X228.282Y-47.625
X228.917Y-66.675
X231.299Y-85.725
X233.045Y-9.525
X233.68Y-28.575
X238.442Y-47.625
X242.57Y-28.575
X243.205Y-9.525
X244.951Y-85.725
X252.73Y-28.575
X254.476Y-66.675
X255.111Y-85.725
X259.239Y-47.625
X261.62Y-9.525
X264.636Y-66.675
X266.382Y-28.575
X268.764Y-85.725
X269.399Y-47.625
X271.78Y-9.525
X276.542Y-28.575
X278.924Y-85.725
T2
X25.575Y-28.225
X128.576Y-47.626
X260.424Y-28.225
T3
X5.715Y-12.065
X9.366Y-80.645
X11.747Y-23.495
X12.065Y-14.605
X14.129Y-42.545
X15.716Y-83.185
X18.098Y-26.035
X18.891Y-61.595
X20.479Y-45.085
X24.765Y-12.065
X25.241Y-64.135
X31.115Y-14.605
X33.179Y-80.645
X35.56Y-23.495
X39.529Y-83.185
X40.322Y-42.545
X41.91Y-26.035
X43.815Y-12.065
X46.672Y-45.085
X49.847Y-61.595
X50.165Y-14.605
X54.61Y-23.495
X56.197Y-64.135
X56.991Y-80.645
X59.372Y-42.545
X60.96Y-26.035
X62.865Y-12.065
X63.341Y-83.185
X65.722Y-45.085
X68.897Y-61.595
X69.215Y-14.605
X73.66Y-23.495
X75.248Y-64.135
X78.422Y-42.545
X80.01Y-26.035
X80.804Y-80.645
X81.915Y-12.065
X84.772Y-45.085
X87.154Y-83.185
X87.947Y-61.595
X88.265Y-14.605
X92.71Y-23.495
X94.297Y-64.135
X97.472Y-42.545
X99.06Y-26.035
X100.965Y-12.065
X103.822Y-45.085
X106.997Y-61.595
X107.315Y-14.605
X111.76Y-23.495
X113.347Y-64.135
X116.522Y-42.545
X118.11Y-26.035
X118.904Y-80.645
X120.015Y-12.065
X122.872Y-45.085
X125.254Y-83.185
X126.047Y-61.595
X126.365Y-14.605
X130.81Y-23.495
X132.398Y-64.135
X135.572Y-42.545
X137.16Y-26.035
X139.065Y-12.065
X141.922Y-45.085
X145.097Y-61.595
X145.415Y-14.605
X149.86Y-23.495
X151.447Y-64.135
X154.623Y-42.545
X156.21Y-26.035
X157.004Y-80.645
X158.115Y-12.065
X160.972Y-45.085
X163.354Y-83.185
X164.147Y-61.595
X164.465Y-14.605
X168.91Y-23.495
X170.498Y-64.135
X173.672Y-42.545
X175.26Y-26.035
X177.165Y-12.065
X180.022Y-45.085
X180.816Y-80.645
X183.197Y-61.595
X183.515Y-14.605
X187.166Y-83.185
X187.96Y-23.495
X189.547Y-64.135
X192.722Y-42.545
X194.31Y-26.035
X196.215Y-12.065
X199.072Y-45.085
X202.248Y-61.595
X202.248Y-80.645
X202.565Y-14.605
X207.01Y-23.495
X208.597Y-64.135
X208.597Y-83.185
X211.772Y-42.545
X213.36Y-26.035
X215.265Y-12.065
X218.123Y-45.085
X221.297Y-61.595
X221.615Y-14.605
X223.679Y-80.645
X226.06Y-23.495
X227.647Y-64.135
X230.029Y-83.185
X230.822Y-42.545
X232.41Y-26.035
X234.315Y-12.065
X237.172Y-45.085
X240.665Y-14.605
X245.11Y-23.495
X247.491Y-80.645
X251.46Y-26.035
X253.841Y-83.185
X257.016Y-61.595
X261.779Y-42.545
X262.89Y-12.065
X263.366Y-64.135
X268.129Y-45.085
X268.923Y-23.495
X269.24Y-14.605
X271.304Y-80.645
X275.272Y-26.035
X277.654Y-83.185
T4
X9.525Y-9.525
X11.906Y-85.725
X14.287Y-28.575
X16.669Y-47.625
X21.431Y-66.675
X28.575Y-9.525
X35.719Y-85.725
X38.1Y-28.575
X42.862Y-47.625
X47.625Y-9.525
X52.387Y-66.675
X57.15Y-28.575
X59.531Y-85.725
X61.912Y-47.625
X66.675Y-9.525
X71.438Y-66.675
X76.2Y-28.575
X80.962Y-47.625
X83.344Y-85.725
X85.725Y-9.525
X90.487Y-66.675
X95.25Y-28.575
X100.012Y-47.625
X104.775Y-9.525
X109.537Y-66.675
X114.3Y-28.575
X119.062Y-47.625
X121.444Y-85.725
X123.825Y-9.525
X128.588Y-66.675
X133.35Y-28.575
X138.112Y-47.625
X142.875Y-9.525
X147.637Y-66.675
X152.4Y-28.575
X157.162Y-47.625
X159.544Y-85.725
X161.925Y-9.525
X166.688Y-66.675
X171.45Y-28.575
X176.213Y-47.625
X180.975Y-9.525
X183.356Y-85.725
X185.737Y-66.675
X190.5Y-28.575
X195.262Y-47.625
X200.025Y-9.525
X204.787Y-66.675
X204.787Y-85.725
X209.55Y-28.575
X214.312Y-47.625
X219.075Y-9.525
X223.837Y-66.675
X226.219Y-85.725
X228.6Y-28.575
X233.362Y-47.625
X238.125Y-9.525
X247.65Y-28.575
X250.031Y-85.725
X259.556Y-66.675
X264.319Y-47.625
X266.7Y-9.525
X271.462Y-28.575
X273.844Y-85.725
M30
