0
SECTION
2
HEADER
0
ENDSEC
0
SECTION
2
ENTITIES
0
LINE
8
0
10
0.095080
20
0.228750
30
0.0
11
285.469000
21
0.228750
31
0.0
0
LINE
8
0
10
285.469000
20
0.228750
30
0.0
11
285.469000
21
35.992900
31
0.0
0
LINE
8
0
10
285.469000
20
35.992900
30
0.0
11
281.969000
21
35.992900
31
0.0
0
LINE
8
0
10
281.969000
20
35.992900
30
0.0
11
281.196000
21
36.114200
31
0.0
0
LINE
8
0
10
281.196000
20
36.114200
30
0.0
11
280.500000
21
36.469800
31
0.0
0
LINE
8
0
10
280.500000
20
36.469800
30
0.0
11
279.947000
21
37.023700
31
0.0
0
LINE
8
0
10
279.947000
20
37.023700
30
0.0
11
279.592000
21
37.719700
31
0.0
0
LINE
8
0
10
279.592000
20
37.719700
30
0.0
11
279.469000
21
38.494100
31
0.0
0
LINE
8
0
10
279.469000
20
38.494100
30
0.0
11
279.592000
21
39.265900
31
0.0
0
LINE
8
0
10
279.592000
20
39.265900
30
0.0
11
279.947000
21
39.963000
31
0.0
0
LINE
8
0
10
279.947000
20
39.963000
30
0.0
11
280.500000
21
40.515800
31
0.0
0
LINE
8
0
10
280.500000
20
40.515800
30
0.0
11
281.196000
21
40.870000
31
0.0
0
LINE
8
0
10
281.196000
20
40.870000
30
0.0
11
281.969000
21
40.992400
31
0.0
0
LINE
8
0
10
281.969000
20
40.992400
30
0.0
11
285.469000
21
40.992400
31
0.0
0
LINE
8
0
10
285.469000
20
40.992400
30
0.0
11
285.469000
21
95.154800
31
0.0
0
LINE
8
0
10
285.469000
20
95.154800
30
0.0
11
0.095080
21
95.154800
31
0.0
0
LINE
8
0
10
0.095080
20
95.154800
30
0.0
11
0.095080
21
40.992400
31
0.0
0
LINE
8
0
10
0.095080
20
40.992400
30
0.0
11
3.595300
21
40.992400
31
0.0
0
LINE
8
0
10
3.595300
20
40.992400
30
0.0
11
4.367000
21
40.870000
31
0.0
0
LINE
8
0
10
4.367000
20
40.870000
30
0.0
11
5.062930
21
40.515800
31
0.0
0
LINE
8
0
10
5.062930
20
40.515800
30
0.0
11
5.616890
21
39.963000
31
0.0
0
LINE
8
0
10
5.616890
20
39.963000
30
0.0
11
5.971050
21
39.265900
31
0.0
0
LINE
8
0
10
5.971050
20
39.265900
30
0.0
11
6.095050
21
38.492600
31
0.0
0
LINE
8
0
10
6.095050
20
38.492600
30
0.0
11
5.971050
21
37.719700
31
0.0
0
LINE
8
0
10
5.971050
20
37.719700
30
0.0
11
5.616890
21
37.023700
31
0.0
0
LINE
8
0
10
5.616890
20
37.023700
30
0.0
11
5.062930
21
36.469800
31
0.0
0
LINE
8
0
10
5.062930
20
36.469800
30
0.0
11
4.367000
21
36.114200
31
0.0
0
LINE
8
0
10
4.367000
20
36.114200
30
0.0
11
3.593920
21
35.992900
31
0.0
0
LINE
8
0
10
3.593920
20
35.992900
30
0.0
11
0.095080
21
35.992900
31
0.0
0
LINE
8
0
10
0.095080
20
35.992900
30
0.0
11
0.095080
21
0.228750
31
0.0
0
LINE
8
0
10
105.251000
20
9.093660
30
0.0
11
105.251000
21
11.893800
31
0.0
0
LINE
8
0
10
105.251000
20
11.893800
30
0.0
11
106.075000
21
11.893800
31
0.0
0
LINE
8
0
10
106.075000
20
11.893800
30
0.0
11
106.075000
21
15.124000
31
0.0
0
LINE
8
0
10
106.075000
20
15.124000
30
0.0
11
112.824000
21
15.124000
31
0.0
0
LINE
8
0
10
112.824000
20
15.124000
30
0.0
11
112.824000
21
11.893800
31
0.0
0
LINE
8
0
10
112.824000
20
11.893800
30
0.0
11
114.351000
21
11.893800
31
0.0
0
LINE
8
0
10
114.351000
20
11.893800
30
0.0
11
114.351000
21
12.491900
31
0.0
0
LINE
8
0
10
114.351000
20
12.491900
30
0.0
11
113.550000
21
12.491900
31
0.0
0
LINE
8
0
10
113.550000
20
12.491900
30
0.0
11
113.550000
21
15.593900
31
0.0
0
LINE
8
0
10
113.550000
20
15.593900
30
0.0
11
114.351000
21
15.593900
31
0.0
0
LINE
8
0
10
114.351000
20
15.593900
30
0.0
11
114.351000
21
16.593000
31
0.0
0
LINE
8
0
10
114.351000
20
16.593000
30
0.0
11
128.350000
21
16.593000
31
0.0
0
LINE
8
0
10
128.350000
20
16.593000
30
0.0
11
128.350000
21
15.593900
31
0.0
0
LINE
8
0
10
128.350000
20
15.593900
30
0.0
11
129.151000
21
15.593900
31
0.0
0
LINE
8
0
10
129.151000
20
15.593900
30
0.0
11
129.151000
21
12.491900
31
0.0
0
LINE
8
0
10
129.151000
20
12.491900
30
0.0
11
128.350000
21
12.491900
31
0.0
0
LINE
8
0
10
128.350000
20
12.491900
30
0.0
11
128.350000
21
11.893800
31
0.0
0
LINE
8
0
10
128.350000
20
11.893800
30
0.0
11
129.876000
21
11.893800
31
0.0
0
LINE
8
0
10
129.876000
20
11.893800
30
0.0
11
129.876000
21
15.124000
31
0.0
0
LINE
8
0
10
129.876000
20
15.124000
30
0.0
11
136.626000
21
15.124000
31
0.0
0
LINE
8
0
10
136.626000
20
15.124000
30
0.0
11
136.626000
21
11.893800
31
0.0
0
LINE
8
0
10
136.626000
20
11.893800
30
0.0
11
137.450000
21
11.893800
31
0.0
0
LINE
8
0
10
137.450000
20
11.893800
30
0.0
11
137.450000
21
9.093660
31
0.0
0
LINE
8
0
10
137.450000
20
9.093660
30
0.0
11
136.626000
21
9.093660
31
0.0
0
LINE
8
0
10
136.626000
20
9.093660
30
0.0
11
136.626000
21
2.823600
31
0.0
0
LINE
8
0
10
136.626000
20
2.823600
30
0.0
11
134.900000
21
2.823600
31
0.0
0
LINE
8
0
10
134.900000
20
2.823600
30
0.0
11
134.900000
21
1.623330
31
0.0
0
LINE
8
0
10
134.900000
20
1.623330
30
0.0
11
131.600000
21
1.623330
31
0.0
0
LINE
8
0
10
131.600000
20
1.623330
30
0.0
11
131.600000
21
2.823600
31
0.0
0
LINE
8
0
10
131.600000
20
2.823600
30
0.0
11
129.876000
21
2.823600
31
0.0
0
LINE
8
0
10
129.876000
20
2.823600
30
0.0
11
129.876000
21
7.293960
31
0.0
0
LINE
8
0
10
129.876000
20
7.293960
30
0.0
11
128.350000
21
7.293960
31
0.0
0
LINE
8
0
10
128.350000
20
7.293960
30
0.0
11
128.350000
21
6.693150
31
0.0
0
LINE
8
0
10
128.350000
20
6.693150
30
0.0
11
129.151000
21
6.693150
31
0.0
0
LINE
8
0
10
129.151000
20
6.693150
30
0.0
11
129.151000
21
3.593920
31
0.0
0
LINE
8
0
10
129.151000
20
3.593920
30
0.0
11
128.350000
21
3.593920
31
0.0
0
LINE
8
0
10
128.350000
20
3.593920
30
0.0
11
128.350000
21
2.593470
31
0.0
0
LINE
8
0
10
128.350000
20
2.593470
30
0.0
11
114.351000
21
2.593470
31
0.0
0
LINE
8
0
10
114.351000
20
2.593470
30
0.0
11
114.351000
21
3.593920
31
0.0
0
LINE
8
0
10
114.351000
20
3.593920
30
0.0
11
113.550000
21
3.593920
31
0.0
0
LINE
8
0
10
113.550000
20
3.593920
30
0.0
11
113.550000
21
6.693150
31
0.0
0
LINE
8
0
10
113.550000
20
6.693150
30
0.0
11
114.351000
21
6.693150
31
0.0
0
LINE
8
0
10
114.351000
20
6.693150
30
0.0
11
114.351000
21
7.293960
31
0.0
0
LINE
8
0
10
114.351000
20
7.293960
30
0.0
11
112.824000
21
7.293960
31
0.0
0
LINE
8
0
10
112.824000
20
7.293960
30
0.0
11
112.824000
21
2.823600
31
0.0
0
LINE
8
0
10
112.824000
20
2.823600
30
0.0
11
111.100000
21
2.823600
31
0.0
0
LINE
8
0
10
111.100000
20
2.823600
30
0.0
11
111.100000
21
1.623330
31
0.0
0
LINE
8
0
10
111.100000
20
1.623330
30
0.0
11
107.801000
21
1.623330
31
0.0
0
LINE
8
0
10
107.801000
20
1.623330
30
0.0
11
107.801000
21
2.823600
31
0.0
0
LINE
8
0
10
107.801000
20
2.823600
30
0.0
11
106.075000
21
2.823600
31
0.0
0
LINE
8
0
10
106.075000
20
2.823600
30
0.0
11
106.075000
21
9.093660
31
0.0
0
LINE
8
0
10
106.075000
20
9.093660
30
0.0
11
105.251000
21
9.093660
31
0.0
0
LINE
8
0
10
4.012850
20
3.593920
30
0.0
11
4.012850
21
6.693150
31
0.0
0
LINE
8
0
10
4.012850
20
6.693150
30
0.0
11
4.812100
21
6.693150
31
0.0
0
LINE
8
0
10
4.812100
20
6.693150
30
0.0
11
4.812100
21
12.491900
31
0.0
0
LINE
8
0
10
4.812100
20
12.491900
30
0.0
11
4.012850
21
12.491900
31
0.0
0
LINE
8
0
10
4.012850
20
12.491900
30
0.0
11
4.012850
21
15.593900
31
0.0
0
LINE
8
0
10
4.012850
20
15.593900
30
0.0
11
4.812100
21
15.593900
31
0.0
0
LINE
8
0
10
4.812100
20
15.593900
30
0.0
11
4.812100
21
16.593000
31
0.0
0
LINE
8
0
10
4.812100
20
16.593000
30
0.0
11
18.813000
21
16.593000
31
0.0
0
LINE
8
0
10
18.813000
20
16.593000
30
0.0
11
18.813000
21
15.593900
31
0.0
0
LINE
8
0
10
18.813000
20
15.593900
30
0.0
11
19.612300
21
15.593900
31
0.0
0
LINE
8
0
10
19.612300
20
15.593900
30
0.0
11
19.612300
21
12.491900
31
0.0
0
LINE
8
0
10
19.612300
20
12.491900
30
0.0
11
18.813000
21
12.491900
31
0.0
0
LINE
8
0
10
18.813000
20
12.491900
30
0.0
11
18.813000
21
6.693150
31
0.0
0
LINE
8
0
10
18.813000
20
6.693150
30
0.0
11
19.612300
21
6.693150
31
0.0
0
LINE
8
0
10
19.612300
20
6.693150
30
0.0
11
19.612300
21
3.593920
31
0.0
0
LINE
8
0
10
19.612300
20
3.593920
30
0.0
11
18.813000
21
3.593920
31
0.0
0
LINE
8
0
10
18.813000
20
3.593920
30
0.0
11
18.813000
21
2.593470
31
0.0
0
LINE
8
0
10
18.813000
20
2.593470
30
0.0
11
4.812100
21
2.593470
31
0.0
0
LINE
8
0
10
4.812100
20
2.593470
30
0.0
11
4.812100
21
3.593920
31
0.0
0
LINE
8
0
10
4.812100
20
3.593920
30
0.0
11
4.012850
21
3.593920
31
0.0
0
LINE
8
0
10
27.824000
20
3.593920
30
0.0
11
27.824000
21
6.693150
31
0.0
0
LINE
8
0
10
27.824000
20
6.693150
30
0.0
11
28.624600
21
6.693150
31
0.0
0
LINE
8
0
10
28.624600
20
6.693150
30
0.0
11
28.624600
21
12.491900
31
0.0
0
LINE
8
0
10
28.624600
20
12.491900
30
0.0
11
27.824000
21
12.491900
31
0.0
0
LINE
8
0
10
27.824000
20
12.491900
30
0.0
11
27.824000
21
15.593900
31
0.0
0
LINE
8
0
10
27.824000
20
15.593900
30
0.0
11
28.624600
21
15.593900
31
0.0
0
LINE
8
0
10
28.624600
20
15.593900
30
0.0
11
28.624600
21
16.593000
31
0.0
0
LINE
8
0
10
28.624600
20
16.593000
30
0.0
11
42.624000
21
16.593000
31
0.0
0
LINE
8
0
10
42.624000
20
16.593000
30
0.0
11
42.624000
21
15.593900
31
0.0
0
LINE
8
0
10
42.624000
20
15.593900
30
0.0
11
43.426200
21
15.593900
31
0.0
0
LINE
8
0
10
43.426200
20
15.593900
30
0.0
11
43.426200
21
12.491900
31
0.0
0
LINE
8
0
10
43.426200
20
12.491900
30
0.0
11
42.624000
21
12.491900
31
0.0
0
LINE
8
0
10
42.624000
20
12.491900
30
0.0
11
42.624000
21
6.693150
31
0.0
0
LINE
8
0
10
42.624000
20
6.693150
30
0.0
11
43.426200
21
6.693150
31
0.0
0
LINE
8
0
10
43.426200
20
6.693150
30
0.0
11
43.426200
21
3.593920
31
0.0
0
LINE
8
0
10
43.426200
20
3.593920
30
0.0
11
42.624000
21
3.593920
31
0.0
0
LINE
8
0
10
42.624000
20
3.593920
30
0.0
11
42.624000
21
2.593470
31
0.0
0
LINE
8
0
10
42.624000
20
2.593470
30
0.0
11
28.624600
21
2.593470
31
0.0
0
LINE
8
0
10
28.624600
20
2.593470
30
0.0
11
28.624600
21
3.593920
31
0.0
0
LINE
8
0
10
28.624600
20
3.593920
30
0.0
11
27.824000
21
3.593920
31
0.0
0
LINE
8
0
10
51.636400
20
3.593920
30
0.0
11
51.636400
21
6.693150
31
0.0
0
LINE
8
0
10
51.636400
20
6.693150
30
0.0
11
52.437200
21
6.693150
31
0.0
0
LINE
8
0
10
52.437200
20
6.693150
30
0.0
11
52.437200
21
12.491900
31
0.0
0
LINE
8
0
10
52.437200
20
12.491900
30
0.0
11
51.636400
21
12.491900
31
0.0
0
LINE
8
0
10
51.636400
20
12.491900
30
0.0
11
51.636400
21
15.593900
31
0.0
0
LINE
8
0
10
51.636400
20
15.593900
30
0.0
11
52.437200
21
15.593900
31
0.0
0
LINE
8
0
10
52.437200
20
15.593900
30
0.0
11
52.437200
21
16.593000
31
0.0
0
LINE
8
0
10
52.437200
20
16.593000
30
0.0
11
66.437900
21
16.593000
31
0.0
0
LINE
8
0
10
66.437900
20
16.593000
30
0.0
11
66.437900
21
15.593900
31
0.0
0
LINE
8
0
10
66.437900
20
15.593900
30
0.0
11
67.237300
21
15.593900
31
0.0
0
LINE
8
0
10
67.237300
20
15.593900
30
0.0
11
67.237300
21
12.491900
31
0.0
0
LINE
8
0
10
67.237300
20
12.491900
30
0.0
11
66.437900
21
12.491900
31
0.0
0
LINE
8
0
10
66.437900
20
12.491900
30
0.0
11
66.437900
21
6.693150
31
0.0
0
LINE
8
0
10
66.437900
20
6.693150
30
0.0
11
67.237300
21
6.693150
31
0.0
0
LINE
8
0
10
67.237300
20
6.693150
30
0.0
11
67.237300
21
3.593920
31
0.0
0
LINE
8
0
10
67.237300
20
3.593920
30
0.0
11
66.437900
21
3.593920
31
0.0
0
LINE
8
0
10
66.437900
20
3.593920
30
0.0
11
66.437900
21
2.593470
31
0.0
0
LINE
8
0
10
66.437900
20
2.593470
30
0.0
11
52.437200
21
2.593470
31
0.0
0
LINE
8
0
10
52.437200
20
2.593470
30
0.0
11
52.437200
21
3.593920
31
0.0
0
LINE
8
0
10
52.437200
20
3.593920
30
0.0
11
51.636400
21
3.593920
31
0.0
0
LINE
8
0
10
75.448900
20
3.593920
30
0.0
11
75.448900
21
6.693150
31
0.0
0
LINE
8
0
10
75.448900
20
6.693150
30
0.0
11
76.251200
21
6.693150
31
0.0
0
LINE
8
0
10
76.251200
20
6.693150
30
0.0
11
76.251200
21
12.491900
31
0.0
0
LINE
8
0
10
76.251200
20
12.491900
30
0.0
11
75.448900
21
12.491900
31
0.0
0
LINE
8
0
10
75.448900
20
12.491900
30
0.0
11
75.448900
21
15.593900
31
0.0
0
LINE
8
0
10
75.448900
20
15.593900
30
0.0
11
76.251200
21
15.593900
31
0.0
0
LINE
8
0
10
76.251200
20
15.593900
30
0.0
11
76.251200
21
16.593000
31
0.0
0
LINE
8
0
10
76.251200
20
16.593000
30
0.0
11
90.250400
21
16.593000
31
0.0
0
LINE
8
0
10
90.250400
20
16.593000
30
0.0
11
90.250400
21
15.593900
31
0.0
0
LINE
8
0
10
90.250400
20
15.593900
30
0.0
11
91.051200
21
15.593900
31
0.0
0
LINE
8
0
10
91.051200
20
15.593900
30
0.0
11
91.051200
21
12.491900
31
0.0
0
LINE
8
0
10
91.051200
20
12.491900
30
0.0
11
90.250400
21
12.491900
31
0.0
0
LINE
8
0
10
90.250400
20
12.491900
30
0.0
11
90.250400
21
6.693150
31
0.0
0
LINE
8
0
10
90.250400
20
6.693150
30
0.0
11
91.051200
21
6.693150
31
0.0
0
LINE
8
0
10
91.051200
20
6.693150
30
0.0
11
91.051200
21
3.593920
31
0.0
0
LINE
8
0
10
91.051200
20
3.593920
30
0.0
11
90.250400
21
3.593920
31
0.0
0
LINE
8
0
10
90.250400
20
3.593920
30
0.0
11
90.250400
21
2.593470
31
0.0
0
LINE
8
0
10
90.250400
20
2.593470
30
0.0
11
76.251200
21
2.593470
31
0.0
0
LINE
8
0
10
76.251200
20
2.593470
30
0.0
11
76.251200
21
3.593920
31
0.0
0
LINE
8
0
10
76.251200
20
3.593920
30
0.0
11
75.448900
21
3.593920
31
0.0
0
LINE
8
0
10
151.650000
20
3.593920
30
0.0
11
151.650000
21
6.693150
31
0.0
0
LINE
8
0
10
151.650000
20
6.693150
30
0.0
11
152.450000
21
6.693150
31
0.0
0
LINE
8
0
10
152.450000
20
6.693150
30
0.0
11
152.450000
21
12.491900
31
0.0
0
LINE
8
0
10
152.450000
20
12.491900
30
0.0
11
151.650000
21
12.491900
31
0.0
0
LINE
8
0
10
151.650000
20
12.491900
30
0.0
11
151.650000
21
15.593900
31
0.0
0
LINE
8
0
10
151.650000
20
15.593900
30
0.0
11
152.450000
21
15.593900
31
0.0
0
LINE
8
0
10
152.450000
20
15.593900
30
0.0
11
152.450000
21
16.593000
31
0.0
0
LINE
8
0
10
152.450000
20
16.593000
30
0.0
11
166.449000
21
16.593000
31
0.0
0
LINE
8
0
10
166.449000
20
16.593000
30
0.0
11
166.449000
21
15.593900
31
0.0
0
LINE
8
0
10
166.449000
20
15.593900
30
0.0
11
167.251000
21
15.593900
31
0.0
0
LINE
8
0
10
167.251000
20
15.593900
30
0.0
11
167.251000
21
12.491900
31
0.0
0
LINE
8
0
10
167.251000
20
12.491900
30
0.0
11
166.449000
21
12.491900
31
0.0
0
LINE
8
0
10
166.449000
20
12.491900
30
0.0
11
166.449000
21
6.693150
31
0.0
0
LINE
8
0
10
166.449000
20
6.693150
30
0.0
11
167.251000
21
6.693150
31
0.0
0
LINE
8
0
10
167.251000
20
6.693150
30
0.0
11
167.251000
21
3.593920
31
0.0
0
LINE
8
0
10
167.251000
20
3.593920
30
0.0
11
166.449000
21
3.593920
31
0.0
0
LINE
8
0
10
166.449000
20
3.593920
30
0.0
11
166.449000
21
2.593470
31
0.0
0
LINE
8
0
10
166.449000
20
2.593470
30
0.0
11
152.450000
21
2.593470
31
0.0
0
LINE
8
0
10
152.450000
20
2.593470
30
0.0
11
152.450000
21
3.593920
31
0.0
0
LINE
8
0
10
152.450000
20
3.593920
30
0.0
11
151.650000
21
3.593920
31
0.0
0
LINE
8
0
10
175.555750
20
3.593920
30
0.0
11
175.555750
21
6.693150
31
0.0
0
LINE
8
0
10
175.555750
20
6.693150
30
0.0
11
176.354750
21
6.693150
31
0.0
0
LINE
8
0
10
176.354750
20
6.693150
30
0.0
11
176.354750
21
12.491900
31
0.0
0
LINE
8
0
10
176.354750
20
12.491900
30
0.0
11
175.555750
21
12.491900
31
0.0
0
LINE
8
0
10
175.555750
20
12.491900
30
0.0
11
175.555750
21
15.593900
31
0.0
0
LINE
8
0
10
175.555750
20
15.593900
30
0.0
11
176.354750
21
15.593900
31
0.0
0
LINE
8
0
10
176.354750
20
15.593900
30
0.0
11
176.354750
21
16.593000
31
0.0
0
LINE
8
0
10
176.354750
20
16.593000
30
0.0
11
190.354750
21
16.593000
31
0.0
0
LINE
8
0
10
190.354750
20
16.593000
30
0.0
11
190.354750
21
15.593900
31
0.0
0
LINE
8
0
10
190.354750
20
15.593900
30
0.0
11
191.156750
21
15.593900
31
0.0
0
LINE
8
0
10
191.156750
20
15.593900
30
0.0
11
191.156750
21
12.491900
31
0.0
0
LINE
8
0
10
191.156750
20
12.491900
30
0.0
11
190.354750
21
12.491900
31
0.0
0
LINE
8
0
10
190.354750
20
12.491900
30
0.0
11
190.354750
21
6.693150
31
0.0
0
LINE
8
0
10
190.354750
20
6.693150
30
0.0
11
191.156750
21
6.693150
31
0.0
0
LINE
8
0
10
191.156750
20
6.693150
30
0.0
11
191.156750
21
3.593920
31
0.0
0
LINE
8
0
10
191.156750
20
3.593920
30
0.0
11
190.354750
21
3.593920
31
0.0
0
LINE
8
0
10
190.354750
20
3.593920
30
0.0
11
190.354750
21
2.593470
31
0.0
0
LINE
8
0
10
190.354750
20
2.593470
30
0.0
11
176.354750
21
2.593470
31
0.0
0
LINE
8
0
10
176.354750
20
2.593470
30
0.0
11
176.354750
21
3.593920
31
0.0
0
LINE
8
0
10
176.354750
20
3.593920
30
0.0
11
175.555750
21
3.593920
31
0.0
0
LINE
8
0
10
196.894000
20
3.593920
30
0.0
11
196.894000
21
6.693150
31
0.0
0
LINE
8
0
10
196.894000
20
6.693150
30
0.0
11
197.693000
21
6.693150
31
0.0
0
LINE
8
0
10
197.693000
20
6.693150
30
0.0
11
197.693000
21
12.491900
31
0.0
0
LINE
8
0
10
197.693000
20
12.491900
30
0.0
11
196.894000
21
12.491900
31
0.0
0
LINE
8
0
10
196.894000
20
12.491900
30
0.0
11
196.894000
21
15.593900
31
0.0
0
LINE
8
0
10
196.894000
20
15.593900
30
0.0
11
197.693000
21
15.593900
31
0.0
0
LINE
8
0
10
197.693000
20
15.593900
30
0.0
11
197.693000
21
16.593000
31
0.0
0
LINE
8
0
10
197.693000
20
16.593000
30
0.0
11
211.693000
21
16.593000
31
0.0
0
LINE
8
0
10
211.693000
20
16.593000
30
0.0
11
211.693000
21
15.593900
31
0.0
0
LINE
8
0
10
211.693000
20
15.593900
30
0.0
11
212.495000
21
15.593900
31
0.0
0
LINE
8
0
10
212.495000
20
15.593900
30
0.0
11
212.495000
21
12.491900
31
0.0
0
LINE
8
0
10
212.495000
20
12.491900
30
0.0
11
211.693000
21
12.491900
31
0.0
0
LINE
8
0
10
211.693000
20
12.491900
30
0.0
11
211.693000
21
6.693150
31
0.0
0
LINE
8
0
10
211.693000
20
6.693150
30
0.0
11
212.495000
21
6.693150
31
0.0
0
LINE
8
0
10
212.495000
20
6.693150
30
0.0
11
212.495000
21
3.593920
31
0.0
0
LINE
8
0
10
212.495000
20
3.593920
30
0.0
11
211.693000
21
3.593920
31
0.0
0
LINE
8
0
10
211.693000
20
3.593920
30
0.0
11
211.693000
21
2.593470
31
0.0
0
LINE
8
0
10
211.693000
20
2.593470
30
0.0
11
197.693000
21
2.593470
31
0.0
0
LINE
8
0
10
197.693000
20
2.593470
30
0.0
11
197.693000
21
3.593920
31
0.0
0
LINE
8
0
10
197.693000
20
3.593920
30
0.0
11
196.894000
21
3.593920
31
0.0
0
LINE
8
0
10
218.324000
20
3.593920
30
0.0
11
218.324000
21
6.693150
31
0.0
0
LINE
8
0
10
218.324000
20
6.693150
30
0.0
11
219.126000
21
6.693150
31
0.0
0
LINE
8
0
10
219.126000
20
6.693150
30
0.0
11
219.126000
21
12.491900
31
0.0
0
LINE
8
0
10
219.126000
20
12.491900
30
0.0
11
218.324000
21
12.491900
31
0.0
0
LINE
8
0
10
218.324000
20
12.491900
30
0.0
11
218.324000
21
15.593900
31
0.0
0
LINE
8
0
10
218.324000
20
15.593900
30
0.0
11
219.126000
21
15.593900
31
0.0
0
LINE
8
0
10
219.126000
20
15.593900
30
0.0
11
219.126000
21
16.593000
31
0.0
0
LINE
8
0
10
219.126000
20
16.593000
30
0.0
11
233.125000
21
16.593000
31
0.0
0
LINE
8
0
10
233.125000
20
16.593000
30
0.0
11
233.125000
21
15.593900
31
0.0
0
LINE
8
0
10
233.125000
20
15.593900
30
0.0
11
233.925000
21
15.593900
31
0.0
0
LINE
8
0
10
233.925000
20
15.593900
30
0.0
11
233.925000
21
12.491900
31
0.0
0
LINE
8
0
10
233.925000
20
12.491900
30
0.0
11
233.125000
21
12.491900
31
0.0
0
LINE
8
0
10
233.125000
20
12.491900
30
0.0
11
233.125000
21
6.693150
31
0.0
0
LINE
8
0
10
233.125000
20
6.693150
30
0.0
11
233.925000
21
6.693150
31
0.0
0
LINE
8
0
10
233.925000
20
6.693150
30
0.0
11
233.925000
21
3.593920
31
0.0
0
LINE
8
0
10
233.925000
20
3.593920
30
0.0
11
233.125000
21
3.593920
31
0.0
0
LINE
8
0
10
233.125000
20
3.593920
30
0.0
11
233.125000
21
2.593470
31
0.0
0
LINE
8
0
10
233.125000
20
2.593470
30
0.0
11
219.126000
21
2.593470
31
0.0
0
LINE
8
0
10
219.126000
20
2.593470
30
0.0
11
219.126000
21
3.593920
31
0.0
0
LINE
8
0
10
219.126000
20
3.593920
30
0.0
11
218.324000
21
3.593920
31
0.0
0
LINE
8
0
10
242.138000
20
3.593920
30
0.0
11
242.138000
21
6.693150
31
0.0
0
LINE
8
0
10
242.138000
20
6.693150
30
0.0
11
242.937000
21
6.693150
31
0.0
0
LINE
8
0
10
242.937000
20
6.693150
30
0.0
11
242.937000
21
12.491900
31
0.0
0
LINE
8
0
10
242.937000
20
12.491900
30
0.0
11
242.138000
21
12.491900
31
0.0
0
LINE
8
0
10
242.138000
20
12.491900
30
0.0
11
242.138000
21
15.593900
31
0.0
0
LINE
8
0
10
242.138000
20
15.593900
30
0.0
11
242.937000
21
15.593900
31
0.0
0
LINE
8
0
10
242.937000
20
15.593900
30
0.0
11
242.937000
21
16.593000
31
0.0
0
LINE
8
0
10
242.937000
20
16.593000
30
0.0
11
256.937000
21
16.593000
31
0.0
0
LINE
8
0
10
256.937000
20
16.593000
30
0.0
11
256.937000
21
15.593900
31
0.0
0
LINE
8
0
10
256.937000
20
15.593900
30
0.0
11
257.736000
21
15.593900
31
0.0
0
LINE
8
0
10
257.736000
20
15.593900
30
0.0
11
257.736000
21
12.491900
31
0.0
0
LINE
8
0
10
257.736000
20
12.491900
30
0.0
11
256.937000
21
12.491900
31
0.0
0
LINE
8
0
10
256.937000
20
12.491900
30
0.0
11
256.937000
21
6.693150
31
0.0
0
LINE
8
0
10
256.937000
20
6.693150
30
0.0
11
257.736000
21
6.693150
31
0.0
0
LINE
8
0
10
257.736000
20
6.693150
30
0.0
11
257.736000
21
3.593920
31
0.0
0
LINE
8
0
10
257.736000
20
3.593920
30
0.0
11
256.937000
21
3.593920
31
0.0
0
LINE
8
0
10
256.937000
20
3.593920
30
0.0
11
256.937000
21
2.593470
31
0.0
0
LINE
8
0
10
256.937000
20
2.593470
30
0.0
11
242.937000
21
2.593470
31
0.0
0
LINE
8
0
10
242.937000
20
2.593470
30
0.0
11
242.937000
21
3.593920
31
0.0
0
LINE
8
0
10
242.937000
20
3.593920
30
0.0
11
242.138000
21
3.593920
31
0.0
0
LINE
8
0
10
265.949000
20
3.593920
30
0.0
11
265.949000
21
6.693150
31
0.0
0
LINE
8
0
10
265.949000
20
6.693150
30
0.0
11
266.750000
21
6.693150
31
0.0
0
LINE
8
0
10
266.750000
20
6.693150
30
0.0
11
266.750000
21
12.491900
31
0.0
0
LINE
8
0
10
266.750000
20
12.491900
30
0.0
11
265.949000
21
12.491900
31
0.0
0
LINE
8
0
10
265.949000
20
12.491900
30
0.0
11
265.949000
21
15.593900
31
0.0
0
LINE
8
0
10
265.949000
20
15.593900
30
0.0
11
266.750000
21
15.593900
31
0.0
0
LINE
8
0
10
266.750000
20
15.593900
30
0.0
11
266.750000
21
16.593000
31
0.0
0
LINE
8
0
10
266.750000
20
16.593000
30
0.0
11
280.749000
21
16.593000
31
0.0
0
LINE
8
0
10
280.749000
20
16.593000
30
0.0
11
280.749000
21
15.593900
31
0.0
0
LINE
8
0
10
280.749000
20
15.593900
30
0.0
11
281.550000
21
15.593900
31
0.0
0
LINE
8
0
10
281.550000
20
15.593900
30
0.0
11
281.550000
21
12.491900
31
0.0
0
LINE
8
0
10
281.550000
20
12.491900
30
0.0
11
280.749000
21
12.491900
31
0.0
0
LINE
8
0
10
280.749000
20
12.491900
30
0.0
11
280.749000
21
6.693150
31
0.0
0
LINE
8
0
10
280.749000
20
6.693150
30
0.0
11
281.550000
21
6.693150
31
0.0
0
LINE
8
0
10
281.550000
20
6.693150
30
0.0
11
281.550000
21
3.593920
31
0.0
0
LINE
8
0
10
281.550000
20
3.593920
30
0.0
11
280.749000
21
3.593920
31
0.0
0
LINE
8
0
10
280.749000
20
3.593920
30
0.0
11
280.749000
21
2.593470
31
0.0
0
LINE
8
0
10
280.749000
20
2.593470
30
0.0
11
266.750000
21
2.593470
31
0.0
0
LINE
8
0
10
266.750000
20
2.593470
30
0.0
11
266.750000
21
3.593920
31
0.0
0
LINE
8
0
10
266.750000
20
3.593920
30
0.0
11
265.949000
21
3.593920
31
0.0
0
LINE
8
0
10
5.237940
20
28.143700
30
0.0
11
5.237940
21
30.942500
31
0.0
0
LINE
8
0
10
5.237940
20
30.942500
30
0.0
11
6.061990
21
30.942500
31
0.0
0
LINE
8
0
10
6.061990
20
30.942500
30
0.0
11
6.061990
21
34.174000
31
0.0
0
LINE
8
0
10
6.061990
20
34.174000
30
0.0
11
12.813000
21
34.174000
31
0.0
0
LINE
8
0
10
12.813000
20
34.174000
30
0.0
11
12.813000
21
30.942500
31
0.0
0
LINE
8
0
10
12.813000
20
30.942500
30
0.0
11
14.337100
21
30.942500
31
0.0
0
LINE
8
0
10
14.337100
20
30.942500
30
0.0
11
14.337100
21
31.543300
31
0.0
0
LINE
8
0
10
14.337100
20
31.543300
30
0.0
11
13.537800
21
31.543300
31
0.0
0
LINE
8
0
10
13.537800
20
31.543300
30
0.0
11
13.537800
21
34.643900
31
0.0
0
LINE
8
0
10
13.537800
20
34.643900
30
0.0
11
14.337100
21
34.643900
31
0.0
0
LINE
8
0
10
14.337100
20
34.643900
30
0.0
11
14.337100
21
35.642900
31
0.0
0
LINE
8
0
10
14.337100
20
35.642900
30
0.0
11
28.336600
21
35.642900
31
0.0
0
LINE
8
0
10
28.336600
20
35.642900
30
0.0
11
28.336600
21
34.643900
31
0.0
0
LINE
8
0
10
28.336600
20
34.643900
30
0.0
11
29.135800
21
34.643900
31
0.0
0
LINE
8
0
10
29.135800
20
34.643900
30
0.0
11
29.135800
21
31.543300
31
0.0
0
LINE
8
0
10
29.135800
20
31.543300
30
0.0
11
28.336600
21
31.543300
31
0.0
0
LINE
8
0
10
28.336600
20
31.543300
30
0.0
11
28.336600
21
30.942500
31
0.0
0
LINE
8
0
10
28.336600
20
30.942500
30
0.0
11
29.862100
21
30.942500
31
0.0
0
LINE
8
0
10
29.862100
20
30.942500
30
0.0
11
29.862100
21
34.174000
31
0.0
0
LINE
8
0
10
29.862100
20
34.174000
30
0.0
11
36.613000
21
34.174000
31
0.0
0
LINE
8
0
10
36.613000
20
34.174000
30
0.0
11
36.613000
21
30.942500
31
0.0
0
LINE
8
0
10
36.613000
20
30.942500
30
0.0
11
37.437100
21
30.942500
31
0.0
0
LINE
8
0
10
37.437100
20
30.942500
30
0.0
11
37.437100
21
28.143700
31
0.0
0
LINE
8
0
10
37.437100
20
28.143700
30
0.0
11
36.613000
21
28.143700
31
0.0
0
LINE
8
0
10
36.613000
20
28.143700
30
0.0
11
36.613000
21
21.873600
31
0.0
0
LINE
8
0
10
36.613000
20
21.873600
30
0.0
11
34.886400
21
21.873600
31
0.0
0
LINE
8
0
10
34.886400
20
21.873600
30
0.0
11
34.886400
21
20.673300
31
0.0
0
LINE
8
0
10
34.886400
20
20.673300
30
0.0
11
31.586000
21
20.673300
31
0.0
0
LINE
8
0
10
31.586000
20
20.673300
30
0.0
11
31.586000
21
21.873600
31
0.0
0
LINE
8
0
10
31.586000
20
21.873600
30
0.0
11
29.862100
21
21.873600
31
0.0
0
LINE
8
0
10
29.862100
20
21.873600
30
0.0
11
29.862100
21
26.344000
31
0.0
0
LINE
8
0
10
29.862100
20
26.344000
30
0.0
11
28.336600
21
26.344000
31
0.0
0
LINE
8
0
10
28.336600
20
26.344000
30
0.0
11
28.336600
21
25.743100
31
0.0
0
LINE
8
0
10
28.336600
20
25.743100
30
0.0
11
29.135800
21
25.743100
31
0.0
0
LINE
8
0
10
29.135800
20
25.743100
30
0.0
11
29.135800
21
22.643900
31
0.0
0
LINE
8
0
10
29.135800
20
22.643900
30
0.0
11
28.336600
21
22.643900
31
0.0
0
LINE
8
0
10
28.336600
20
22.643900
30
0.0
11
28.336600
21
21.643500
31
0.0
0
LINE
8
0
10
28.336600
20
21.643500
30
0.0
11
14.337100
21
21.643500
31
0.0
0
LINE
8
0
10
14.337100
20
21.643500
30
0.0
11
14.337100
21
22.643900
31
0.0
0
LINE
8
0
10
14.337100
20
22.643900
30
0.0
11
13.537800
21
22.643900
31
0.0
0
LINE
8
0
10
13.537800
20
22.643900
30
0.0
11
13.537800
21
25.743100
31
0.0
0
LINE
8
0
10
13.537800
20
25.743100
30
0.0
11
14.337100
21
25.743100
31
0.0
0
LINE
8
0
10
14.337100
20
25.743100
30
0.0
11
14.337100
21
26.344000
31
0.0
0
LINE
8
0
10
14.337100
20
26.344000
30
0.0
11
12.813000
21
26.344000
31
0.0
0
LINE
8
0
10
12.813000
20
26.344000
30
0.0
11
12.813000
21
21.873600
31
0.0
0
LINE
8
0
10
12.813000
20
21.873600
30
0.0
11
11.086300
21
21.873600
31
0.0
0
LINE
8
0
10
11.086300
20
21.873600
30
0.0
11
11.086300
21
20.673300
31
0.0
0
LINE
8
0
10
11.086300
20
20.673300
30
0.0
11
7.787290
21
20.673300
31
0.0
0
LINE
8
0
10
7.787290
20
20.673300
30
0.0
11
7.787290
21
21.873600
31
0.0
0
LINE
8
0
10
7.787290
20
21.873600
30
0.0
11
6.061990
21
21.873600
31
0.0
0
LINE
8
0
10
6.061990
20
21.873600
30
0.0
11
6.061990
21
28.143700
31
0.0
0
LINE
8
0
10
6.061990
20
28.143700
30
0.0
11
5.237940
21
28.143700
31
0.0
0
LINE
8
0
10
243.363000
20
28.143700
30
0.0
11
243.363000
21
30.942500
31
0.0
0
LINE
8
0
10
243.363000
20
30.942500
30
0.0
11
244.187000
21
30.942500
31
0.0
0
LINE
8
0
10
244.187000
20
30.942500
30
0.0
11
244.187000
21
34.174000
31
0.0
0
LINE
8
0
10
244.187000
20
34.174000
30
0.0
11
250.936000
21
34.174000
31
0.0
0
LINE
8
0
10
250.936000
20
34.174000
30
0.0
11
250.936000
21
30.942500
31
0.0
0
LINE
8
0
10
250.936000
20
30.942500
30
0.0
11
252.462000
21
30.942500
31
0.0
0
LINE
8
0
10
252.462000
20
30.942500
30
0.0
11
252.462000
21
31.543300
31
0.0
0
LINE
8
0
10
252.462000
20
31.543300
30
0.0
11
251.660000
21
31.543300
31
0.0
0
LINE
8
0
10
251.660000
20
31.543300
30
0.0
11
251.660000
21
34.643900
31
0.0
0
LINE
8
0
10
251.660000
20
34.643900
30
0.0
11
252.462000
21
34.643900
31
0.0
0
LINE
8
0
10
252.462000
20
34.643900
30
0.0
11
252.462000
21
35.642900
31
0.0
0
LINE
8
0
10
252.462000
20
35.642900
30
0.0
11
266.462000
21
35.642900
31
0.0
0
LINE
8
0
10
266.462000
20
35.642900
30
0.0
11
266.462000
21
34.643900
31
0.0
0
LINE
8
0
10
266.462000
20
34.643900
30
0.0
11
267.261000
21
34.643900
31
0.0
0
LINE
8
0
10
267.261000
20
34.643900
30
0.0
11
267.261000
21
31.543300
31
0.0
0
LINE
8
0
10
267.261000
20
31.543300
30
0.0
11
266.462000
21
31.543300
31
0.0
0
LINE
8
0
10
266.462000
20
31.543300
30
0.0
11
266.462000
21
30.942500
31
0.0
0
LINE
8
0
10
266.462000
20
30.942500
30
0.0
11
267.987000
21
30.942500
31
0.0
0
LINE
8
0
10
267.987000
20
30.942500
30
0.0
11
267.987000
21
34.174000
31
0.0
0
LINE
8
0
10
267.987000
20
34.174000
30
0.0
11
274.737000
21
34.174000
31
0.0
0
LINE
8
0
10
274.737000
20
34.174000
30
0.0
11
274.737000
21
30.942500
31
0.0
0
LINE
8
0
10
274.737000
20
30.942500
30
0.0
11
275.562000
21
30.942500
31
0.0
0
LINE
8
0
10
275.562000
20
30.942500
30
0.0
11
275.562000
21
28.143700
31
0.0
0
LINE
8
0
10
275.562000
20
28.143700
30
0.0
11
274.737000
21
28.143700
31
0.0
0
LINE
8
0
10
274.737000
20
28.143700
30
0.0
11
274.737000
21
21.873600
31
0.0
0
LINE
8
0
10
274.737000
20
21.873600
30
0.0
11
273.012000
21
21.873600
31
0.0
0
LINE
8
0
10
273.012000
20
21.873600
30
0.0
11
273.012000
21
20.673300
31
0.0
0
LINE
8
0
10
273.012000
20
20.673300
30
0.0
11
269.711000
21
20.673300
31
0.0
0
LINE
8
0
10
269.711000
20
20.673300
30
0.0
11
269.711000
21
21.873600
31
0.0
0
LINE
8
0
10
269.711000
20
21.873600
30
0.0
11
267.987000
21
21.873600
31
0.0
0
LINE
8
0
10
267.987000
20
21.873600
30
0.0
11
267.987000
21
26.344000
31
0.0
0
LINE
8
0
10
267.987000
20
26.344000
30
0.0
11
266.462000
21
26.344000
31
0.0
0
LINE
8
0
10
266.462000
20
26.344000
30
0.0
11
266.462000
21
25.743100
31
0.0
0
LINE
8
0
10
266.462000
20
25.743100
30
0.0
11
267.261000
21
25.743100
31
0.0
0
LINE
8
0
10
267.261000
20
25.743100
30
0.0
11
267.261000
21
22.643900
31
0.0
0
LINE
8
0
10
267.261000
20
22.643900
30
0.0
11
266.462000
21
22.643900
31
0.0
0
LINE
8
0
10
266.462000
20
22.643900
30
0.0
11
266.462000
21
21.643500
31
0.0
0
LINE
8
0
10
266.462000
20
21.643500
30
0.0
11
252.462000
21
21.643500
31
0.0
0
LINE
8
0
10
252.462000
20
21.643500
30
0.0
11
252.462000
21
22.643900
31
0.0
0
LINE
8
0
10
252.462000
20
22.643900
30
0.0
11
251.660000
21
22.643900
31
0.0
0
LINE
8
0
10
251.660000
20
22.643900
30
0.0
11
251.660000
21
25.743100
31
0.0
0
LINE
8
0
10
251.660000
20
25.743100
30
0.0
11
252.462000
21
25.743100
31
0.0
0
LINE
8
0
10
252.462000
20
25.743100
30
0.0
11
252.462000
21
26.344000
31
0.0
0
LINE
8
0
10
252.462000
20
26.344000
30
0.0
11
250.936000
21
26.344000
31
0.0
0
LINE
8
0
10
250.936000
20
26.344000
30
0.0
11
250.936000
21
21.873600
31
0.0
0
LINE
8
0
10
250.936000
20
21.873600
30
0.0
11
249.211000
21
21.873600
31
0.0
0
LINE
8
0
10
249.211000
20
21.873600
30
0.0
11
249.211000
21
20.673300
31
0.0
0
LINE
8
0
10
249.211000
20
20.673300
30
0.0
11
245.912000
21
20.673300
31
0.0
0
LINE
8
0
10
245.912000
20
20.673300
30
0.0
11
245.912000
21
21.873600
31
0.0
0
LINE
8
0
10
245.912000
20
21.873600
30
0.0
11
244.187000
21
21.873600
31
0.0
0
LINE
8
0
10
244.187000
20
21.873600
30
0.0
11
244.187000
21
28.143700
31
0.0
0
LINE
8
0
10
244.187000
20
28.143700
30
0.0
11
243.363000
21
28.143700
31
0.0
0
LINE
8
0
10
44.494100
20
22.643900
30
0.0
11
44.494100
21
25.743100
31
0.0
0
LINE
8
0
10
44.494100
20
25.743100
30
0.0
11
45.294900
21
25.743100
31
0.0
0
LINE
8
0
10
45.294900
20
25.743100
30
0.0
11
45.294900
21
31.543300
31
0.0
0
LINE
8
0
10
45.294900
20
31.543300
30
0.0
11
44.494100
21
31.543300
31
0.0
0
LINE
8
0
10
44.494100
20
31.543300
30
0.0
11
44.494100
21
34.643900
31
0.0
0
LINE
8
0
10
44.494100
20
34.643900
30
0.0
11
45.294900
21
34.643900
31
0.0
0
LINE
8
0
10
45.294900
20
34.643900
30
0.0
11
45.294900
21
35.642900
31
0.0
0
LINE
8
0
10
45.294900
20
35.642900
30
0.0
11
59.294200
21
35.642900
31
0.0
0
LINE
8
0
10
59.294200
20
35.642900
30
0.0
11
59.294200
21
34.643900
31
0.0
0
LINE
8
0
10
59.294200
20
34.643900
30
0.0
11
60.095000
21
34.643900
31
0.0
0
LINE
8
0
10
60.095000
20
34.643900
30
0.0
11
60.095000
21
31.543300
31
0.0
0
LINE
8
0
10
60.095000
20
31.543300
30
0.0
11
59.294200
21
31.543300
31
0.0
0
LINE
8
0
10
59.294200
20
31.543300
30
0.0
11
59.294200
21
25.743100
31
0.0
0
LINE
8
0
10
59.294200
20
25.743100
30
0.0
11
60.095000
21
25.743100
31
0.0
0
LINE
8
0
10
60.095000
20
25.743100
30
0.0
11
60.095000
21
22.643900
31
0.0
0
LINE
8
0
10
60.095000
20
22.643900
30
0.0
11
59.294200
21
22.643900
31
0.0
0
LINE
8
0
10
59.294200
20
22.643900
30
0.0
11
59.294200
21
21.643500
31
0.0
0
LINE
8
0
10
59.294200
20
21.643500
30
0.0
11
45.294900
21
21.643500
31
0.0
0
LINE
8
0
10
45.294900
20
21.643500
30
0.0
11
45.294900
21
22.643900
31
0.0
0
LINE
8
0
10
45.294900
20
22.643900
30
0.0
11
44.494100
21
22.643900
31
0.0
0
LINE
8
0
10
63.544100
20
22.643900
30
0.0
11
63.544100
21
25.743100
31
0.0
0
LINE
8
0
10
63.544100
20
25.743100
30
0.0
11
64.344900
21
25.743100
31
0.0
0
LINE
8
0
10
64.344900
20
25.743100
30
0.0
11
64.344900
21
31.543300
31
0.0
0
LINE
8
0
10
64.344900
20
31.543300
30
0.0
11
63.544100
21
31.543300
31
0.0
0
LINE
8
0
10
63.544100
20
31.543300
30
0.0
11
63.544100
21
34.643900
31
0.0
0
LINE
8
0
10
63.544100
20
34.643900
30
0.0
11
64.344900
21
34.643900
31
0.0
0
LINE
8
0
10
64.344900
20
34.643900
30
0.0
11
64.344900
21
35.642900
31
0.0
0
LINE
8
0
10
64.344900
20
35.642900
30
0.0
11
78.344200
21
35.642900
31
0.0
0
LINE
8
0
10
78.344200
20
35.642900
30
0.0
11
78.344200
21
34.643900
31
0.0
0
LINE
8
0
10
78.344200
20
34.643900
30
0.0
11
79.145000
21
34.643900
31
0.0
0
LINE
8
0
10
79.145000
20
34.643900
30
0.0
11
79.145000
21
31.543300
31
0.0
0
LINE
8
0
10
79.145000
20
31.543300
30
0.0
11
78.344200
21
31.543300
31
0.0
0
LINE
8
0
10
78.344200
20
31.543300
30
0.0
11
78.344200
21
25.743100
31
0.0
0
LINE
8
0
10
78.344200
20
25.743100
30
0.0
11
79.145000
21
25.743100
31
0.0
0
LINE
8
0
10
79.145000
20
25.743100
30
0.0
11
79.145000
21
22.643900
31
0.0
0
LINE
8
0
10
79.145000
20
22.643900
30
0.0
11
78.344200
21
22.643900
31
0.0
0
LINE
8
0
10
78.344200
20
22.643900
30
0.0
11
78.344200
21
21.643500
31
0.0
0
LINE
8
0
10
78.344200
20
21.643500
30
0.0
11
64.344900
21
21.643500
31
0.0
0
LINE
8
0
10
64.344900
20
21.643500
30
0.0
11
64.344900
21
22.643900
31
0.0
0
LINE
8
0
10
64.344900
20
22.643900
30
0.0
11
63.544100
21
22.643900
31
0.0
0
LINE
8
0
10
82.594100
20
22.643900
30
0.0
11
82.594100
21
25.743100
31
0.0
0
LINE
8
0
10
82.594100
20
25.743100
30
0.0
11
83.394900
21
25.743100
31
0.0
0
LINE
8
0
10
83.394900
20
25.743100
30
0.0
11
83.394900
21
31.543300
31
0.0
0
LINE
8
0
10
83.394900
20
31.543300
30
0.0
11
82.594100
21
31.543300
31
0.0
0
LINE
8
0
10
82.594100
20
31.543300
30
0.0
11
82.594100
21
34.643900
31
0.0
0
LINE
8
0
10
82.594100
20
34.643900
30
0.0
11
83.394900
21
34.643900
31
0.0
0
LINE
8
0
10
83.394900
20
34.643900
30
0.0
11
83.394900
21
35.642900
31
0.0
0
LINE
8
0
10
83.394900
20
35.642900
30
0.0
11
97.394200
21
35.642900
31
0.0
0
LINE
8
0
10
97.394200
20
35.642900
30
0.0
11
97.394200
21
34.643900
31
0.0
0
LINE
8
0
10
97.394200
20
34.643900
30
0.0
11
98.193600
21
34.643900
31
0.0
0
LINE
8
0
10
98.193600
20
34.643900
30
0.0
11
98.193600
21
31.543300
31
0.0
0
LINE
8
0
10
98.193600
20
31.543300
30
0.0
11
97.394200
21
31.543300
31
0.0
0
LINE
8
0
10
97.394200
20
31.543300
30
0.0
11
97.394200
21
25.743100
31
0.0
0
LINE
8
0
10
97.394200
20
25.743100
30
0.0
11
98.193600
21
25.743100
31
0.0
0
LINE
8
0
10
98.193600
20
25.743100
30
0.0
11
98.193600
21
22.643900
31
0.0
0
LINE
8
0
10
98.193600
20
22.643900
30
0.0
11
97.394200
21
22.643900
31
0.0
0
LINE
8
0
10
97.394200
20
22.643900
30
0.0
11
97.394200
21
21.643500
31
0.0
0
LINE
8
0
10
97.394200
20
21.643500
30
0.0
11
83.394900
21
21.643500
31
0.0
0
LINE
8
0
10
83.394900
20
21.643500
30
0.0
11
83.394900
21
22.643900
31
0.0
0
LINE
8
0
10
83.394900
20
22.643900
30
0.0
11
82.594100
21
22.643900
31
0.0
0
LINE
8
0
10
101.644000
20
22.643900
30
0.0
11
101.644000
21
25.743100
31
0.0
0
LINE
8
0
10
101.644000
20
25.743100
30
0.0
11
102.443000
21
25.743100
31
0.0
0
LINE
8
0
10
102.443000
20
25.743100
30
0.0
11
102.443000
21
31.543300
31
0.0
0
LINE
8
0
10
102.443000
20
31.543300
30
0.0
11
101.644000
21
31.543300
31
0.0
0
LINE
8
0
10
101.644000
20
31.543300
30
0.0
11
101.644000
21
34.643900
31
0.0
0
LINE
8
0
10
101.644000
20
34.643900
30
0.0
11
102.443000
21
34.643900
31
0.0
0
LINE
8
0
10
102.443000
20
34.643900
30
0.0
11
102.443000
21
35.642900
31
0.0
0
LINE
8
0
10
102.443000
20
35.642900
30
0.0
11
116.443000
21
35.642900
31
0.0
0
LINE
8
0
10
116.443000
20
35.642900
30
0.0
11
116.443000
21
34.643900
31
0.0
0
LINE
8
0
10
116.443000
20
34.643900
30
0.0
11
117.244000
21
34.643900
31
0.0
0
LINE
8
0
10
117.244000
20
34.643900
30
0.0
11
117.244000
21
31.543300
31
0.0
0
LINE
8
0
10
117.244000
20
31.543300
30
0.0
11
116.443000
21
31.543300
31
0.0
0
LINE
8
0
10
116.443000
20
31.543300
30
0.0
11
116.443000
21
25.743100
31
0.0
0
LINE
8
0
10
116.443000
20
25.743100
30
0.0
11
117.244000
21
25.743100
31
0.0
0
LINE
8
0
10
117.244000
20
25.743100
30
0.0
11
117.244000
21
22.643900
31
0.0
0
LINE
8
0
10
117.244000
20
22.643900
30
0.0
11
116.443000
21
22.643900
31
0.0
0
LINE
8
0
10
116.443000
20
22.643900
30
0.0
11
116.443000
21
21.643500
31
0.0
0
LINE
8
0
10
116.443000
20
21.643500
30
0.0
11
102.443000
21
21.643500
31
0.0
0
LINE
8
0
10
102.443000
20
21.643500
30
0.0
11
102.443000
21
22.643900
31
0.0
0
LINE
8
0
10
102.443000
20
22.643900
30
0.0
11
101.644000
21
22.643900
31
0.0
0
LINE
8
0
10
120.694000
20
22.643900
30
0.0
11
120.694000
21
25.743100
31
0.0
0
LINE
8
0
10
120.694000
20
25.743100
30
0.0
11
121.495000
21
25.743100
31
0.0
0
LINE
8
0
10
121.495000
20
25.743100
30
0.0
11
121.495000
21
31.543300
31
0.0
0
LINE
8
0
10
121.495000
20
31.543300
30
0.0
11
120.694000
21
31.543300
31
0.0
0
LINE
8
0
10
120.694000
20
31.543300
30
0.0
11
120.694000
21
34.643900
31
0.0
0
LINE
8
0
10
120.694000
20
34.643900
30
0.0
11
121.495000
21
34.643900
31
0.0
0
LINE
8
0
10
121.495000
20
34.643900
30
0.0
11
121.495000
21
35.642900
31
0.0
0
LINE
8
0
10
121.495000
20
35.642900
30
0.0
11
135.494000
21
35.642900
31
0.0
0
LINE
8
0
10
135.494000
20
35.642900
30
0.0
11
135.494000
21
34.643900
31
0.0
0
LINE
8
0
10
135.494000
20
34.643900
30
0.0
11
136.294000
21
34.643900
31
0.0
0
LINE
8
0
10
136.294000
20
34.643900
30
0.0
11
136.294000
21
31.543300
31
0.0
0
LINE
8
0
10
136.294000
20
31.543300
30
0.0
11
135.494000
21
31.543300
31
0.0
0
LINE
8
0
10
135.494000
20
31.543300
30
0.0
11
135.494000
21
25.743100
31
0.0
0
LINE
8
0
10
135.494000
20
25.743100
30
0.0
11
136.294000
21
25.743100
31
0.0
0
LINE
8
0
10
136.294000
20
25.743100
30
0.0
11
136.294000
21
22.643900
31
0.0
0
LINE
8
0
10
136.294000
20
22.643900
30
0.0
11
135.494000
21
22.643900
31
0.0
0
LINE
8
0
10
135.494000
20
22.643900
30
0.0
11
135.494000
21
21.643500
31
0.0
0
LINE
8
0
10
135.494000
20
21.643500
30
0.0
11
121.495000
21
21.643500
31
0.0
0
LINE
8
0
10
121.495000
20
21.643500
30
0.0
11
121.495000
21
22.643900
31
0.0
0
LINE
8
0
10
121.495000
20
22.643900
30
0.0
11
120.694000
21
22.643900
31
0.0
0
LINE
8
0
10
139.744000
20
22.643900
30
0.0
11
139.744000
21
25.743100
31
0.0
0
LINE
8
0
10
139.744000
20
25.743100
30
0.0
11
140.543000
21
25.743100
31
0.0
0
LINE
8
0
10
140.543000
20
25.743100
30
0.0
11
140.543000
21
31.543300
31
0.0
0
LINE
8
0
10
140.543000
20
31.543300
30
0.0
11
139.744000
21
31.543300
31
0.0
0
LINE
8
0
10
139.744000
20
31.543300
30
0.0
11
139.744000
21
34.643900
31
0.0
0
LINE
8
0
10
139.744000
20
34.643900
30
0.0
11
140.543000
21
34.643900
31
0.0
0
LINE
8
0
10
140.543000
20
34.643900
30
0.0
11
140.543000
21
35.642900
31
0.0
0
LINE
8
0
10
140.543000
20
35.642900
30
0.0
11
154.543000
21
35.642900
31
0.0
0
LINE
8
0
10
154.543000
20
35.642900
30
0.0
11
154.543000
21
34.643900
31
0.0
0
LINE
8
0
10
154.543000
20
34.643900
30
0.0
11
155.345000
21
34.643900
31
0.0
0
LINE
8
0
10
155.345000
20
34.643900
30
0.0
11
155.345000
21
31.543300
31
0.0
0
LINE
8
0
10
155.345000
20
31.543300
30
0.0
11
154.543000
21
31.543300
31
0.0
0
LINE
8
0
10
154.543000
20
31.543300
30
0.0
11
154.543000
21
25.743100
31
0.0
0
LINE
8
0
10
154.543000
20
25.743100
30
0.0
11
155.345000
21
25.743100
31
0.0
0
LINE
8
0
10
155.345000
20
25.743100
30
0.0
11
155.345000
21
22.643900
31
0.0
0
LINE
8
0
10
155.345000
20
22.643900
30
0.0
11
154.543000
21
22.643900
31
0.0
0
LINE
8
0
10
154.543000
20
22.643900
30
0.0
11
154.543000
21
21.643500
31
0.0
0
LINE
8
0
10
154.543000
20
21.643500
30
0.0
11
140.543000
21
21.643500
31
0.0
0
LINE
8
0
10
140.543000
20
21.643500
30
0.0
11
140.543000
21
22.643900
31
0.0
0
LINE
8
0
10
140.543000
20
22.643900
30
0.0
11
139.744000
21
22.643900
31
0.0
0
LINE
8
0
10
158.794000
20
22.643900
30
0.0
11
158.794000
21
25.743100
31
0.0
0
LINE
8
0
10
158.794000
20
25.743100
30
0.0
11
159.595000
21
25.743100
31
0.0
0
LINE
8
0
10
159.595000
20
25.743100
30
0.0
11
159.595000
21
31.543300
31
0.0
0
LINE
8
0
10
159.595000
20
31.543300
30
0.0
11
158.794000
21
31.543300
31
0.0
0
LINE
8
0
10
158.794000
20
31.543300
30
0.0
11
158.794000
21
34.643900
31
0.0
0
LINE
8
0
10
158.794000
20
34.643900
30
0.0
11
159.595000
21
34.643900
31
0.0
0
LINE
8
0
10
159.595000
20
34.643900
30
0.0
11
159.595000
21
35.642900
31
0.0
0
LINE
8
0
10
159.595000
20
35.642900
30
0.0
11
173.594000
21
35.642900
31
0.0
0
LINE
8
0
10
173.594000
20
35.642900
30
0.0
11
173.594000
21
34.643900
31
0.0
0
LINE
8
0
10
173.594000
20
34.643900
30
0.0
11
174.395000
21
34.643900
31
0.0
0
LINE
8
0
10
174.395000
20
34.643900
30
0.0
11
174.395000
21
31.543300
31
0.0
0
LINE
8
0
10
174.395000
20
31.543300
30
0.0
11
173.594000
21
31.543300
31
0.0
0
LINE
8
0
10
173.594000
20
31.543300
30
0.0
11
173.594000
21
25.743100
31
0.0
0
LINE
8
0
10
173.594000
20
25.743100
30
0.0
11
174.395000
21
25.743100
31
0.0
0
LINE
8
0
10
174.395000
20
25.743100
30
0.0
11
174.395000
21
22.643900
31
0.0
0
LINE
8
0
10
174.395000
20
22.643900
30
0.0
11
173.594000
21
22.643900
31
0.0
0
LINE
8
0
10
173.594000
20
22.643900
30
0.0
11
173.594000
21
21.643500
31
0.0
0
LINE
8
0
10
173.594000
20
21.643500
30
0.0
11
159.595000
21
21.643500
31
0.0
0
LINE
8
0
10
159.595000
20
21.643500
30
0.0
11
159.595000
21
22.643900
31
0.0
0
LINE
8
0
10
159.595000
20
22.643900
30
0.0
11
158.794000
21
22.643900
31
0.0
0
LINE
8
0
10
177.844000
20
22.643900
30
0.0
11
177.844000
21
25.743100
31
0.0
0
LINE
8
0
10
177.844000
20
25.743100
30
0.0
11
178.645000
21
25.743100
31
0.0
0
LINE
8
0
10
178.645000
20
25.743100
30
0.0
11
178.645000
21
31.543300
31
0.0
0
LINE
8
0
10
178.645000
20
31.543300
30
0.0
11
177.844000
21
31.543300
31
0.0
0
LINE
8
0
10
177.844000
20
31.543300
30
0.0
11
177.844000
21
34.643900
31
0.0
0
LINE
8
0
10
177.844000
20
34.643900
30
0.0
11
178.645000
21
34.643900
31
0.0
0
LINE
8
0
10
178.645000
20
34.643900
30
0.0
11
178.645000
21
35.642900
31
0.0
0
LINE
8
0
10
178.645000
20
35.642900
30
0.0
11
192.644000
21
35.642900
31
0.0
0
LINE
8
0
10
192.644000
20
35.642900
30
0.0
11
192.644000
21
34.643900
31
0.0
0
LINE
8
0
10
192.644000
20
34.643900
30
0.0
11
193.444000
21
34.643900
31
0.0
0
LINE
8
0
10
193.444000
20
34.643900
30
0.0
11
193.444000
21
31.543300
31
0.0
0
LINE
8
0
10
193.444000
20
31.543300
30
0.0
11
192.644000
21
31.543300
31
0.0
0
LINE
8
0
10
192.644000
20
31.543300
30
0.0
11
192.644000
21
25.743100
31
0.0
0
LINE
8
0
10
192.644000
20
25.743100
30
0.0
11
193.444000
21
25.743100
31
0.0
0
LINE
8
0
10
193.444000
20
25.743100
30
0.0
11
193.444000
21
22.643900
31
0.0
0
LINE
8
0
10
193.444000
20
22.643900
30
0.0
11
192.644000
21
22.643900
31
0.0
0
LINE
8
0
10
192.644000
20
22.643900
30
0.0
11
192.644000
21
21.643500
31
0.0
0
LINE
8
0
10
192.644000
20
21.643500
30
0.0
11
178.645000
21
21.643500
31
0.0
0
LINE
8
0
10
178.645000
20
21.643500
30
0.0
11
178.645000
21
22.643900
31
0.0
0
LINE
8
0
10
178.645000
20
22.643900
30
0.0
11
177.844000
21
22.643900
31
0.0
0
LINE
8
0
10
196.894000
20
22.643900
30
0.0
11
196.894000
21
25.743100
31
0.0
0
LINE
8
0
10
196.894000
20
25.743100
30
0.0
11
197.693000
21
25.743100
31
0.0
0
LINE
8
0
10
197.693000
20
25.743100
30
0.0
11
197.693000
21
31.543300
31
0.0
0
LINE
8
0
10
197.693000
20
31.543300
30
0.0
11
196.894000
21
31.543300
31
0.0
0
LINE
8
0
10
196.894000
20
31.543300
30
0.0
11
196.894000
21
34.643900
31
0.0
0
LINE
8
0
10
196.894000
20
34.643900
30
0.0
11
197.693000
21
34.643900
31
0.0
0
LINE
8
0
10
197.693000
20
34.643900
30
0.0
11
197.693000
21
35.642900
31
0.0
0
LINE
8
0
10
197.693000
20
35.642900
30
0.0
11
211.693000
21
35.642900
31
0.0
0
LINE
8
0
10
211.693000
20
35.642900
30
0.0
11
211.693000
21
34.643900
31
0.0
0
LINE
8
0
10
211.693000
20
34.643900
30
0.0
11
212.495000
21
34.643900
31
0.0
0
LINE
8
0
10
212.495000
20
34.643900
30
0.0
11
212.495000
21
31.543300
31
0.0
0
LINE
8
0
10
212.495000
20
31.543300
30
0.0
11
211.693000
21
31.543300
31
0.0
0
LINE
8
0
10
211.693000
20
31.543300
30
0.0
11
211.693000
21
25.743100
31
0.0
0
LINE
8
0
10
211.693000
20
25.743100
30
0.0
11
212.495000
21
25.743100
31
0.0
0
LINE
8
0
10
212.495000
20
25.743100
30
0.0
11
212.495000
21
22.643900
31
0.0
0
LINE
8
0
10
212.495000
20
22.643900
30
0.0
11
211.693000
21
22.643900
31
0.0
0
LINE
8
0
10
211.693000
20
22.643900
30
0.0
11
211.693000
21
21.643500
31
0.0
0
LINE
8
0
10
211.693000
20
21.643500
30
0.0
11
197.693000
21
21.643500
31
0.0
0
LINE
8
0
10
197.693000
20
21.643500
30
0.0
11
197.693000
21
22.643900
31
0.0
0
LINE
8
0
10
197.693000
20
22.643900
30
0.0
11
196.894000
21
22.643900
31
0.0
0
LINE
8
0
10
215.944000
20
22.643900
30
0.0
11
215.944000
21
25.743100
31
0.0
0
LINE
8
0
10
215.944000
20
25.743100
30
0.0
11
216.745000
21
25.743100
31
0.0
0
LINE
8
0
10
216.745000
20
25.743100
30
0.0
11
216.745000
21
31.543300
31
0.0
0
LINE
8
0
10
216.745000
20
31.543300
30
0.0
11
215.944000
21
31.543300
31
0.0
0
LINE
8
0
10
215.944000
20
31.543300
30
0.0
11
215.944000
21
34.643900
31
0.0
0
LINE
8
0
10
215.944000
20
34.643900
30
0.0
11
216.745000
21
34.643900
31
0.0
0
LINE
8
0
10
216.745000
20
34.643900
30
0.0
11
216.745000
21
35.642900
31
0.0
0
LINE
8
0
10
216.745000
20
35.642900
30
0.0
11
230.744000
21
35.642900
31
0.0
0
LINE
8
0
10
230.744000
20
35.642900
30
0.0
11
230.744000
21
34.643900
31
0.0
0
LINE
8
0
10
230.744000
20
34.643900
30
0.0
11
231.544000
21
34.643900
31
0.0
0
LINE
8
0
10
231.544000
20
34.643900
30
0.0
11
231.544000
21
31.543300
31
0.0
0
LINE
8
0
10
231.544000
20
31.543300
30
0.0
11
230.744000
21
31.543300
31
0.0
0
LINE
8
0
10
230.744000
20
31.543300
30
0.0
11
230.744000
21
25.743100
31
0.0
0
LINE
8
0
10
230.744000
20
25.743100
30
0.0
11
231.544000
21
25.743100
31
0.0
0
LINE
8
0
10
231.544000
20
25.743100
30
0.0
11
231.544000
21
22.643900
31
0.0
0
LINE
8
0
10
231.544000
20
22.643900
30
0.0
11
230.744000
21
22.643900
31
0.0
0
LINE
8
0
10
230.744000
20
22.643900
30
0.0
11
230.744000
21
21.643500
31
0.0
0
LINE
8
0
10
230.744000
20
21.643500
30
0.0
11
216.745000
21
21.643500
31
0.0
0
LINE
8
0
10
216.745000
20
21.643500
30
0.0
11
216.745000
21
22.643900
31
0.0
0
LINE
8
0
10
216.745000
20
22.643900
30
0.0
11
215.944000
21
22.643900
31
0.0
0
LINE
8
0
10
248.126000
20
47.192100
30
0.0
11
248.126000
21
49.993900
31
0.0
0
LINE
8
0
10
248.126000
20
49.993900
30
0.0
11
248.950000
21
49.993900
31
0.0
0
LINE
8
0
10
248.950000
20
49.993900
30
0.0
11
248.950000
21
53.222500
31
0.0
0
LINE
8
0
10
248.950000
20
53.222500
30
0.0
11
255.699000
21
53.222500
31
0.0
0
LINE
8
0
10
255.699000
20
53.222500
30
0.0
11
255.699000
21
49.993900
31
0.0
0
LINE
8
0
10
255.699000
20
49.993900
30
0.0
11
257.223000
21
49.993900
31
0.0
0
LINE
8
0
10
257.223000
20
49.993900
30
0.0
11
257.223000
21
50.593300
31
0.0
0
LINE
8
0
10
257.223000
20
50.593300
30
0.0
11
256.424000
21
50.593300
31
0.0
0
LINE
8
0
10
256.424000
20
50.593300
30
0.0
11
256.424000
21
53.692400
31
0.0
0
LINE
8
0
10
256.424000
20
53.692400
30
0.0
11
257.223000
21
53.692400
31
0.0
0
LINE
8
0
10
257.223000
20
53.692400
30
0.0
11
257.223000
21
54.692900
31
0.0
0
LINE
8
0
10
257.223000
20
54.692900
30
0.0
11
271.224000
21
54.692900
31
0.0
0
LINE
8
0
10
271.224000
20
54.692900
30
0.0
11
271.224000
21
53.692400
31
0.0
0
LINE
8
0
10
271.224000
20
53.692400
30
0.0
11
272.025000
21
53.692400
31
0.0
0
LINE
8
0
10
272.025000
20
53.692400
30
0.0
11
272.025000
21
50.593300
31
0.0
0
LINE
8
0
10
272.025000
20
50.593300
30
0.0
11
271.224000
21
50.593300
31
0.0
0
LINE
8
0
10
271.224000
20
50.593300
30
0.0
11
271.224000
21
49.993900
31
0.0
0
LINE
8
0
10
271.224000
20
49.993900
30
0.0
11
272.749000
21
49.993900
31
0.0
0
LINE
8
0
10
272.749000
20
49.993900
30
0.0
11
272.749000
21
53.222500
31
0.0
0
LINE
8
0
10
272.749000
20
53.222500
30
0.0
11
279.499000
21
53.222500
31
0.0
0
LINE
8
0
10
279.499000
20
53.222500
30
0.0
11
279.499000
21
49.993900
31
0.0
0
LINE
8
0
10
279.499000
20
49.993900
30
0.0
11
280.325000
21
49.993900
31
0.0
0
LINE
8
0
10
280.325000
20
49.993900
30
0.0
11
280.325000
21
47.192100
31
0.0
0
LINE
8
0
10
280.325000
20
47.192100
30
0.0
11
279.499000
21
47.192100
31
0.0
0
LINE
8
0
10
279.499000
20
47.192100
30
0.0
11
279.499000
21
40.923600
31
0.0
0
LINE
8
0
10
279.499000
20
40.923600
30
0.0
11
277.774000
21
40.923600
31
0.0
0
LINE
8
0
10
277.774000
20
40.923600
30
0.0
11
277.774000
21
39.722100
31
0.0
0
LINE
8
0
10
277.774000
20
39.722100
30
0.0
11
274.475000
21
39.722100
31
0.0
0
LINE
8
0
10
274.475000
20
39.722100
30
0.0
11
274.475000
21
40.923600
31
0.0
0
LINE
8
0
10
274.475000
20
40.923600
30
0.0
11
272.749000
21
40.923600
31
0.0
0
LINE
8
0
10
272.749000
20
40.923600
30
0.0
11
272.749000
21
45.394000
31
0.0
0
LINE
8
0
10
272.749000
20
45.394000
30
0.0
11
271.224000
21
45.394000
31
0.0
0
LINE
8
0
10
271.224000
20
45.394000
30
0.0
11
271.224000
21
44.793300
31
0.0
0
LINE
8
0
10
271.224000
20
44.793300
30
0.0
11
272.025000
21
44.793300
31
0.0
0
LINE
8
0
10
272.025000
20
44.793300
30
0.0
11
272.025000
21
41.692700
31
0.0
0
LINE
8
0
10
272.025000
20
41.692700
30
0.0
11
271.224000
21
41.692700
31
0.0
0
LINE
8
0
10
271.224000
20
41.692700
30
0.0
11
271.224000
21
40.692200
31
0.0
0
LINE
8
0
10
271.224000
20
40.692200
30
0.0
11
257.223000
21
40.692200
31
0.0
0
LINE
8
0
10
257.223000
20
40.692200
30
0.0
11
257.223000
21
41.692700
31
0.0
0
LINE
8
0
10
257.223000
20
41.692700
30
0.0
11
256.424000
21
41.692700
31
0.0
0
LINE
8
0
10
256.424000
20
41.692700
30
0.0
11
256.424000
21
44.793300
31
0.0
0
LINE
8
0
10
256.424000
20
44.793300
30
0.0
11
257.223000
21
44.793300
31
0.0
0
LINE
8
0
10
257.223000
20
44.793300
30
0.0
11
257.223000
21
45.394000
31
0.0
0
LINE
8
0
10
257.223000
20
45.394000
30
0.0
11
255.699000
21
45.394000
31
0.0
0
LINE
8
0
10
255.699000
20
45.394000
30
0.0
11
255.699000
21
40.923600
31
0.0
0
LINE
8
0
10
255.699000
20
40.923600
30
0.0
11
253.974000
21
40.923600
31
0.0
0
LINE
8
0
10
253.974000
20
40.923600
30
0.0
11
253.974000
21
39.722100
31
0.0
0
LINE
8
0
10
253.974000
20
39.722100
30
0.0
11
250.675000
21
39.722100
31
0.0
0
LINE
8
0
10
250.675000
20
39.722100
30
0.0
11
250.675000
21
40.923600
31
0.0
0
LINE
8
0
10
250.675000
20
40.923600
30
0.0
11
248.950000
21
40.923600
31
0.0
0
LINE
8
0
10
248.950000
20
40.923600
30
0.0
11
248.950000
21
47.192100
31
0.0
0
LINE
8
0
10
248.950000
20
47.192100
30
0.0
11
248.126000
21
47.192100
31
0.0
0
LINE
8
0
10
8.775350
20
41.692700
30
0.0
11
8.775350
21
44.793300
31
0.0
0
LINE
8
0
10
8.775350
20
44.793300
30
0.0
11
9.575980
21
44.793300
31
0.0
0
LINE
8
0
10
9.575980
20
44.793300
30
0.0
11
9.575980
21
50.593300
31
0.0
0
LINE
8
0
10
9.575980
20
50.593300
30
0.0
11
8.775350
21
50.593300
31
0.0
0
LINE
8
0
10
8.775350
20
50.593300
30
0.0
11
8.775350
21
53.692400
31
0.0
0
LINE
8
0
10
8.775350
20
53.692400
30
0.0
11
9.575980
21
53.692400
31
0.0
0
LINE
8
0
10
9.575980
20
53.692400
30
0.0
11
9.575980
21
54.692900
31
0.0
0
LINE
8
0
10
9.575980
20
54.692900
30
0.0
11
23.575500
21
54.692900
31
0.0
0
LINE
8
0
10
23.575500
20
54.692900
30
0.0
11
23.575500
21
53.692400
31
0.0
0
LINE
8
0
10
23.575500
20
53.692400
30
0.0
11
24.376100
21
53.692400
31
0.0
0
LINE
8
0
10
24.376100
20
53.692400
30
0.0
11
24.376100
21
50.593300
31
0.0
0
LINE
8
0
10
24.376100
20
50.593300
30
0.0
11
23.575500
21
50.593300
31
0.0
0
LINE
8
0
10
23.575500
20
50.593300
30
0.0
11
23.575500
21
44.793300
31
0.0
0
LINE
8
0
10
23.575500
20
44.793300
30
0.0
11
24.376100
21
44.793300
31
0.0
0
LINE
8
0
10
24.376100
20
44.793300
30
0.0
11
24.376100
21
41.692700
31
0.0
0
LINE
8
0
10
24.376100
20
41.692700
30
0.0
11
23.575500
21
41.692700
31
0.0
0
LINE
8
0
10
23.575500
20
41.692700
30
0.0
11
23.575500
21
40.692200
31
0.0
0
LINE
8
0
10
23.575500
20
40.692200
30
0.0
11
9.575980
21
40.692200
31
0.0
0
LINE
8
0
10
9.575980
20
40.692200
30
0.0
11
9.575980
21
41.692700
31
0.0
0
LINE
8
0
10
9.575980
20
41.692700
30
0.0
11
8.775350
21
41.692700
31
0.0
0
LINE
8
0
10
34.969100
20
41.692700
30
0.0
11
34.969100
21
44.793300
31
0.0
0
LINE
8
0
10
34.969100
20
44.793300
30
0.0
11
35.769900
21
44.793300
31
0.0
0
LINE
8
0
10
35.769900
20
44.793300
30
0.0
11
35.769900
21
50.593300
31
0.0
0
LINE
8
0
10
35.769900
20
50.593300
30
0.0
11
34.969100
21
50.593300
31
0.0
0
LINE
8
0
10
34.969100
20
50.593300
30
0.0
11
34.969100
21
53.692400
31
0.0
0
LINE
8
0
10
34.969100
20
53.692400
30
0.0
11
35.769900
21
53.692400
31
0.0
0
LINE
8
0
10
35.769900
20
53.692400
30
0.0
11
35.769900
21
54.692900
31
0.0
0
LINE
8
0
10
35.769900
20
54.692900
30
0.0
11
49.769200
21
54.692900
31
0.0
0
LINE
8
0
10
49.769200
20
54.692900
30
0.0
11
49.769200
21
53.692400
31
0.0
0
LINE
8
0
10
49.769200
20
53.692400
30
0.0
11
50.567200
21
53.692400
31
0.0
0
LINE
8
0
10
50.567200
20
53.692400
30
0.0
11
50.567200
21
50.593300
31
0.0
0
LINE
8
0
10
50.567200
20
50.593300
30
0.0
11
49.769200
21
50.593300
31
0.0
0
LINE
8
0
10
49.769200
20
50.593300
30
0.0
11
49.769200
21
44.793300
31
0.0
0
LINE
8
0
10
49.769200
20
44.793300
30
0.0
11
50.567200
21
44.793300
31
0.0
0
LINE
8
0
10
50.567200
20
44.793300
30
0.0
11
50.567200
21
41.692700
31
0.0
0
LINE
8
0
10
50.567200
20
41.692700
30
0.0
11
49.769200
21
41.692700
31
0.0
0
LINE
8
0
10
49.769200
20
41.692700
30
0.0
11
49.769200
21
40.692200
31
0.0
0
LINE
8
0
10
49.769200
20
40.692200
30
0.0
11
35.769900
21
40.692200
31
0.0
0
LINE
8
0
10
35.769900
20
40.692200
30
0.0
11
35.769900
21
41.692700
31
0.0
0
LINE
8
0
10
35.769900
20
41.692700
30
0.0
11
34.969100
21
41.692700
31
0.0
0
LINE
8
0
10
54.019100
20
41.692700
30
0.0
11
54.019100
21
44.793300
31
0.0
0
LINE
8
0
10
54.019100
20
44.793300
30
0.0
11
54.817100
21
44.793300
31
0.0
0
LINE
8
0
10
54.817100
20
44.793300
30
0.0
11
54.817100
21
50.593300
31
0.0
0
LINE
8
0
10
54.817100
20
50.593300
30
0.0
11
54.019100
21
50.593300
31
0.0
0
LINE
8
0
10
54.019100
20
50.593300
30
0.0
11
54.019100
21
53.692400
31
0.0
0
LINE
8
0
10
54.019100
20
53.692400
30
0.0
11
54.817100
21
53.692400
31
0.0
0
LINE
8
0
10
54.817100
20
53.692400
30
0.0
11
54.817100
21
54.692900
31
0.0
0
LINE
8
0
10
54.817100
20
54.692900
30
0.0
11
68.817800
21
54.692900
31
0.0
0
LINE
8
0
10
68.817800
20
54.692900
30
0.0
11
68.817800
21
53.692400
31
0.0
0
LINE
8
0
10
68.817800
20
53.692400
30
0.0
11
69.618600
21
53.692400
31
0.0
0
LINE
8
0
10
69.618600
20
53.692400
30
0.0
11
69.618600
21
50.593300
31
0.0
0
LINE
8
0
10
69.618600
20
50.593300
30
0.0
11
68.817800
21
50.593300
31
0.0
0
LINE
8
0
10
68.817800
20
50.593300
30
0.0
11
68.817800
21
44.793300
31
0.0
0
LINE
8
0
10
68.817800
20
44.793300
30
0.0
11
69.618600
21
44.793300
31
0.0
0
LINE
8
0
10
69.618600
20
44.793300
30
0.0
11
69.618600
21
41.692700
31
0.0
0
LINE
8
0
10
69.618600
20
41.692700
30
0.0
11
68.817800
21
41.692700
31
0.0
0
LINE
8
0
10
68.817800
20
41.692700
30
0.0
11
68.817800
21
40.692200
31
0.0
0
LINE
8
0
10
68.817800
20
40.692200
30
0.0
11
54.817100
21
40.692200
31
0.0
0
LINE
8
0
10
54.817100
20
40.692200
30
0.0
11
54.817100
21
41.692700
31
0.0
0
LINE
8
0
10
54.817100
20
41.692700
30
0.0
11
54.019100
21
41.692700
31
0.0
0
LINE
8
0
10
73.069100
20
41.692700
30
0.0
11
73.069100
21
44.793300
31
0.0
0
LINE
8
0
10
73.069100
20
44.793300
30
0.0
11
73.868500
21
44.793300
31
0.0
0
LINE
8
0
10
73.868500
20
44.793300
30
0.0
11
73.868500
21
50.593300
31
0.0
0
LINE
8
0
10
73.868500
20
50.593300
30
0.0
11
73.069100
21
50.593300
31
0.0
0
LINE
8
0
10
73.069100
20
50.593300
30
0.0
11
73.069100
21
53.692400
31
0.0
0
LINE
8
0
10
73.069100
20
53.692400
30
0.0
11
73.868500
21
53.692400
31
0.0
0
LINE
8
0
10
73.868500
20
53.692400
30
0.0
11
73.868500
21
54.692900
31
0.0
0
LINE
8
0
10
73.868500
20
54.692900
30
0.0
11
87.867800
21
54.692900
31
0.0
0
LINE
8
0
10
87.867800
20
54.692900
30
0.0
11
87.867800
21
53.692400
31
0.0
0
LINE
8
0
10
87.867800
20
53.692400
30
0.0
11
88.668600
21
53.692400
31
0.0
0
LINE
8
0
10
88.668600
20
53.692400
30
0.0
11
88.668600
21
50.593300
31
0.0
0
LINE
8
0
10
88.668600
20
50.593300
30
0.0
11
87.867800
21
50.593300
31
0.0
0
LINE
8
0
10
87.867800
20
50.593300
30
0.0
11
87.867800
21
44.793300
31
0.0
0
LINE
8
0
10
87.867800
20
44.793300
30
0.0
11
88.668600
21
44.793300
31
0.0
0
LINE
8
0
10
88.668600
20
44.793300
30
0.0
11
88.668600
21
41.692700
31
0.0
0
LINE
8
0
10
88.668600
20
41.692700
30
0.0
11
87.867800
21
41.692700
31
0.0
0
LINE
8
0
10
87.867800
20
41.692700
30
0.0
11
87.867800
21
40.692200
31
0.0
0
LINE
8
0
10
87.867800
20
40.692200
30
0.0
11
73.868500
21
40.692200
31
0.0
0
LINE
8
0
10
73.868500
20
40.692200
30
0.0
11
73.868500
21
41.692700
31
0.0
0
LINE
8
0
10
73.868500
20
41.692700
30
0.0
11
73.069100
21
41.692700
31
0.0
0
LINE
8
0
10
92.119100
20
41.692700
30
0.0
11
92.119100
21
44.793300
31
0.0
0
LINE
8
0
10
92.119100
20
44.793300
30
0.0
11
92.918500
21
44.793300
31
0.0
0
LINE
8
0
10
92.918500
20
44.793300
30
0.0
11
92.918500
21
50.593300
31
0.0
0
LINE
8
0
10
92.918500
20
50.593300
30
0.0
11
92.119100
21
50.593300
31
0.0
0
LINE
8
0
10
92.119100
20
50.593300
30
0.0
11
92.119100
21
53.692400
31
0.0
0
LINE
8
0
10
92.119100
20
53.692400
30
0.0
11
92.918500
21
53.692400
31
0.0
0
LINE
8
0
10
92.918500
20
53.692400
30
0.0
11
92.918500
21
54.692900
31
0.0
0
LINE
8
0
10
92.918500
20
54.692900
30
0.0
11
106.918000
21
54.692900
31
0.0
0
LINE
8
0
10
106.918000
20
54.692900
30
0.0
11
106.918000
21
53.692400
31
0.0
0
LINE
8
0
10
106.918000
20
53.692400
30
0.0
11
107.717000
21
53.692400
31
0.0
0
LINE
8
0
10
107.717000
20
53.692400
30
0.0
11
107.717000
21
50.593300
31
0.0
0
LINE
8
0
10
107.717000
20
50.593300
30
0.0
11
106.918000
21
50.593300
31
0.0
0
LINE
8
0
10
106.918000
20
50.593300
30
0.0
11
106.918000
21
44.793300
31
0.0
0
LINE
8
0
10
106.918000
20
44.793300
30
0.0
11
107.717000
21
44.793300
31
0.0
0
LINE
8
0
10
107.717000
20
44.793300
30
0.0
11
107.717000
21
41.692700
31
0.0
0
LINE
8
0
10
107.717000
20
41.692700
30
0.0
11
106.918000
21
41.692700
31
0.0
0
LINE
8
0
10
106.918000
20
41.692700
30
0.0
11
106.918000
21
40.692200
31
0.0
0
LINE
8
0
10
106.918000
20
40.692200
30
0.0
11
92.918500
21
40.692200
31
0.0
0
LINE
8
0
10
92.918500
20
40.692200
30
0.0
11
92.918500
21
41.692700
31
0.0
0
LINE
8
0
10
92.918500
20
41.692700
30
0.0
11
92.119100
21
41.692700
31
0.0
0
LINE
8
0
10
111.169000
20
41.692700
30
0.0
11
111.169000
21
44.793300
31
0.0
0
LINE
8
0
10
111.169000
20
44.793300
30
0.0
11
111.967000
21
44.793300
31
0.0
0
LINE
8
0
10
111.967000
20
44.793300
30
0.0
11
111.967000
21
50.593300
31
0.0
0
LINE
8
0
10
111.967000
20
50.593300
30
0.0
11
111.169000
21
50.593300
31
0.0
0
LINE
8
0
10
111.169000
20
50.593300
30
0.0
11
111.169000
21
53.692400
31
0.0
0
LINE
8
0
10
111.169000
20
53.692400
30
0.0
11
111.967000
21
53.692400
31
0.0
0
LINE
8
0
10
111.967000
20
53.692400
30
0.0
11
111.967000
21
54.692900
31
0.0
0
LINE
8
0
10
111.967000
20
54.692900
30
0.0
11
125.969000
21
54.692900
31
0.0
0
LINE
8
0
10
125.969000
20
54.692900
30
0.0
11
125.969000
21
53.692400
31
0.0
0
LINE
8
0
10
125.969000
20
53.692400
30
0.0
11
126.769000
21
53.692400
31
0.0
0
LINE
8
0
10
126.769000
20
53.692400
30
0.0
11
126.769000
21
50.593300
31
0.0
0
LINE
8
0
10
126.769000
20
50.593300
30
0.0
11
125.969000
21
50.593300
31
0.0
0
LINE
8
0
10
125.969000
20
50.593300
30
0.0
11
125.969000
21
44.793300
31
0.0
0
LINE
8
0
10
125.969000
20
44.793300
30
0.0
11
126.769000
21
44.793300
31
0.0
0
LINE
8
0
10
126.769000
20
44.793300
30
0.0
11
126.769000
21
41.692700
31
0.0
0
LINE
8
0
10
126.769000
20
41.692700
30
0.0
11
125.969000
21
41.692700
31
0.0
0
LINE
8
0
10
125.969000
20
41.692700
30
0.0
11
125.969000
21
40.692200
31
0.0
0
LINE
8
0
10
125.969000
20
40.692200
30
0.0
11
111.967000
21
40.692200
31
0.0
0
LINE
8
0
10
111.967000
20
40.692200
30
0.0
11
111.967000
21
41.692700
31
0.0
0
LINE
8
0
10
111.967000
20
41.692700
30
0.0
11
111.169000
21
41.692700
31
0.0
0
LINE
8
0
10
130.218000
20
41.692700
30
0.0
11
130.218000
21
44.793300
31
0.0
0
LINE
8
0
10
130.218000
20
44.793300
30
0.0
11
131.018000
21
44.793300
31
0.0
0
LINE
8
0
10
131.018000
20
44.793300
30
0.0
11
131.018000
21
50.593300
31
0.0
0
LINE
8
0
10
131.018000
20
50.593300
30
0.0
11
130.218000
21
50.593300
31
0.0
0
LINE
8
0
10
130.218000
20
50.593300
30
0.0
11
130.218000
21
53.692400
31
0.0
0
LINE
8
0
10
130.218000
20
53.692400
30
0.0
11
131.018000
21
53.692400
31
0.0
0
LINE
8
0
10
131.018000
20
53.692400
30
0.0
11
131.018000
21
54.692900
31
0.0
0
LINE
8
0
10
131.018000
20
54.692900
30
0.0
11
145.018000
21
54.692900
31
0.0
0
LINE
8
0
10
145.018000
20
54.692900
30
0.0
11
145.018000
21
53.692400
31
0.0
0
LINE
8
0
10
145.018000
20
53.692400
30
0.0
11
145.819000
21
53.692400
31
0.0
0
LINE
8
0
10
145.819000
20
53.692400
30
0.0
11
145.819000
21
50.593300
31
0.0
0
LINE
8
0
10
145.819000
20
50.593300
30
0.0
11
145.018000
21
50.593300
31
0.0
0
LINE
8
0
10
145.018000
20
50.593300
30
0.0
11
145.018000
21
44.793300
31
0.0
0
LINE
8
0
10
145.018000
20
44.793300
30
0.0
11
145.819000
21
44.793300
31
0.0
0
LINE
8
0
10
145.819000
20
44.793300
30
0.0
11
145.819000
21
41.692700
31
0.0
0
LINE
8
0
10
145.819000
20
41.692700
30
0.0
11
145.018000
21
41.692700
31
0.0
0
LINE
8
0
10
145.018000
20
41.692700
30
0.0
11
145.018000
21
40.692200
31
0.0
0
LINE
8
0
10
145.018000
20
40.692200
30
0.0
11
131.018000
21
40.692200
31
0.0
0
LINE
8
0
10
131.018000
20
40.692200
30
0.0
11
131.018000
21
41.692700
31
0.0
0
LINE
8
0
10
131.018000
20
41.692700
30
0.0
11
130.218000
21
41.692700
31
0.0
0
LINE
8
0
10
149.269000
20
41.692700
30
0.0
11
149.269000
21
44.793300
31
0.0
0
LINE
8
0
10
149.269000
20
44.793300
30
0.0
11
150.068000
21
44.793300
31
0.0
0
LINE
8
0
10
150.068000
20
44.793300
30
0.0
11
150.068000
21
50.593300
31
0.0
0
LINE
8
0
10
150.068000
20
50.593300
30
0.0
11
149.269000
21
50.593300
31
0.0
0
LINE
8
0
10
149.269000
20
50.593300
30
0.0
11
149.269000
21
53.692400
31
0.0
0
LINE
8
0
10
149.269000
20
53.692400
30
0.0
11
150.068000
21
53.692400
31
0.0
0
LINE
8
0
10
150.068000
20
53.692400
30
0.0
11
150.068000
21
54.692900
31
0.0
0
LINE
8
0
10
150.068000
20
54.692900
30
0.0
11
164.068000
21
54.692900
31
0.0
0
LINE
8
0
10
164.068000
20
54.692900
30
0.0
11
164.068000
21
53.692400
31
0.0
0
LINE
8
0
10
164.068000
20
53.692400
30
0.0
11
164.870000
21
53.692400
31
0.0
0
LINE
8
0
10
164.870000
20
53.692400
30
0.0
11
164.870000
21
50.593300
31
0.0
0
LINE
8
0
10
164.870000
20
50.593300
30
0.0
11
164.068000
21
50.593300
31
0.0
0
LINE
8
0
10
164.068000
20
50.593300
30
0.0
11
164.068000
21
44.793300
31
0.0
0
LINE
8
0
10
164.068000
20
44.793300
30
0.0
11
164.870000
21
44.793300
31
0.0
0
LINE
8
0
10
164.870000
20
44.793300
30
0.0
11
164.870000
21
41.692700
31
0.0
0
LINE
8
0
10
164.870000
20
41.692700
30
0.0
11
164.068000
21
41.692700
31
0.0
0
LINE
8
0
10
164.068000
20
41.692700
30
0.0
11
164.068000
21
40.692200
31
0.0
0
LINE
8
0
10
164.068000
20
40.692200
30
0.0
11
150.068000
21
40.692200
31
0.0
0
LINE
8
0
10
150.068000
20
40.692200
30
0.0
11
150.068000
21
41.692700
31
0.0
0
LINE
8
0
10
150.068000
20
41.692700
30
0.0
11
149.269000
21
41.692700
31
0.0
0
LINE
8
0
10
168.319000
20
41.692700
30
0.0
11
168.319000
21
44.793300
31
0.0
0
LINE
8
0
10
168.319000
20
44.793300
30
0.0
11
169.120000
21
44.793300
31
0.0
0
LINE
8
0
10
169.120000
20
44.793300
30
0.0
11
169.120000
21
50.593300
31
0.0
0
LINE
8
0
10
169.120000
20
50.593300
30
0.0
11
168.319000
21
50.593300
31
0.0
0
LINE
8
0
10
168.319000
20
50.593300
30
0.0
11
168.319000
21
53.692400
31
0.0
0
LINE
8
0
10
168.319000
20
53.692400
30
0.0
11
169.120000
21
53.692400
31
0.0
0
LINE
8
0
10
169.120000
20
53.692400
30
0.0
11
169.120000
21
54.692900
31
0.0
0
LINE
8
0
10
169.120000
20
54.692900
30
0.0
11
183.119000
21
54.692900
31
0.0
0
LINE
8
0
10
183.119000
20
54.692900
30
0.0
11
183.119000
21
53.692400
31
0.0
0
LINE
8
0
10
183.119000
20
53.692400
30
0.0
11
183.919000
21
53.692400
31
0.0
0
LINE
8
0
10
183.919000
20
53.692400
30
0.0
11
183.919000
21
50.593300
31
0.0
0
LINE
8
0
10
183.919000
20
50.593300
30
0.0
11
183.119000
21
50.593300
31
0.0
0
LINE
8
0
10
183.119000
20
50.593300
30
0.0
11
183.119000
21
44.793300
31
0.0
0
LINE
8
0
10
183.119000
20
44.793300
30
0.0
11
183.919000
21
44.793300
31
0.0
0
LINE
8
0
10
183.919000
20
44.793300
30
0.0
11
183.919000
21
41.692700
31
0.0
0
LINE
8
0
10
183.919000
20
41.692700
30
0.0
11
183.119000
21
41.692700
31
0.0
0
LINE
8
0
10
183.119000
20
41.692700
30
0.0
11
183.119000
21
40.692200
31
0.0
0
LINE
8
0
10
183.119000
20
40.692200
30
0.0
11
169.120000
21
40.692200
31
0.0
0
LINE
8
0
10
169.120000
20
40.692200
30
0.0
11
169.120000
21
41.692700
31
0.0
0
LINE
8
0
10
169.120000
20
41.692700
30
0.0
11
168.319000
21
41.692700
31
0.0
0
LINE
8
0
10
187.369000
20
41.692700
30
0.0
11
187.369000
21
44.793300
31
0.0
0
LINE
8
0
10
187.369000
20
44.793300
30
0.0
11
188.168000
21
44.793300
31
0.0
0
LINE
8
0
10
188.168000
20
44.793300
30
0.0
11
188.168000
21
50.593300
31
0.0
0
LINE
8
0
10
188.168000
20
50.593300
30
0.0
11
187.369000
21
50.593300
31
0.0
0
LINE
8
0
10
187.369000
20
50.593300
30
0.0
11
187.369000
21
53.692400
31
0.0
0
LINE
8
0
10
187.369000
20
53.692400
30
0.0
11
188.168000
21
53.692400
31
0.0
0
LINE
8
0
10
188.168000
20
53.692400
30
0.0
11
188.168000
21
54.692900
31
0.0
0
LINE
8
0
10
188.168000
20
54.692900
30
0.0
11
202.168000
21
54.692900
31
0.0
0
LINE
8
0
10
202.168000
20
54.692900
30
0.0
11
202.168000
21
53.692400
31
0.0
0
LINE
8
0
10
202.168000
20
53.692400
30
0.0
11
202.970000
21
53.692400
31
0.0
0
LINE
8
0
10
202.970000
20
53.692400
30
0.0
11
202.970000
21
50.593300
31
0.0
0
LINE
8
0
10
202.970000
20
50.593300
30
0.0
11
202.168000
21
50.593300
31
0.0
0
LINE
8
0
10
202.168000
20
50.593300
30
0.0
11
202.168000
21
44.793300
31
0.0
0
LINE
8
0
10
202.168000
20
44.793300
30
0.0
11
202.970000
21
44.793300
31
0.0
0
LINE
8
0
10
202.970000
20
44.793300
30
0.0
11
202.970000
21
41.692700
31
0.0
0
LINE
8
0
10
202.970000
20
41.692700
30
0.0
11
202.168000
21
41.692700
31
0.0
0
LINE
8
0
10
202.168000
20
41.692700
30
0.0
11
202.168000
21
40.692200
31
0.0
0
LINE
8
0
10
202.168000
20
40.692200
30
0.0
11
188.168000
21
40.692200
31
0.0
0
LINE
8
0
10
188.168000
20
40.692200
30
0.0
11
188.168000
21
41.692700
31
0.0
0
LINE
8
0
10
188.168000
20
41.692700
30
0.0
11
187.369000
21
41.692700
31
0.0
0
LINE
8
0
10
206.419000
20
41.692700
30
0.0
11
206.419000
21
44.793300
31
0.0
0
LINE
8
0
10
206.419000
20
44.793300
30
0.0
11
207.220000
21
44.793300
31
0.0
0
LINE
8
0
10
207.220000
20
44.793300
30
0.0
11
207.220000
21
50.593300
31
0.0
0
LINE
8
0
10
207.220000
20
50.593300
30
0.0
11
206.419000
21
50.593300
31
0.0
0
LINE
8
0
10
206.419000
20
50.593300
30
0.0
11
206.419000
21
53.692400
31
0.0
0
LINE
8
0
10
206.419000
20
53.692400
30
0.0
11
207.220000
21
53.692400
31
0.0
0
LINE
8
0
10
207.220000
20
53.692400
30
0.0
11
207.220000
21
54.692900
31
0.0
0
LINE
8
0
10
207.220000
20
54.692900
30
0.0
11
221.219000
21
54.692900
31
0.0
0
LINE
8
0
10
221.219000
20
54.692900
30
0.0
11
221.219000
21
53.692400
31
0.0
0
LINE
8
0
10
221.219000
20
53.692400
30
0.0
11
222.020000
21
53.692400
31
0.0
0
LINE
8
0
10
222.020000
20
53.692400
30
0.0
11
222.020000
21
50.593300
31
0.0
0
LINE
8
0
10
222.020000
20
50.593300
30
0.0
11
221.219000
21
50.593300
31
0.0
0
LINE
8
0
10
221.219000
20
50.593300
30
0.0
11
221.219000
21
44.793300
31
0.0
0
LINE
8
0
10
221.219000
20
44.793300
30
0.0
11
222.020000
21
44.793300
31
0.0
0
LINE
8
0
10
222.020000
20
44.793300
30
0.0
11
222.020000
21
41.692700
31
0.0
0
LINE
8
0
10
222.020000
20
41.692700
30
0.0
11
221.219000
21
41.692700
31
0.0
0
LINE
8
0
10
221.219000
20
41.692700
30
0.0
11
221.219000
21
40.692200
31
0.0
0
LINE
8
0
10
221.219000
20
40.692200
30
0.0
11
207.220000
21
40.692200
31
0.0
0
LINE
8
0
10
207.220000
20
40.692200
30
0.0
11
207.220000
21
41.692700
31
0.0
0
LINE
8
0
10
207.220000
20
41.692700
30
0.0
11
206.419000
21
41.692700
31
0.0
0
LINE
8
0
10
225.469000
20
41.692700
30
0.0
11
225.469000
21
44.793300
31
0.0
0
LINE
8
0
10
225.469000
20
44.793300
30
0.0
11
226.270000
21
44.793300
31
0.0
0
LINE
8
0
10
226.270000
20
44.793300
30
0.0
11
226.270000
21
50.593300
31
0.0
0
LINE
8
0
10
226.270000
20
50.593300
30
0.0
11
225.469000
21
50.593300
31
0.0
0
LINE
8
0
10
225.469000
20
50.593300
30
0.0
11
225.469000
21
53.692400
31
0.0
0
LINE
8
0
10
225.469000
20
53.692400
30
0.0
11
226.270000
21
53.692400
31
0.0
0
LINE
8
0
10
226.270000
20
53.692400
30
0.0
11
226.270000
21
54.692900
31
0.0
0
LINE
8
0
10
226.270000
20
54.692900
30
0.0
11
240.269000
21
54.692900
31
0.0
0
LINE
8
0
10
240.269000
20
54.692900
30
0.0
11
240.269000
21
53.692400
31
0.0
0
LINE
8
0
10
240.269000
20
53.692400
30
0.0
11
241.069000
21
53.692400
31
0.0
0
LINE
8
0
10
241.069000
20
53.692400
30
0.0
11
241.069000
21
50.593300
31
0.0
0
LINE
8
0
10
241.069000
20
50.593300
30
0.0
11
240.269000
21
50.593300
31
0.0
0
LINE
8
0
10
240.269000
20
50.593300
30
0.0
11
240.269000
21
44.793300
31
0.0
0
LINE
8
0
10
240.269000
20
44.793300
30
0.0
11
241.069000
21
44.793300
31
0.0
0
LINE
8
0
10
241.069000
20
44.793300
30
0.0
11
241.069000
21
41.692700
31
0.0
0
LINE
8
0
10
241.069000
20
41.692700
30
0.0
11
240.269000
21
41.692700
31
0.0
0
LINE
8
0
10
240.269000
20
41.692700
30
0.0
11
240.269000
21
40.692200
31
0.0
0
LINE
8
0
10
240.269000
20
40.692200
30
0.0
11
226.270000
21
40.692200
31
0.0
0
LINE
8
0
10
226.270000
20
40.692200
30
0.0
11
226.270000
21
41.692700
31
0.0
0
LINE
8
0
10
226.270000
20
41.692700
30
0.0
11
225.469000
21
41.692700
31
0.0
0
LINE
8
0
10
125.983000
20
47.691300
30
0.0
11
126.103000
21
48.465700
31
0.0
0
LINE
8
0
10
126.103000
20
48.465700
30
0.0
11
126.460000
21
49.161300
31
0.0
0
LINE
8
0
10
126.460000
20
49.161300
30
0.0
11
127.012000
21
49.715600
31
0.0
0
LINE
8
0
10
127.012000
20
49.715600
30
0.0
11
127.710000
21
50.071200
31
0.0
0
LINE
8
0
10
127.710000
20
50.071200
30
0.0
11
128.483000
21
50.190800
31
0.0
0
LINE
8
0
10
128.483000
20
50.190800
30
0.0
11
129.255000
21
50.071200
31
0.0
0
LINE
8
0
10
129.255000
20
50.071200
30
0.0
11
129.952000
21
49.715600
31
0.0
0
LINE
8
0
10
129.952000
20
49.715600
30
0.0
11
130.504000
21
49.161300
31
0.0
0
LINE
8
0
10
130.504000
20
49.161300
30
0.0
11
130.859000
21
48.465700
31
0.0
0
LINE
8
0
10
130.859000
20
48.465700
30
0.0
11
130.983000
21
47.691300
31
0.0
0
LINE
8
0
10
130.983000
20
47.691300
30
0.0
11
130.859000
21
46.920900
31
0.0
0
LINE
8
0
10
130.859000
20
46.920900
30
0.0
11
130.504000
21
46.222000
31
0.0
0
LINE
8
0
10
130.504000
20
46.222000
30
0.0
11
129.952000
21
45.671000
31
0.0
0
LINE
8
0
10
129.952000
20
45.671000
30
0.0
11
129.255000
21
45.314000
31
0.0
0
LINE
8
0
10
129.255000
20
45.314000
30
0.0
11
128.483000
21
45.191500
31
0.0
0
LINE
8
0
10
128.483000
20
45.191500
30
0.0
11
127.710000
21
45.314000
31
0.0
0
LINE
8
0
10
127.710000
20
45.314000
30
0.0
11
127.012000
21
45.671000
31
0.0
0
LINE
8
0
10
127.012000
20
45.671000
30
0.0
11
126.460000
21
46.222000
31
0.0
0
LINE
8
0
10
126.460000
20
46.222000
30
0.0
11
126.103000
21
46.920900
31
0.0
0
LINE
8
0
10
126.103000
20
46.920900
30
0.0
11
125.983000
21
47.691300
31
0.0
0
LINE
8
0
10
6.394100
20
60.744100
30
0.0
11
6.394100
21
63.843300
31
0.0
0
LINE
8
0
10
6.394100
20
63.843300
30
0.0
11
7.194730
21
63.843300
31
0.0
0
LINE
8
0
10
7.194730
20
63.843300
30
0.0
11
7.194730
21
69.643300
31
0.0
0
LINE
8
0
10
7.194730
20
69.643300
30
0.0
11
6.394100
21
69.643300
31
0.0
0
LINE
8
0
10
6.394100
20
69.643300
30
0.0
11
6.394100
21
72.743800
31
0.0
0
LINE
8
0
10
6.394100
20
72.743800
30
0.0
11
7.194730
21
72.743800
31
0.0
0
LINE
8
0
10
7.194730
20
72.743800
30
0.0
11
7.194730
21
73.742900
31
0.0
0
LINE
8
0
10
7.194730
20
73.742900
30
0.0
11
21.194200
21
73.742900
31
0.0
0
LINE
8
0
10
21.194200
20
73.742900
30
0.0
11
21.194200
21
72.743800
31
0.0
0
LINE
8
0
10
21.194200
20
72.743800
30
0.0
11
21.993500
21
72.743800
31
0.0
0
LINE
8
0
10
21.993500
20
72.743800
30
0.0
11
21.993500
21
69.643300
31
0.0
0
LINE
8
0
10
21.993500
20
69.643300
30
0.0
11
21.194200
21
69.643300
31
0.0
0
LINE
8
0
10
21.194200
20
69.643300
30
0.0
11
21.194200
21
63.843300
31
0.0
0
LINE
8
0
10
21.194200
20
63.843300
30
0.0
11
21.993500
21
63.843300
31
0.0
0
LINE
8
0
10
21.993500
20
63.843300
30
0.0
11
21.993500
21
60.744100
31
0.0
0
LINE
8
0
10
21.993500
20
60.744100
30
0.0
11
21.194200
21
60.744100
31
0.0
0
LINE
8
0
10
21.194200
20
60.744100
30
0.0
11
21.194200
21
59.743600
31
0.0
0
LINE
8
0
10
21.194200
20
59.743600
30
0.0
11
7.194730
21
59.743600
31
0.0
0
LINE
8
0
10
7.194730
20
59.743600
30
0.0
11
7.194730
21
60.744100
31
0.0
0
LINE
8
0
10
7.194730
20
60.744100
30
0.0
11
6.394100
21
60.744100
31
0.0
0
LINE
8
0
10
30.205200
20
60.744100
30
0.0
11
30.205200
21
63.843300
31
0.0
0
LINE
8
0
10
30.205200
20
63.843300
30
0.0
11
31.005900
21
63.843300
31
0.0
0
LINE
8
0
10
31.005900
20
63.843300
30
0.0
11
31.005900
21
69.643300
31
0.0
0
LINE
8
0
10
31.005900
20
69.643300
30
0.0
11
30.205200
21
69.643300
31
0.0
0
LINE
8
0
10
30.205200
20
69.643300
30
0.0
11
30.205200
21
72.743800
31
0.0
0
LINE
8
0
10
30.205200
20
72.743800
30
0.0
11
31.005900
21
72.743800
31
0.0
0
LINE
8
0
10
31.005900
20
72.743800
30
0.0
11
31.005900
21
73.742900
31
0.0
0
LINE
8
0
10
31.005900
20
73.742900
30
0.0
11
45.005300
21
73.742900
31
0.0
0
LINE
8
0
10
45.005300
20
73.742900
30
0.0
11
45.005300
21
72.743800
31
0.0
0
LINE
8
0
10
45.005300
20
72.743800
30
0.0
11
45.806100
21
72.743800
31
0.0
0
LINE
8
0
10
45.806100
20
72.743800
30
0.0
11
45.806100
21
69.643300
31
0.0
0
LINE
8
0
10
45.806100
20
69.643300
30
0.0
11
45.005300
21
69.643300
31
0.0
0
LINE
8
0
10
45.005300
20
69.643300
30
0.0
11
45.005300
21
63.843300
31
0.0
0
LINE
8
0
10
45.005300
20
63.843300
30
0.0
11
45.806100
21
63.843300
31
0.0
0
LINE
8
0
10
45.806100
20
63.843300
30
0.0
11
45.806100
21
60.744100
31
0.0
0
LINE
8
0
10
45.806100
20
60.744100
30
0.0
11
45.005300
21
60.744100
31
0.0
0
LINE
8
0
10
45.005300
20
60.744100
30
0.0
11
45.005300
21
59.743600
31
0.0
0
LINE
8
0
10
45.005300
20
59.743600
30
0.0
11
31.005900
21
59.743600
31
0.0
0
LINE
8
0
10
31.005900
20
59.743600
30
0.0
11
31.005900
21
60.744100
31
0.0
0
LINE
8
0
10
31.005900
20
60.744100
30
0.0
11
30.205200
21
60.744100
31
0.0
0
LINE
8
0
10
49.255200
20
60.744100
30
0.0
11
49.255200
21
63.843300
31
0.0
0
LINE
8
0
10
49.255200
20
63.843300
30
0.0
11
50.056000
21
63.843300
31
0.0
0
LINE
8
0
10
50.056000
20
63.843300
30
0.0
11
50.056000
21
69.643300
31
0.0
0
LINE
8
0
10
50.056000
20
69.643300
30
0.0
11
49.255200
21
69.643300
31
0.0
0
LINE
8
0
10
49.255200
20
69.643300
30
0.0
11
49.255200
21
72.743800
31
0.0
0
LINE
8
0
10
49.255200
20
72.743800
30
0.0
11
50.056000
21
72.743800
31
0.0
0
LINE
8
0
10
50.056000
20
72.743800
30
0.0
11
50.056000
21
73.742900
31
0.0
0
LINE
8
0
10
50.056000
20
73.742900
30
0.0
11
64.056700
21
73.742900
31
0.0
0
LINE
8
0
10
64.056700
20
73.742900
30
0.0
11
64.056700
21
72.743800
31
0.0
0
LINE
8
0
10
64.056700
20
72.743800
30
0.0
11
64.856100
21
72.743800
31
0.0
0
LINE
8
0
10
64.856100
20
72.743800
30
0.0
11
64.856100
21
69.643300
31
0.0
0
LINE
8
0
10
64.856100
20
69.643300
30
0.0
11
64.056700
21
69.643300
31
0.0
0
LINE
8
0
10
64.056700
20
69.643300
30
0.0
11
64.056700
21
63.843300
31
0.0
0
LINE
8
0
10
64.056700
20
63.843300
30
0.0
11
64.856100
21
63.843300
31
0.0
0
LINE
8
0
10
64.856100
20
63.843300
30
0.0
11
64.856100
21
60.744100
31
0.0
0
LINE
8
0
10
64.856100
20
60.744100
30
0.0
11
64.056700
21
60.744100
31
0.0
0
LINE
8
0
10
64.056700
20
60.744100
30
0.0
11
64.056700
21
59.743600
31
0.0
0
LINE
8
0
10
64.056700
20
59.743600
30
0.0
11
50.056000
21
59.743600
31
0.0
0
LINE
8
0
10
50.056000
20
59.743600
30
0.0
11
50.056000
21
60.744100
31
0.0
0
LINE
8
0
10
50.056000
20
60.744100
30
0.0
11
49.255200
21
60.744100
31
0.0
0
LINE
8
0
10
68.306600
20
60.744100
30
0.0
11
68.306600
21
63.843300
31
0.0
0
LINE
8
0
10
68.306600
20
63.843300
30
0.0
11
69.106000
21
63.843300
31
0.0
0
LINE
8
0
10
69.106000
20
63.843300
30
0.0
11
69.106000
21
69.643300
31
0.0
0
LINE
8
0
10
69.106000
20
69.643300
30
0.0
11
68.306600
21
69.643300
31
0.0
0
LINE
8
0
10
68.306600
20
69.643300
30
0.0
11
68.306600
21
72.743800
31
0.0
0
LINE
8
0
10
68.306600
20
72.743800
30
0.0
11
69.106000
21
72.743800
31
0.0
0
LINE
8
0
10
69.106000
20
72.743800
30
0.0
11
69.106000
21
73.742900
31
0.0
0
LINE
8
0
10
69.106000
20
73.742900
30
0.0
11
83.106700
21
73.742900
31
0.0
0
LINE
8
0
10
83.106700
20
73.742900
30
0.0
11
83.106700
21
72.743800
31
0.0
0
LINE
8
0
10
83.106700
20
72.743800
30
0.0
11
83.906100
21
72.743800
31
0.0
0
LINE
8
0
10
83.906100
20
72.743800
30
0.0
11
83.906100
21
69.643300
31
0.0
0
LINE
8
0
10
83.906100
20
69.643300
30
0.0
11
83.106700
21
69.643300
31
0.0
0
LINE
8
0
10
83.106700
20
69.643300
30
0.0
11
83.106700
21
63.843300
31
0.0
0
LINE
8
0
10
83.106700
20
63.843300
30
0.0
11
83.906100
21
63.843300
31
0.0
0
LINE
8
0
10
83.906100
20
63.843300
30
0.0
11
83.906100
21
60.744100
31
0.0
0
LINE
8
0
10
83.906100
20
60.744100
30
0.0
11
83.106700
21
60.744100
31
0.0
0
LINE
8
0
10
83.106700
20
60.744100
30
0.0
11
83.106700
21
59.743600
31
0.0
0
LINE
8
0
10
83.106700
20
59.743600
30
0.0
11
69.106000
21
59.743600
31
0.0
0
LINE
8
0
10
69.106000
20
59.743600
30
0.0
11
69.106000
21
60.744100
31
0.0
0
LINE
8
0
10
69.106000
20
60.744100
30
0.0
11
68.306600
21
60.744100
31
0.0
0
LINE
8
0
10
87.356600
20
60.744100
30
0.0
11
87.356600
21
63.843300
31
0.0
0
LINE
8
0
10
87.356600
20
63.843300
30
0.0
11
88.156000
21
63.843300
31
0.0
0
LINE
8
0
10
88.156000
20
63.843300
30
0.0
11
88.156000
21
69.643300
31
0.0
0
LINE
8
0
10
88.156000
20
69.643300
30
0.0
11
87.356600
21
69.643300
31
0.0
0
LINE
8
0
10
87.356600
20
69.643300
30
0.0
11
87.356600
21
72.743800
31
0.0
0
LINE
8
0
10
87.356600
20
72.743800
30
0.0
11
88.156000
21
72.743800
31
0.0
0
LINE
8
0
10
88.156000
20
72.743800
30
0.0
11
88.156000
21
73.742900
31
0.0
0
LINE
8
0
10
88.156000
20
73.742900
30
0.0
11
102.157000
21
73.742900
31
0.0
0
LINE
8
0
10
102.157000
20
73.742900
30
0.0
11
102.157000
21
72.743800
31
0.0
0
LINE
8
0
10
102.157000
20
72.743800
30
0.0
11
102.956000
21
72.743800
31
0.0
0
LINE
8
0
10
102.956000
20
72.743800
30
0.0
11
102.956000
21
69.643300
31
0.0
0
LINE
8
0
10
102.956000
20
69.643300
30
0.0
11
102.157000
21
69.643300
31
0.0
0
LINE
8
0
10
102.157000
20
69.643300
30
0.0
11
102.157000
21
63.843300
31
0.0
0
LINE
8
0
10
102.157000
20
63.843300
30
0.0
11
102.956000
21
63.843300
31
0.0
0
LINE
8
0
10
102.956000
20
63.843300
30
0.0
11
102.956000
21
60.744100
31
0.0
0
LINE
8
0
10
102.956000
20
60.744100
30
0.0
11
102.157000
21
60.744100
31
0.0
0
LINE
8
0
10
102.157000
20
60.744100
30
0.0
11
102.157000
21
59.743600
31
0.0
0
LINE
8
0
10
102.157000
20
59.743600
30
0.0
11
88.156000
21
59.743600
31
0.0
0
LINE
8
0
10
88.156000
20
59.743600
30
0.0
11
88.156000
21
60.744100
31
0.0
0
LINE
8
0
10
88.156000
20
60.744100
30
0.0
11
87.356600
21
60.744100
31
0.0
0
LINE
8
0
10
106.407000
20
60.744100
30
0.0
11
106.407000
21
63.843300
31
0.0
0
LINE
8
0
10
106.407000
20
63.843300
30
0.0
11
107.206000
21
63.843300
31
0.0
0
LINE
8
0
10
107.206000
20
63.843300
30
0.0
11
107.206000
21
69.643300
31
0.0
0
LINE
8
0
10
107.206000
20
69.643300
30
0.0
11
106.407000
21
69.643300
31
0.0
0
LINE
8
0
10
106.407000
20
69.643300
30
0.0
11
106.407000
21
72.743800
31
0.0
0
LINE
8
0
10
106.407000
20
72.743800
30
0.0
11
107.206000
21
72.743800
31
0.0
0
LINE
8
0
10
107.206000
20
72.743800
30
0.0
11
107.206000
21
73.742900
31
0.0
0
LINE
8
0
10
107.206000
20
73.742900
30
0.0
11
121.205000
21
73.742900
31
0.0
0
LINE
8
0
10
121.205000
20
73.742900
30
0.0
11
121.205000
21
72.743800
31
0.0
0
LINE
8
0
10
121.205000
20
72.743800
30
0.0
11
122.006000
21
72.743800
31
0.0
0
LINE
8
0
10
122.006000
20
72.743800
30
0.0
11
122.006000
21
69.643300
31
0.0
0
LINE
8
0
10
122.006000
20
69.643300
30
0.0
11
121.205000
21
69.643300
31
0.0
0
LINE
8
0
10
121.205000
20
69.643300
30
0.0
11
121.205000
21
63.843300
31
0.0
0
LINE
8
0
10
121.205000
20
63.843300
30
0.0
11
122.006000
21
63.843300
31
0.0
0
LINE
8
0
10
122.006000
20
63.843300
30
0.0
11
122.006000
21
60.744100
31
0.0
0
LINE
8
0
10
122.006000
20
60.744100
30
0.0
11
121.205000
21
60.744100
31
0.0
0
LINE
8
0
10
121.205000
20
60.744100
30
0.0
11
121.205000
21
59.743600
31
0.0
0
LINE
8
0
10
121.205000
20
59.743600
30
0.0
11
107.206000
21
59.743600
31
0.0
0
LINE
8
0
10
107.206000
20
59.743600
30
0.0
11
107.206000
21
60.744100
31
0.0
0
LINE
8
0
10
107.206000
20
60.744100
30
0.0
11
106.407000
21
60.744100
31
0.0
0
LINE
8
0
10
125.455000
20
60.744100
30
0.0
11
125.455000
21
63.843300
31
0.0
0
LINE
8
0
10
125.455000
20
63.843300
30
0.0
11
126.256000
21
63.843300
31
0.0
0
LINE
8
0
10
126.256000
20
63.843300
30
0.0
11
126.256000
21
69.643300
31
0.0
0
LINE
8
0
10
126.256000
20
69.643300
30
0.0
11
125.455000
21
69.643300
31
0.0
0
LINE
8
0
10
125.455000
20
69.643300
30
0.0
11
125.455000
21
72.743800
31
0.0
0
LINE
8
0
10
125.455000
20
72.743800
30
0.0
11
126.256000
21
72.743800
31
0.0
0
LINE
8
0
10
126.256000
20
72.743800
30
0.0
11
126.256000
21
73.742900
31
0.0
0
LINE
8
0
10
126.256000
20
73.742900
30
0.0
11
140.257000
21
73.742900
31
0.0
0
LINE
8
0
10
140.257000
20
73.742900
30
0.0
11
140.257000
21
72.743800
31
0.0
0
LINE
8
0
10
140.257000
20
72.743800
30
0.0
11
141.056000
21
72.743800
31
0.0
0
LINE
8
0
10
141.056000
20
72.743800
30
0.0
11
141.056000
21
69.643300
31
0.0
0
LINE
8
0
10
141.056000
20
69.643300
30
0.0
11
140.257000
21
69.643300
31
0.0
0
LINE
8
0
10
140.257000
20
69.643300
30
0.0
11
140.257000
21
63.843300
31
0.0
0
LINE
8
0
10
140.257000
20
63.843300
30
0.0
11
141.056000
21
63.843300
31
0.0
0
LINE
8
0
10
141.056000
20
63.843300
30
0.0
11
141.056000
21
60.744100
31
0.0
0
LINE
8
0
10
141.056000
20
60.744100
30
0.0
11
140.257000
21
60.744100
31
0.0
0
LINE
8
0
10
140.257000
20
60.744100
30
0.0
11
140.257000
21
59.743600
31
0.0
0
LINE
8
0
10
140.257000
20
59.743600
30
0.0
11
126.256000
21
59.743600
31
0.0
0
LINE
8
0
10
126.256000
20
59.743600
30
0.0
11
126.256000
21
60.744100
31
0.0
0
LINE
8
0
10
126.256000
20
60.744100
30
0.0
11
125.455000
21
60.744100
31
0.0
0
LINE
8
0
10
144.507000
20
60.744100
30
0.0
11
144.507000
21
63.843300
31
0.0
0
LINE
8
0
10
144.507000
20
63.843300
30
0.0
11
145.306000
21
63.843300
31
0.0
0
LINE
8
0
10
145.306000
20
63.843300
30
0.0
11
145.306000
21
69.643300
31
0.0
0
LINE
8
0
10
145.306000
20
69.643300
30
0.0
11
144.507000
21
69.643300
31
0.0
0
LINE
8
0
10
144.507000
20
69.643300
30
0.0
11
144.507000
21
72.743800
31
0.0
0
LINE
8
0
10
144.507000
20
72.743800
30
0.0
11
145.306000
21
72.743800
31
0.0
0
LINE
8
0
10
145.306000
20
72.743800
30
0.0
11
145.306000
21
73.742900
31
0.0
0
LINE
8
0
10
145.306000
20
73.742900
30
0.0
11
159.305000
21
73.742900
31
0.0
0
LINE
8
0
10
159.305000
20
73.742900
30
0.0
11
159.305000
21
72.743800
31
0.0
0
LINE
8
0
10
159.305000
20
72.743800
30
0.0
11
160.106000
21
72.743800
31
0.0
0
LINE
8
0
10
160.106000
20
72.743800
30
0.0
11
160.106000
21
69.643300
31
0.0
0
LINE
8
0
10
160.106000
20
69.643300
30
0.0
11
159.305000
21
69.643300
31
0.0
0
LINE
8
0
10
159.305000
20
69.643300
30
0.0
11
159.305000
21
63.843300
31
0.0
0
LINE
8
0
10
159.305000
20
63.843300
30
0.0
11
160.106000
21
63.843300
31
0.0
0
LINE
8
0
10
160.106000
20
63.843300
30
0.0
11
160.106000
21
60.744100
31
0.0
0
LINE
8
0
10
160.106000
20
60.744100
30
0.0
11
159.305000
21
60.744100
31
0.0
0
LINE
8
0
10
159.305000
20
60.744100
30
0.0
11
159.305000
21
59.743600
31
0.0
0
LINE
8
0
10
159.305000
20
59.743600
30
0.0
11
145.306000
21
59.743600
31
0.0
0
LINE
8
0
10
145.306000
20
59.743600
30
0.0
11
145.306000
21
60.744100
31
0.0
0
LINE
8
0
10
145.306000
20
60.744100
30
0.0
11
144.507000
21
60.744100
31
0.0
0
LINE
8
0
10
163.555000
20
60.744100
30
0.0
11
163.555000
21
63.843300
31
0.0
0
LINE
8
0
10
163.555000
20
63.843300
30
0.0
11
164.356000
21
63.843300
31
0.0
0
LINE
8
0
10
164.356000
20
63.843300
30
0.0
11
164.356000
21
69.643300
31
0.0
0
LINE
8
0
10
164.356000
20
69.643300
30
0.0
11
163.555000
21
69.643300
31
0.0
0
LINE
8
0
10
163.555000
20
69.643300
30
0.0
11
163.555000
21
72.743800
31
0.0
0
LINE
8
0
10
163.555000
20
72.743800
30
0.0
11
164.356000
21
72.743800
31
0.0
0
LINE
8
0
10
164.356000
20
72.743800
30
0.0
11
164.356000
21
73.742900
31
0.0
0
LINE
8
0
10
164.356000
20
73.742900
30
0.0
11
178.357000
21
73.742900
31
0.0
0
LINE
8
0
10
178.357000
20
73.742900
30
0.0
11
178.357000
21
72.743800
31
0.0
0
LINE
8
0
10
178.357000
20
72.743800
30
0.0
11
179.156000
21
72.743800
31
0.0
0
LINE
8
0
10
179.156000
20
72.743800
30
0.0
11
179.156000
21
69.643300
31
0.0
0
LINE
8
0
10
179.156000
20
69.643300
30
0.0
11
178.357000
21
69.643300
31
0.0
0
LINE
8
0
10
178.357000
20
69.643300
30
0.0
11
178.357000
21
63.843300
31
0.0
0
LINE
8
0
10
178.357000
20
63.843300
30
0.0
11
179.156000
21
63.843300
31
0.0
0
LINE
8
0
10
179.156000
20
63.843300
30
0.0
11
179.156000
21
60.744100
31
0.0
0
LINE
8
0
10
179.156000
20
60.744100
30
0.0
11
178.357000
21
60.744100
31
0.0
0
LINE
8
0
10
178.357000
20
60.744100
30
0.0
11
178.357000
21
59.743600
31
0.0
0
LINE
8
0
10
178.357000
20
59.743600
30
0.0
11
164.356000
21
59.743600
31
0.0
0
LINE
8
0
10
164.356000
20
59.743600
30
0.0
11
164.356000
21
60.744100
31
0.0
0
LINE
8
0
10
164.356000
20
60.744100
30
0.0
11
163.555000
21
60.744100
31
0.0
0
LINE
8
0
10
182.607000
20
60.744100
30
0.0
11
182.607000
21
63.843300
31
0.0
0
LINE
8
0
10
182.607000
20
63.843300
30
0.0
11
183.406000
21
63.843300
31
0.0
0
LINE
8
0
10
183.406000
20
63.843300
30
0.0
11
183.406000
21
69.643300
31
0.0
0
LINE
8
0
10
183.406000
20
69.643300
30
0.0
11
182.607000
21
69.643300
31
0.0
0
LINE
8
0
10
182.607000
20
69.643300
30
0.0
11
182.607000
21
72.743800
31
0.0
0
LINE
8
0
10
182.607000
20
72.743800
30
0.0
11
183.406000
21
72.743800
31
0.0
0
LINE
8
0
10
183.406000
20
72.743800
30
0.0
11
183.406000
21
73.742900
31
0.0
0
LINE
8
0
10
183.406000
20
73.742900
30
0.0
11
197.407000
21
73.742900
31
0.0
0
LINE
8
0
10
197.407000
20
73.742900
30
0.0
11
197.407000
21
72.743800
31
0.0
0
LINE
8
0
10
197.407000
20
72.743800
30
0.0
11
198.206000
21
72.743800
31
0.0
0
LINE
8
0
10
198.206000
20
72.743800
30
0.0
11
198.206000
21
69.643300
31
0.0
0
LINE
8
0
10
198.206000
20
69.643300
30
0.0
11
197.407000
21
69.643300
31
0.0
0
LINE
8
0
10
197.407000
20
69.643300
30
0.0
11
197.407000
21
63.843300
31
0.0
0
LINE
8
0
10
197.407000
20
63.843300
30
0.0
11
198.206000
21
63.843300
31
0.0
0
LINE
8
0
10
198.206000
20
63.843300
30
0.0
11
198.206000
21
60.744100
31
0.0
0
LINE
8
0
10
198.206000
20
60.744100
30
0.0
11
197.407000
21
60.744100
31
0.0
0
LINE
8
0
10
197.407000
20
60.744100
30
0.0
11
197.407000
21
59.743600
31
0.0
0
LINE
8
0
10
197.407000
20
59.743600
30
0.0
11
183.406000
21
59.743600
31
0.0
0
LINE
8
0
10
183.406000
20
59.743600
30
0.0
11
183.406000
21
60.744100
31
0.0
0
LINE
8
0
10
183.406000
20
60.744100
30
0.0
11
182.607000
21
60.744100
31
0.0
0
LINE
8
0
10
201.657000
20
60.744100
30
0.0
11
201.657000
21
63.843300
31
0.0
0
LINE
8
0
10
201.657000
20
63.843300
30
0.0
11
202.456000
21
63.843300
31
0.0
0
LINE
8
0
10
202.456000
20
63.843300
30
0.0
11
202.456000
21
69.643300
31
0.0
0
LINE
8
0
10
202.456000
20
69.643300
30
0.0
11
201.657000
21
69.643300
31
0.0
0
LINE
8
0
10
201.657000
20
69.643300
30
0.0
11
201.657000
21
72.743800
31
0.0
0
LINE
8
0
10
201.657000
20
72.743800
30
0.0
11
202.456000
21
72.743800
31
0.0
0
LINE
8
0
10
202.456000
20
72.743800
30
0.0
11
202.456000
21
73.742900
31
0.0
0
LINE
8
0
10
202.456000
20
73.742900
30
0.0
11
216.455000
21
73.742900
31
0.0
0
LINE
8
0
10
216.455000
20
73.742900
30
0.0
11
216.455000
21
72.743800
31
0.0
0
LINE
8
0
10
216.455000
20
72.743800
30
0.0
11
217.256000
21
72.743800
31
0.0
0
LINE
8
0
10
217.256000
20
72.743800
30
0.0
11
217.256000
21
69.643300
31
0.0
0
LINE
8
0
10
217.256000
20
69.643300
30
0.0
11
216.455000
21
69.643300
31
0.0
0
LINE
8
0
10
216.455000
20
69.643300
30
0.0
11
216.455000
21
63.843300
31
0.0
0
LINE
8
0
10
216.455000
20
63.843300
30
0.0
11
217.256000
21
63.843300
31
0.0
0
LINE
8
0
10
217.256000
20
63.843300
30
0.0
11
217.256000
21
60.744100
31
0.0
0
LINE
8
0
10
217.256000
20
60.744100
30
0.0
11
216.455000
21
60.744100
31
0.0
0
LINE
8
0
10
216.455000
20
60.744100
30
0.0
11
216.455000
21
59.743600
31
0.0
0
LINE
8
0
10
216.455000
20
59.743600
30
0.0
11
202.456000
21
59.743600
31
0.0
0
LINE
8
0
10
202.456000
20
59.743600
30
0.0
11
202.456000
21
60.744100
31
0.0
0
LINE
8
0
10
202.456000
20
60.744100
30
0.0
11
201.657000
21
60.744100
31
0.0
0
LINE
8
0
10
220.705000
20
60.744100
30
0.0
11
220.705000
21
63.843300
31
0.0
0
LINE
8
0
10
220.705000
20
63.843300
30
0.0
11
221.506000
21
63.843300
31
0.0
0
LINE
8
0
10
221.506000
20
63.843300
30
0.0
11
221.506000
21
69.643300
31
0.0
0
LINE
8
0
10
221.506000
20
69.643300
30
0.0
11
220.705000
21
69.643300
31
0.0
0
LINE
8
0
10
220.705000
20
69.643300
30
0.0
11
220.705000
21
72.743800
31
0.0
0
LINE
8
0
10
220.705000
20
72.743800
30
0.0
11
221.506000
21
72.743800
31
0.0
0
LINE
8
0
10
221.506000
20
72.743800
30
0.0
11
221.506000
21
73.742900
31
0.0
0
LINE
8
0
10
221.506000
20
73.742900
30
0.0
11
235.507000
21
73.742900
31
0.0
0
LINE
8
0
10
235.507000
20
73.742900
30
0.0
11
235.507000
21
72.743800
31
0.0
0
LINE
8
0
10
235.507000
20
72.743800
30
0.0
11
236.306000
21
72.743800
31
0.0
0
LINE
8
0
10
236.306000
20
72.743800
30
0.0
11
236.306000
21
69.643300
31
0.0
0
LINE
8
0
10
236.306000
20
69.643300
30
0.0
11
235.507000
21
69.643300
31
0.0
0
LINE
8
0
10
235.507000
20
69.643300
30
0.0
11
235.507000
21
63.843300
31
0.0
0
LINE
8
0
10
235.507000
20
63.843300
30
0.0
11
236.306000
21
63.843300
31
0.0
0
LINE
8
0
10
236.306000
20
63.843300
30
0.0
11
236.306000
21
60.744100
31
0.0
0
LINE
8
0
10
236.306000
20
60.744100
30
0.0
11
235.507000
21
60.744100
31
0.0
0
LINE
8
0
10
235.507000
20
60.744100
30
0.0
11
235.507000
21
59.743600
31
0.0
0
LINE
8
0
10
235.507000
20
59.743600
30
0.0
11
221.506000
21
59.743600
31
0.0
0
LINE
8
0
10
221.506000
20
59.743600
30
0.0
11
221.506000
21
60.744100
31
0.0
0
LINE
8
0
10
221.506000
20
60.744100
30
0.0
11
220.705000
21
60.744100
31
0.0
0
LINE
8
0
10
239.757000
20
60.744100
30
0.0
11
239.757000
21
63.843300
31
0.0
0
LINE
8
0
10
239.757000
20
63.843300
30
0.0
11
240.556000
21
63.843300
31
0.0
0
LINE
8
0
10
240.556000
20
63.843300
30
0.0
11
240.556000
21
69.643300
31
0.0
0
LINE
8
0
10
240.556000
20
69.643300
30
0.0
11
239.757000
21
69.643300
31
0.0
0
LINE
8
0
10
239.757000
20
69.643300
30
0.0
11
239.757000
21
72.743800
31
0.0
0
LINE
8
0
10
239.757000
20
72.743800
30
0.0
11
240.556000
21
72.743800
31
0.0
0
LINE
8
0
10
240.556000
20
72.743800
30
0.0
11
240.556000
21
73.742900
31
0.0
0
LINE
8
0
10
240.556000
20
73.742900
30
0.0
11
254.555000
21
73.742900
31
0.0
0
LINE
8
0
10
254.555000
20
73.742900
30
0.0
11
254.555000
21
72.743800
31
0.0
0
LINE
8
0
10
254.555000
20
72.743800
30
0.0
11
255.356000
21
72.743800
31
0.0
0
LINE
8
0
10
255.356000
20
72.743800
30
0.0
11
255.356000
21
69.643300
31
0.0
0
LINE
8
0
10
255.356000
20
69.643300
30
0.0
11
254.555000
21
69.643300
31
0.0
0
LINE
8
0
10
254.555000
20
69.643300
30
0.0
11
254.555000
21
63.843300
31
0.0
0
LINE
8
0
10
254.555000
20
63.843300
30
0.0
11
255.356000
21
63.843300
31
0.0
0
LINE
8
0
10
255.356000
20
63.843300
30
0.0
11
255.356000
21
60.744100
31
0.0
0
LINE
8
0
10
255.356000
20
60.744100
30
0.0
11
254.555000
21
60.744100
31
0.0
0
LINE
8
0
10
254.555000
20
60.744100
30
0.0
11
254.555000
21
59.743600
31
0.0
0
LINE
8
0
10
254.555000
20
59.743600
30
0.0
11
240.556000
21
59.743600
31
0.0
0
LINE
8
0
10
240.556000
20
59.743600
30
0.0
11
240.556000
21
60.744100
31
0.0
0
LINE
8
0
10
240.556000
20
60.744100
30
0.0
11
239.757000
21
60.744100
31
0.0
0
LINE
8
0
10
263.569000
20
60.744100
30
0.0
11
263.569000
21
63.843300
31
0.0
0
LINE
8
0
10
263.569000
20
63.843300
30
0.0
11
264.368000
21
63.843300
31
0.0
0
LINE
8
0
10
264.368000
20
63.843300
30
0.0
11
264.368000
21
69.643300
31
0.0
0
LINE
8
0
10
264.368000
20
69.643300
30
0.0
11
263.569000
21
69.643300
31
0.0
0
LINE
8
0
10
263.569000
20
69.643300
30
0.0
11
263.569000
21
72.743800
31
0.0
0
LINE
8
0
10
263.569000
20
72.743800
30
0.0
11
264.368000
21
72.743800
31
0.0
0
LINE
8
0
10
264.368000
20
72.743800
30
0.0
11
264.368000
21
73.742900
31
0.0
0
LINE
8
0
10
264.368000
20
73.742900
30
0.0
11
278.368000
21
73.742900
31
0.0
0
LINE
8
0
10
278.368000
20
73.742900
30
0.0
11
278.368000
21
72.743800
31
0.0
0
LINE
8
0
10
278.368000
20
72.743800
30
0.0
11
279.169000
21
72.743800
31
0.0
0
LINE
8
0
10
279.169000
20
72.743800
30
0.0
11
279.169000
21
69.643300
31
0.0
0
LINE
8
0
10
279.169000
20
69.643300
30
0.0
11
278.368000
21
69.643300
31
0.0
0
LINE
8
0
10
278.368000
20
69.643300
30
0.0
11
278.368000
21
63.843300
31
0.0
0
LINE
8
0
10
278.368000
20
63.843300
30
0.0
11
279.169000
21
63.843300
31
0.0
0
LINE
8
0
10
279.169000
20
63.843300
30
0.0
11
279.169000
21
60.744100
31
0.0
0
LINE
8
0
10
279.169000
20
60.744100
30
0.0
11
278.368000
21
60.744100
31
0.0
0
LINE
8
0
10
278.368000
20
60.744100
30
0.0
11
278.368000
21
59.743600
31
0.0
0
LINE
8
0
10
278.368000
20
59.743600
30
0.0
11
264.368000
21
59.743600
31
0.0
0
LINE
8
0
10
264.368000
20
59.743600
30
0.0
11
264.368000
21
60.744100
31
0.0
0
LINE
8
0
10
264.368000
20
60.744100
30
0.0
11
263.569000
21
60.744100
31
0.0
0
LINE
8
0
10
22.982900
20
67.091300
30
0.0
11
23.104200
21
67.865600
31
0.0
0
LINE
8
0
10
23.104200
20
67.865600
30
0.0
11
23.458300
21
68.563100
31
0.0
0
LINE
8
0
10
23.458300
20
68.563100
30
0.0
11
24.012300
21
69.115500
31
0.0
0
LINE
8
0
10
24.012300
20
69.115500
30
0.0
11
24.708200
21
69.471100
31
0.0
0
LINE
8
0
10
24.708200
20
69.471100
30
0.0
11
25.482700
21
69.592500
31
0.0
0
LINE
8
0
10
25.482700
20
69.592500
30
0.0
11
26.254400
21
69.471100
31
0.0
0
LINE
8
0
10
26.254400
20
69.471100
30
0.0
11
26.951700
21
69.115500
31
0.0
0
LINE
8
0
10
26.951700
20
69.115500
30
0.0
11
27.502900
21
68.563100
31
0.0
0
LINE
8
0
10
27.502900
20
68.563100
30
0.0
11
27.859800
21
67.865600
31
0.0
0
LINE
8
0
10
27.859800
20
67.865600
30
0.0
11
27.981100
21
67.091300
31
0.0
0
LINE
8
0
10
27.981100
20
67.091300
30
0.0
11
27.859800
21
66.320800
31
0.0
0
LINE
8
0
10
27.859800
20
66.320800
30
0.0
11
27.502900
21
65.623700
31
0.0
0
LINE
8
0
10
27.502900
20
65.623700
30
0.0
11
26.951700
21
65.070900
31
0.0
0
LINE
8
0
10
26.951700
20
65.070900
30
0.0
11
26.254400
21
64.715300
31
0.0
0
LINE
8
0
10
26.254400
20
64.715300
30
0.0
11
25.482700
21
64.591500
31
0.0
0
LINE
8
0
10
25.482700
20
64.591500
30
0.0
11
24.708200
21
64.715300
31
0.0
0
LINE
8
0
10
24.708200
20
64.715300
30
0.0
11
24.012300
21
65.070900
31
0.0
0
LINE
8
0
10
24.012300
20
65.070900
30
0.0
11
23.458300
21
65.623700
31
0.0
0
LINE
8
0
10
23.458300
20
65.623700
30
0.0
11
23.104200
21
66.320800
31
0.0
0
LINE
8
0
10
23.104200
20
66.320800
30
0.0
11
22.982900
21
67.091300
31
0.0
0
LINE
8
0
10
257.831000
20
67.091300
30
0.0
11
257.954000
21
67.865600
31
0.0
0
LINE
8
0
10
257.954000
20
67.865600
30
0.0
11
258.309000
21
68.563100
31
0.0
0
LINE
8
0
10
258.309000
20
68.563100
30
0.0
11
258.862000
21
69.115500
31
0.0
0
LINE
8
0
10
258.862000
20
69.115500
30
0.0
11
259.559000
21
69.471100
31
0.0
0
LINE
8
0
10
259.559000
20
69.471100
30
0.0
11
260.332000
21
69.592500
31
0.0
0
LINE
8
0
10
260.332000
20
69.592500
30
0.0
11
261.104000
21
69.471100
31
0.0
0
LINE
8
0
10
261.104000
20
69.471100
30
0.0
11
261.801000
21
69.115500
31
0.0
0
LINE
8
0
10
261.801000
20
69.115500
30
0.0
11
262.354000
21
68.563100
31
0.0
0
LINE
8
0
10
262.354000
20
68.563100
30
0.0
11
262.708000
21
67.865600
31
0.0
0
LINE
8
0
10
262.708000
20
67.865600
30
0.0
11
262.832000
21
67.091300
31
0.0
0
LINE
8
0
10
262.832000
20
67.091300
30
0.0
11
262.708000
21
66.320800
31
0.0
0
LINE
8
0
10
262.708000
20
66.320800
30
0.0
11
262.354000
21
65.623700
31
0.0
0
LINE
8
0
10
262.354000
20
65.623700
30
0.0
11
261.801000
21
65.070900
31
0.0
0
LINE
8
0
10
261.801000
20
65.070900
30
0.0
11
261.104000
21
64.715300
31
0.0
0
LINE
8
0
10
261.104000
20
64.715300
30
0.0
11
260.332000
21
64.591500
31
0.0
0
LINE
8
0
10
260.332000
20
64.591500
30
0.0
11
259.559000
21
64.715300
31
0.0
0
LINE
8
0
10
259.559000
20
64.715300
30
0.0
11
258.862000
21
65.070900
31
0.0
0
LINE
8
0
10
258.862000
20
65.070900
30
0.0
11
258.309000
21
65.623700
31
0.0
0
LINE
8
0
10
258.309000
20
65.623700
30
0.0
11
257.954000
21
66.320800
31
0.0
0
LINE
8
0
10
257.954000
20
66.320800
30
0.0
11
257.831000
21
67.091300
31
0.0
0
LINE
8
0
10
250.507000
20
85.293600
30
0.0
11
250.507000
21
88.093900
31
0.0
0
LINE
8
0
10
250.507000
20
88.093900
30
0.0
11
251.331000
21
88.093900
31
0.0
0
LINE
8
0
10
251.331000
20
88.093900
30
0.0
11
251.331000
21
91.323900
31
0.0
0
LINE
8
0
10
251.331000
20
91.323900
30
0.0
11
258.080000
21
91.323900
31
0.0
0
LINE
8
0
10
258.080000
20
91.323900
30
0.0
11
258.080000
21
88.093900
31
0.0
0
LINE
8
0
10
258.080000
20
88.093900
30
0.0
11
259.606000
21
88.093900
31
0.0
0
LINE
8
0
10
259.606000
20
88.093900
30
0.0
11
259.606000
21
88.693300
31
0.0
0
LINE
8
0
10
259.606000
20
88.693300
30
0.0
11
258.805000
21
88.693300
31
0.0
0
LINE
8
0
10
258.805000
20
88.693300
30
0.0
11
258.805000
21
91.793800
31
0.0
0
LINE
8
0
10
258.805000
20
91.793800
30
0.0
11
259.606000
21
91.793800
31
0.0
0
LINE
8
0
10
259.606000
20
91.793800
30
0.0
11
259.606000
21
92.792900
31
0.0
0
LINE
8
0
10
259.606000
20
92.792900
30
0.0
11
273.605000
21
92.792900
31
0.0
0
LINE
8
0
10
273.605000
20
92.792900
30
0.0
11
273.605000
21
91.793800
31
0.0
0
LINE
8
0
10
273.605000
20
91.793800
30
0.0
11
274.406000
21
91.793800
31
0.0
0
LINE
8
0
10
274.406000
20
91.793800
30
0.0
11
274.406000
21
88.693300
31
0.0
0
LINE
8
0
10
274.406000
20
88.693300
30
0.0
11
273.605000
21
88.693300
31
0.0
0
LINE
8
0
10
273.605000
20
88.693300
30
0.0
11
273.605000
21
88.093900
31
0.0
0
LINE
8
0
10
273.605000
20
88.093900
30
0.0
11
275.131000
21
88.093900
31
0.0
0
LINE
8
0
10
275.131000
20
88.093900
30
0.0
11
275.131000
21
91.323900
31
0.0
0
LINE
8
0
10
275.131000
20
91.323900
30
0.0
11
281.880000
21
91.323900
31
0.0
0
LINE
8
0
10
281.880000
20
91.323900
30
0.0
11
281.880000
21
88.093900
31
0.0
0
LINE
8
0
10
281.880000
20
88.093900
30
0.0
11
282.706000
21
88.093900
31
0.0
0
LINE
8
0
10
282.706000
20
88.093900
30
0.0
11
282.706000
21
85.293600
31
0.0
0
LINE
8
0
10
282.706000
20
85.293600
30
0.0
11
281.880000
21
85.293600
31
0.0
0
LINE
8
0
10
281.880000
20
85.293600
30
0.0
11
281.880000
21
79.022200
31
0.0
0
LINE
8
0
10
281.880000
20
79.022200
30
0.0
11
280.155000
21
79.022200
31
0.0
0
LINE
8
0
10
280.155000
20
79.022200
30
0.0
11
280.155000
21
77.823500
31
0.0
0
LINE
8
0
10
280.155000
20
77.823500
30
0.0
11
276.856000
21
77.823500
31
0.0
0
LINE
8
0
10
276.856000
20
77.823500
30
0.0
11
276.856000
21
79.022200
31
0.0
0
LINE
8
0
10
276.856000
20
79.022200
30
0.0
11
275.131000
21
79.022200
31
0.0
0
LINE
8
0
10
275.131000
20
79.022200
30
0.0
11
275.131000
21
83.494000
31
0.0
0
LINE
8
0
10
275.131000
20
83.494000
30
0.0
11
273.605000
21
83.494000
31
0.0
0
LINE
8
0
10
273.605000
20
83.494000
30
0.0
11
273.605000
21
82.893300
31
0.0
0
LINE
8
0
10
273.605000
20
82.893300
30
0.0
11
274.406000
21
82.893300
31
0.0
0
LINE
8
0
10
274.406000
20
82.893300
30
0.0
11
274.406000
21
79.794100
31
0.0
0
LINE
8
0
10
274.406000
20
79.794100
30
0.0
11
273.605000
21
79.794100
31
0.0
0
LINE
8
0
10
273.605000
20
79.794100
30
0.0
11
273.605000
21
78.793600
31
0.0
0
LINE
8
0
10
273.605000
20
78.793600
30
0.0
11
259.606000
21
78.793600
31
0.0
0
LINE
8
0
10
259.606000
20
78.793600
30
0.0
11
259.606000
21
79.794100
31
0.0
0
LINE
8
0
10
259.606000
20
79.794100
30
0.0
11
258.805000
21
79.794100
31
0.0
0
LINE
8
0
10
258.805000
20
79.794100
30
0.0
11
258.805000
21
82.893300
31
0.0
0
LINE
8
0
10
258.805000
20
82.893300
30
0.0
11
259.606000
21
82.893300
31
0.0
0
LINE
8
0
10
259.606000
20
82.893300
30
0.0
11
259.606000
21
83.494000
31
0.0
0
LINE
8
0
10
259.606000
20
83.494000
30
0.0
11
258.080000
21
83.494000
31
0.0
0
LINE
8
0
10
258.080000
20
83.494000
30
0.0
11
258.080000
21
79.022200
31
0.0
0
LINE
8
0
10
258.080000
20
79.022200
30
0.0
11
256.355000
21
79.022200
31
0.0
0
LINE
8
0
10
256.355000
20
79.022200
30
0.0
11
256.355000
21
77.823500
31
0.0
0
LINE
8
0
10
256.355000
20
77.823500
30
0.0
11
253.056000
21
77.823500
31
0.0
0
LINE
8
0
10
253.056000
20
77.823500
30
0.0
11
253.056000
21
79.022200
31
0.0
0
LINE
8
0
10
253.056000
20
79.022200
30
0.0
11
251.331000
21
79.022200
31
0.0
0
LINE
8
0
10
251.331000
20
79.022200
30
0.0
11
251.331000
21
85.293600
31
0.0
0
LINE
8
0
10
251.331000
20
85.293600
30
0.0
11
250.507000
21
85.293600
31
0.0
0
LINE
8
0
10
1.631600
20
79.794100
30
0.0
11
1.631600
21
82.893300
31
0.0
0
LINE
8
0
10
1.631600
20
82.893300
30
0.0
11
2.430860
21
82.893300
31
0.0
0
LINE
8
0
10
2.430860
20
82.893300
30
0.0
11
2.430860
21
88.693300
31
0.0
0
LINE
8
0
10
2.430860
20
88.693300
30
0.0
11
1.631600
21
88.693300
31
0.0
0
LINE
8
0
10
1.631600
20
88.693300
30
0.0
11
1.631600
21
91.793800
31
0.0
0
LINE
8
0
10
1.631600
20
91.793800
30
0.0
11
2.430860
21
91.793800
31
0.0
0
LINE
8
0
10
2.430860
20
91.793800
30
0.0
11
2.430860
21
92.792900
31
0.0
0
LINE
8
0
10
2.430860
20
92.792900
30
0.0
11
16.431700
21
92.792900
31
0.0
0
LINE
8
0
10
16.431700
20
92.792900
30
0.0
11
16.431700
21
91.793800
31
0.0
0
LINE
8
0
10
16.431700
20
91.793800
30
0.0
11
17.231000
21
91.793800
31
0.0
0
LINE
8
0
10
17.231000
20
91.793800
30
0.0
11
17.231000
21
88.693300
31
0.0
0
LINE
8
0
10
17.231000
20
88.693300
30
0.0
11
16.431700
21
88.693300
31
0.0
0
LINE
8
0
10
16.431700
20
88.693300
30
0.0
11
16.431700
21
82.893300
31
0.0
0
LINE
8
0
10
16.431700
20
82.893300
30
0.0
11
17.231000
21
82.893300
31
0.0
0
LINE
8
0
10
17.231000
20
82.893300
30
0.0
11
17.231000
21
79.794100
31
0.0
0
LINE
8
0
10
17.231000
20
79.794100
30
0.0
11
16.431700
21
79.794100
31
0.0
0
LINE
8
0
10
16.431700
20
79.794100
30
0.0
11
16.431700
21
78.793600
31
0.0
0
LINE
8
0
10
16.431700
20
78.793600
30
0.0
11
2.430860
21
78.793600
31
0.0
0
LINE
8
0
10
2.430860
20
78.793600
30
0.0
11
2.430860
21
79.794100
31
0.0
0
LINE
8
0
10
2.430860
20
79.794100
30
0.0
11
1.631600
21
79.794100
31
0.0
0
LINE
8
0
10
20.681600
20
79.794100
30
0.0
11
20.681600
21
82.893300
31
0.0
0
LINE
8
0
10
20.681600
20
82.893300
30
0.0
11
21.480900
21
82.893300
31
0.0
0
LINE
8
0
10
21.480900
20
82.893300
30
0.0
11
21.480900
21
88.693300
31
0.0
0
LINE
8
0
10
21.480900
20
88.693300
30
0.0
11
20.681600
21
88.693300
31
0.0
0
LINE
8
0
10
20.681600
20
88.693300
30
0.0
11
20.681600
21
91.793800
31
0.0
0
LINE
8
0
10
20.681600
20
91.793800
30
0.0
11
21.480900
21
91.793800
31
0.0
0
LINE
8
0
10
21.480900
20
91.793800
30
0.0
11
21.480900
21
92.792900
31
0.0
0
LINE
8
0
10
21.480900
20
92.792900
30
0.0
11
35.481700
21
92.792900
31
0.0
0
LINE
8
0
10
35.481700
20
92.792900
30
0.0
11
35.481700
21
91.793800
31
0.0
0
LINE
8
0
10
35.481700
20
91.793800
30
0.0
11
36.281100
21
91.793800
31
0.0
0
LINE
8
0
10
36.281100
20
91.793800
30
0.0
11
36.281100
21
88.693300
31
0.0
0
LINE
8
0
10
36.281100
20
88.693300
30
0.0
11
35.481700
21
88.693300
31
0.0
0
LINE
8
0
10
35.481700
20
88.693300
30
0.0
11
35.481700
21
82.893300
31
0.0
0
LINE
8
0
10
35.481700
20
82.893300
30
0.0
11
36.281100
21
82.893300
31
0.0
0
LINE
8
0
10
36.281100
20
82.893300
30
0.0
11
36.281100
21
79.794100
31
0.0
0
LINE
8
0
10
36.281100
20
79.794100
30
0.0
11
35.481700
21
79.794100
31
0.0
0
LINE
8
0
10
35.481700
20
79.794100
30
0.0
11
35.481700
21
78.793600
31
0.0
0
LINE
8
0
10
35.481700
20
78.793600
30
0.0
11
21.480900
21
78.793600
31
0.0
0
LINE
8
0
10
21.480900
20
78.793600
30
0.0
11
21.480900
21
79.794100
31
0.0
0
LINE
8
0
10
21.480900
20
79.794100
30
0.0
11
20.681600
21
79.794100
31
0.0
0
LINE
8
0
10
39.731600
20
79.794100
30
0.0
11
39.731600
21
82.893300
31
0.0
0
LINE
8
0
10
39.731600
20
82.893300
30
0.0
11
40.531000
21
82.893300
31
0.0
0
LINE
8
0
10
40.531000
20
82.893300
30
0.0
11
40.531000
21
88.693300
31
0.0
0
LINE
8
0
10
40.531000
20
88.693300
30
0.0
11
39.731600
21
88.693300
31
0.0
0
LINE
8
0
10
39.731600
20
88.693300
30
0.0
11
39.731600
21
91.793800
31
0.0
0
LINE
8
0
10
39.731600
20
91.793800
30
0.0
11
40.531000
21
91.793800
31
0.0
0
LINE
8
0
10
40.531000
20
91.793800
30
0.0
11
40.531000
21
92.792900
31
0.0
0
LINE
8
0
10
40.531000
20
92.792900
30
0.0
11
54.531700
21
92.792900
31
0.0
0
LINE
8
0
10
54.531700
20
92.792900
30
0.0
11
54.531700
21
91.793800
31
0.0
0
LINE
8
0
10
54.531700
20
91.793800
30
0.0
11
55.331100
21
91.793800
31
0.0
0
LINE
8
0
10
55.331100
20
91.793800
30
0.0
11
55.331100
21
88.693300
31
0.0
0
LINE
8
0
10
55.331100
20
88.693300
30
0.0
11
54.531700
21
88.693300
31
0.0
0
LINE
8
0
10
54.531700
20
88.693300
30
0.0
11
54.531700
21
82.893300
31
0.0
0
LINE
8
0
10
54.531700
20
82.893300
30
0.0
11
55.331100
21
82.893300
31
0.0
0
LINE
8
0
10
55.331100
20
82.893300
30
0.0
11
55.331100
21
79.794100
31
0.0
0
LINE
8
0
10
55.331100
20
79.794100
30
0.0
11
54.531700
21
79.794100
31
0.0
0
LINE
8
0
10
54.531700
20
79.794100
30
0.0
11
54.531700
21
78.793600
31
0.0
0
LINE
8
0
10
54.531700
20
78.793600
30
0.0
11
40.531000
21
78.793600
31
0.0
0
LINE
8
0
10
40.531000
20
78.793600
30
0.0
11
40.531000
21
79.794100
31
0.0
0
LINE
8
0
10
40.531000
20
79.794100
30
0.0
11
39.731600
21
79.794100
31
0.0
0
LINE
8
0
10
58.781600
20
79.794100
30
0.0
11
58.781600
21
82.893300
31
0.0
0
LINE
8
0
10
58.781600
20
82.893300
30
0.0
11
59.581000
21
82.893300
31
0.0
0
LINE
8
0
10
59.581000
20
82.893300
30
0.0
11
59.581000
21
88.693300
31
0.0
0
LINE
8
0
10
59.581000
20
88.693300
30
0.0
11
58.781600
21
88.693300
31
0.0
0
LINE
8
0
10
58.781600
20
88.693300
30
0.0
11
58.781600
21
91.793800
31
0.0
0
LINE
8
0
10
58.781600
20
91.793800
30
0.0
11
59.581000
21
91.793800
31
0.0
0
LINE
8
0
10
59.581000
20
91.793800
30
0.0
11
59.581000
21
92.792900
31
0.0
0
LINE
8
0
10
59.581000
20
92.792900
30
0.0
11
73.580300
21
92.792900
31
0.0
0
LINE
8
0
10
73.580300
20
92.792900
30
0.0
11
73.580300
21
91.793800
31
0.0
0
LINE
8
0
10
73.580300
20
91.793800
30
0.0
11
74.381100
21
91.793800
31
0.0
0
LINE
8
0
10
74.381100
20
91.793800
30
0.0
11
74.381100
21
88.693300
31
0.0
0
LINE
8
0
10
74.381100
20
88.693300
30
0.0
11
73.580300
21
88.693300
31
0.0
0
LINE
8
0
10
73.580300
20
88.693300
30
0.0
11
73.580300
21
82.893300
31
0.0
0
LINE
8
0
10
73.580300
20
82.893300
30
0.0
11
74.381100
21
82.893300
31
0.0
0
LINE
8
0
10
74.381100
20
82.893300
30
0.0
11
74.381100
21
79.794100
31
0.0
0
LINE
8
0
10
74.381100
20
79.794100
30
0.0
11
73.580300
21
79.794100
31
0.0
0
LINE
8
0
10
73.580300
20
79.794100
30
0.0
11
73.580300
21
78.793600
31
0.0
0
LINE
8
0
10
73.580300
20
78.793600
30
0.0
11
59.581000
21
78.793600
31
0.0
0
LINE
8
0
10
59.581000
20
78.793600
30
0.0
11
59.581000
21
79.794100
31
0.0
0
LINE
8
0
10
59.581000
20
79.794100
30
0.0
11
58.781600
21
79.794100
31
0.0
0
LINE
8
0
10
77.830200
20
79.794100
30
0.0
11
77.830200
21
82.893300
31
0.0
0
LINE
8
0
10
77.830200
20
82.893300
30
0.0
11
78.631000
21
82.893300
31
0.0
0
LINE
8
0
10
78.631000
20
82.893300
30
0.0
11
78.631000
21
88.693300
31
0.0
0
LINE
8
0
10
78.631000
20
88.693300
30
0.0
11
77.830200
21
88.693300
31
0.0
0
LINE
8
0
10
77.830200
20
88.693300
30
0.0
11
77.830200
21
91.793800
31
0.0
0
LINE
8
0
10
77.830200
20
91.793800
30
0.0
11
78.631000
21
91.793800
31
0.0
0
LINE
8
0
10
78.631000
20
91.793800
30
0.0
11
78.631000
21
92.792900
31
0.0
0
LINE
8
0
10
78.631000
20
92.792900
30
0.0
11
92.631700
21
92.792900
31
0.0
0
LINE
8
0
10
92.631700
20
92.792900
30
0.0
11
92.631700
21
91.793800
31
0.0
0
LINE
8
0
10
92.631700
20
91.793800
30
0.0
11
93.431100
21
91.793800
31
0.0
0
LINE
8
0
10
93.431100
20
91.793800
30
0.0
11
93.431100
21
88.693300
31
0.0
0
LINE
8
0
10
93.431100
20
88.693300
30
0.0
11
92.631700
21
88.693300
31
0.0
0
LINE
8
0
10
92.631700
20
88.693300
30
0.0
11
92.631700
21
82.893300
31
0.0
0
LINE
8
0
10
92.631700
20
82.893300
30
0.0
11
93.431100
21
82.893300
31
0.0
0
LINE
8
0
10
93.431100
20
82.893300
30
0.0
11
93.431100
21
79.794100
31
0.0
0
LINE
8
0
10
93.431100
20
79.794100
30
0.0
11
92.631700
21
79.794100
31
0.0
0
LINE
8
0
10
92.631700
20
79.794100
30
0.0
11
92.631700
21
78.793600
31
0.0
0
LINE
8
0
10
92.631700
20
78.793600
30
0.0
11
78.631000
21
78.793600
31
0.0
0
LINE
8
0
10
78.631000
20
78.793600
30
0.0
11
78.631000
21
79.794100
31
0.0
0
LINE
8
0
10
78.631000
20
79.794100
30
0.0
11
77.830200
21
79.794100
31
0.0
0
LINE
8
0
10
96.881600
20
79.794100
30
0.0
11
96.881600
21
82.893300
31
0.0
0
LINE
8
0
10
96.881600
20
82.893300
30
0.0
11
97.681000
21
82.893300
31
0.0
0
LINE
8
0
10
97.681000
20
82.893300
30
0.0
11
97.681000
21
88.693300
31
0.0
0
LINE
8
0
10
97.681000
20
88.693300
30
0.0
11
96.881600
21
88.693300
31
0.0
0
LINE
8
0
10
96.881600
20
88.693300
30
0.0
11
96.881600
21
91.793800
31
0.0
0
LINE
8
0
10
96.881600
20
91.793800
30
0.0
11
97.681000
21
91.793800
31
0.0
0
LINE
8
0
10
97.681000
20
91.793800
30
0.0
11
97.681000
21
92.792900
31
0.0
0
LINE
8
0
10
97.681000
20
92.792900
30
0.0
11
111.682000
21
92.792900
31
0.0
0
LINE
8
0
10
111.682000
20
92.792900
30
0.0
11
111.682000
21
91.793800
31
0.0
0
LINE
8
0
10
111.682000
20
91.793800
30
0.0
11
112.481000
21
91.793800
31
0.0
0
LINE
8
0
10
112.481000
20
91.793800
30
0.0
11
112.481000
21
88.693300
31
0.0
0
LINE
8
0
10
112.481000
20
88.693300
30
0.0
11
111.682000
21
88.693300
31
0.0
0
LINE
8
0
10
111.682000
20
88.693300
30
0.0
11
111.682000
21
82.893300
31
0.0
0
LINE
8
0
10
111.682000
20
82.893300
30
0.0
11
112.481000
21
82.893300
31
0.0
0
LINE
8
0
10
112.481000
20
82.893300
30
0.0
11
112.481000
21
79.794100
31
0.0
0
LINE
8
0
10
112.481000
20
79.794100
30
0.0
11
111.682000
21
79.794100
31
0.0
0
LINE
8
0
10
111.682000
20
79.794100
30
0.0
11
111.682000
21
78.793600
31
0.0
0
LINE
8
0
10
111.682000
20
78.793600
30
0.0
11
97.681000
21
78.793600
31
0.0
0
LINE
8
0
10
97.681000
20
78.793600
30
0.0
11
97.681000
21
79.794100
31
0.0
0
LINE
8
0
10
97.681000
20
79.794100
30
0.0
11
96.881600
21
79.794100
31
0.0
0
LINE
8
0
10
115.932000
20
79.794100
30
0.0
11
115.932000
21
82.893300
31
0.0
0
LINE
8
0
10
115.932000
20
82.893300
30
0.0
11
116.731000
21
82.893300
31
0.0
0
LINE
8
0
10
116.731000
20
82.893300
30
0.0
11
116.731000
21
88.693300
31
0.0
0
LINE
8
0
10
116.731000
20
88.693300
30
0.0
11
115.932000
21
88.693300
31
0.0
0
LINE
8
0
10
115.932000
20
88.693300
30
0.0
11
115.932000
21
91.793800
31
0.0
0
LINE
8
0
10
115.932000
20
91.793800
30
0.0
11
116.731000
21
91.793800
31
0.0
0
LINE
8
0
10
116.731000
20
91.793800
30
0.0
11
116.731000
21
92.792900
31
0.0
0
LINE
8
0
10
116.731000
20
92.792900
30
0.0
11
130.732000
21
92.792900
31
0.0
0
LINE
8
0
10
130.732000
20
92.792900
30
0.0
11
130.732000
21
91.793800
31
0.0
0
LINE
8
0
10
130.732000
20
91.793800
30
0.0
11
131.531000
21
91.793800
31
0.0
0
LINE
8
0
10
131.531000
20
91.793800
30
0.0
11
131.531000
21
88.693300
31
0.0
0
LINE
8
0
10
131.531000
20
88.693300
30
0.0
11
130.732000
21
88.693300
31
0.0
0
LINE
8
0
10
130.732000
20
88.693300
30
0.0
11
130.732000
21
82.893300
31
0.0
0
LINE
8
0
10
130.732000
20
82.893300
30
0.0
11
131.531000
21
82.893300
31
0.0
0
LINE
8
0
10
131.531000
20
82.893300
30
0.0
11
131.531000
21
79.794100
31
0.0
0
LINE
8
0
10
131.531000
20
79.794100
30
0.0
11
130.732000
21
79.794100
31
0.0
0
LINE
8
0
10
130.732000
20
79.794100
30
0.0
11
130.732000
21
78.793600
31
0.0
0
LINE
8
0
10
130.732000
20
78.793600
30
0.0
11
116.731000
21
78.793600
31
0.0
0
LINE
8
0
10
116.731000
20
78.793600
30
0.0
11
116.731000
21
79.794100
31
0.0
0
LINE
8
0
10
116.731000
20
79.794100
30
0.0
11
115.932000
21
79.794100
31
0.0
0
LINE
8
0
10
134.982000
20
79.794100
30
0.0
11
134.982000
21
82.893300
31
0.0
0
LINE
8
0
10
134.982000
20
82.893300
30
0.0
11
135.781000
21
82.893300
31
0.0
0
LINE
8
0
10
135.781000
20
82.893300
30
0.0
11
135.781000
21
88.693300
31
0.0
0
LINE
8
0
10
135.781000
20
88.693300
30
0.0
11
134.982000
21
88.693300
31
0.0
0
LINE
8
0
10
134.982000
20
88.693300
30
0.0
11
134.982000
21
91.793800
31
0.0
0
LINE
8
0
10
134.982000
20
91.793800
30
0.0
11
135.781000
21
91.793800
31
0.0
0
LINE
8
0
10
135.781000
20
91.793800
30
0.0
11
135.781000
21
92.792900
31
0.0
0
LINE
8
0
10
135.781000
20
92.792900
30
0.0
11
149.782000
21
92.792900
31
0.0
0
LINE
8
0
10
149.782000
20
92.792900
30
0.0
11
149.782000
21
91.793800
31
0.0
0
LINE
8
0
10
149.782000
20
91.793800
30
0.0
11
150.581000
21
91.793800
31
0.0
0
LINE
8
0
10
150.581000
20
91.793800
30
0.0
11
150.581000
21
88.693300
31
0.0
0
LINE
8
0
10
150.581000
20
88.693300
30
0.0
11
149.782000
21
88.693300
31
0.0
0
LINE
8
0
10
149.782000
20
88.693300
30
0.0
11
149.782000
21
82.893300
31
0.0
0
LINE
8
0
10
149.782000
20
82.893300
30
0.0
11
150.581000
21
82.893300
31
0.0
0
LINE
8
0
10
150.581000
20
82.893300
30
0.0
11
150.581000
21
79.794100
31
0.0
0
LINE
8
0
10
150.581000
20
79.794100
30
0.0
11
149.782000
21
79.794100
31
0.0
0
LINE
8
0
10
149.782000
20
79.794100
30
0.0
11
149.782000
21
78.793600
31
0.0
0
LINE
8
0
10
149.782000
20
78.793600
30
0.0
11
135.781000
21
78.793600
31
0.0
0
LINE
8
0
10
135.781000
20
78.793600
30
0.0
11
135.781000
21
79.794100
31
0.0
0
LINE
8
0
10
135.781000
20
79.794100
30
0.0
11
134.982000
21
79.794100
31
0.0
0
LINE
8
0
10
154.032000
20
79.794100
30
0.0
11
154.032000
21
82.893300
31
0.0
0
LINE
8
0
10
154.032000
20
82.893300
30
0.0
11
154.831000
21
82.893300
31
0.0
0
LINE
8
0
10
154.831000
20
82.893300
30
0.0
11
154.831000
21
88.693300
31
0.0
0
LINE
8
0
10
154.831000
20
88.693300
30
0.0
11
154.032000
21
88.693300
31
0.0
0
LINE
8
0
10
154.032000
20
88.693300
30
0.0
11
154.032000
21
91.793800
31
0.0
0
LINE
8
0
10
154.032000
20
91.793800
30
0.0
11
154.831000
21
91.793800
31
0.0
0
LINE
8
0
10
154.831000
20
91.793800
30
0.0
11
154.831000
21
92.792900
31
0.0
0
LINE
8
0
10
154.831000
20
92.792900
30
0.0
11
168.830000
21
92.792900
31
0.0
0
LINE
8
0
10
168.830000
20
92.792900
30
0.0
11
168.830000
21
91.793800
31
0.0
0
LINE
8
0
10
168.830000
20
91.793800
30
0.0
11
169.631000
21
91.793800
31
0.0
0
LINE
8
0
10
169.631000
20
91.793800
30
0.0
11
169.631000
21
88.693300
31
0.0
0
LINE
8
0
10
169.631000
20
88.693300
30
0.0
11
168.830000
21
88.693300
31
0.0
0
LINE
8
0
10
168.830000
20
88.693300
30
0.0
11
168.830000
21
82.893300
31
0.0
0
LINE
8
0
10
168.830000
20
82.893300
30
0.0
11
169.631000
21
82.893300
31
0.0
0
LINE
8
0
10
169.631000
20
82.893300
30
0.0
11
169.631000
21
79.794100
31
0.0
0
LINE
8
0
10
169.631000
20
79.794100
30
0.0
11
168.830000
21
79.794100
31
0.0
0
LINE
8
0
10
168.830000
20
79.794100
30
0.0
11
168.830000
21
78.793600
31
0.0
0
LINE
8
0
10
168.830000
20
78.793600
30
0.0
11
154.831000
21
78.793600
31
0.0
0
LINE
8
0
10
154.831000
20
78.793600
30
0.0
11
154.831000
21
79.794100
31
0.0
0
LINE
8
0
10
154.831000
20
79.794100
30
0.0
11
154.032000
21
79.794100
31
0.0
0
LINE
8
0
10
173.080000
20
79.794100
30
0.0
11
173.080000
21
82.893300
31
0.0
0
LINE
8
0
10
173.080000
20
82.893300
30
0.0
11
173.881000
21
82.893300
31
0.0
0
LINE
8
0
10
173.881000
20
82.893300
30
0.0
11
173.881000
21
88.693300
31
0.0
0
LINE
8
0
10
173.881000
20
88.693300
30
0.0
11
173.080000
21
88.693300
31
0.0
0
LINE
8
0
10
173.080000
20
88.693300
30
0.0
11
173.080000
21
91.793800
31
0.0
0
LINE
8
0
10
173.080000
20
91.793800
30
0.0
11
173.881000
21
91.793800
31
0.0
0
LINE
8
0
10
173.881000
20
91.793800
30
0.0
11
173.881000
21
92.792900
31
0.0
0
LINE
8
0
10
173.881000
20
92.792900
30
0.0
11
187.882000
21
92.792900
31
0.0
0
LINE
8
0
10
187.882000
20
92.792900
30
0.0
11
187.882000
21
91.793800
31
0.0
0
LINE
8
0
10
187.882000
20
91.793800
30
0.0
11
188.681000
21
91.793800
31
0.0
0
LINE
8
0
10
188.681000
20
91.793800
30
0.0
11
188.681000
21
88.693300
31
0.0
0
LINE
8
0
10
188.681000
20
88.693300
30
0.0
11
187.882000
21
88.693300
31
0.0
0
LINE
8
0
10
187.882000
20
88.693300
30
0.0
11
187.882000
21
82.893300
31
0.0
0
LINE
8
0
10
187.882000
20
82.893300
30
0.0
11
188.681000
21
82.893300
31
0.0
0
LINE
8
0
10
188.681000
20
82.893300
30
0.0
11
188.681000
21
79.794100
31
0.0
0
LINE
8
0
10
188.681000
20
79.794100
30
0.0
11
187.882000
21
79.794100
31
0.0
0
LINE
8
0
10
187.882000
20
79.794100
30
0.0
11
187.882000
21
78.793600
31
0.0
0
LINE
8
0
10
187.882000
20
78.793600
30
0.0
11
173.881000
21
78.793600
31
0.0
0
LINE
8
0
10
173.881000
20
78.793600
30
0.0
11
173.881000
21
79.794100
31
0.0
0
LINE
8
0
10
173.881000
20
79.794100
30
0.0
11
173.080000
21
79.794100
31
0.0
0
LINE
8
0
10
192.132000
20
79.794100
30
0.0
11
192.132000
21
82.893300
31
0.0
0
LINE
8
0
10
192.132000
20
82.893300
30
0.0
11
192.931000
21
82.893300
31
0.0
0
LINE
8
0
10
192.931000
20
82.893300
30
0.0
11
192.931000
21
88.693300
31
0.0
0
LINE
8
0
10
192.931000
20
88.693300
30
0.0
11
192.132000
21
88.693300
31
0.0
0
LINE
8
0
10
192.132000
20
88.693300
30
0.0
11
192.132000
21
91.793800
31
0.0
0
LINE
8
0
10
192.132000
20
91.793800
30
0.0
11
192.931000
21
91.793800
31
0.0
0
LINE
8
0
10
192.931000
20
91.793800
30
0.0
11
192.931000
21
92.792900
31
0.0
0
LINE
8
0
10
192.931000
20
92.792900
30
0.0
11
206.930000
21
92.792900
31
0.0
0
LINE
8
0
10
206.930000
20
92.792900
30
0.0
11
206.930000
21
91.793800
31
0.0
0
LINE
8
0
10
206.930000
20
91.793800
30
0.0
11
207.731000
21
91.793800
31
0.0
0
LINE
8
0
10
207.731000
20
91.793800
30
0.0
11
207.731000
21
88.693300
31
0.0
0
LINE
8
0
10
207.731000
20
88.693300
30
0.0
11
206.930000
21
88.693300
31
0.0
0
LINE
8
0
10
206.930000
20
88.693300
30
0.0
11
206.930000
21
82.893300
31
0.0
0
LINE
8
0
10
206.930000
20
82.893300
30
0.0
11
207.731000
21
82.893300
31
0.0
0
LINE
8
0
10
207.731000
20
82.893300
30
0.0
11
207.731000
21
79.794100
31
0.0
0
LINE
8
0
10
207.731000
20
79.794100
30
0.0
11
206.930000
21
79.794100
31
0.0
0
LINE
8
0
10
206.930000
20
79.794100
30
0.0
11
206.930000
21
78.793600
31
0.0
0
LINE
8
0
10
206.930000
20
78.793600
30
0.0
11
192.931000
21
78.793600
31
0.0
0
LINE
8
0
10
192.931000
20
78.793600
30
0.0
11
192.931000
21
79.794100
31
0.0
0
LINE
8
0
10
192.931000
20
79.794100
30
0.0
11
192.132000
21
79.794100
31
0.0
0
LINE
8
0
10
211.180000
20
79.794100
30
0.0
11
211.180000
21
82.893300
31
0.0
0
LINE
8
0
10
211.180000
20
82.893300
30
0.0
11
211.981000
21
82.893300
31
0.0
0
LINE
8
0
10
211.981000
20
82.893300
30
0.0
11
211.981000
21
88.693300
31
0.0
0
LINE
8
0
10
211.981000
20
88.693300
30
0.0
11
211.180000
21
88.693300
31
0.0
0
LINE
8
0
10
211.180000
20
88.693300
30
0.0
11
211.180000
21
91.793800
31
0.0
0
LINE
8
0
10
211.180000
20
91.793800
30
0.0
11
211.981000
21
91.793800
31
0.0
0
LINE
8
0
10
211.981000
20
91.793800
30
0.0
11
211.981000
21
92.792900
31
0.0
0
LINE
8
0
10
211.981000
20
92.792900
30
0.0
11
225.982000
21
92.792900
31
0.0
0
LINE
8
0
10
225.982000
20
92.792900
30
0.0
11
225.982000
21
91.793800
31
0.0
0
LINE
8
0
10
225.982000
20
91.793800
30
0.0
11
226.781000
21
91.793800
31
0.0
0
LINE
8
0
10
226.781000
20
91.793800
30
0.0
11
226.781000
21
88.693300
31
0.0
0
LINE
8
0
10
226.781000
20
88.693300
30
0.0
11
225.982000
21
88.693300
31
0.0
0
LINE
8
0
10
225.982000
20
88.693300
30
0.0
11
225.982000
21
82.893300
31
0.0
0
LINE
8
0
10
225.982000
20
82.893300
30
0.0
11
226.781000
21
82.893300
31
0.0
0
LINE
8
0
10
226.781000
20
82.893300
30
0.0
11
226.781000
21
79.794100
31
0.0
0
LINE
8
0
10
226.781000
20
79.794100
30
0.0
11
225.982000
21
79.794100
31
0.0
0
LINE
8
0
10
225.982000
20
79.794100
30
0.0
11
225.982000
21
78.793600
31
0.0
0
LINE
8
0
10
225.982000
20
78.793600
30
0.0
11
211.981000
21
78.793600
31
0.0
0
LINE
8
0
10
211.981000
20
78.793600
30
0.0
11
211.981000
21
79.794100
31
0.0
0
LINE
8
0
10
211.981000
20
79.794100
30
0.0
11
211.180000
21
79.794100
31
0.0
0
LINE
8
0
10
230.232000
20
79.794100
30
0.0
11
230.232000
21
82.893300
31
0.0
0
LINE
8
0
10
230.232000
20
82.893300
30
0.0
11
231.031000
21
82.893300
31
0.0
0
LINE
8
0
10
231.031000
20
82.893300
30
0.0
11
231.031000
21
88.693300
31
0.0
0
LINE
8
0
10
231.031000
20
88.693300
30
0.0
11
230.232000
21
88.693300
31
0.0
0
LINE
8
0
10
230.232000
20
88.693300
30
0.0
11
230.232000
21
91.793800
31
0.0
0
LINE
8
0
10
230.232000
20
91.793800
30
0.0
11
231.031000
21
91.793800
31
0.0
0
LINE
8
0
10
231.031000
20
91.793800
30
0.0
11
231.031000
21
92.792900
31
0.0
0
LINE
8
0
10
231.031000
20
92.792900
30
0.0
11
245.032000
21
92.792900
31
0.0
0
LINE
8
0
10
245.032000
20
92.792900
30
0.0
11
245.032000
21
91.793800
31
0.0
0
LINE
8
0
10
245.032000
20
91.793800
30
0.0
11
245.831000
21
91.793800
31
0.0
0
LINE
8
0
10
245.831000
20
91.793800
30
0.0
11
245.831000
21
88.693300
31
0.0
0
LINE
8
0
10
245.831000
20
88.693300
30
0.0
11
245.032000
21
88.693300
31
0.0
0
LINE
8
0
10
245.032000
20
88.693300
30
0.0
11
245.032000
21
82.893300
31
0.0
0
LINE
8
0
10
245.032000
20
82.893300
30
0.0
11
245.831000
21
82.893300
31
0.0
0
LINE
8
0
10
245.831000
20
82.893300
30
0.0
11
245.831000
21
79.794100
31
0.0
0
LINE
8
0
10
245.831000
20
79.794100
30
0.0
11
245.032000
21
79.794100
31
0.0
0
LINE
8
0
10
245.032000
20
79.794100
30
0.0
11
245.032000
21
78.793600
31
0.0
0
LINE
8
0
10
245.032000
20
78.793600
30
0.0
11
231.031000
21
78.793600
31
0.0
0
LINE
8
0
10
231.031000
20
78.793600
30
0.0
11
231.031000
21
79.794100
31
0.0
0
LINE
8
0
10
231.031000
20
79.794100
30
0.0
11
230.232000
21
79.794100
31
0.0
0
LINE
8
0
10
49.132040
20
10.116775
30
0.0
11
49.118352
21
10.325617
31
0.0
0
LINE
8
0
10
49.118352
20
10.325617
30
0.0
11
49.077521
21
10.530885
31
0.0
0
LINE
8
0
10
49.077521
20
10.530885
30
0.0
11
49.010247
21
10.729068
31
0.0
0
LINE
8
0
10
49.010247
20
10.729068
30
0.0
11
48.917681
21
10.916775
31
0.0
0
LINE
8
0
10
48.917681
20
10.916775
30
0.0
11
48.801405
21
11.090793
31
0.0
0
LINE
8
0
10
48.801405
20
11.090793
30
0.0
11
48.663411
21
11.248146
31
0.0
0
LINE
8
0
10
48.663411
20
11.248146
30
0.0
11
48.506058
21
11.386140
31
0.0
0
LINE
8
0
10
48.506058
20
11.386140
30
0.0
11
48.332040
21
11.502416
31
0.0
0
LINE
8
0
10
48.332040
20
11.502416
30
0.0
11
48.144333
21
11.594982
31
0.0
0
LINE
8
0
10
48.144333
20
11.594982
30
0.0
11
47.946150
21
11.662256
31
0.0
0
LINE
8
0
10
47.946150
20
11.662256
30
0.0
11
47.740882
21
11.703087
31
0.0
0
LINE
8
0
10
47.740882
20
11.703087
30
0.0
11
47.532040
21
11.716775
31
0.0
0
LINE
8
0
10
47.532040
20
11.716775
30
0.0
11
47.323198
21
11.703087
31
0.0
0
LINE
8
0
10
47.323198
20
11.703087
30
0.0
11
47.117930
21
11.662256
31
0.0
0
LINE
8
0
10
47.117930
20
11.662256
30
0.0
11
46.919747
21
11.594982
31
0.0
0
LINE
8
0
10
46.919747
20
11.594982
30
0.0
11
46.732040
21
11.502416
31
0.0
0
LINE
8
0
10
46.732040
20
11.502416
30
0.0
11
46.558022
21
11.386140
31
0.0
0
LINE
8
0
10
46.558022
20
11.386140
30
0.0
11
46.400669
21
11.248146
31
0.0
0
LINE
8
0
10
46.400669
20
11.248146
30
0.0
11
46.262675
21
11.090793
31
0.0
0
LINE
8
0
10
46.262675
20
11.090793
30
0.0
11
46.146399
21
10.916775
31
0.0
0
LINE
8
0
10
46.146399
20
10.916775
30
0.0
11
46.053833
21
10.729068
31
0.0
0
LINE
8
0
10
46.053833
20
10.729068
30
0.0
11
45.986559
21
10.530885
31
0.0
0
LINE
8
0
10
45.986559
20
10.530885
30
0.0
11
45.945728
21
10.325617
31
0.0
0
LINE
8
0
10
45.945728
20
10.325617
30
0.0
11
45.932040
21
10.116775
31
0.0
0
LINE
8
0
10
45.932040
20
10.116775
30
0.0
11
45.945728
21
9.907933
31
0.0
0
LINE
8
0
10
45.945728
20
9.907933
30
0.0
11
45.986559
21
9.702665
31
0.0
0
LINE
8
0
10
45.986559
20
9.702665
30
0.0
11
46.053833
21
9.504482
31
0.0
0
LINE
8
0
10
46.053833
20
9.504482
30
0.0
11
46.146399
21
9.316775
31
0.0
0
LINE
8
0
10
46.146399
20
9.316775
30
0.0
11
46.262675
21
9.142757
31
0.0
0
LINE
8
0
10
46.262675
20
9.142757
30
0.0
11
46.400669
21
8.985404
31
0.0
0
LINE
8
0
10
46.400669
20
8.985404
30
0.0
11
46.558022
21
8.847410
31
0.0
0
LINE
8
0
10
46.558022
20
8.847410
30
0.0
11
46.732040
21
8.731134
31
0.0
0
LINE
8
0
10
46.732040
20
8.731134
30
0.0
11
46.919747
21
8.638568
31
0.0
0
LINE
8
0
10
46.919747
20
8.638568
30
0.0
11
47.117930
21
8.571294
31
0.0
0
LINE
8
0
10
47.117930
20
8.571294
30
0.0
11
47.323198
21
8.530463
31
0.0
0
LINE
8
0
10
47.323198
20
8.530463
30
0.0
11
47.532040
21
8.516775
31
0.0
0
LINE
8
0
10
47.532040
20
8.516775
30
0.0
11
47.740882
21
8.530463
31
0.0
0
LINE
8
0
10
47.740882
20
8.530463
30
0.0
11
47.946150
21
8.571294
31
0.0
0
LINE
8
0
10
47.946150
20
8.571294
30
0.0
11
48.144333
21
8.638568
31
0.0
0
LINE
8
0
10
48.144333
20
8.638568
30
0.0
11
48.332040
21
8.731134
31
0.0
0
LINE
8
0
10
48.332040
20
8.731134
30
0.0
11
48.506058
21
8.847410
31
0.0
0
LINE
8
0
10
48.506058
20
8.847410
30
0.0
11
48.663411
21
8.985404
31
0.0
0
LINE
8
0
10
48.663411
20
8.985404
30
0.0
11
48.801405
21
9.142757
31
0.0
0
LINE
8
0
10
48.801405
20
9.142757
30
0.0
11
48.917681
21
9.316775
31
0.0
0
LINE
8
0
10
48.917681
20
9.316775
30
0.0
11
49.010247
21
9.504482
31
0.0
0
LINE
8
0
10
49.010247
20
9.504482
30
0.0
11
49.077521
21
9.702665
31
0.0
0
LINE
8
0
10
49.077521
20
9.702665
30
0.0
11
49.118352
21
9.907933
31
0.0
0
LINE
8
0
10
49.118352
20
9.907933
30
0.0
11
49.132040
21
10.116775
31
0.0
0
LINE
8
0
10
239.632040
20
10.116775
30
0.0
11
239.618352
21
10.325617
31
0.0
0
LINE
8
0
10
239.618352
20
10.325617
30
0.0
11
239.577521
21
10.530885
31
0.0
0
LINE
8
0
10
239.577521
20
10.530885
30
0.0
11
239.510247
21
10.729068
31
0.0
0
LINE
8
0
10
239.510247
20
10.729068
30
0.0
11
239.417681
21
10.916775
31
0.0
0
LINE
8
0
10
239.417681
20
10.916775
30
0.0
11
239.301405
21
11.090793
31
0.0
0
LINE
8
0
10
239.301405
20
11.090793
30
0.0
11
239.163411
21
11.248146
31
0.0
0
LINE
8
0
10
239.163411
20
11.248146
30
0.0
11
239.006058
21
11.386140
31
0.0
0
LINE
8
0
10
239.006058
20
11.386140
30
0.0
11
238.832040
21
11.502416
31
0.0
0
LINE
8
0
10
238.832040
20
11.502416
30
0.0
11
238.644333
21
11.594982
31
0.0
0
LINE
8
0
10
238.644333
20
11.594982
30
0.0
11
238.446150
21
11.662256
31
0.0
0
LINE
8
0
10
238.446150
20
11.662256
30
0.0
11
238.240882
21
11.703087
31
0.0
0
LINE
8
0
10
238.240882
20
11.703087
30
0.0
11
238.032040
21
11.716775
31
0.0
0
LINE
8
0
10
238.032040
20
11.716775
30
0.0
11
237.823198
21
11.703087
31
0.0
0
LINE
8
0
10
237.823198
20
11.703087
30
0.0
11
237.617930
21
11.662256
31
0.0
0
LINE
8
0
10
237.617930
20
11.662256
30
0.0
11
237.419747
21
11.594982
31
0.0
0
LINE
8
0
10
237.419747
20
11.594982
30
0.0
11
237.232040
21
11.502416
31
0.0
0
LINE
8
0
10
237.232040
20
11.502416
30
0.0
11
237.058022
21
11.386140
31
0.0
0
LINE
8
0
10
237.058022
20
11.386140
30
0.0
11
236.900669
21
11.248146
31
0.0
0
LINE
8
0
10
236.900669
20
11.248146
30
0.0
11
236.762675
21
11.090793
31
0.0
0
LINE
8
0
10
236.762675
20
11.090793
30
0.0
11
236.646399
21
10.916775
31
0.0
0
LINE
8
0
10
236.646399
20
10.916775
30
0.0
11
236.553833
21
10.729068
31
0.0
0
LINE
8
0
10
236.553833
20
10.729068
30
0.0
11
236.486559
21
10.530885
31
0.0
0
LINE
8
0
10
236.486559
20
10.530885
30
0.0
11
236.445728
21
10.325617
31
0.0
0
LINE
8
0
10
236.445728
20
10.325617
30
0.0
11
236.432040
21
10.116775
31
0.0
0
LINE
8
0
10
236.432040
20
10.116775
30
0.0
11
236.445728
21
9.907933
31
0.0
0
LINE
8
0
10
236.445728
20
9.907933
30
0.0
11
236.486559
21
9.702665
31
0.0
0
LINE
8
0
10
236.486559
20
9.702665
30
0.0
11
236.553833
21
9.504482
31
0.0
0
LINE
8
0
10
236.553833
20
9.504482
30
0.0
11
236.646399
21
9.316775
31
0.0
0
LINE
8
0
10
236.646399
20
9.316775
30
0.0
11
236.762675
21
9.142757
31
0.0
0
LINE
8
0
10
236.762675
20
9.142757
30
0.0
11
236.900669
21
8.985404
31
0.0
0
LINE
8
0
10
236.900669
20
8.985404
30
0.0
11
237.058022
21
8.847410
31
0.0
0
LINE
8
0
10
237.058022
20
8.847410
30
0.0
11
237.232040
21
8.731134
31
0.0
0
LINE
8
0
10
237.232040
20
8.731134
30
0.0
11
237.419747
21
8.638568
31
0.0
0
LINE
8
0
10
237.419747
20
8.638568
30
0.0
11
237.617930
21
8.571294
31
0.0
0
LINE
8
0
10
237.617930
20
8.571294
30
0.0
11
237.823198
21
8.530463
31
0.0
0
LINE
8
0
10
237.823198
20
8.530463
30
0.0
11
238.032040
21
8.516775
31
0.0
0
LINE
8
0
10
238.032040
20
8.516775
30
0.0
11
238.240882
21
8.530463
31
0.0
0
LINE
8
0
10
238.240882
20
8.530463
30
0.0
11
238.446150
21
8.571294
31
0.0
0
LINE
8
0
10
238.446150
20
8.571294
30
0.0
11
238.644333
21
8.638568
31
0.0
0
LINE
8
0
10
238.644333
20
8.638568
30
0.0
11
238.832040
21
8.731134
31
0.0
0
LINE
8
0
10
238.832040
20
8.731134
30
0.0
11
239.006058
21
8.847410
31
0.0
0
LINE
8
0
10
239.006058
20
8.847410
30
0.0
11
239.163411
21
8.985404
31
0.0
0
LINE
8
0
10
239.163411
20
8.985404
30
0.0
11
239.301405
21
9.142757
31
0.0
0
LINE
8
0
10
239.301405
20
9.142757
30
0.0
11
239.417681
21
9.316775
31
0.0
0
LINE
8
0
10
239.417681
20
9.316775
30
0.0
11
239.510247
21
9.504482
31
0.0
0
LINE
8
0
10
239.510247
20
9.504482
30
0.0
11
239.577521
21
9.702665
31
0.0
0
LINE
8
0
10
239.577521
20
9.702665
30
0.0
11
239.618352
21
9.907933
31
0.0
0
LINE
8
0
10
239.618352
20
9.907933
30
0.0
11
239.632040
21
10.116775
31
0.0
0
ENDSEC
0
EOF
